<svg width="517" height="629" viewBox="0 0 517 629" fill="none" xmlns="http://www.w3.org/2000/svg">
<path d="M99.0618 616.9C77.9969 615.181 61.2504 610.087 47.201 594.729C17.1218 561.849 31.046 525.346 32.8677 481.037C36.696 387.97 16.8664 256.963 7.7504 164.257C5.92616 145.715 0.534203 129.713 0.0312322 111.087C-0.489981 91.7516 5.50919 66.5202 18.2737 52.8231C33.6495 36.3235 65.3054 22.2061 78.7345 19.3084C128.899 8.4806 184.02 34.7767 239.529 35.5501C280.637 36.1225 309.111 26.0113 345.856 13.3789C377.966 2.33969 414.656 -8.27673 455.311 9.51182C484.76 23.6911 504.138 44.728 508.736 63.9087C513.559 84.033 510.575 112.074 509.778 132.743C506.89 207.596 492.721 203.239 493.36 278.145C494.037 357.629 540.866 507.125 500.829 570.707C490.54 587.047 476.848 602.01 459.051 609.793C445.392 615.766 430.17 617.171 415.243 617.566C347.6 619.352 298.335 615.011 230.668 615.614C200.701 615.882 187.434 614.859 157.568 612.391C148.567 611.646 113.265 618.063 99.0618 616.903V616.9Z" fill="url(#paint0_linear_697_1078)"/>
<path d="M156.004 436.566V612.389" stroke="#2D2624" stroke-width="25" stroke-linecap="round" stroke-linejoin="round"/>
<path d="M295.429 436.566V616.256" stroke="#2D2624" stroke-width="25" stroke-linecap="round" stroke-linejoin="round"/>
<path d="M156.004 574.492H295.429" stroke="#2D2624" stroke-width="25" stroke-linecap="round" stroke-linejoin="round"/>
<path d="M156.004 514.938H295.429" stroke="#2D2624" stroke-width="25" stroke-linecap="round" stroke-linejoin="round"/>
<path d="M156.004 453.323H295.429" stroke="#2D2624" stroke-width="25" stroke-linecap="round" stroke-linejoin="round"/>
<path d="M222.582 212.97C214.93 207.494 206.588 200.879 205.712 191.577C205.408 188.347 206.077 185.088 207.18 182.03C211.626 169.7 223.637 160.388 236.805 159.07C239.484 158.802 242.249 158.849 244.788 159.741C248.804 161.151 250.492 168.697 252.168 172.574C253.844 176.452 258.683 187.176 258.683 191.394C258.683 198.87 256.596 200.696 249.953 208.022C243.31 215.349 228.466 219.139 219.551 214.769" fill="#F4B78A"/>
<path d="M214.641 215.112C210.13 215.447 208.253 214.746 205.78 211.245C203.938 208.636 202.241 207.514 201.089 204.542C199.388 200.146 199.054 198.135 196.398 194.229C192.476 188.465 191.186 184.433 190.665 175.667C190.516 173.19 191.934 170.089 192.484 167.668C193.034 165.247 197.308 160.153 198.744 158.91C202.914 155.301 205.238 153.525 209.429 150.66C217.896 144.87 226.629 143.957 234.968 148.082C239.138 146.536 241.483 146.536 245.653 148.082C250.8 149.993 251.715 152.426 251.908 156.848C252.1 161.269 250.49 163.37 247.217 166.387C244.126 169.235 242.56 171.427 239.696 174.5C236.831 177.573 235.333 182.636 238.028 185.856C238.551 186.482 239.177 187.047 239.505 187.795C239.987 188.893 245.004 190.775 243.44 200.288C242.528 205.831 242.646 206.932 237.056 210.987C233.147 213.823 224.127 214.019 219.595 214.854C218.185 215.114 216.142 215.001 214.643 215.112H214.641Z" fill="#321A34"/>
<path d="M333.021 129.957C333.738 128.748 334.65 126.814 335.706 126.992C338.82 128.361 333.999 135.708 333.754 140.13C336.865 137.255 341.817 131.068 342.484 131.808C345.987 133.388 340.337 140.491 337.955 144.257C339.888 143.489 341.822 142.721 343.753 141.952C344.189 141.78 344.673 141.607 345.108 141.772C346.06 142.13 345.817 143.517 345.39 144.432C342.145 151.403 338.309 158.106 333.939 164.448C330.348 160.46 326.816 158.514 322.008 156.593C320.828 156.121 319.139 155 318.099 154.273C315.196 152.244 315.347 147.083 315.12 143.574C315.032 142.187 315.535 140.233 316.924 140.436C318.735 140.705 317.81 143.829 319.157 145.056C320.955 140.751 322.751 136.446 324.549 132.14C325.039 130.97 326.285 129.562 327.296 130.341C327.828 130.751 327.838 131.529 327.799 132.194C327.661 134.533 327.523 136.874 327.385 139.212C328.821 135.891 331.174 133.074 333.019 129.957H333.021Z" fill="#F4B78A"/>
<path d="M133.579 352.078C135.237 349.227 134.598 345.177 137.079 342.988C139.503 340.846 143.282 341.851 146.325 342.973C149.424 344.115 152.52 345.254 155.619 346.396L156.135 347.755C157.109 350.771 156.93 353.027 157.49 356.146C157.735 357.51 157.836 359.178 156.526 359.916C155.84 360.3 154.996 360.246 154.3 359.877C152.914 359.14 152.348 357.701 151.827 356.332C151.444 358.843 151.248 360.743 148.838 361.937C145.617 363.53 140.209 362.47 137.348 360.31C136.136 359.395 134.947 358.379 134.244 357.044C133.54 355.708 132.584 353.63 133.462 352.398C134.106 351.498 135.742 350.186 136.85 350.078C139.456 349.82 141.374 349.516 144.147 350.078C146.92 350.64 152.035 353.208 151.965 356.007" fill="#E0A17A"/>
<path d="M238.002 436.443C236.454 438.26 234.908 440.075 233.36 441.893C232.902 442.431 232.43 442.996 232.253 443.679C231.937 444.893 232.623 446.123 233.337 447.157C237.71 453.489 244.097 458.253 250.969 461.806C254.691 463.729 259.166 465.335 262.976 463.589C263.453 463.37 263.927 463.082 264.182 462.628C264.651 461.795 264.229 460.767 263.807 459.911C260.938 454.105 257.743 447.948 252.025 444.824C247.305 442.243 242.667 439.036 238.489 435.664" fill="#553857"/>
<path d="M169.989 500.138C169.444 503.49 168.902 506.841 168.357 510.193C168.224 511.018 168.091 511.871 168.292 512.683C168.818 514.789 171.271 515.741 173.421 516.169C182.821 518.035 192.528 516.164 201.9 514.153C202.786 513.962 203.708 513.756 204.412 513.189C205.116 512.621 205.522 511.585 205.082 510.801C204.785 510.273 204.191 509.984 203.617 509.767C199.541 508.218 195.515 508.368 191.833 506.045C190.553 505.238 188.713 504.366 187.376 503.657C182.224 500.92 178.646 500.401 170.723 500.115" fill="#5B3A63"/>
<path d="M383.444 125.439C383.027 125.514 382.61 125.617 382.198 125.749C379.467 126.628 377.345 128.726 375.334 130.753C369.577 136.556 363.82 142.359 358.063 148.162C359.669 141.253 360.63 136.1 361.965 130.057C363.296 124.011 363.241 117.03 359.059 112.43C353.002 105.769 345.856 104.387 334.775 101.149C343.06 100.966 351.314 99.4731 359.126 96.743C361.081 96.0598 363.085 95.2503 364.474 93.7267C366.001 92.0535 366.575 89.7539 367.057 87.5497C368.766 79.715 368.654 71.7462 369.303 63.7568C372.879 72.1381 376.454 80.5219 380.027 88.9031C380.389 89.7513 380.793 90.6511 381.575 91.146C382.542 91.7596 383.796 91.5843 384.927 91.3884C395.619 89.5348 406.312 87.6811 417.002 85.8275C410.935 91.3033 404.868 96.7791 398.801 102.255C397.3 103.611 395.679 105.233 395.737 107.241C395.773 108.468 396.448 109.577 397.102 110.621C402.265 118.852 407.427 127.087 412.587 135.318C406.588 132.802 400.589 130.286 394.587 127.77C391.043 126.282 387.147 124.774 383.438 125.439H383.444Z" fill="white"/>
<path d="M382.907 123.511C377.374 124.625 373.514 129.735 369.77 133.509C365.391 137.923 361.013 142.334 356.635 146.747L360.01 148.691C361.128 143.865 362.113 139.013 363.14 134.166C364.081 129.712 365.133 125.28 364.599 120.699C364.086 116.29 362.272 112.57 359.012 109.513C356.249 106.922 353.002 105.063 349.497 103.64C344.91 101.778 340.058 100.603 335.312 99.2184C335.132 100.526 334.955 101.835 334.775 103.142C343.357 102.926 351.981 101.438 360.057 98.5249C361.821 97.8882 363.538 97.1508 365 95.9649C366.548 94.7094 367.518 93.0053 368.175 91.162C369.579 87.2228 369.996 82.8143 370.366 78.6791C370.809 73.7112 370.927 68.7227 371.323 63.7522C370.001 63.9301 368.678 64.1054 367.356 64.2833C371 72.8244 374.583 81.3912 378.286 89.9065C379.021 91.5977 380.163 93.0698 382.088 93.4462C384.098 93.838 386.295 93.1677 388.267 92.8249C392.849 92.0308 397.433 91.2368 402.014 90.4428C407.19 89.5456 412.368 88.6484 417.544 87.7513L415.579 84.4127C412.293 87.3775 409.007 90.3448 405.72 93.3095C402.554 96.166 399.119 98.891 396.187 101.982C394.908 103.33 393.844 104.944 393.735 106.842C393.62 108.786 394.644 110.472 395.637 112.06C398.035 115.888 400.438 119.714 402.838 123.542C405.509 127.804 408.18 132.065 410.852 136.324C411.772 135.414 412.694 134.502 413.614 133.592C408.405 131.405 403.192 129.222 397.983 127.036C393.154 125.012 388.291 122.674 382.909 123.509C381.83 123.676 381.234 125.009 381.499 125.966C381.815 127.103 382.902 127.531 383.983 127.36C388.531 126.654 393.326 129.384 397.365 131.081C402.103 133.068 406.838 135.053 411.576 137.041C413.275 137.753 415.519 136.188 414.339 134.308C411.532 129.83 408.722 125.352 405.916 120.877C404.467 118.567 403.018 116.254 401.569 113.944C400.936 112.934 400.3 111.923 399.666 110.91C399.07 109.959 398.28 108.969 397.915 107.899C397.261 105.983 399.359 104.46 400.612 103.325C402.632 101.497 404.657 99.6748 406.679 97.8495C410.596 94.3124 414.516 90.7779 418.433 87.2408C420.051 85.7791 418.295 83.5851 416.468 83.9022C405.783 85.7559 395.108 87.8028 384.392 89.4631C383.54 89.5946 382.782 89.7854 382.287 88.9784C381.64 87.9214 381.244 86.6608 380.762 85.5264C379.751 83.1546 378.74 80.7828 377.726 78.4084C375.568 73.3477 373.41 68.287 371.25 63.2263C370.379 61.187 367.471 61.3907 367.283 63.7574C366.877 68.8928 366.765 74.0489 366.283 79.1792C366.035 81.814 365.67 84.4307 365.11 87.0165C364.685 88.9681 364.25 91.1491 362.762 92.6057C361.274 94.0623 359.119 94.6553 357.208 95.2817C354.74 96.0938 352.233 96.7822 349.698 97.3468C344.79 98.4373 339.802 99.0225 334.778 99.1488C332.508 99.2055 332.029 102.428 334.241 103.073C341.202 105.102 349.137 106.54 354.889 111.227C357.909 113.689 359.934 116.579 360.528 120.464C361.123 124.349 360.224 128.518 359.379 132.483C358.305 137.536 357.284 142.597 356.119 147.629C355.681 149.521 358.032 151.048 359.494 149.573C363.632 145.402 367.771 141.23 371.907 137.059C373.879 135.071 375.826 133.053 377.833 131.099C379.618 129.364 381.476 127.866 383.98 127.363C386.527 126.85 385.448 122.998 382.907 123.509V123.511Z" fill="white"/>
<path d="M399.802 206.217C395.452 209.053 392.82 211.562 388.471 214.398C392.766 214.209 395.632 213.952 398.937 213.66C399.518 213.609 400.115 213.354 400.646 213.588C401.295 213.872 401.566 214.619 401.772 215.292C403.208 219.971 404.647 224.651 406.082 229.33C407.279 226.28 408.475 223.227 409.671 220.178C410.007 219.319 410.359 218.437 410.998 217.767C412.337 216.362 414.649 215.645 416.483 214.985C420.166 213.665 422.477 213.439 427.424 212.41C424.505 210.956 421.583 209.502 418.665 208.048C417.828 207.633 416.942 207.169 416.496 206.357C416.1 205.637 416.121 204.771 416.176 203.951C416.343 201.394 416.72 198.849 417.304 196.351C413.88 197.97 411.138 201.43 407.774 200.409C403.977 199.257 401.321 197.468 398.298 194.975C399.023 198.744 398.715 202.536 399.851 206.138" fill="white"/>
<path d="M398.783 204.491C394.884 207.057 391.35 210.106 387.452 212.672C385.883 213.703 386.349 216.49 388.471 216.394C390.67 216.294 392.867 216.162 395.061 215.987C395.961 215.915 396.862 215.837 397.761 215.758C398.309 215.709 398.942 215.727 399.471 215.582C399.995 215.611 400.047 215.515 399.63 215.299C399.69 215.41 399.737 215.526 399.768 215.649C399.896 216.807 400.521 218.091 400.863 219.207C401.204 220.323 401.556 221.465 401.902 222.595C402.645 225.015 403.388 227.434 404.131 229.854C404.746 231.855 407.326 231.638 408.027 229.854C409.043 227.261 410.059 224.667 411.076 222.074C411.467 221.076 411.777 219.836 412.551 219.045C413.286 218.292 414.412 217.854 415.386 217.49C419.486 215.954 423.681 215.214 427.955 214.329C429.621 213.986 429.962 211.437 428.437 210.676C426.746 209.836 425.057 208.993 423.366 208.152C421.873 207.41 420.158 206.783 418.787 205.837C417.666 205.064 418.227 203.205 418.352 202.029C418.537 200.294 418.855 198.577 419.243 196.876C419.644 195.12 417.865 193.834 416.277 194.62C414.742 195.378 413.398 196.414 411.967 197.337C410.93 198.008 409.765 198.784 408.478 198.523C405.22 197.866 402.218 195.602 399.721 193.558C398.134 192.259 395.979 193.486 396.346 195.502C397.019 199.209 396.813 203.022 397.899 206.665C398.634 209.124 402.533 208.078 401.796 205.603C400.711 201.978 400.912 198.142 400.242 194.44L396.867 196.384C399.997 198.949 403.661 201.661 407.75 202.452C411.931 203.262 414.917 199.753 418.321 198.072C417.333 197.319 416.343 196.569 415.355 195.816C414.886 197.868 414.542 199.941 414.32 202.032C414.109 204.015 413.815 206.203 415.128 207.892C416.337 209.447 418.469 210.179 420.184 211.032C422.258 212.066 424.333 213.097 426.407 214.131L426.889 210.478C422.055 211.475 417.27 212.285 412.723 214.286C410.052 215.461 408.678 217.224 407.638 219.87C406.468 222.842 405.306 225.82 404.141 228.792H408.037C407.195 226.049 406.354 223.306 405.509 220.563C405.087 219.192 404.667 217.82 404.245 216.448C403.87 215.224 403.596 213.814 402.773 212.79C401.157 210.787 398.267 211.723 396.039 211.909C393.521 212.12 391.001 212.28 388.479 212.393L389.497 216.116C393.396 213.551 396.93 210.501 400.829 207.936C402.984 206.518 400.962 203.056 398.791 204.486L398.783 204.491Z" fill="white"/>
<path d="M109.225 107.22C111.527 106.078 115.431 105.14 117.729 103.997C118.143 103.791 118.581 103.564 118.805 103.162C119.063 102.698 118.967 102.126 118.863 101.608C117.875 96.6655 116.887 91.7234 115.9 86.7812C119.199 88.6761 122.165 91.1382 124.625 94.023C125.169 94.6624 125.751 95.361 126.571 95.5647C127.369 95.7632 128.195 95.4383 128.953 95.1238C132.333 93.7111 135.716 92.2983 139.096 90.8881C138.927 94.4303 135.101 97.2868 135.672 100.79C136.216 104.126 139.453 105.421 142.609 107.916C143.086 108.295 144.861 109.486 144.668 110.058C144.53 110.471 143.284 110.574 142.844 110.574C140.759 110.574 139.977 110.832 138.413 110.832C135.794 110.832 134.056 110.383 132.68 111.347C131.539 112.149 129.756 115.973 129.094 117.192C127.658 119.829 126.225 122.464 124.789 125.101C124.341 120.628 125.399 116.274 122.754 112.969C121.985 112.007 120.828 111.448 119.699 110.943C116.33 109.437 112.851 108.169 109.301 107.148" fill="white"/>
<path d="M110.244 108.947C112.116 108.05 114.159 107.524 116.108 106.818C118.172 106.068 120.882 105.194 120.974 102.603C121.018 101.363 120.609 100.063 120.366 98.8543C120.088 97.4544 119.806 96.0545 119.527 94.6546C118.967 91.8549 118.409 89.0525 117.849 86.2528C116.861 87.0056 115.871 87.7558 114.883 88.5086C116.893 89.6816 118.764 91.0247 120.471 92.5999C121.328 93.3914 122.144 94.2292 122.915 95.1058C123.687 95.9823 124.38 96.8125 125.461 97.2765C127.822 98.2871 130.371 96.6861 132.513 95.7915C135.049 94.732 137.585 93.6724 140.12 92.6154C139.107 92.0405 138.096 91.4656 137.082 90.8907C136.928 92.7804 135.513 94.4303 134.702 96.0855C133.699 98.1324 133.217 100.332 134.074 102.523C134.932 104.714 136.665 106.111 138.515 107.426C139.43 108.076 140.358 108.702 141.251 109.38C141.541 109.602 141.843 109.816 142.127 110.046C142.315 110.198 142.484 110.381 142.677 110.523C143.229 110.925 142.575 111.007 142.651 110.061L142.927 109.053C144.102 107.408 143.74 108.713 143.315 108.553C143.25 108.53 142.953 108.574 142.846 108.581C142.197 108.623 141.549 108.612 140.9 108.666C139.696 108.769 138.528 108.86 137.316 108.816C135.013 108.731 132.537 108.517 130.817 110.35C129.415 111.842 128.563 113.856 127.635 115.648C126.16 118.491 124.578 121.283 123.045 124.099L126.809 125.107C126.399 120.554 127.434 115.349 124.182 111.561C122.587 109.708 120.007 108.88 117.799 107.983C115.196 106.924 112.538 106.014 109.835 105.227C107.336 104.5 106.268 108.357 108.762 109.081C111.076 109.754 113.361 110.517 115.605 111.391C117.336 112.064 119.744 112.704 121.054 114.083C122.23 115.323 122.501 117.176 122.587 118.803C122.699 120.904 122.582 123.008 122.769 125.107C122.933 126.945 125.508 127.997 126.532 126.115C128.495 122.51 130.392 118.865 132.37 115.271C132.92 114.271 133.428 112.899 134.538 112.747C136.222 112.515 137.991 112.915 139.696 112.776C141.306 112.644 143.125 112.783 144.684 112.332C146.813 111.716 147.201 109.535 145.812 107.986C144.579 106.609 143.407 105.977 141.887 104.91C140.532 103.959 138.742 102.989 137.981 101.448C137.155 99.7746 138.109 98.1762 138.94 96.7119C139.995 94.8531 140.944 93.0511 141.119 90.8907C141.257 89.2046 139.341 88.6375 138.08 89.166C135.927 90.0657 133.777 90.9629 131.625 91.8626C130.548 92.3112 129.48 92.7778 128.398 93.2109C127.421 93.6002 127.132 93.8193 126.415 93.0305C123.588 89.9188 120.585 87.2015 116.921 85.0643C115.316 84.1285 113.625 85.6675 113.956 87.3201C114.894 92.0147 115.832 96.7093 116.77 101.404C116.82 101.651 116.869 101.899 116.919 102.146C116.934 102.513 116.968 102.502 117.025 102.121C116.721 102.317 116.35 102.458 116.017 102.6C115.204 102.943 114.359 103.214 113.526 103.497C111.73 104.103 109.921 104.686 108.209 105.506C105.869 106.627 107.917 110.074 110.247 108.955L110.244 108.947Z" fill="white"/>
<path d="M157.531 372.146C157.797 368.049 158.264 363.566 156.867 359.609C155.749 356.443 153.036 353.633 150.102 351.978C148.832 351.261 147.43 350.787 146.028 350.395C144.306 349.913 142.461 349.268 140.662 349.214C137.084 349.108 133.36 351.132 130.801 353.47C127.155 356.804 126.118 362.272 125.081 366.858C124.513 369.364 128.406 370.434 128.977 367.92C129.415 365.987 129.855 364.048 130.457 362.158C130.981 360.511 131.599 358.637 132.709 357.27C134.361 355.239 137.259 353.522 139.896 353.238C141.288 353.089 142.7 353.653 144.029 354.001C145.158 354.298 146.396 354.612 147.402 355.087C149.554 356.105 151.908 358.139 152.846 360.325C154.386 363.911 153.737 368.384 153.492 372.151C153.325 374.719 157.365 374.708 157.531 372.151V372.146Z" fill="#311933"/>
<path d="M126.947 367.345C120.171 365.541 115.634 364.45 109.41 363.262C107.951 362.983 106.359 362.772 105.043 363.458C103.594 364.213 102.877 365.84 102.291 367.353C97.4565 379.826 95.9632 388.661 94.1103 401.891C93.9565 402.995 92.9949 406.359 93.5891 407.305C94.1546 408.207 103.273 411.309 104.274 411.688C124.573 419.355 136.589 420.969 158.412 422.858C160.742 423.06 163.14 421.863 164.745 420.18C166.194 418.661 166.726 416.522 167.171 414.482C169.626 403.286 171.221 391.901 171.935 380.468C172.008 379.292 172.047 378.016 171.367 377.049C170.768 376.196 169.772 375.649 168.753 375.394C153.005 371.473 141.538 370.699 125.902 367.09" fill="#311933"/>
<path d="M100.761 373.656C108.827 379.867 115.887 387.351 124.601 392.726C126.837 394.105 129.198 395.518 131.731 396.292C134.382 397.099 137.092 396.766 139.724 396.072C144.869 394.716 149.979 393.242 155.126 391.896C160.617 390.46 166.106 389.006 171.526 387.32C173.997 386.552 172.941 382.692 170.452 383.466C161.052 386.392 151.449 388.619 141.973 391.282C139.589 391.953 137.069 392.953 134.549 392.785C132.029 392.618 129.866 391.184 127.833 389.993C123.655 387.549 119.853 384.585 116.186 381.45C112.017 377.884 107.969 374.182 103.617 370.831C102.749 370.163 101.608 370.011 100.761 370.831C100.055 371.514 99.901 372.994 100.761 373.656Z" fill="#5C4F70"/>
<path d="M128.927 392.793C126.272 395.399 124.273 399.15 126.081 402.788C127.89 406.426 132.128 406.941 135.098 404.451C137.71 402.262 138.833 398.098 136.706 395.214C134.58 392.329 130.731 391.89 128.054 394.046C127.202 394.731 127.348 396.157 128.054 396.871C128.883 397.709 130.069 397.549 130.911 396.871C131.752 396.193 133.144 396.967 133.566 397.74C134.254 399.006 133.399 400.72 132.365 401.527C131.072 402.535 129.701 401.862 129.43 400.272C129.12 398.462 130.59 396.791 131.784 395.621C133.631 393.809 130.775 390.98 128.927 392.795V392.793Z" fill="#5C4F70"/>
<path d="M180.965 333.733C183.673 386.643 167.567 438.712 164.633 491.608C164.56 492.928 164.521 494.346 165.245 495.455C165.933 496.509 167.169 497.061 168.352 497.517C175.318 500.208 182.826 501.513 190.303 501.33C191.168 501.309 192.085 501.253 192.799 500.768C193.678 500.175 194.043 499.087 194.35 498.079C206.833 457.078 217.513 415.538 226.35 373.618C226.459 373.103 226.564 372.551 226.368 372.064C226.134 371.479 225.532 371.138 224.971 370.839C222.157 369.344 219.342 367.849 216.53 366.356C233.405 371.164 250.042 376.777 266.369 383.17C267.119 383.464 267.951 383.84 268.211 384.596C268.495 385.418 267.966 386.282 267.461 386.993C257.25 401.41 247.039 415.824 236.829 430.24C236.394 430.856 235.938 431.547 236.021 432.292C236.104 433.03 236.691 433.597 237.243 434.099C242.81 439.173 249.304 444.587 256.854 444.051C260.234 443.811 263.411 442.36 266.332 440.661C275.315 435.432 282.542 427.757 289.487 420.067C297.235 411.49 304.834 402.707 310.972 392.936C313.426 389.027 315.709 384.346 314.206 379.994C313.544 378.076 312.207 376.467 310.886 374.92C302.377 364.974 293.224 355.567 283.504 346.776C279.383 343.05 275.06 339.372 269.897 337.278C264.068 334.914 257.602 334.744 251.306 334.602C228.046 334.087 204.766 333.571 181.52 334.463" fill="#F15A24"/>
<path d="M178.946 333.733C180.071 356.206 177.846 378.666 174.651 400.897C171.435 423.279 167.32 445.536 164.698 468.003C164.039 473.644 163.476 479.298 163.051 484.962C162.851 487.617 162.493 490.352 162.585 493.013C162.671 495.519 163.812 497.555 166.1 498.71C170.927 501.149 176.697 502.281 182.031 502.928C184.768 503.261 187.548 503.423 190.303 503.33C193.057 503.237 194.944 502.196 195.955 499.626C196.94 497.12 197.569 494.431 198.337 491.855C199.182 489.038 200.016 486.217 200.842 483.394C202.447 477.911 204.019 472.417 205.561 466.915C208.665 455.83 211.639 444.708 214.479 433.555C217.32 422.4 220.03 411.214 222.608 399.997C223.905 394.348 225.169 388.69 226.399 383.026C227.007 380.234 227.611 377.444 228.195 374.647C228.445 373.448 228.711 372.205 228.112 371.058C227.481 369.849 226.261 369.261 225.102 368.645C222.584 367.307 220.067 365.972 217.549 364.634C217.031 365.851 216.512 367.067 215.993 368.287C228.729 371.922 241.332 376.003 253.768 380.54C256.857 381.667 259.937 382.822 263.004 384.003C263.791 384.304 264.581 384.601 265.363 384.918C265.616 385.018 266.319 385.183 266.436 385.451C266.173 384.848 265.845 385.802 265.72 385.99C265.53 386.274 265.324 386.552 265.126 386.831C264.581 387.602 264.036 388.37 263.489 389.141C259.622 394.598 255.757 400.056 251.889 405.516C247.972 411.044 244.058 416.574 240.141 422.101C238.335 424.651 236.201 427.164 234.663 429.879C233.96 431.119 233.759 432.529 234.434 433.829C235.109 435.128 236.339 436.007 237.384 436.933C241.468 440.547 246.026 444.159 251.439 445.53C257.417 447.044 263.041 445.01 268.128 441.931C278.305 435.775 286.289 426.726 294.087 417.948C298.197 413.32 302.202 408.597 305.947 403.673C309.569 398.911 313.492 393.843 315.647 388.231C316.705 385.475 317.124 382.311 316.15 379.468C315.212 376.733 313.223 374.567 311.36 372.409C307.24 367.64 302.974 362.997 298.564 358.485C294.155 353.973 289.607 349.599 284.927 345.368C280.491 341.359 275.847 337.497 270.207 335.272C264.568 333.047 258.115 332.769 252.007 332.63C245.309 332.475 238.609 332.331 231.911 332.215C218.386 331.978 204.855 331.874 191.33 332.179C188.056 332.253 184.783 332.351 181.513 332.475C178.922 332.573 178.909 336.569 181.513 336.471C194.6 335.976 207.701 335.912 220.796 336.051C227.345 336.12 233.895 336.239 240.444 336.373C246.656 336.502 252.927 336.425 259.121 336.951C264.995 337.448 270.314 339.121 275.151 342.491C279.988 345.86 284.239 350.099 288.466 354.146C292.906 358.397 297.217 362.78 301.392 367.287C303.479 369.54 305.533 371.824 307.55 374.139C309.317 376.165 311.623 378.308 312.387 380.953C313.127 383.518 312.267 386.248 311.128 388.568C309.833 391.206 308.152 393.67 306.489 396.091C303.138 400.969 299.448 405.602 295.604 410.105C291.77 414.596 287.827 419.01 283.782 423.318C279.738 427.626 275.829 431.49 271.294 434.937C267.005 438.198 261.641 442.014 256.017 442.091C250.821 442.163 246.19 439.085 242.354 435.917C241.366 435.1 240.402 434.254 239.448 433.395C239.06 433.047 238.372 432.63 238.127 432.161C237.832 431.599 238.049 432.333 238.095 431.996C238.14 431.686 238.541 431.297 238.721 431.042C240.545 428.446 242.388 425.862 244.222 423.274C247.988 417.956 251.757 412.637 255.522 407.318C259.288 402 263.056 396.681 266.822 391.363C268.347 389.208 271.51 386.114 269.806 383.288C269.157 382.211 268.024 381.698 266.903 381.247C265.339 380.618 263.76 380.025 262.183 379.424C250.367 374.923 238.39 370.829 226.287 367.15C223.22 366.217 220.145 365.314 217.065 364.435C214.891 363.814 213.468 367.003 215.509 368.088C217.953 369.385 220.395 370.684 222.84 371.981C223.186 372.167 224.158 372.492 224.398 372.822C224.484 372.94 224.333 373.425 224.247 373.835C223.952 375.232 223.655 376.629 223.356 378.024C222.212 383.363 221.036 388.695 219.832 394.021C217.406 404.756 214.857 415.463 212.189 426.138C206.872 447.412 201.076 468.568 194.806 489.587C194.014 492.245 193.235 494.905 192.406 497.553C192.153 498.357 192.01 499.144 191.074 499.301C189.896 499.497 188.57 499.365 187.381 499.332C182.029 499.187 176.728 498.244 171.646 496.576C170.028 496.045 166.937 495.498 166.65 493.472C166.496 492.392 166.681 491.211 166.747 490.131C166.83 488.736 166.924 487.339 167.025 485.944C167.419 480.527 167.938 475.119 168.547 469.72C170.966 448.338 174.828 427.151 177.981 405.872C181.132 384.601 183.631 363.149 183.261 341.614C183.217 338.985 183.126 336.358 182.993 333.733C182.86 331.109 178.826 331.158 178.953 333.733H178.946Z" fill="#AD634D"/>
<path d="M266.241 332.188C266.416 332.067 266.577 331.927 266.726 331.762C267.419 331.004 267.62 329.937 267.792 328.929C269.196 320.754 270.606 312.556 271.018 304.273C271.815 288.234 268.868 272.212 269.259 256.158C269.295 254.643 269.366 253.101 269.863 251.665C270.575 249.608 272.094 247.937 273.587 246.339C295.494 222.881 320.361 200.434 331.627 170.505C332.057 169.366 332.469 168.146 332.216 166.958C331.956 165.731 331.03 164.756 330.103 163.9C327.272 161.286 324.036 159.097 320.546 157.44C319.725 157.048 318.824 156.679 317.927 156.839C316.564 157.081 315.733 158.414 315.055 159.608C292.419 199.338 250.737 221.223 204.753 217.81C191.444 224.678 181.002 236.145 173.204 248.842C165.381 261.583 160.005 275.618 154.756 289.593C149.114 304.615 143.568 319.674 138.119 334.766C137.817 335.606 137.509 336.506 137.728 337.372C138.028 338.558 139.195 339.29 140.266 339.899C145.236 342.729 151.642 345.532 156.325 342.255C157.961 341.11 159.066 339.38 160.067 337.666C163.58 331.646 166.337 325.23 169.087 318.833C172.746 310.323 176.405 301.811 180.064 293.3C178.729 306.008 178.622 318.841 179.746 331.569C206.572 326.312 234.496 326.614 261.201 332.453C262.89 332.822 264.896 333.121 266.241 332.188Z" fill="#DFEBE9"/>
<path d="M269.097 335.013C271.273 333.319 271.604 330.499 272.032 327.99C272.488 325.319 272.936 322.646 273.342 319.967C274.179 314.43 274.877 308.861 275.104 303.262C275.542 292.436 274.338 281.645 273.673 270.855C273.35 265.601 273.058 260.283 273.34 255.021C273.441 253.103 274.051 251.835 275.404 250.303C276.918 248.586 278.526 246.944 280.1 245.284C286.362 238.687 292.729 232.19 298.916 225.523C311.323 212.151 323.259 197.894 331.268 181.441C332.341 179.234 333.332 176.989 334.272 174.723C335.213 172.459 336.495 169.917 336.318 167.409C336.102 164.336 334.215 162.131 331.961 160.19C330.077 158.569 328.052 157.071 325.917 155.787C323.613 154.4 320.919 152.76 318.146 152.827C315.149 152.899 313.051 155.034 311.649 157.442C309.58 160.992 307.422 164.472 305.037 167.824C304.488 168.6 303.927 169.368 303.357 170.131C303.054 170.536 302.749 170.938 302.439 171.34C302.285 171.541 302.132 171.74 301.975 171.938C302.319 171.497 301.939 171.98 301.788 172.17C300.539 173.74 299.249 175.277 297.92 176.78C295.332 179.706 292.596 182.506 289.722 185.156C288.275 186.491 286.792 187.788 285.276 189.046C284.52 189.673 283.756 190.291 282.985 190.897C282.792 191.049 282.599 191.199 282.406 191.351C282.378 191.372 281.898 191.745 282.232 191.488C282.599 191.204 281.989 191.671 281.909 191.733C281.664 191.916 281.419 192.101 281.174 192.282C278.033 194.607 274.773 196.773 271.406 198.76C268.044 200.745 264.581 202.558 261.029 204.187C260.195 204.569 259.358 204.94 258.517 205.303C258.292 205.399 258.066 205.497 257.842 205.59C257.253 205.837 258.381 205.37 257.789 205.61C257.279 205.816 256.768 206.025 256.257 206.226C254.43 206.946 252.585 207.616 250.724 208.24C246.979 209.495 243.169 210.555 239.312 211.421C237.428 211.844 235.536 212.22 233.634 212.548C232.709 212.708 231.784 212.857 230.853 212.994C230.355 213.068 229.86 213.138 229.362 213.205C230.155 213.097 228.583 213.301 228.377 213.324C224.338 213.801 220.275 214.071 216.21 214.141C214.146 214.177 212.082 214.159 210.018 214.092C207.607 214.015 204.725 213.36 202.523 214.453C194.47 218.444 187.277 224.587 181.317 231.208C167.872 246.142 159.924 264.668 152.877 283.173C149.07 293.171 145.361 303.207 141.668 313.249C139.784 318.377 137.91 323.507 136.047 328.643C135.612 329.846 135.174 331.05 134.739 332.254C134.22 333.688 133.587 335.16 133.616 336.714C133.67 339.8 135.664 341.876 138.218 343.345C142.276 345.681 147.133 347.983 151.954 347.707C154.785 347.545 157.326 346.609 159.515 344.822C161.467 343.229 162.806 340.991 164.031 338.836C169.259 329.64 173.077 319.663 177.241 309.97C179.342 305.084 181.442 300.196 183.543 295.311L176.016 293.295C174.698 306.012 174.591 318.828 175.698 331.563C175.933 334.276 178.08 335.949 180.811 335.418C192.057 333.229 203.203 332.064 214.795 331.86C226.386 331.656 237.725 332.422 248.642 334.144C251.835 334.647 255.011 335.229 258.175 335.887C261.545 336.588 265.105 337.542 268.274 335.634C270.134 334.513 270.838 332.053 269.723 330.166C268.607 328.279 266.066 327.606 264.195 328.733C263.52 329.14 263.984 328.875 264.135 328.792C264.521 328.583 264.422 328.81 264.044 328.805C264.138 328.805 262.811 328.756 263.351 328.802C263.794 328.838 262.957 328.735 262.863 328.717C261.443 328.447 260.036 328.117 258.618 327.833C255.856 327.284 253.083 326.791 250.3 326.361C244.459 325.453 238.58 324.768 232.683 324.35C221.276 323.538 209.801 323.695 198.421 324.822C191.796 325.479 185.197 326.441 178.667 327.712L183.78 331.566C182.672 318.828 182.779 306.015 184.098 293.297C184.27 291.64 182.727 289.804 181.132 289.443C179.537 289.082 177.28 289.631 176.571 291.279C173.59 298.214 170.609 305.149 167.627 312.084C164.646 319.019 162.04 325.415 158.686 331.816C157.878 333.358 157.044 334.894 156.137 336.379C155.989 336.624 155.837 336.866 155.681 337.106C155.715 337.055 154.907 338.194 155.308 337.681C155.092 337.96 154.847 338.217 154.597 338.467C154.448 338.62 154.295 338.764 154.136 338.903C154.396 338.728 154.331 338.769 153.945 339.027C153.906 339.05 152.76 339.635 153.508 339.321C153.276 339.419 153.018 339.491 152.778 339.558C152.679 339.586 151.472 339.78 152.345 339.687C152.025 339.72 151.702 339.728 151.379 339.728C149.976 339.728 149.202 339.524 147.469 338.929C146.706 338.666 146.432 338.553 146.054 338.38C145.343 338.052 144.639 337.71 143.946 337.346C143.253 336.982 142.62 336.642 141.978 336.258C141.767 336.132 141.538 336.003 141.337 335.853C141.65 336.103 141.637 336.075 141.296 335.768C141.449 335.92 141.559 336.098 141.621 336.304V337.117C141.666 336.895 141.723 336.678 141.796 336.464C141.911 336.085 142.054 335.714 142.187 335.343C142.476 334.538 142.768 333.737 143.057 332.935C143.756 331.009 144.454 329.083 145.153 327.158C150.214 313.249 155.321 299.356 160.586 285.522C165.43 272.789 170.544 260.34 178.026 248.731C185.268 237.496 194.717 227.537 206.789 221.256L204.751 221.803C225.073 223.28 245.528 219.836 264.109 211.537C282.412 203.365 298.144 190.358 310.106 174.462C313.153 170.415 315.92 166.174 318.443 161.788C318.706 161.33 318.959 160.848 319.285 160.425L319.089 160.688C319.384 160.414 319.415 160.368 319.183 160.546C319.089 160.559 318.438 160.744 318.375 160.791C318.167 160.951 318.305 160.752 318.628 160.922C318.13 160.662 319.418 161.332 319.308 161.278C319.973 161.613 320.624 161.966 321.268 162.34C323.937 163.887 325.625 165.266 327.856 167.313C328.489 167.893 328.164 167.579 328.044 167.473C328.263 167.664 328.403 167.721 328.32 168.017C328.33 167.981 328.273 167.739 328.281 167.684C328.234 168.058 328.085 168.435 327.963 168.79C327.483 170.208 326.9 171.601 326.319 172.98C326.501 172.547 325.985 173.745 325.889 173.962C325.605 174.604 325.313 175.243 325.016 175.88C324.421 177.151 323.804 178.409 323.163 179.654C320.598 184.638 317.669 189.43 314.484 194.048C308.259 203.076 301.183 211.248 293.495 219.55C285.812 227.846 277.744 235.797 270.132 244.155C267.807 246.707 265.949 249.422 265.477 252.897C265.037 256.145 265.149 259.476 265.227 262.745C265.391 269.51 265.978 276.257 266.452 283.003C266.913 289.575 267.276 296.162 267.041 302.751C266.806 309.366 265.936 315.644 264.87 322.105C264.607 323.693 264.338 325.278 264.065 326.864C263.942 327.578 263.778 328.289 263.661 329.003C263.645 329.096 263.489 329.779 263.666 329.122L263.864 328.934C263.718 329.094 263.557 329.235 263.379 329.359C261.665 330.695 261.964 333.61 263.379 335.01C265.073 336.686 267.372 336.351 269.092 335.01L269.097 335.013Z" fill="#DFEBE9"/>
<path d="M68.7297 147.723C70.8433 147.723 72.8656 145.885 72.7691 143.727C72.6727 141.57 70.9944 139.731 68.7297 139.731C66.6162 139.731 64.5939 141.57 64.6903 143.727C64.7868 145.885 66.4651 147.723 68.7297 147.723Z" fill="white"/>
<path d="M218.839 84.5339C220.953 84.5339 222.975 82.6958 222.879 80.538C222.782 78.3801 221.104 76.542 218.839 76.542C216.726 76.542 214.703 78.3801 214.8 80.538C214.896 82.6958 216.575 84.5339 218.839 84.5339Z" fill="white"/>
<path d="M338.606 245.669C340.72 245.669 342.742 243.831 342.646 241.673C342.549 239.515 340.871 237.677 338.606 237.677C336.493 237.677 334.47 239.515 334.567 241.673C334.663 243.831 336.342 245.669 338.606 245.669Z" fill="white"/>
<path d="M87.8922 258.306C90.0057 258.306 92.028 256.468 91.9316 254.31C91.8352 252.153 90.1569 250.314 87.8922 250.314C85.7787 250.314 83.7564 252.153 83.8528 254.31C83.9492 256.468 85.6275 258.306 87.8922 258.306Z" fill="white"/>
<path d="M474.343 63.9988C476.457 63.9988 478.479 62.1606 478.383 60.0028C478.286 57.845 476.608 56.0068 474.343 56.0068C472.23 56.0068 470.207 57.845 470.304 60.0028C470.4 62.1606 472.079 63.9988 474.343 63.9988Z" fill="white"/>
<path d="M444.003 282.001C446.117 282.001 448.139 280.163 448.043 278.005C447.946 275.847 446.268 274.009 444.003 274.009C441.89 274.009 439.868 275.847 439.964 278.005C440.06 280.163 441.739 282.001 444.003 282.001Z" fill="white"/>
<path d="M480.731 174.579C482.844 174.579 484.867 172.741 484.77 170.583C484.674 168.425 482.995 166.587 480.731 166.587C478.617 166.587 476.595 168.425 476.691 170.583C476.788 172.741 478.466 174.579 480.731 174.579Z" fill="white"/>
<path d="M48.134 82.8543C50.2475 82.8543 52.2699 81.0161 52.1734 78.8583C52.077 76.7005 50.3987 74.8623 48.134 74.8623C46.0205 74.8623 43.9982 76.7005 44.0946 78.8583C44.191 81.0161 45.8694 82.8543 48.134 82.8543Z" fill="white"/>
<path d="M162.947 171.422C165.06 171.422 167.083 169.583 166.986 167.426C166.89 165.268 165.212 163.43 162.947 163.43C160.833 163.43 158.811 165.268 158.907 167.426C159.004 169.583 160.682 171.422 162.947 171.422Z" fill="white"/>
<path d="M346.591 304.119C348.705 304.119 350.727 302.281 350.631 300.123C350.534 297.965 348.856 296.127 346.591 296.127C344.478 296.127 342.455 297.965 342.552 300.123C342.648 302.281 344.327 304.119 346.591 304.119Z" fill="white"/>
<defs>
<linearGradient id="paint0_linear_697_1078" x1="258.501" y1="617.999" x2="258.501" y2="0.00139975" gradientUnits="userSpaceOnUse">
<stop offset="0.07" stop-color="#69B9DF"/>
<stop offset="0.5" stop-color="#4282B6"/>
<stop offset="0.73" stop-color="#3F709F"/>
<stop offset="1" stop-color="#2D6795"/>
</linearGradient>
</defs>
</svg>
