<svg width="557" height="1061" viewBox="0 0 557 1061" fill="none" xmlns="http://www.w3.org/2000/svg">
<g clip-path="url(#clip0_668_951)">
<path opacity="0.6" d="M759.875 844.809C976.35 695.478 1027.03 404.703 873.073 195.345C719.115 -14.0136 418.82 -62.6754 202.345 86.6555C-14.1295 235.986 -64.8098 526.761 89.1478 736.12C243.105 945.478 543.4 994.14 759.875 844.809Z" fill="#417ABD" fill-opacity="0.2"/>
<path d="M245.802 697.357C255.359 676.562 267.655 662.925 286.195 648.362C303.398 634.786 327.736 622.691 349.844 615.718C396.545 601.094 449.617 602.019 491.795 623.061C497.72 626.023 503.518 629.356 508.997 633.058C509.889 633.675 510.781 634.292 511.673 634.909C517.089 638.674 509.188 632.626 514.158 636.822C516.26 638.612 518.427 640.401 520.465 642.253C522.695 644.351 524.861 646.51 526.9 648.732C527.601 649.472 528.238 650.213 528.875 650.953C532.953 655.458 527.091 648.053 530.468 652.99C533.845 657.926 536.839 662.616 539.388 667.861C544.23 677.92 559.139 680.45 568.441 675.204C579.081 669.157 580.928 657.186 576.022 647.066C551.875 597.206 492.878 572.523 439.487 566.167C380.744 559.194 317.924 575.423 269.949 608.93C244.782 626.517 221.846 648.732 209.104 676.5C204.453 686.62 206.045 698.592 216.685 704.639C225.732 709.761 241.023 707.477 245.738 697.296L245.802 697.357Z" fill="#38332F" fill-opacity="0.2"/>
<path d="M598.449 398.569C596.856 398.693 581.438 399.556 581.247 398.322C584.496 398.754 585.006 398.816 582.648 398.446L581.247 398.199C579.845 397.952 578.443 397.644 577.042 397.335C574.238 396.718 571.499 395.977 568.759 395.052C567.421 394.62 566.083 394.126 564.682 393.633C559.967 392.028 568.95 395.607 564.427 393.571C561.815 392.398 559.266 391.164 556.718 389.807C554.169 388.449 551.748 386.968 549.327 385.425C548.116 384.623 546.97 383.821 545.759 383.019C541.745 380.18 549.263 385.981 545.504 382.772C541.108 379.07 536.903 375.305 533.144 371.048C532.316 370.122 530.787 368.949 530.404 367.839L531.934 369.813C531.36 369.073 530.787 368.332 530.213 367.53C528.557 365.247 527.028 362.902 525.562 360.496C524.097 358.089 522.886 355.621 521.612 353.091C519.828 349.697 522.695 355.929 521.803 353.523C521.294 352.227 520.784 350.931 520.338 349.635C519.382 346.982 518.618 344.328 517.981 341.613C517.662 340.255 517.343 338.898 517.089 337.54C516.069 332.172 517.407 341.058 516.897 336.8C515.687 326.124 508.041 315.696 495.681 316.251C485.232 316.683 473.127 325.384 474.465 336.8C477.842 365.926 491.986 392.954 515.496 411.775C538.623 430.287 567.995 441.826 598.385 439.481C609.408 438.617 620.175 430.657 619.602 418.933C619.092 408.504 610.236 397.458 598.385 398.384L598.449 398.569Z" fill="#38332F" fill-opacity="0.2"/>
<path d="M154.184 506.558C214.392 492.982 253.192 430.596 241.469 372.776C239.303 362.224 225.732 355.189 215.347 358.398C203.752 362.038 198.209 372.344 200.502 383.698C200.757 384.994 200.821 386.907 201.331 388.079C199.738 384.006 201.076 386.351 201.267 388.511C201.458 391.226 201.522 393.941 201.458 396.595C201.458 398.94 200.375 402.457 200.885 404.678L201.267 402.148C201.14 403.136 200.948 404.061 200.757 405.049C200.502 406.283 200.248 407.455 199.993 408.689C199.356 411.343 198.655 413.934 197.827 416.526C197.381 417.945 196.871 419.365 196.361 420.722C195.851 421.956 194.896 426.276 196.234 421.339C194.959 426.276 191.073 431.521 188.27 435.717C187.569 436.766 186.868 437.815 186.103 438.803C185.721 439.296 182.536 443.246 184.574 440.901C186.613 438.556 183.746 441.826 183.3 442.258C182.281 443.369 181.261 444.48 180.242 445.59C178.331 447.565 176.355 449.478 174.253 451.329C173.106 452.317 171.959 453.304 170.813 454.23C167.372 456.945 170.303 453.921 170.876 454.23C170.175 453.921 164.314 458.549 163.294 459.104C161.128 460.339 158.898 461.511 156.605 462.622C155.713 463.054 154.757 463.486 153.865 463.856L156.159 462.93C155.458 462.807 152.527 464.226 151.89 464.473C148.959 465.46 146.028 466.201 143.034 466.88C132.203 469.348 124.812 481.875 128.189 492.18C131.821 503.102 142.715 509.149 154.311 506.558H154.184Z" fill="#38332F" fill-opacity="0.2"/>
</g>
<defs>
<clipPath id="clip0_668_951">
<rect width="1061" height="1061" fill="white"/>
</clipPath>
</defs>
</svg>
