<svg width="1448" height="3124" viewBox="0 0 1448 3124" fill="none" xmlns="http://www.w3.org/2000/svg">
<g filter="url(#filter0_d_503_670)">
<path fill-rule="evenodd" clip-rule="evenodd" d="M1444 289.391C1282.38 120.896 1054.97 16 803.062 16H654C398.477 16 167.824 122.486 4 293.503V2829.55C164.826 2995.19 389.894 3098.11 639 3098.11H809.062C1058.4 3098.11 1283.58 2994.64 1444 2828.3V289.391Z" fill="#FEF6A0"/>
<path fill-rule="evenodd" clip-rule="evenodd" d="M1444 272.479C1270.31 105.625 1009.05 0 718.5 0C434.016 0 177.622 101.258 4 262.102V295.353C172.341 130.122 429.144 24 718.5 24C1014.23 24 1275.96 134.851 1444 306.362V272.479ZM1444 2826.6C1271.42 2987.44 1014.42 3090.3 725.567 3091.04C435.727 3091.79 177.423 2989.56 4 2828.66V2861.07C182.338 3017.97 440.358 3115.78 725.629 3115.04C1009.86 3114.31 1266.54 3015.9 1444 2859.08V2826.6Z" fill="#FAF18F"/>
</g>
<defs>
<filter id="filter0_d_503_670" x="0" y="0" width="1448" height="3123.05" filterUnits="userSpaceOnUse" color-interpolation-filters="sRGB">
<feFlood flood-opacity="0" result="BackgroundImageFix"/>
<feColorMatrix in="SourceAlpha" type="matrix" values="0 0 0 0 0 0 0 0 0 0 0 0 0 0 0 0 0 0 127 0" result="hardAlpha"/>
<feOffset dy="4"/>
<feGaussianBlur stdDeviation="2"/>
<feComposite in2="hardAlpha" operator="out"/>
<feColorMatrix type="matrix" values="0 0 0 0 0 0 0 0 0 0 0 0 0 0 0 0 0 0 0.25 0"/>
<feBlend mode="normal" in2="BackgroundImageFix" result="effect1_dropShadow_503_670"/>
<feBlend mode="normal" in="SourceGraphic" in2="effect1_dropShadow_503_670" result="shape"/>
</filter>
</defs>
</svg>
