<svg width="131" height="131" viewBox="0 0 131 131" fill="none" xmlns="http://www.w3.org/2000/svg">
<g id="Music" clip-path="url(#clip0_440_1372)">
<g id="Layer 2">
<g id="music">
<path id="Vector" d="M103.708 81.8751V21.8335C103.705 21.0136 103.516 20.2051 103.157 19.4681C102.798 18.731 102.277 18.0843 101.634 17.576C101 17.063 100.259 16.6987 99.4656 16.5098C98.6721 16.3208 97.8464 16.3121 97.0492 16.4843L47.9242 27.401C46.7115 27.6745 45.6284 28.3537 44.8542 29.3264C44.08 30.2991 43.6611 31.507 43.6667 32.7501V78.2726C39.9405 76.5135 35.7443 76.01 31.7077 76.8378C27.6711 77.6655 24.0117 79.7798 21.2785 82.8634C18.5452 85.9471 16.8856 89.8338 16.5485 93.9406C16.2114 98.0474 17.215 102.153 19.4088 105.641C21.6025 109.129 24.8682 111.812 28.7158 113.287C32.5634 114.761 36.7855 114.949 40.7487 113.821C44.7119 112.693 48.2025 110.311 50.6969 107.031C53.1913 103.751 54.555 99.7506 54.5834 95.6301C54.6398 94.6849 54.6398 93.7371 54.5834 92.7918V37.1168L92.7917 28.6564V67.356C89.0634 65.5958 84.8646 65.0927 80.826 65.9223C76.7874 66.7518 73.1269 68.8693 70.3943 71.9566C67.6617 75.0439 66.0045 78.9345 65.6716 83.044C65.3386 87.1534 66.3479 91.26 68.5479 94.7469C70.7479 98.2339 74.0197 100.913 77.8721 102.382C81.7245 103.851 85.9495 104.03 89.9126 102.893C93.8756 101.756 97.3628 99.3639 99.8504 96.076C102.338 92.788 103.692 88.7818 103.708 84.6589C103.76 83.7317 103.76 82.8023 103.708 81.8751Z" fill="#6169BC"/>
</g>
</g>
</g>
<defs>
<clipPath id="clip0_440_1372">
<rect width="131" height="131" fill="white"/>
</clipPath>
</defs>
</svg>
