<svg width="131" height="131" viewBox="0 0 131 131" fill="none" xmlns="http://www.w3.org/2000/svg">
<g id="menu_book">
<mask id="mask0_440_1423" style="mask-type:alpha" maskUnits="userSpaceOnUse" x="0" y="0" width="131" height="131">
<rect id="Bounding box" width="131" height="131" fill="#D9D9D9"/>
</mask>
<g mask="url(#mask0_440_1423)">
<path id="menu_book_2" d="M75.9583 54.6585V45.334C78.9604 44.0541 82.0307 43.0943 85.1693 42.4543C88.3078 41.8144 91.6056 41.4945 95.0625 41.4945C97.4278 41.4945 99.7476 41.6773 102.022 42.043C104.296 42.4086 106.525 42.8657 108.708 43.4142V52.1903C106.525 51.3675 104.319 50.7504 102.09 50.3391C99.8613 49.9277 97.5188 49.722 95.0625 49.722C91.6056 49.722 88.2851 50.1562 85.101 51.0247C81.917 51.8932 78.8694 53.1044 75.9583 54.6585ZM75.9583 84.8262V75.5016C78.9604 74.2218 82.0307 73.2619 85.1693 72.622C88.3078 71.9821 91.6056 71.6621 95.0625 71.6621C97.4278 71.6621 99.7476 71.8449 102.022 72.2106C104.296 72.5763 106.525 73.0334 108.708 73.5819V82.3579C106.525 81.5351 104.319 80.9181 102.09 80.5067C99.8613 80.0953 97.5188 79.8896 95.0625 79.8896C91.6056 79.8896 88.2851 80.301 85.101 81.1238C81.917 81.9465 78.8694 83.1806 75.9583 84.8262ZM75.9583 69.7423V60.4178C78.9604 59.138 82.0307 58.1781 85.1693 57.5382C88.3078 56.8982 91.6056 56.5783 95.0625 56.5783C97.4278 56.5783 99.7476 56.7611 102.022 57.1268C104.296 57.4924 106.525 57.9495 108.708 58.498V67.2741C106.525 66.4513 104.319 65.8343 102.09 65.4229C99.8613 65.0115 97.5188 64.8058 95.0625 64.8058C91.6056 64.8058 88.2851 65.24 85.101 66.1085C81.917 66.977 78.8694 68.1882 75.9583 69.7423ZM35.0208 88.1172C39.2965 88.1172 43.4585 88.5971 47.5068 89.557C51.555 90.5169 55.5806 91.9567 59.5833 93.8764V39.849C55.8535 37.6549 51.8962 36.0094 47.7115 34.9124C43.5267 33.8154 39.2965 33.2669 35.0208 33.2669C31.7458 33.2669 28.4936 33.5869 25.2641 34.2268C22.0345 34.8667 18.9188 35.8266 15.9167 37.1064V91.4082C19.1007 90.3112 22.262 89.4884 25.4005 88.9399C28.5391 88.3914 31.7458 88.1172 35.0208 88.1172ZM70.5 93.8764C74.5028 91.9567 78.5283 90.5169 82.5766 89.557C86.6248 88.5971 90.7868 88.1172 95.0625 88.1172C98.3375 88.1172 101.544 88.3914 104.683 88.9399C107.821 89.4884 110.983 90.3112 114.167 91.4082V37.1064C111.165 35.8266 108.049 34.8667 104.819 34.2268C101.59 33.5869 98.3375 33.2669 95.0625 33.2669C90.7868 33.2669 86.5566 33.8154 82.3719 34.9124C78.1872 36.0094 74.2299 37.6549 70.5 39.849V93.8764ZM65.0417 110.057C60.675 106.583 55.9445 103.887 50.85 101.967C45.7556 100.047 40.4792 99.0872 35.0208 99.0872C31.2 99.0872 27.4474 99.59 23.763 100.596C20.0786 101.601 16.5535 103.018 13.1875 104.846C11.2771 105.852 9.4349 105.806 7.66094 104.709C5.88698 103.612 5 102.013 5 99.91V33.8154C5 32.8098 5.25017 31.85 5.75052 30.9358C6.25087 30.0216 7.00139 29.336 8.00208 28.8789C12.1868 26.6849 16.5535 25.0394 21.1021 23.9424C25.6507 22.8454 30.2903 22.2969 35.0208 22.2969C40.2972 22.2969 45.4599 22.9825 50.5089 24.3538C55.5578 25.725 60.4021 27.7819 65.0417 30.5244C69.6813 27.7819 74.5255 25.725 79.5745 24.3538C84.6234 22.9825 89.7861 22.2969 95.0625 22.2969C99.7931 22.2969 104.433 22.8454 108.981 23.9424C113.53 25.0394 117.897 26.6849 122.081 28.8789C123.082 29.336 123.832 30.0216 124.333 30.9358C124.833 31.85 125.083 32.8098 125.083 33.8154V99.91C125.083 102.013 124.196 103.612 122.422 104.709C120.648 105.806 118.806 105.852 116.896 104.846C113.53 103.018 110.005 101.601 106.32 100.596C102.636 99.59 98.8833 99.0872 95.0625 99.0872C89.6042 99.0872 84.3278 100.047 79.2333 101.967C74.1389 103.887 69.4083 106.583 65.0417 110.057Z" fill="#6169BC"/>
</g>
</g>
</svg>
