<svg width="99" height="137" viewBox="0 0 99 137" fill="none" xmlns="http://www.w3.org/2000/svg">
<path d="M38.2083 119.875C27.5646 119.875 18.5356 116.168 11.1214 108.754C3.70712 101.339 0 92.3104 0 81.6667V48.9167C0 45.9146 1.06892 43.3446 3.20677 41.2068C5.34462 39.0689 7.91458 38 10.9167 38H79.1458C84.4222 38 88.9254 39.8649 92.6552 43.5948C96.3851 47.3247 98.25 51.8278 98.25 57.1042C98.25 62.3806 96.3851 66.8837 92.6552 70.6135C88.9254 74.3434 84.4222 76.2083 79.1458 76.2083H76.4167V81.6667C76.4167 92.3104 72.7096 101.339 65.2953 108.754C57.8811 116.168 48.8521 119.875 38.2083 119.875ZM10.9167 65.2917H65.5V48.9167H10.9167V65.2917ZM38.2083 108.958C45.759 108.958 52.1953 106.297 57.5172 100.976C62.8391 95.6536 65.5 89.2174 65.5 81.6667V76.2083H10.9167V81.6667C10.9167 89.2174 13.5776 95.6536 18.8995 100.976C24.2214 106.297 30.6576 108.958 38.2083 108.958ZM76.4167 65.2917H79.1458C81.4201 65.2917 83.3533 64.4957 84.9453 62.9036C86.5373 61.3116 87.3333 59.3785 87.3333 57.1042C87.3333 54.8299 86.5373 52.8967 84.9453 51.3047C83.3533 49.7127 81.4201 48.9167 79.1458 48.9167H76.4167V65.2917ZM0 136.25V125.333H87.3333V136.25H0Z" fill="#6169BC"/>
<mask id="mask0_462_546" style="mask-type:alpha" maskUnits="userSpaceOnUse" x="15" y="0" width="50" height="36">
<rect x="15" width="50" height="36" fill="#D9D9D9"/>
</mask>
<g mask="url(#mask0_462_546)">
<path d="M42.7082 31.0875C42.4998 31.2125 42.2828 31.3125 42.0571 31.3875C41.8314 31.4625 41.5797 31.5 41.3019 31.5C41.0241 31.5 40.7464 31.4563 40.4686 31.3688C40.1908 31.2812 39.9478 31.1625 39.7394 31.0125C38.3158 29.9125 37.2655 28.7875 36.5884 27.6375C35.9113 26.4875 35.5728 25.275 35.5728 24C35.5728 23.075 35.7637 22.1 36.1457 21.075C36.5276 20.05 37.1873 18.725 38.1248 17.1C38.9234 15.675 39.479 14.5813 39.7915 13.8188C40.104 13.0562 40.2603 12.35 40.2603 11.7C40.2603 10.85 39.9998 10.0563 39.479 9.31875C38.9582 8.58125 38.1422 7.8375 37.0311 7.0875C36.8228 6.9375 36.6578 6.7625 36.5363 6.5625C36.4148 6.3625 36.354 6.1625 36.354 5.9625C36.354 5.7625 36.4061 5.58125 36.5103 5.41875C36.6144 5.25625 36.7533 5.1 36.9269 4.95C37.1353 4.8 37.3696 4.6875 37.63 4.6125C37.8905 4.5375 38.1596 4.5 38.4373 4.5C38.7151 4.5 38.9755 4.5375 39.2186 4.6125C39.4616 4.6875 39.6873 4.7875 39.8957 4.9125C41.4234 5.9375 42.5606 7.0125 43.3071 8.1375C44.0537 9.2625 44.4269 10.45 44.4269 11.7C44.4269 12.575 44.2446 13.4938 43.88 14.4563C43.5155 15.4188 42.8818 16.675 41.979 18.225C41.1109 19.725 40.5207 20.875 40.2082 21.675C39.8957 22.475 39.7394 23.2375 39.7394 23.9625C39.7394 24.8375 39.9912 25.6812 40.4946 26.4938C40.9981 27.3063 41.7707 28.125 42.8123 28.95C42.9859 29.1 43.1248 29.2625 43.229 29.4375C43.3332 29.6125 43.3853 29.8 43.3853 30C43.3853 30.2 43.3332 30.3938 43.229 30.5813C43.1248 30.7688 42.9512 30.9375 42.7082 31.0875ZM52.8644 31.0875C52.6561 31.2125 52.4391 31.3125 52.2134 31.3875C51.9877 31.4625 51.7359 31.5 51.4582 31.5C51.1804 31.5 50.9026 31.4563 50.6248 31.3688C50.3471 31.2812 50.104 31.1625 49.8957 31.0125C48.4721 29.9125 47.4217 28.7938 46.7446 27.6562C46.0675 26.5187 45.729 25.3125 45.729 24.0375C45.729 23.1125 45.92 22.125 46.3019 21.075C46.6839 20.025 47.3436 18.7 48.2811 17.1C49.0797 15.675 49.6353 14.5875 49.9478 13.8375C50.2603 13.0875 50.4165 12.3875 50.4165 11.7375C50.4165 10.8875 50.1561 10.0813 49.6353 9.31875C49.1144 8.55625 48.2984 7.8125 47.1873 7.0875C46.979 6.9375 46.8228 6.76875 46.7186 6.58125C46.6144 6.39375 46.5623 6.2 46.5623 6C46.5623 5.8 46.6057 5.61875 46.6925 5.45625C46.7794 5.29375 46.9096 5.1375 47.0832 4.9875C47.2915 4.8375 47.5346 4.71875 47.8123 4.63125C48.0901 4.54375 48.3679 4.5 48.6457 4.5C48.9234 4.5 49.1752 4.5375 49.4009 4.6125C49.6266 4.6875 49.8436 4.7875 50.0519 4.9125C51.5797 5.9375 52.7169 7.0125 53.4634 8.1375C54.2099 9.2625 54.5832 10.45 54.5832 11.7C54.5832 12.575 54.4009 13.4938 54.0363 14.4563C53.6717 15.4188 53.038 16.6875 52.1353 18.2625C51.2672 19.7625 50.6769 20.9125 50.3644 21.7125C50.0519 22.5125 49.8957 23.2625 49.8957 23.9625C49.8957 24.8375 50.1561 25.6938 50.6769 26.5312C51.1978 27.3687 51.979 28.1875 53.0207 28.9875C53.1943 29.1375 53.3245 29.3 53.4113 29.475C53.4981 29.65 53.5415 29.825 53.5415 30C53.5415 30.2 53.4894 30.4 53.3853 30.6C53.2811 30.8 53.1075 30.9625 52.8644 31.0875ZM32.5519 31.0875C32.3436 31.2125 32.1266 31.3125 31.9009 31.3875C31.6752 31.4625 31.4234 31.5 31.1457 31.5C30.8679 31.5 30.5901 31.4563 30.3123 31.3688C30.0346 31.2812 29.7915 31.1625 29.5832 31.0125C28.1596 29.9125 27.1092 28.7938 26.4321 27.6562C25.755 26.5187 25.4165 25.3125 25.4165 24.0375C25.4165 23.1125 25.6075 22.125 25.9894 21.075C26.3714 20.025 27.0311 18.7 27.9686 17.1C28.7672 15.675 29.3228 14.5875 29.6353 13.8375C29.9478 13.0875 30.104 12.3875 30.104 11.7375C30.104 10.8875 29.8436 10.0813 29.3228 9.31875C28.8019 8.55625 27.9859 7.8125 26.8748 7.0875C26.6318 6.9375 26.4582 6.76875 26.354 6.58125C26.2498 6.39375 26.1978 6.2 26.1978 6C26.1978 5.8 26.2498 5.6125 26.354 5.4375C26.4582 5.2625 26.5971 5.1 26.7707 4.95C26.979 4.8 27.2134 4.6875 27.4738 4.6125C27.7342 4.5375 28.0033 4.5 28.2811 4.5C28.5589 4.5 28.8193 4.5375 29.0623 4.6125C29.3054 4.6875 29.5311 4.7875 29.7394 4.9125C31.2672 5.9375 32.4044 7.00625 33.1509 8.11875C33.8974 9.23125 34.2707 10.425 34.2707 11.7C34.2707 12.575 34.0971 13.4938 33.7498 14.4563C33.4026 15.4188 32.7776 16.675 31.8748 18.225C31.0068 19.725 30.4165 20.875 30.104 21.675C29.7915 22.475 29.6353 23.2375 29.6353 23.9625C29.6353 24.8375 29.887 25.6938 30.3905 26.5312C30.8939 27.3687 31.6665 28.1875 32.7082 28.9875C32.8818 29.1375 33.012 29.3 33.0988 29.475C33.1856 29.65 33.229 29.825 33.229 30C33.229 30.2 33.1769 30.4 33.0728 30.6C32.9686 30.8 32.795 30.9625 32.5519 31.0875Z" fill="#6169BC"/>
</g>
</svg>
