<svg width="131" height="131" viewBox="0 0 131 131" fill="none" xmlns="http://www.w3.org/2000/svg">
<g id="calendar_month">
<mask id="mask0_440_1443" style="mask-type:alpha" maskUnits="userSpaceOnUse" x="0" y="0" width="131" height="131">
<rect id="Bounding box" width="131" height="131" fill="#D9D9D9"/>
</mask>
<g mask="url(#mask0_440_1443)">
<path id="calendar_month_2" d="M26.9167 120.084C23.9146 120.084 21.3446 119.015 19.2068 116.877C17.0689 114.739 16 112.169 16 109.167V32.7503C16 29.7482 17.0689 27.1783 19.2068 25.0404C21.3446 22.9026 23.9146 21.8337 26.9167 21.8337H32.375V10.917H43.2917V21.8337H86.9583V10.917H97.875V21.8337H103.333C106.335 21.8337 108.905 22.9026 111.043 25.0404C113.181 27.1783 114.25 29.7482 114.25 32.7503V109.167C114.25 112.169 113.181 114.739 111.043 116.877C108.905 119.015 106.335 120.084 103.333 120.084H26.9167ZM26.9167 109.167H103.333V54.5837H26.9167V109.167ZM26.9167 43.667H103.333V32.7503H26.9167V43.667ZM65.125 76.417C63.5785 76.417 62.2821 75.8939 61.2359 74.8477C60.1898 73.8015 59.6667 72.5052 59.6667 70.9587C59.6667 69.4121 60.1898 68.1158 61.2359 67.0696C62.2821 66.0234 63.5785 65.5003 65.125 65.5003C66.6715 65.5003 67.9679 66.0234 69.0141 67.0696C70.0602 68.1158 70.5833 69.4121 70.5833 70.9587C70.5833 72.5052 70.0602 73.8015 69.0141 74.8477C67.9679 75.8939 66.6715 76.417 65.125 76.417ZM43.2917 76.417C41.7451 76.417 40.4488 75.8939 39.4026 74.8477C38.3564 73.8015 37.8333 72.5052 37.8333 70.9587C37.8333 69.4121 38.3564 68.1158 39.4026 67.0696C40.4488 66.0234 41.7451 65.5003 43.2917 65.5003C44.8382 65.5003 46.1346 66.0234 47.1807 67.0696C48.2269 68.1158 48.75 69.4121 48.75 70.9587C48.75 72.5052 48.2269 73.8015 47.1807 74.8477C46.1346 75.8939 44.8382 76.417 43.2917 76.417ZM86.9583 76.417C85.4118 76.417 84.1155 75.8939 83.0693 74.8477C82.0231 73.8015 81.5 72.5052 81.5 70.9587C81.5 69.4121 82.0231 68.1158 83.0693 67.0696C84.1155 66.0234 85.4118 65.5003 86.9583 65.5003C88.5049 65.5003 89.8012 66.0234 90.8474 67.0696C91.8936 68.1158 92.4167 69.4121 92.4167 70.9587C92.4167 72.5052 91.8936 73.8015 90.8474 74.8477C89.8012 75.8939 88.5049 76.417 86.9583 76.417ZM65.125 98.2503C63.5785 98.2503 62.2821 97.7272 61.2359 96.6811C60.1898 95.6349 59.6667 94.3385 59.6667 92.792C59.6667 91.2455 60.1898 89.9491 61.2359 88.9029C62.2821 87.8568 63.5785 87.3337 65.125 87.3337C66.6715 87.3337 67.9679 87.8568 69.0141 88.9029C70.0602 89.9491 70.5833 91.2455 70.5833 92.792C70.5833 94.3385 70.0602 95.6349 69.0141 96.6811C67.9679 97.7272 66.6715 98.2503 65.125 98.2503ZM43.2917 98.2503C41.7451 98.2503 40.4488 97.7272 39.4026 96.6811C38.3564 95.6349 37.8333 94.3385 37.8333 92.792C37.8333 91.2455 38.3564 89.9491 39.4026 88.9029C40.4488 87.8568 41.7451 87.3337 43.2917 87.3337C44.8382 87.3337 46.1346 87.8568 47.1807 88.9029C48.2269 89.9491 48.75 91.2455 48.75 92.792C48.75 94.3385 48.2269 95.6349 47.1807 96.6811C46.1346 97.7272 44.8382 98.2503 43.2917 98.2503ZM86.9583 98.2503C85.4118 98.2503 84.1155 97.7272 83.0693 96.6811C82.0231 95.6349 81.5 94.3385 81.5 92.792C81.5 91.2455 82.0231 89.9491 83.0693 88.9029C84.1155 87.8568 85.4118 87.3337 86.9583 87.3337C88.5049 87.3337 89.8012 87.8568 90.8474 88.9029C91.8936 89.9491 92.4167 91.2455 92.4167 92.792C92.4167 94.3385 91.8936 95.6349 90.8474 96.6811C89.8012 97.7272 88.5049 98.2503 86.9583 98.2503Z" fill="#6169BC"/>
</g>
</g>
</svg>
