<svg width="131" height="120" viewBox="0 0 131 120" fill="none" xmlns="http://www.w3.org/2000/svg">
<g id="Layer_2">
<path id="Vector" d="M3.90876 77.1443C7.15363 87.5937 15.2504 95.5406 25.0302 97.8918C28.8702 98.8196 32.6086 99.5826 36.1799 100.181L46.9644 111.764C52.0719 117.257 58.7858 120 65.4997 120C72.2136 120 78.9275 117.257 84.035 111.764L94.8195 100.181C98.3908 99.5826 102.129 98.8196 105.963 97.8918C115.749 95.5406 123.845 87.5937 127.071 77.2203L127.129 77.0415C127.135 77.014 127.142 76.9936 127.148 76.9662C132.287 60.4536 132.294 42.2565 127.109 25.5518C123.935 15.1291 115.723 7.13435 105.649 4.67264C79.3758 -1.5552 51.6112 -1.56224 25.3121 4.67968C15.276 7.13435 7.0645 15.1291 3.83863 25.7228C-1.29444 42.2558 -1.28788 60.4529 3.90876 77.1443ZM16.3449 29.9367C18.0988 24.1896 22.6492 19.7695 28.1794 18.4222C40.3908 15.5212 52.9547 14.0774 65.5128 14.0774C78.0578 14.0774 90.6021 15.5212 102.782 18.4151C108.35 19.7695 112.901 24.1896 114.725 30.1774C118.962 43.8305 118.962 58.8648 114.719 72.5109L114.661 72.6897C112.863 78.4846 108.433 82.8779 103.102 84.1563C98.8135 85.1876 94.6786 86.0056 90.8065 86.5899C89.3988 86.8031 88.0866 87.5043 87.0813 88.5834L74.767 101.81C69.6595 107.296 61.3392 107.296 56.2317 101.81L43.9175 88.5834C42.9127 87.5043 41.6006 86.8031 40.1922 86.5899C36.3201 86.0056 32.1852 85.1876 27.8904 84.1563C22.5653 82.8779 18.1361 78.4846 16.28 72.5109C12.0376 58.8648 12.0377 43.8298 16.3449 29.9367Z" fill="#6169BC"/>
<path id="Vector_2" d="M39.2838 51.3255H40.1476L33.8309 61.4997C32.4933 63.658 32.3655 66.4358 33.5045 68.725C34.6436 71.0143 36.8648 72.444 39.2838 72.444H52.3918C56.0141 72.444 58.9457 69.2952 58.9457 65.4045C58.9457 61.5138 56.0141 58.365 52.3918 58.365H51.528L57.8453 48.1908C59.183 46.0325 59.3108 43.2547 58.1717 40.9655C57.0326 38.6763 54.8108 37.2465 52.3918 37.2465H39.2838C35.6614 37.2465 32.7299 40.3953 32.7299 44.286C32.7299 48.1768 35.6614 51.3255 39.2838 51.3255ZM74.2362 44.286H79.4715L68.7826 61.4997C67.4449 63.658 67.3171 66.4358 68.4562 68.725C69.5953 71.0143 71.8171 72.444 74.2362 72.444H91.7156C95.338 72.444 98.2696 69.2952 98.2696 65.4045C98.2696 61.5138 95.338 58.365 91.7156 58.365H86.4803L97.1692 41.1513C98.5068 38.993 98.6346 36.2152 97.4955 33.926C96.3565 31.6368 94.1347 30.207 91.7156 30.207H74.2362C70.6138 30.207 67.6822 33.3558 67.6822 37.2465C67.6822 41.1373 70.6138 44.286 74.2362 44.286Z" fill="#6169BC"/>
</g>
</svg>
