<svg width="289" height="291" viewBox="0 0 289 291" fill="none" xmlns="http://www.w3.org/2000/svg">
<g opacity="0.6" filter="url(#filter0_d_489_557)">
<path d="M149.617 262.157C219.412 262.157 274.817 204.402 273.367 133.157C271.917 61.9125 214.162 4.15723 144.367 4.15723C74.5716 4.15723 19.1669 61.9125 20.6168 133.157C22.0668 204.402 79.8223 262.157 149.617 262.157Z" fill="#85EDE3"/>
</g>
<path d="M133.687 100.21C134.725 92.1412 129.404 84.8095 121.804 83.8343C114.203 82.8591 107.2 88.6097 106.162 96.6786C105.124 104.747 110.445 112.079 118.046 113.054C125.646 114.03 132.649 108.279 133.687 100.21Z" fill="#38332F"/>
<path d="M208.49 103.731C209.528 95.6622 204.207 88.3305 196.607 87.3553C189.006 86.3801 182.003 92.1307 180.965 100.2C179.928 108.268 185.248 115.6 192.849 116.575C200.449 117.551 207.452 111.8 208.49 103.731Z" fill="#38332F"/>
<path d="M115.356 37.429C100.105 32.3179 82.8066 41.3671 77.2867 56.1306C76.3303 58.6778 78.3437 61.9456 80.9275 62.5321C83.8804 63.2024 86.3132 61.6272 87.3367 58.8957C87.4206 58.6946 88.0078 57.5048 87.4541 58.5773C87.6219 58.2756 87.7561 57.9405 87.9071 57.6388C88.2595 56.9518 88.6454 56.2982 89.048 55.6447C89.2326 55.3598 89.4339 55.0749 89.6353 54.7733C89.9373 54.3543 90.1554 54.1197 89.7024 54.656C90.1889 54.0694 90.6923 53.4829 91.2292 52.9299C91.7661 52.3769 92.3198 51.8574 92.907 51.3547C93.0076 51.2709 93.9137 50.5168 93.36 50.9692C92.8063 51.4217 93.7291 50.7011 93.8466 50.6173C95.1049 49.7292 96.4471 48.9416 97.8397 48.288C97.9739 48.221 99.0477 47.7518 98.3766 48.0366C97.7055 48.3215 98.7961 47.8858 98.9303 47.8355C99.6517 47.5674 100.39 47.3328 101.128 47.1317C101.866 46.9306 102.621 46.7631 103.376 46.6122C103.527 46.5787 104.702 46.4111 103.93 46.5117C103.158 46.6122 104.333 46.4782 104.484 46.4614C106.027 46.3274 107.537 46.3944 109.081 46.5117C108.376 46.4614 108.544 46.4111 109.148 46.5284C109.484 46.5955 109.836 46.6625 110.172 46.7295C110.994 46.9139 111.799 47.1485 112.604 47.4166C115.188 48.288 118.41 46.4279 119.014 43.7802C119.668 40.9146 118.141 38.3171 115.373 37.3787L115.356 37.429Z" fill="#38332F"/>
<path d="M201.008 52.8967C201.813 52.8632 202.602 52.8632 203.407 52.8967C203.776 52.9134 204.145 52.9637 204.497 52.9805C204.9 53.0307 204.749 52.9972 204.028 52.9134C204.212 52.9469 204.397 52.9637 204.565 52.9972C206.075 53.2486 207.551 53.6508 208.977 54.187L209.313 54.3211C209.85 54.5389 209.766 54.5054 209.095 54.2205C209.279 54.4049 209.85 54.5724 210.101 54.6897C210.756 55.0081 211.41 55.3768 212.048 55.7455C212.685 56.1142 213.289 56.5331 213.893 56.9688C214.094 57.1196 214.296 57.2537 214.48 57.4045L214.011 57.0526C214.363 57.2034 214.715 57.6391 215 57.8905C216.158 58.9127 217.198 60.0355 218.188 61.2253C218.859 62.0296 217.635 60.3874 218.272 61.3426C218.474 61.6442 218.692 61.9459 218.893 62.2475C219.296 62.8675 219.682 63.4876 220.017 64.1411C220.353 64.7947 220.604 65.4985 220.973 66.1185C220.302 65.0293 220.856 65.8839 220.973 66.2358C221.091 66.5877 221.208 66.9229 221.326 67.2748C221.544 67.9786 221.728 68.6825 221.879 69.403C221.913 69.5539 222.215 71.0285 222.03 70.1571C221.846 69.2857 222.081 70.7604 222.098 70.928C222.316 73.626 224.346 76.257 227.299 76.1229C229.933 76.0056 232.735 73.8271 232.5 70.928C231.879 63.0854 228.238 55.7455 222.332 50.5171C216.427 45.2887 208.876 42.1214 200.974 42.4734C198.256 42.5907 195.639 44.7692 195.773 47.6683C195.89 50.383 198.071 52.9972 200.974 52.8632L201.008 52.8967Z" fill="#38332F"/>
<path d="M205.32 171.709C198.474 153.242 175.505 143.271 156.311 144.746C137.117 146.221 116.749 163.062 108.091 189.388C106.43 194.466 105.189 200.13 105.977 205.258C107.269 213.57 113.561 217.743 119.551 217.491C125.54 217.24 131.429 213.67 137.335 211.123C150.237 205.593 163.777 204.99 176.143 209.397C185.253 212.648 197.233 216.017 205.152 206.682C212.735 197.751 209.665 182.819 205.32 171.709Z" fill="#CBF6F7"/>
<path d="M210.336 170.318C203.038 151.147 182.686 140.54 162.938 139.467C143.325 138.411 126.329 149.539 114.92 164.771C108.376 173.519 103.091 184.361 101.212 195.17C100.155 201.236 100.222 207.504 103.175 213.067C105.541 217.508 109.937 221.027 114.869 222.167C120.876 223.558 126.715 221.58 132.167 219.167C137.989 216.603 143.509 213.905 149.784 212.598C155.137 211.475 160.807 211.274 166.193 212.162C171.579 213.05 176.411 215.212 181.595 216.536C186.78 217.86 192.786 218.564 198.222 217.056C204.212 215.397 209.43 211.006 212.115 205.409C217.416 194.399 214.531 181.177 210.319 170.301C209.313 167.687 206.83 165.877 203.91 166.665C201.41 167.352 199.263 170.419 200.269 173.067C201.997 177.558 203.457 182.199 204.179 186.975C204.749 190.746 204.766 195.053 203.625 198.723C202.568 202.108 200.387 204.99 196.813 206.599C197.585 206.247 195.924 206.9 195.974 206.884C195.622 207.001 195.269 207.085 194.917 207.185C194.38 207.319 193.843 207.437 193.29 207.504C194.112 207.403 192.937 207.504 192.753 207.504C190.421 207.554 188.944 207.487 187.132 207.135C182.854 206.314 178.861 204.655 174.7 203.448C169.331 201.873 163.626 201.136 158.039 201.27C152.049 201.404 146.009 202.476 140.338 204.403C134.667 206.331 129.97 209.213 124.584 211.09C122.638 211.76 120.658 212.347 118.594 212.263C118.393 212.263 116.967 211.978 118.091 212.229C117.621 212.129 117.168 211.978 116.698 211.877C115.842 211.693 116.295 211.777 116.581 211.877C115.977 211.626 115.406 211.291 114.853 210.939C114.064 210.453 112.873 209.129 112.168 207.789C111.514 206.565 110.994 204.286 110.943 202.359C110.826 197.248 112.47 192.204 114.249 187.478C115.893 183.088 118.057 178.865 120.557 174.893C124.936 167.922 130.959 161.386 137.52 157.013C139.097 155.974 140.707 155.002 142.385 154.13C143.241 153.678 144.113 153.259 144.986 152.873C145.942 152.438 145.389 152.689 145.17 152.79C145.808 152.522 146.446 152.287 147.083 152.052C148.811 151.432 150.59 150.913 152.385 150.511C153.19 150.343 153.996 150.192 154.801 150.058C156.361 149.79 153.778 150.108 155.338 149.991C155.841 149.958 156.345 149.907 156.848 149.874C165.942 149.271 174.951 151.164 182.82 155.203C187.166 157.432 190.337 159.644 193.592 162.945C195.303 164.688 196.092 165.609 197.316 167.436C198.541 169.262 199.732 171.542 200.303 173.067C201.31 175.681 203.809 177.491 206.712 176.703C209.229 176.016 211.36 172.949 210.353 170.301L210.336 170.318Z" fill="#38332F"/>
<defs>
<filter id="filter0_d_489_557" x="-4.41101" y="-4.84277" width="292.806" height="298" filterUnits="userSpaceOnUse" color-interpolation-filters="sRGB">
<feFlood flood-opacity="0" result="BackgroundImageFix"/>
<feColorMatrix in="SourceAlpha" type="matrix" values="0 0 0 0 0 0 0 0 0 0 0 0 0 0 0 0 0 0 127 0" result="hardAlpha"/>
<feOffset dx="-5" dy="11"/>
<feGaussianBlur stdDeviation="10"/>
<feComposite in2="hardAlpha" operator="out"/>
<feColorMatrix type="matrix" values="0 0 0 0 0 0 0 0 0 0 0 0 0 0 0 0 0 0 0.14 0"/>
<feBlend mode="normal" in2="BackgroundImageFix" result="effect1_dropShadow_489_557"/>
<feBlend mode="normal" in="SourceGraphic" in2="effect1_dropShadow_489_557" result="shape"/>
</filter>
</defs>
</svg>
