<svg width="295" height="299" viewBox="0 0 295 299" fill="none" xmlns="http://www.w3.org/2000/svg">
<g opacity="0.6" filter="url(#filter0_d_489_574)">
<path d="M151.75 267.746C222.609 267.746 279.741 209.991 279.356 138.746C278.971 67.5014 221.216 9.74609 150.356 9.74609C79.496 9.74609 22.3648 67.5014 22.7496 138.746C23.1345 209.991 80.8898 267.746 151.75 267.746Z" fill="#417ABD"/>
</g>
<path d="M88.2168 202.819C90.77 197.067 94.0551 193.294 99.0083 189.266C103.604 185.511 110.106 182.165 116.013 180.236C128.489 176.19 142.668 176.446 153.936 182.267C155.519 183.087 157.068 184.008 158.532 185.033C158.77 185.203 159.008 185.374 159.247 185.545C160.693 186.586 158.583 184.913 159.91 186.074C160.472 186.569 161.051 187.064 161.596 187.576C162.191 188.156 162.77 188.754 163.315 189.368C163.502 189.573 163.672 189.778 163.842 189.983C164.932 191.229 163.366 189.181 164.268 190.546C165.17 191.912 165.97 193.209 166.651 194.66C167.944 197.442 171.927 198.142 174.413 196.691C177.255 195.018 177.749 191.707 176.438 188.907C169.987 175.115 154.225 168.287 139.961 166.529C124.268 164.6 107.485 169.089 94.6679 178.358C87.9445 183.223 81.8168 189.368 78.4126 197.05C77.17 199.849 77.5956 203.161 80.4381 204.834C82.8551 206.25 86.9402 205.619 88.1998 202.802L88.2168 202.819Z" fill="#38332F"/>
<path d="M182.43 120.167C182.004 120.201 177.885 120.44 177.834 120.098C178.702 120.218 178.838 120.235 178.208 120.133L177.834 120.064C177.459 119.996 177.085 119.911 176.71 119.825C175.962 119.655 175.23 119.45 174.498 119.194C174.14 119.074 173.783 118.938 173.408 118.801C172.149 118.357 174.549 119.347 173.34 118.784C172.642 118.46 171.962 118.118 171.281 117.743C170.6 117.367 169.953 116.958 169.306 116.531C168.983 116.309 168.676 116.087 168.353 115.865C167.281 115.08 169.289 116.684 168.285 115.797C167.111 114.773 165.987 113.731 164.983 112.554C164.762 112.297 164.353 111.973 164.251 111.666L164.659 112.212C164.506 112.007 164.353 111.802 164.2 111.581C163.757 110.949 163.349 110.3 162.957 109.635C162.566 108.969 162.242 108.286 161.902 107.586C161.425 106.647 162.191 108.371 161.953 107.706C161.817 107.347 161.681 106.989 161.562 106.63C161.306 105.896 161.102 105.162 160.932 104.411C160.847 104.036 160.762 103.66 160.693 103.285C160.421 101.8 160.779 104.258 160.642 103.08C160.319 100.127 158.276 97.2419 154.974 97.3955C152.183 97.515 148.949 99.9219 149.306 103.08C150.208 111.137 153.987 118.613 160.268 123.82C166.447 128.941 174.293 132.133 182.413 131.484C185.357 131.245 188.234 129.043 188.081 125.8C187.945 122.915 185.579 119.859 182.413 120.115L182.43 120.167Z" fill="#38332F"/>
<path d="M63.74 150.039C79.8251 146.284 90.1911 129.026 87.0592 113.032C86.4805 110.113 82.8549 108.167 80.0805 109.055C76.9826 110.062 75.5017 112.912 76.1145 116.053C76.1826 116.412 76.1996 116.941 76.3358 117.265C75.9102 116.139 76.2677 116.787 76.3188 117.385C76.3698 118.136 76.3868 118.887 76.3698 119.621C76.3698 120.27 76.0805 121.243 76.2166 121.857L76.3188 121.157C76.2847 121.43 76.2337 121.686 76.1826 121.959C76.1145 122.301 76.0464 122.625 75.9783 122.967C75.8081 123.701 75.6209 124.418 75.3996 125.134C75.2805 125.527 75.1443 125.92 75.0081 126.295C74.8719 126.637 74.6166 127.831 74.9741 126.466C74.6336 127.831 73.5954 129.282 72.8464 130.443C72.6592 130.733 72.4719 131.024 72.2677 131.297C72.1656 131.433 71.3145 132.526 71.8592 131.877C72.4039 131.228 71.6379 132.133 71.5188 132.253C71.2464 132.56 70.9741 132.867 70.7017 133.174C70.1911 133.721 69.6634 134.25 69.1017 134.762C68.7954 135.035 68.489 135.308 68.1826 135.564C67.2634 136.315 68.0464 135.479 68.1996 135.564C68.0124 135.479 66.4464 136.759 66.1741 136.913C65.5954 137.254 64.9996 137.578 64.3868 137.886C64.1485 138.005 63.8932 138.125 63.6549 138.227L64.2677 137.971C64.0805 137.937 63.2975 138.329 63.1273 138.398C62.3443 138.671 61.5613 138.876 60.7613 139.063C57.8677 139.746 55.8932 143.211 56.7954 146.062C57.7656 149.083 60.6762 150.756 63.7741 150.039H63.74Z" fill="#38332F"/>
<defs>
<filter id="filter0_d_489_574" x="-2.2522" y="0.746094" width="296.61" height="298" filterUnits="userSpaceOnUse" color-interpolation-filters="sRGB">
<feFlood flood-opacity="0" result="BackgroundImageFix"/>
<feColorMatrix in="SourceAlpha" type="matrix" values="0 0 0 0 0 0 0 0 0 0 0 0 0 0 0 0 0 0 127 0" result="hardAlpha"/>
<feOffset dx="-5" dy="11"/>
<feGaussianBlur stdDeviation="10"/>
<feComposite in2="hardAlpha" operator="out"/>
<feColorMatrix type="matrix" values="0 0 0 0 0 0 0 0 0 0 0 0 0 0 0 0 0 0 0.14 0"/>
<feBlend mode="normal" in2="BackgroundImageFix" result="effect1_dropShadow_489_574"/>
<feBlend mode="normal" in="SourceGraphic" in2="effect1_dropShadow_489_574" result="shape"/>
</filter>
</defs>
</svg>
