<svg width="273" height="275" viewBox="0 0 273 275" fill="none" xmlns="http://www.w3.org/2000/svg">
<g opacity="0.4" filter="url(#filter0_d_481_593)">
<path d="M140.536 267.036C210.224 267.036 267.979 209.28 269.536 138.036C271.093 66.7909 215.862 9.03564 146.175 9.03564C76.4871 9.03564 18.7318 66.7909 17.1747 138.036C15.6176 209.28 70.8483 267.036 140.536 267.036Z" fill="#FCED23"/>
</g>
<path d="M115.905 77.3597C115.469 84.761 109.128 90.7578 101.746 90.7578C94.3636 90.7578 88.7293 84.761 89.1655 77.3597C89.6016 69.9583 95.9426 63.9615 103.325 63.9615C110.707 63.9615 116.341 69.9583 115.905 77.3597Z" fill="#38332F" stroke="black"/>
<path d="M178.283 67.1178C183.672 72.2094 184.19 80.9216 179.445 86.5767C174.7 92.2318 166.484 92.6932 161.095 87.6016C155.706 82.51 155.188 73.7979 159.933 68.1428C164.678 62.4877 172.894 62.0262 178.283 67.1178Z" fill="#38332F" stroke="black"/>
<path d="M146.563 156.754L146.567 156.753C147.991 156.389 149.401 155.936 150.78 155.379C161.528 151.099 169.49 140.111 172.047 127.891H172.065L172.145 127.489C172.632 125.041 175.359 123.61 177.54 124.238C179.894 124.92 181.124 127.497 180.613 130.052L180.612 130.053C178.885 138.758 174.823 146.902 169.038 153.329C158.75 164.755 144.214 169.816 129.11 165.335C113.973 160.846 101.963 148.31 96.0167 133.037L96.0165 133.036C95.5785 131.915 95.8058 130.646 96.4469 129.548C97.0905 128.446 98.1063 127.598 99.1138 127.306L99.1141 127.306C100.355 126.946 101.455 127.178 102.37 127.786C103.298 128.403 104.053 129.42 104.534 130.641C107.264 137.649 111.984 143.954 117.661 148.767L117.662 148.767C122.356 152.742 127.92 155.573 133.914 156.911L133.915 156.911C136.449 157.47 139.325 157.714 142.395 157.47C143.997 157.347 144.753 157.204 146.563 156.754Z" fill="#38332F" stroke="black"/>
<defs>
<filter id="filter0_d_481_593" x="-7.85742" y="0.0356445" width="292.426" height="298" filterUnits="userSpaceOnUse" color-interpolation-filters="sRGB">
<feFlood flood-opacity="0" result="BackgroundImageFix"/>
<feColorMatrix in="SourceAlpha" type="matrix" values="0 0 0 0 0 0 0 0 0 0 0 0 0 0 0 0 0 0 127 0" result="hardAlpha"/>
<feOffset dx="-5" dy="11"/>
<feGaussianBlur stdDeviation="10"/>
<feComposite in2="hardAlpha" operator="out"/>
<feColorMatrix type="matrix" values="0 0 0 0 0 0 0 0 0 0 0 0 0 0 0 0 0 0 0.14 0"/>
<feBlend mode="normal" in2="BackgroundImageFix" result="effect1_dropShadow_481_593"/>
<feBlend mode="normal" in="SourceGraphic" in2="effect1_dropShadow_481_593" result="shape"/>
</filter>
</defs>
</svg>
