<svg width="279" height="290" viewBox="0 0 279 290" fill="none" xmlns="http://www.w3.org/2000/svg">
<g opacity="0.6" filter="url(#filter0_d_489_604)">
<path d="M142.277 267.195C213.522 267.195 271.277 209.44 271.277 138.195C271.277 66.9501 213.522 9.19482 142.277 9.19482C71.0322 9.19482 13.277 66.9501 13.277 138.195C13.277 209.44 71.0322 267.195 142.277 267.195Z" fill="#7D3C99"/>
</g>
<path d="M191.598 50.3402C190.158 50.5245 188.719 50.6251 187.263 50.5916C186.543 50.5748 185.824 50.5078 185.104 50.4575C183.648 50.3402 186.326 50.6921 184.87 50.424C184.585 50.3737 184.301 50.3234 184.016 50.2731C182.594 49.9882 181.188 49.6027 179.816 49.1335C179.397 48.9826 178.996 48.815 178.594 48.6642C178.996 48.815 179.33 48.9994 178.728 48.7145C178.008 48.3793 177.289 48.0273 176.586 47.6418C175.314 46.9379 174.109 46.1335 172.92 45.2787C172.268 44.8094 173.908 46.1335 172.87 45.2117C172.602 44.977 172.318 44.7424 172.05 44.5078C171.515 44.0217 170.996 43.5189 170.477 42.9994C169.958 42.4798 169.49 41.9435 169.021 41.3737C168.636 40.9044 168.536 40.7201 168.954 41.3234C168.736 41.0217 168.536 40.7368 168.318 40.4351C167.465 39.1782 166.711 37.8374 166.075 36.4631C164.837 33.7815 160.77 32.8932 158.377 34.4351C155.616 36.2117 155.03 39.2787 156.352 42.1446C162.343 55.0329 177.439 63.4798 191.564 61.6027C194.476 61.2173 197.338 59.2899 197.187 55.9714C197.07 53.2564 194.694 49.9212 191.564 50.3402H191.598Z" fill="#38332F"/>
<path d="M75.1997 82.0995C89.2244 80.038 101.542 67.7866 103.734 53.7754C103.985 52.2335 103.985 50.8425 103.165 49.4347C102.479 48.2615 101.14 47.1553 99.8014 46.8536C97.107 46.2335 93.3749 47.6749 92.8895 50.7922C92.6552 52.2838 92.3038 53.7587 91.8352 55.2C91.718 55.5352 91.6176 55.8536 91.4837 56.1888C91.4 56.4067 91.3164 56.6246 91.2327 56.8425L91.5339 56.1386C91.1155 56.6749 90.8812 57.5799 90.5632 58.1833C89.8771 59.4738 89.0905 60.6805 88.2537 61.8872C87.6177 62.809 89.057 60.8983 88.17 61.9877C87.9524 62.2559 87.7181 62.524 87.5006 62.7922C86.9985 63.362 86.4797 63.9151 85.9441 64.4514C85.4421 64.9374 84.94 65.4235 84.4044 65.876C84.1367 66.1106 83.8689 66.3285 83.6011 66.5464C82.7476 67.2671 84.622 65.7922 83.484 66.6134C82.3459 67.4346 81.074 68.2391 79.7853 68.9095C79.4841 69.0771 79.1661 69.2279 78.8481 69.3788C78.6808 69.4626 77.3586 70.1162 78.2456 69.6637C79.1326 69.2112 77.8105 69.8145 77.6264 69.8816C77.2917 69.9989 76.9737 70.1162 76.639 70.2168C75.1997 70.6693 73.727 71.0045 72.2207 71.2224C70.9321 71.4067 69.4928 72.7307 68.8568 73.8034C68.1539 75.0101 67.8527 76.7866 68.2878 78.1441C69.3254 81.3453 72.0701 82.5352 75.1997 82.0827V82.0995Z" fill="#38332F"/>
<path d="M136.453 138.178C139.766 132.714 145.139 128.843 151.532 127.468C154.226 126.882 158.025 126.949 160.737 127.569C164.452 128.407 167.33 129.815 170.477 132.195C172.903 134.021 176.769 132.58 178.175 130.167C179.866 127.284 178.594 124.301 176.15 122.457C168.351 116.575 158.025 114.547 148.519 116.591C139.449 118.552 131.499 124.602 126.713 132.48C122.947 138.697 132.67 144.362 136.419 138.161L136.453 138.178Z" fill="#38332F"/>
<path d="M173.182 90.9778C180.651 89.9305 185.806 82.6387 184.694 74.6912C183.583 66.7436 176.627 61.1498 169.158 62.197C161.689 63.2443 156.534 70.536 157.645 78.4836C158.756 86.4312 165.712 92.025 173.182 90.9778Z" fill="#38332F"/>
<path d="M105.706 101.285C113.176 100.238 118.33 92.9459 117.219 84.9983C116.108 77.0507 109.152 71.4569 101.683 72.5042C94.2131 73.5514 89.0587 80.8432 90.1698 88.7908C91.281 96.7383 98.2369 102.332 105.706 101.285Z" fill="#38332F"/>
<path d="M135.532 149.81C140.051 138.095 132.955 123.48 120.704 120.346C117.859 119.609 114.462 121.284 113.793 124.284C113.123 127.284 114.68 130.435 117.725 131.206C118.294 131.357 118.847 131.541 119.399 131.726C120.286 132.028 118.412 131.206 118.981 131.558C119.232 131.709 119.499 131.81 119.75 131.944C120.219 132.195 120.654 132.463 121.089 132.765C121.491 133.033 121.976 133.687 120.872 132.564C121.039 132.731 121.24 132.865 121.424 133.033C121.826 133.385 122.194 133.754 122.562 134.139C122.763 134.357 122.947 134.575 123.131 134.793C123.784 135.53 122.361 133.687 122.964 134.558C123.566 135.43 124.135 136.335 124.604 137.307C124.704 137.508 125.056 138.363 124.688 137.441C124.319 136.519 124.704 137.525 124.788 137.726C124.972 138.229 125.123 138.748 125.273 139.268C125.424 139.787 125.491 140.324 125.608 140.86C125.742 141.447 125.457 139.284 125.558 140.541C125.575 140.793 125.608 141.028 125.625 141.279C125.658 141.865 125.658 142.469 125.625 143.055C125.625 143.307 125.591 143.558 125.575 143.793C125.508 144.765 125.658 143.642 125.642 143.34C125.692 144.447 125.072 145.854 124.688 146.843C123.633 149.592 125.859 153.145 128.62 153.765C131.834 154.502 134.411 152.776 135.532 149.826V149.81Z" fill="#38332F"/>
<path d="M185.355 132.647C185.188 132.53 184.736 132.128 184.552 132.094C184.736 132.128 185.506 132.899 184.92 132.379C184.485 131.994 184.033 131.608 183.631 131.172C183.447 130.988 183.263 130.787 183.096 130.586C182.945 130.418 182.393 129.647 182.928 130.418C183.464 131.189 182.928 130.418 182.795 130.217C182.61 129.966 182.443 129.698 182.276 129.429C181.991 128.977 181.74 128.524 181.506 128.055C181.389 127.821 181.288 127.569 181.171 127.351C180.853 126.748 181.623 128.608 181.322 127.686C180.97 126.631 180.669 125.608 180.452 124.519C180.351 124.05 180.485 123.413 180.485 124.938C180.485 124.686 180.435 124.418 180.418 124.167C180.385 123.647 180.368 123.145 180.368 122.625C180.368 122.072 180.518 121.469 180.468 120.932C180.502 121.284 180.217 122.307 180.418 121.368C180.468 121.117 180.518 120.865 180.569 120.614C180.686 120.111 180.82 119.625 180.987 119.139C181.071 118.904 181.171 118.67 181.255 118.418C181.456 117.765 180.669 119.625 181.121 118.787C181.389 118.284 181.64 117.781 181.941 117.312C182.075 117.094 182.226 116.893 182.376 116.675C182.945 115.821 181.556 117.681 182.259 116.826C184.15 114.564 184.636 111.044 182.259 108.865C180.184 106.955 176.318 106.452 174.309 108.865C169.941 114.094 168.418 120.53 169.556 127.217C170.628 133.452 174.46 138.932 179.715 142.385C182.175 144.01 186.041 142.955 187.414 140.357C188.903 137.541 188.033 134.374 185.389 132.647H185.355Z" fill="#38332F"/>
<defs>
<filter id="filter0_d_489_604" x="-11.723" y="0.194824" width="298" height="298" filterUnits="userSpaceOnUse" color-interpolation-filters="sRGB">
<feFlood flood-opacity="0" result="BackgroundImageFix"/>
<feColorMatrix in="SourceAlpha" type="matrix" values="0 0 0 0 0 0 0 0 0 0 0 0 0 0 0 0 0 0 127 0" result="hardAlpha"/>
<feOffset dx="-5" dy="11"/>
<feGaussianBlur stdDeviation="10"/>
<feComposite in2="hardAlpha" operator="out"/>
<feColorMatrix type="matrix" values="0 0 0 0 0 0 0 0 0 0 0 0 0 0 0 0 0 0 0.14 0"/>
<feBlend mode="normal" in2="BackgroundImageFix" result="effect1_dropShadow_489_604"/>
<feBlend mode="normal" in="SourceGraphic" in2="effect1_dropShadow_489_604" result="shape"/>
</filter>
</defs>
</svg>
