<svg width="283" height="292" viewBox="0 0 283 292" fill="none" xmlns="http://www.w3.org/2000/svg">
<g filter="url(#filter0_d_489_546)">
<path d="M146.5 267.5C217.745 267.5 275.5 209.745 275.5 138.5C275.5 67.2553 217.745 9.5 146.5 9.5C75.2553 9.5 17.5 67.2553 17.5 138.5C17.5 209.745 75.2553 267.5 146.5 267.5Z" fill="#CEFFAE"/>
</g>
<path d="M93.6617 104.237C94.6285 103.048 95.6802 101.927 96.8506 100.908C97.1559 100.636 97.4613 100.381 97.7836 100.126C97.3765 100.466 97.3425 100.449 97.7836 100.143C98.3772 99.7355 98.9879 99.3278 99.5985 98.9541C100.294 98.5294 101.006 98.1557 101.719 97.7989C102.007 97.663 102.313 97.5272 102.601 97.3913C103.195 97.0855 101.787 97.663 102.804 97.3063C104.263 96.7967 105.705 96.3211 107.232 95.9813C107.944 95.8284 108.657 95.6925 109.386 95.5906C108.877 95.6586 108.707 95.6756 109.318 95.6246C109.725 95.5906 110.132 95.5567 110.522 95.5397C112.066 95.4547 113.593 95.5227 115.119 95.6586C115.747 95.7095 115.543 95.7435 115.051 95.6586C115.442 95.7435 115.849 95.7945 116.239 95.8794C116.951 96.0153 117.647 96.2022 118.359 96.389C119.139 96.6099 119.886 96.8986 120.649 97.1704C120.157 97.0006 120.106 96.9156 120.632 97.1704C121.073 97.3743 121.514 97.5951 121.938 97.8159C124.584 99.1919 128.248 98.5803 129.741 95.7605C131.115 93.1445 130.521 89.4073 127.688 87.9464C113.932 80.8119 95.5275 83.9714 85.6045 96.1852C83.7216 98.4954 83.1788 102.029 85.6045 104.254C87.6909 106.174 91.6601 106.734 93.6617 104.254V104.237Z" fill="#38332F"/>
<path d="M210.5 121.513C205.784 106.802 190.45 96.0155 174.861 97.7142C171.91 98.037 169.009 100.109 169.162 103.422C169.281 106.242 171.689 109.486 174.861 109.13C176.422 108.96 177.983 108.909 179.543 109.011C179.899 109.028 180.256 109.079 180.595 109.096C181.324 109.147 179.458 108.892 180.561 109.096C181.324 109.231 182.087 109.384 182.851 109.571C183.614 109.758 184.36 109.979 185.09 110.234C185.429 110.353 185.768 110.472 186.091 110.59C187.176 110.998 186.277 110.472 186.108 110.59C186.311 110.455 187.973 111.491 188.211 111.627C188.906 112 189.585 112.391 190.246 112.816C190.806 113.172 191.553 113.546 192.011 114.039C191.112 113.071 191.943 114.005 192.197 114.209C192.469 114.43 192.74 114.667 193.011 114.905C194.131 115.907 195.132 116.995 196.099 118.15C197.065 119.305 195.437 117.164 196.251 118.354C196.455 118.642 196.658 118.931 196.862 119.237C197.286 119.882 197.693 120.562 198.083 121.241C198.388 121.802 198.914 122.532 199.033 123.144C198.796 121.887 198.965 122.991 199.101 123.365C199.254 123.772 199.389 124.18 199.508 124.588C200.424 127.425 203.511 129.548 206.513 128.58C209.346 127.662 211.467 124.605 210.5 121.564V121.513Z" fill="#38332F"/>
<path d="M163.836 165.408C157.56 173.85 145.55 178.25 135.559 176.109C125.568 173.969 116.595 165.815 113.745 155.691C111.897 149.117 101.634 151.903 103.5 158.511C106.519 169.196 114.254 178.556 124.279 183.363C135.084 188.527 147.179 188.272 158.001 183.278C164.039 180.492 169.043 176.076 172.996 170.776C174.709 168.465 173.369 164.83 171.096 163.505C168.382 161.925 165.549 163.097 163.836 165.408Z" fill="#38332F"/>
<defs>
<filter id="filter0_d_489_546" x="-7.5" y="0.5" width="298" height="298" filterUnits="userSpaceOnUse" color-interpolation-filters="sRGB">
<feFlood flood-opacity="0" result="BackgroundImageFix"/>
<feColorMatrix in="SourceAlpha" type="matrix" values="0 0 0 0 0 0 0 0 0 0 0 0 0 0 0 0 0 0 127 0" result="hardAlpha"/>
<feOffset dx="-5" dy="11"/>
<feGaussianBlur stdDeviation="10"/>
<feComposite in2="hardAlpha" operator="out"/>
<feColorMatrix type="matrix" values="0 0 0 0 0 0 0 0 0 0 0 0 0 0 0 0 0 0 0.14 0"/>
<feBlend mode="normal" in2="BackgroundImageFix" result="effect1_dropShadow_489_546"/>
<feBlend mode="normal" in="SourceGraphic" in2="effect1_dropShadow_489_546" result="shape"/>
</filter>
</defs>
</svg>
