<svg width="287" height="280" viewBox="0 0 287 280" fill="none" xmlns="http://www.w3.org/2000/svg">
<g opacity="0.6" filter="url(#filter0_d_489_534)">
<path d="M142.641 258.523C213.781 258.523 271.536 200.768 271.641 129.523C271.746 58.2782 214.161 0.522949 143.022 0.522949C71.8818 0.522949 14.1266 58.2782 14.0216 129.523C13.9167 200.768 71.5017 258.523 142.641 258.523Z" fill="#5BC491"/>
</g>
<path d="M194.025 76.5024C201.638 75.0831 206.587 67.3665 205.08 59.2669C203.573 51.1672 196.181 45.7517 188.569 47.1709C180.956 48.5902 176.007 56.3068 177.514 64.4064C179.021 72.5061 186.413 77.9216 194.025 76.5024Z" fill="#38332F"/>
<path d="M118.761 84.3285C126.374 82.9093 131.323 75.1927 129.816 67.093C128.309 58.9934 120.917 53.5779 113.305 54.9971C105.692 56.4164 100.743 64.133 102.25 72.2326C103.757 80.3323 111.149 85.7478 118.761 84.3285Z" fill="#38332F"/>
<path d="M212.012 63.0398C212.063 62.6324 211.961 63.4131 211.944 63.481C211.894 63.7695 211.843 64.0411 211.775 64.3296C211.656 64.8896 211.521 65.4497 211.351 65.9928C211.182 66.5359 211.012 67.0959 210.792 67.622C210.792 67.6051 210.486 68.3688 210.622 68.0633C210.503 68.3348 210.385 68.5894 210.266 68.844C209.266 70.9315 208.062 72.6965 206.655 74.2409C203.62 77.5673 199.992 79.7566 195.635 80.7579C194.245 81.0804 193.432 82.6757 193.805 83.9995C194.194 85.4251 195.652 86.1548 197.043 85.8324C207.808 83.3715 215.911 73.8845 217.268 63.0398C217.437 61.6311 215.928 60.4092 214.64 60.4092C213.08 60.4092 212.182 61.6311 212.012 63.0398Z" fill="#38332F"/>
<path d="M91.1362 73.6641C93.4758 84.4579 102.885 92.6551 113.701 94.0977C115.108 94.2844 116.329 92.757 116.329 91.4671C116.329 89.8888 115.108 89.0233 113.701 88.8366C114.108 88.8875 113.345 88.7687 113.277 88.7517C113.006 88.7008 112.718 88.6499 112.446 88.582C111.887 88.4632 111.344 88.3105 110.802 88.1407C109.615 87.7843 109.005 87.5467 108.005 87.0546C107.004 86.5624 106.004 85.9854 105.055 85.3405C104.58 85.018 104.241 84.7804 103.987 84.5598C103.512 84.1694 103.037 83.7621 102.597 83.3548C99.3246 80.283 97.1716 76.6511 96.2222 72.2555C95.917 70.8638 94.3065 70.0492 92.9841 70.4226C91.5431 70.8129 90.848 72.2725 91.1532 73.6641H91.1362Z" fill="#38332F"/>
<path d="M228.338 160.286C221.082 150.222 213.911 140.107 206.57 130.094C204.587 127.396 202.179 125.003 198.517 125.546C194.856 126.089 193.143 129.212 191.278 132.029C187.854 137.205 184.446 142.365 181.022 147.541H190.109C186.43 142.619 182.378 138.037 177.716 134.015C175.173 131.808 172.444 129.263 169.256 128.058C165.73 126.717 162 127.565 159.44 130.366C157.237 132.776 155.626 135.881 153.863 138.614C152.1 141.346 150.167 144.299 148.336 147.15C144.488 153.073 140.656 159.013 136.808 164.937L145.064 163.867C136.74 154.669 127.992 145.878 118.855 137.494C116.193 135.067 112.599 135.729 110.598 138.563C103.783 148.237 96.4426 157.503 88.5933 166.362C86.7115 168.484 86.508 171.708 88.5933 173.813C90.509 175.73 94.1369 175.951 96.0357 173.813C104.478 164.292 112.362 154.278 119.685 143.875L111.429 144.944C120.567 153.328 129.315 162.136 137.639 171.318C140.012 173.948 144.149 172.964 145.895 170.249C152.201 160.524 158.491 150.799 164.798 141.075C165.51 139.972 166.357 138.885 166.985 137.714L166.9 137.799C167.459 137.29 167.459 137.222 166.9 137.596C166.612 137.613 165.9 137.986 165.883 138.037C165.883 138.24 167.968 139.53 168.358 139.836C169.307 140.599 170.223 141.38 171.121 142.178C174.749 145.402 178.14 148.966 181.056 152.853C183.446 156.06 187.803 156.383 190.143 152.853C192.872 148.712 195.618 144.588 198.348 140.447C199.026 139.411 199.721 138.376 200.399 137.341C200.738 136.832 201.349 136.204 201.535 135.61L201.993 134.914L197.399 135.253C197.212 134.931 197.263 134.982 197.534 135.389L198.026 136.068L199.246 137.765L201.45 140.82C207.401 149.068 213.351 157.333 219.302 165.581C220.963 167.89 223.879 169.01 226.49 167.465C228.762 166.141 230.05 162.577 228.372 160.269L228.338 160.286Z" fill="#38332F"/>
<defs>
<filter id="filter0_d_489_534" x="-10.9785" y="-8.47705" width="297.62" height="298" filterUnits="userSpaceOnUse" color-interpolation-filters="sRGB">
<feFlood flood-opacity="0" result="BackgroundImageFix"/>
<feColorMatrix in="SourceAlpha" type="matrix" values="0 0 0 0 0 0 0 0 0 0 0 0 0 0 0 0 0 0 127 0" result="hardAlpha"/>
<feOffset dx="-5" dy="11"/>
<feGaussianBlur stdDeviation="10"/>
<feComposite in2="hardAlpha" operator="out"/>
<feColorMatrix type="matrix" values="0 0 0 0 0 0 0 0 0 0 0 0 0 0 0 0 0 0 0.14 0"/>
<feBlend mode="normal" in2="BackgroundImageFix" result="effect1_dropShadow_489_534"/>
<feBlend mode="normal" in="SourceGraphic" in2="effect1_dropShadow_489_534" result="shape"/>
</filter>
</defs>
</svg>
