<svg width="278" height="290" viewBox="0 0 278 290" fill="none" xmlns="http://www.w3.org/2000/svg">
<g opacity="0.6" filter="url(#filter0_d_489_621)">
<path d="M133.831 267.031C202.858 267.031 260.613 209.276 262.831 138.032C265.049 66.787 210.89 9.03174 141.864 9.03174C72.8372 9.03174 15.082 66.787 12.8638 138.032C10.6457 209.276 64.8047 267.031 133.831 267.031Z" fill="#E53833"/>
</g>
<path d="M116.352 218.259C116.272 214.693 116.13 210.648 116.669 207.391C116.907 205.968 117.224 204.442 117.715 203.122C118.016 202.317 118.413 201.528 118.841 200.791C118.936 200.602 120.045 198.974 119.538 199.642C122.947 195.117 127.734 192.7 133.156 192.94C135.502 193.043 138.039 193.9 140.179 195.237C141.701 196.18 142.018 196.42 143.16 197.603C143.556 198.014 143.936 198.425 144.301 198.871C144.539 199.162 144.761 199.454 144.983 199.745C144.682 199.334 144.713 199.402 145.078 199.951C146.489 202.505 147.313 204.888 147.456 208.111C147.63 211.985 147.107 215.807 146.521 219.596C146.045 222.664 147.266 225.801 150.246 226.675C152.798 227.429 156.334 225.732 156.793 222.647C157.982 214.899 159.171 206.653 156.524 199.077C154.384 192.957 150.167 187.883 144.793 184.832C132.807 178.044 117.921 182.038 110.201 194.037C105.682 201.065 105.476 210.03 105.682 218.259C105.762 221.378 108.076 224.018 111.009 224.018C113.942 224.018 116.415 221.378 116.336 218.259H116.352Z" fill="#38332F"/>
<path d="M180.756 166.944C187.993 166.677 193.647 159.719 193.385 151.402C193.124 143.085 187.045 136.559 179.808 136.826C172.571 137.092 166.917 144.05 167.179 152.367C167.441 160.684 173.52 167.21 180.756 166.944Z" fill="#38332F"/>
<path d="M90.5706 167.913C97.8072 167.647 103.461 160.688 103.2 152.372C102.938 144.055 96.8589 137.529 89.6222 137.795C82.3856 138.061 76.7314 145.02 76.9933 153.336C77.2552 161.653 83.3339 168.179 90.5706 167.913Z" fill="#38332F"/>
<path d="M199.756 115.612C190.276 116.418 182.286 121.578 175.199 128.16C168.604 134.263 162.945 141.6 155.478 146.536C149.628 150.393 154.986 160.37 160.852 156.479C168.351 151.525 174.296 144.548 180.748 138.205C186.122 132.926 192.765 127.732 199.756 127.132C202.625 126.892 205.083 124.663 205.083 121.372C205.083 118.441 202.641 115.372 199.756 115.612Z" fill="#38332F"/>
<path d="M113.783 148.611C106.079 145.062 98.7862 140.571 92.0643 135.172C86.0559 130.337 79.9524 124.235 72.0733 122.675C69.2514 122.109 66.3344 123.515 65.5259 126.703C64.8125 129.498 66.3978 133.234 69.2514 133.783C76.2269 135.172 81.5695 141.051 87.2766 145.577C93.8241 150.788 100.942 155.108 108.409 158.57C111.057 159.787 114.116 159.427 115.702 156.496C117.017 154.079 116.447 149.845 113.783 148.611Z" fill="#38332F"/>
<defs>
<filter id="filter0_d_489_621" x="-12.2019" y="0.0317383" width="290.099" height="298" filterUnits="userSpaceOnUse" color-interpolation-filters="sRGB">
<feFlood flood-opacity="0" result="BackgroundImageFix"/>
<feColorMatrix in="SourceAlpha" type="matrix" values="0 0 0 0 0 0 0 0 0 0 0 0 0 0 0 0 0 0 127 0" result="hardAlpha"/>
<feOffset dx="-5" dy="11"/>
<feGaussianBlur stdDeviation="10"/>
<feComposite in2="hardAlpha" operator="out"/>
<feColorMatrix type="matrix" values="0 0 0 0 0 0 0 0 0 0 0 0 0 0 0 0 0 0 0.14 0"/>
<feBlend mode="normal" in2="BackgroundImageFix" result="effect1_dropShadow_489_621"/>
<feBlend mode="normal" in="SourceGraphic" in2="effect1_dropShadow_489_621" result="shape"/>
</filter>
</defs>
</svg>
