<svg width="278" height="287" viewBox="0 0 278 287" fill="none" xmlns="http://www.w3.org/2000/svg">
<g opacity="0.5" filter="url(#filter0_d_489_634)">
<path d="M133.38 267.19C202.395 267.19 260.151 209.435 262.382 138.19C264.613 66.9452 210.474 9.18994 141.46 9.18994C72.4447 9.18994 14.6885 66.9452 12.4574 138.19C10.2264 209.435 64.3654 267.19 133.38 267.19Z" fill="#F97F12"/>
</g>
<path d="M187.161 124.721C194.579 123.949 199.97 116.502 199.201 108.089C198.432 99.6751 191.796 93.4805 184.378 94.2527C176.959 95.0249 171.569 102.471 172.338 110.885C173.106 119.299 179.743 125.493 187.161 124.721Z" fill="#38332F"/>
<path d="M120.099 132.584C127.517 131.812 132.908 124.366 132.139 115.952C131.37 107.538 124.734 101.344 117.316 102.116C109.897 102.888 104.507 110.335 105.276 118.748C106.044 127.162 112.681 133.357 120.099 132.584Z" fill="#38332F"/>
<path d="M98.8825 72.8015C99.256 71.9347 99.662 71.1027 100.133 70.3053C100.36 69.9066 100.62 69.5252 100.864 69.1439C101.627 67.9651 100.214 69.8199 101.14 68.7798C101.741 68.1038 102.309 67.4104 102.959 66.7864C103.283 66.4743 103.608 66.1796 103.949 65.885C103.267 66.4743 104.047 65.833 104.323 65.6249C105.054 65.1049 105.801 64.6195 106.564 64.1862C106.954 63.9608 107.36 63.7701 107.749 63.5621C108.61 63.0941 107.392 63.6835 107.961 63.4581C109.633 62.7994 111.322 62.2794 113.076 61.9327C113.547 61.8287 114.002 61.794 113.255 61.8807C113.693 61.8287 114.132 61.7766 114.587 61.7593C115.463 61.69 116.357 61.69 117.234 61.7073C117.672 61.7073 118.111 61.7593 118.549 61.794C118.728 61.794 120.141 62.054 118.939 61.8287C119.8 61.9847 120.66 62.1753 121.505 62.418C122.349 62.6607 123.177 62.9554 123.973 63.3021C123.145 62.9381 124.022 63.3541 124.347 63.5274C124.737 63.7355 125.11 63.9608 125.484 64.1862C125.857 64.4115 126.231 64.6715 126.588 64.9315C126.685 65.0009 127.643 65.7636 127.124 65.3302C126.653 64.9315 127.676 65.8503 127.79 65.9716C128.179 66.353 128.537 66.7344 128.894 67.133C130.778 69.2652 134.172 69.1612 136.088 67.133C138.005 65.1049 137.988 61.6033 136.088 59.4538C123.47 45.2047 97.8431 49.2957 90.1129 67.3064C88.9761 69.9759 89.3983 73.1482 91.9317 74.7256C94.1241 76.0951 97.7457 75.4537 98.8825 72.7841V72.8015Z" fill="#38332F"/>
<path d="M213.374 63.6136C209.915 55.3276 201.665 50.2833 193.513 49.0005C184.483 47.5791 175.08 49.9366 168.373 56.7664C163.826 61.3948 170.728 68.7273 175.259 64.1163C176.574 62.7815 176.948 62.4348 178.913 61.3081C179.303 61.0827 179.709 60.8921 180.099 60.6667C180.911 60.2333 179.855 60.7361 180.358 60.5454C181.122 60.2507 181.885 59.956 182.681 59.7306C183.541 59.4706 184.418 59.2973 185.295 59.1239C186.692 58.8466 184.353 59.1586 185.766 59.0546C186.205 59.0199 186.659 58.9679 187.098 58.9506C187.91 58.9159 188.738 58.8986 189.55 58.9506C189.989 58.9679 190.443 59.0199 190.882 59.0373C191.109 59.0546 191.32 59.0719 191.548 59.1066C191.061 59.0373 190.996 59.0199 191.353 59.0719C193.009 59.3493 194.65 59.7826 196.241 60.3894C196.452 60.476 197.621 60.9787 196.68 60.5454C197.069 60.7187 197.459 60.9267 197.849 61.1348C198.547 61.5161 199.213 61.9148 199.879 62.3655C200.171 62.5735 200.463 62.7815 200.74 62.9896C201.665 63.6483 200.334 62.5389 201.064 63.2669C201.665 63.8736 202.282 64.4457 202.835 65.1044C202.932 65.2084 203.744 66.3351 203.111 65.4164C203.354 65.7631 203.582 66.1271 203.809 66.5085C204.247 67.2539 204.621 68.0513 204.962 68.8487C206.034 71.4142 209.525 72.0209 211.62 70.7035C214.089 69.1607 214.446 66.1618 213.358 63.5963L213.374 63.6136Z" fill="#38332F"/>
<path d="M198.71 194.196C170.972 190.07 154.115 192.306 118.582 202.221C122.853 194.525 131.963 181.091 142.227 174.798C152.491 168.506 166.148 168.367 176.104 171.955C185.425 175.318 194.682 185.84 198.969 193.936" fill="#FFE7C5"/>
<path d="M199.96 189.394C189.859 187.903 179.709 186.932 169.494 187.366C159.279 187.799 148.885 189.584 138.768 191.89C131.59 193.537 124.444 195.444 117.347 197.42L122.609 204.735C128.39 194.403 136.202 183.344 146.579 177.97C156.957 172.596 171.638 173.325 181.3 180.449C186.838 184.523 191.596 190.243 194.926 196.449C197.914 201.996 205.969 196.986 202.981 191.422C199.457 184.869 194.585 178.924 189.014 174.243C182.892 169.095 176.217 166.148 168.503 165.073C160.789 163.999 153.303 164.64 146.254 167.379C139.206 170.118 133.246 174.937 128.066 180.674C122.885 186.412 118.37 192.878 114.554 199.691C112.443 203.469 115.934 208.08 119.816 207.006C140.294 201.303 160.205 196.31 181.349 197.35C186.724 197.61 192.23 198.2 197.459 198.962C199.944 199.326 202.461 198.321 203.192 195.496C203.793 193.173 202.445 189.74 199.944 189.376L199.96 189.394Z" fill="#38332F"/>
<defs>
<filter id="filter0_d_489_634" x="-12.6091" y="0.189941" width="290.058" height="298" filterUnits="userSpaceOnUse" color-interpolation-filters="sRGB">
<feFlood flood-opacity="0" result="BackgroundImageFix"/>
<feColorMatrix in="SourceAlpha" type="matrix" values="0 0 0 0 0 0 0 0 0 0 0 0 0 0 0 0 0 0 127 0" result="hardAlpha"/>
<feOffset dx="-5" dy="11"/>
<feGaussianBlur stdDeviation="10"/>
<feComposite in2="hardAlpha" operator="out"/>
<feColorMatrix type="matrix" values="0 0 0 0 0 0 0 0 0 0 0 0 0 0 0 0 0 0 0.14 0"/>
<feBlend mode="normal" in2="BackgroundImageFix" result="effect1_dropShadow_489_634"/>
<feBlend mode="normal" in="SourceGraphic" in2="effect1_dropShadow_489_634" result="shape"/>
</filter>
</defs>
</svg>
