<svg width="262" height="257" viewBox="0 0 262 257" fill="none" xmlns="http://www.w3.org/2000/svg">
<path d="M127.222 244.765C123.439 244.765 121.536 244.682 117.704 244.363C116.957 245.603 116.584 246.229 115.801 247.457C113.716 247.256 112.668 247.138 110.56 246.855C115.114 240.573 117.114 237.326 120.608 230.703C122.584 230.833 123.56 230.868 125.523 230.903C128.415 237.787 130.114 241.187 133.981 247.835C131.933 247.941 130.909 247.976 128.837 248C128.174 246.701 127.861 246.052 127.234 244.753L127.222 244.765ZM125.957 242.014C124.644 239.145 124.029 237.692 122.885 234.788C121.499 237.586 120.764 238.979 119.198 241.73C121.909 241.919 123.27 241.978 125.957 242.014Z" fill="#6169BC"/>
<path d="M150.283 233.395C151.704 234.127 152.656 235.366 153.09 237.149C153.837 240.243 154.21 241.789 154.957 244.883C153.114 245.308 152.198 245.509 150.331 245.863C149.74 242.923 149.451 241.459 148.861 238.519C148.656 237.468 148.15 236.712 147.367 236.276C146.584 235.827 145.632 235.709 144.463 235.886C143.283 236.075 142.391 236.488 141.777 237.149C141.162 237.81 140.909 238.672 141.042 239.747C141.415 242.722 141.608 244.198 141.981 247.173C140.078 247.398 139.126 247.492 137.198 247.646C136.74 242.25 136.512 239.546 136.054 234.15C137.753 234.009 138.608 233.926 140.283 233.725C140.367 234.398 140.403 234.729 140.499 235.402C140.993 234.752 141.656 234.209 142.475 233.749C143.295 233.3 144.21 232.993 145.247 232.816C147.198 232.485 148.861 232.674 150.283 233.406V233.395Z" fill="#6169BC"/>
<path d="M161.138 232.037L163.211 238.271C163.355 238.708 163.596 238.979 163.946 239.074C164.295 239.18 164.789 239.121 165.452 238.897C166.247 238.625 166.656 238.483 167.452 238.2C167.849 239.286 168.054 239.829 168.464 240.916C167.355 241.305 166.801 241.506 165.693 241.872C161.958 243.112 159.644 242.25 158.861 239.546C158.138 237.031 157.777 235.78 157.054 233.265C156.283 233.477 155.885 233.583 155.102 233.784C154.813 232.698 154.668 232.155 154.367 231.069C155.126 230.868 155.512 230.773 156.259 230.561C155.885 229.274 155.705 228.625 155.331 227.338C156.897 226.901 157.668 226.676 159.211 226.181C159.632 227.456 159.849 228.093 160.271 229.368C161.668 228.92 162.355 228.684 163.741 228.2C164.138 229.25 164.331 229.782 164.717 230.844C163.307 231.352 162.596 231.588 161.15 232.049L161.138 232.037Z" fill="#6169BC"/>
<path d="M165.933 225.012C165.355 224.823 164.958 224.469 164.741 223.937C164.524 223.406 164.572 222.886 164.849 222.355C165.126 221.836 165.584 221.446 166.223 221.186C166.861 220.926 167.451 220.879 168.03 221.045C168.608 221.21 169.018 221.552 169.247 222.072C169.488 222.591 169.476 223.123 169.198 223.654C168.921 224.185 168.451 224.598 167.801 224.87C167.138 225.142 166.512 225.189 165.933 225V225.012ZM170.307 225.578C172.536 230.537 173.656 233.017 175.885 237.964C174.186 238.708 173.331 239.062 171.596 239.735C169.56 234.693 168.536 232.178 166.512 227.149C168.042 226.547 168.813 226.24 170.319 225.578H170.307Z" fill="#6169BC"/>
<path d="M175.331 226.7C175.5 225.449 175.982 224.303 176.789 223.241C177.596 222.178 178.669 221.281 180.018 220.513C181.753 219.533 183.379 219.049 184.97 219.049C186.548 219.049 187.958 219.545 189.211 220.549C187.681 221.552 186.91 222.048 185.331 222.993C184.813 222.615 184.223 222.438 183.548 222.438C182.885 222.438 182.187 222.65 181.464 223.052C180.428 223.642 179.765 224.398 179.488 225.342C179.211 226.299 179.367 227.35 179.982 228.507C180.596 229.652 181.391 230.36 182.391 230.644C183.391 230.915 184.464 230.75 185.584 230.124C187.175 229.239 187.861 228.093 187.681 226.747C189.319 225.767 190.126 225.26 191.717 224.209C192.151 225.697 191.994 227.196 191.211 228.707C190.428 230.219 189.054 231.553 187.102 232.651C185.572 233.513 184.042 233.997 182.56 234.091C181.078 234.198 179.765 233.926 178.62 233.312C177.476 232.686 176.608 231.742 175.994 230.467C175.379 229.203 175.175 227.94 175.331 226.688V226.7Z" fill="#6169BC"/>
<path d="M188.006 213.134C187.403 213.087 186.933 212.827 186.596 212.366C186.259 211.906 186.162 211.386 186.307 210.808C186.451 210.241 186.789 209.757 187.331 209.356C187.873 208.954 188.451 208.777 189.042 208.813C189.644 208.848 190.114 209.084 190.475 209.533C190.837 209.981 190.945 210.501 190.825 211.079C190.692 211.658 190.343 212.166 189.777 212.579C189.21 212.992 188.62 213.181 188.006 213.134ZM192.355 212.685C195.728 216.971 197.415 219.12 200.801 223.406C199.343 224.516 198.596 225.047 197.09 226.098C193.885 221.682 192.283 219.486 189.078 215.07C190.403 214.137 191.066 213.665 192.355 212.685Z" fill="#6169BC"/>
<path d="M200.464 206.451C200.849 205.53 201.464 204.668 202.295 203.842C203.271 202.885 204.343 202.212 205.536 201.799C206.729 201.386 207.946 201.28 209.199 201.48C210.452 201.693 211.608 202.236 212.669 203.145C213.729 204.054 214.452 205.117 214.777 206.357C215.114 207.585 215.078 208.86 214.657 210.158C214.235 211.457 213.464 212.661 212.355 213.748C211.403 214.68 210.403 215.33 209.379 215.719C208.355 216.109 207.391 216.274 206.5 216.215C208.789 218.707 209.934 219.946 212.223 222.438C210.777 223.713 210.042 224.339 208.548 225.555C203.319 219.415 200.705 216.345 195.488 210.194C196.741 209.167 197.355 208.647 198.572 207.573C199.102 208.151 199.379 208.446 199.909 209.025C199.885 208.21 200.066 207.348 200.452 206.427L200.464 206.451ZM207.681 205.365C206.958 205.247 206.247 205.318 205.548 205.566C204.849 205.813 204.223 206.203 203.669 206.734C203.126 207.254 202.729 207.856 202.452 208.529C202.187 209.214 202.102 209.91 202.211 210.631C202.319 211.351 202.644 212.012 203.199 212.626C203.753 213.228 204.391 213.618 205.126 213.783C205.861 213.948 206.596 213.901 207.343 213.653C208.09 213.405 208.753 213.004 209.343 212.449C209.946 211.882 210.379 211.221 210.644 210.489C210.91 209.757 210.97 209.037 210.825 208.317C210.681 207.596 210.295 206.947 209.681 206.38C209.078 205.825 208.404 205.483 207.681 205.365Z" fill="#6169BC"/>
<path d="M211.813 198.529C211.415 197.348 211.331 196.156 211.572 194.928C211.813 193.712 212.343 192.566 213.15 191.468C213.861 190.512 214.644 189.792 215.5 189.284C216.355 188.776 217.199 188.457 218.042 188.351L216.391 187.289C217.307 185.931 217.741 185.246 218.596 183.853C223.331 186.651 225.705 188.044 230.44 190.842C229.476 192.413 228.97 193.192 227.946 194.715C227.271 194.278 226.933 194.066 226.259 193.629C226.476 194.455 226.476 195.412 226.235 196.498C225.994 197.572 225.464 198.67 224.656 199.745C223.741 200.973 222.644 201.882 221.391 202.496C220.138 203.098 218.861 203.334 217.56 203.192C216.259 203.051 215.078 202.519 214.006 201.634C212.933 200.748 212.211 199.709 211.813 198.529ZM220.018 190.335C219.283 190.335 218.596 190.524 217.933 190.901C217.283 191.279 216.729 191.775 216.271 192.389C215.813 193.015 215.512 193.676 215.367 194.373C215.223 195.081 215.259 195.778 215.488 196.463C215.717 197.147 216.15 197.749 216.801 198.245C217.452 198.741 218.162 199.013 218.921 199.06C219.68 199.095 220.415 198.93 221.102 198.564C221.801 198.198 222.391 197.679 222.861 197.029C223.355 196.356 223.668 195.636 223.813 194.869C223.958 194.101 223.897 193.381 223.62 192.696C223.355 192.023 222.861 191.456 222.15 191.008C221.439 190.559 220.717 190.335 219.994 190.335H220.018Z" fill="#6169BC"/>
<path d="M225.44 177.512C227.837 178.67 229.03 179.26 231.44 180.417C231.861 180.618 232.223 180.641 232.536 180.464C232.849 180.299 233.163 179.909 233.464 179.283C233.825 178.528 234.006 178.15 234.355 177.394C235.428 177.867 235.97 178.103 237.042 178.587C236.56 179.638 236.307 180.157 235.789 181.196C234.078 184.679 231.837 185.671 229.319 184.337C226.982 183.085 225.813 182.471 223.464 181.22C223.078 181.905 222.886 182.247 222.488 182.932C221.488 182.377 220.994 182.094 219.994 181.539C220.38 180.877 220.572 180.547 220.946 179.874C219.741 179.236 219.139 178.917 217.946 178.268C218.717 176.887 219.09 176.178 219.801 174.761C221.03 175.352 221.645 175.647 222.861 176.249C223.512 174.962 223.825 174.313 224.44 173.002C225.488 173.463 226.006 173.699 227.054 174.159C226.428 175.505 226.102 176.178 225.44 177.501V177.512Z" fill="#6169BC"/>
<path d="M223.68 169.224C223.138 169.507 222.596 169.531 222.066 169.306C221.535 169.082 221.174 168.693 220.993 168.126C220.813 167.559 220.849 166.969 221.102 166.331C221.355 165.694 221.752 165.233 222.27 164.95C222.801 164.655 223.343 164.607 223.885 164.808C224.427 165.009 224.813 165.387 225.005 165.965C225.198 166.544 225.174 167.158 224.909 167.819C224.644 168.48 224.234 168.952 223.692 169.236L223.68 169.224ZM227.174 166.52C232.355 168.421 234.945 169.365 240.126 171.255C239.463 172.99 239.114 173.852 238.391 175.552C233.295 173.463 230.74 172.412 225.644 170.322C226.282 168.822 226.596 168.055 227.174 166.52Z" fill="#6169BC"/>
<path d="M242.066 163.533C241.09 164.725 239.946 165.516 238.669 165.942C237.391 166.355 236.078 166.319 234.741 165.871C233.403 165.422 232.355 164.666 231.572 163.616C230.789 162.565 230.307 161.349 230.114 159.944C229.922 158.55 230.03 157.098 230.416 155.563C230.813 154.028 231.416 152.694 232.271 151.549C233.114 150.392 234.138 149.518 235.331 148.951C236.536 148.373 237.825 148.184 239.223 148.42C240.62 148.644 241.777 149.258 242.693 150.286C243.608 151.313 244.211 152.6 244.488 154.158C244.765 155.705 244.681 157.381 244.223 159.141C243.777 160.876 243.042 162.352 242.066 163.545V163.533ZM241.379 156.012C241.247 155.233 240.922 154.56 240.416 154.017C239.91 153.462 239.223 153.107 238.355 152.93C237.066 152.659 235.994 152.895 235.114 153.568C234.235 154.241 233.657 155.174 233.355 156.354C233.054 157.535 233.114 158.609 233.572 159.589C234.018 160.581 234.861 161.254 236.126 161.632C237.391 161.998 238.476 161.88 239.391 161.254C240.307 160.628 240.946 159.672 241.271 158.397C241.476 157.594 241.512 156.791 241.379 156.012Z" fill="#6169BC"/>
<path d="M235.223 129.93C236.259 128.643 237.692 127.959 239.56 127.923C242.801 127.864 244.427 127.84 247.668 127.781C247.705 129.765 247.705 130.745 247.668 132.705C244.62 132.634 243.09 132.599 240.042 132.528C238.946 132.504 238.09 132.847 237.488 133.52C236.873 134.204 236.548 135.137 236.476 136.33C236.403 137.546 236.62 138.526 237.15 139.27C237.68 140.025 238.476 140.462 239.572 140.557C242.608 140.84 244.126 140.993 247.174 141.277C246.994 143.201 246.873 144.158 246.608 146.047C241.138 145.303 238.391 144.937 232.921 144.193C233.15 142.516 233.259 141.666 233.415 139.966C234.102 140.025 234.439 140.061 235.126 140.131C234.584 139.506 234.186 138.726 233.909 137.817C233.632 136.908 233.524 135.928 233.584 134.854C233.68 132.823 234.223 131.194 235.259 129.907L235.223 129.93Z" fill="#6169BC"/>
<path opacity="0.5" d="M202.12 185.95C234.799 147.211 229.291 89.8825 189.817 57.9033C150.342 25.9242 91.8504 31.404 59.1711 70.143C26.4918 108.882 32.0001 166.21 71.4743 198.189C110.948 230.169 169.44 224.689 202.12 185.95Z" fill="#F97F12"/>
<path d="M165.571 117.641C171.074 117.115 175.074 112.043 174.503 106.313C173.933 100.582 169.009 96.3627 163.506 96.8887C158.002 97.4146 154.003 102.487 154.574 108.217C155.144 113.948 160.068 118.167 165.571 117.641Z" fill="#38332F"/>
<path d="M115.819 122.997C121.322 122.471 125.321 117.399 124.751 111.669C124.18 105.938 119.257 101.719 113.753 102.245C108.25 102.771 104.251 107.843 104.821 113.573C105.391 119.304 110.315 123.523 115.819 122.997Z" fill="#38332F"/>
<path d="M100.078 82.2776C100.355 81.6873 100.656 81.1205 101.005 80.5774C101.174 80.3059 101.367 80.0461 101.547 79.7864C102.114 78.9835 101.065 80.2468 101.752 79.5384C102.198 79.0779 102.62 78.6057 103.102 78.1806C103.343 77.9681 103.584 77.7674 103.837 77.5666C103.331 77.9681 103.909 77.5312 104.114 77.3895C104.656 77.0353 105.21 76.7047 105.776 76.4096C106.066 76.2561 106.367 76.1262 106.656 75.9845C107.294 75.6657 106.391 76.0672 106.812 75.9137C108.053 75.465 109.306 75.1108 110.608 74.8747C110.957 74.8038 111.294 74.7802 110.74 74.8392C111.066 74.8038 111.391 74.7684 111.728 74.7566C112.379 74.7094 113.041 74.7094 113.692 74.7212C114.017 74.7212 114.343 74.7566 114.668 74.7802C114.8 74.7802 115.849 74.9573 114.957 74.8038C115.596 74.9101 116.234 75.04 116.861 75.2053C117.487 75.3706 118.102 75.5713 118.692 75.8074C118.078 75.5595 118.728 75.8428 118.969 75.9609C119.258 76.1026 119.535 76.2561 119.813 76.4096C120.09 76.5631 120.367 76.7402 120.632 76.9173C120.704 76.9645 121.415 77.484 121.029 77.1888C120.68 76.9173 121.439 77.543 121.523 77.6257C121.813 77.8854 122.078 78.1452 122.343 78.4167C123.74 79.869 126.258 79.7982 127.68 78.4167C129.102 77.0353 129.09 74.6503 127.68 73.1863C118.319 63.481 99.3064 66.2674 93.5715 78.5348C92.7281 80.3531 93.0414 82.5138 94.9209 83.5882C96.5474 84.5209 99.2342 84.0841 100.078 82.2658V82.2776Z" fill="#38332F"/>
<path d="M185.018 76.0199C182.452 70.3762 176.331 66.9404 170.283 66.0666C163.584 65.0985 156.608 66.7042 151.632 71.3561C148.259 74.5086 153.379 79.5029 156.741 76.3623C157.717 75.4532 157.994 75.217 159.452 74.4496C159.741 74.2961 160.042 74.1662 160.331 74.0127C160.934 73.7175 160.15 74.0599 160.524 73.9301C161.09 73.7293 161.656 73.5286 162.247 73.3751C162.885 73.198 163.536 73.08 164.187 72.9619C165.223 72.773 163.488 72.9855 164.536 72.9147C164.861 72.891 165.199 72.8556 165.524 72.8438C166.126 72.8202 166.741 72.8084 167.343 72.8438C167.668 72.8556 168.006 72.891 168.331 72.9029C168.5 72.9147 168.656 72.9265 168.825 72.9501C168.464 72.9029 168.415 72.891 168.681 72.9265C169.909 73.1154 171.126 73.4106 172.307 73.8238C172.464 73.8828 173.331 74.2252 172.632 73.9301C172.922 74.0481 173.211 74.1898 173.5 74.3315C174.018 74.5912 174.512 74.8628 175.006 75.1698C175.223 75.3115 175.44 75.4532 175.644 75.5948C176.331 76.0435 175.343 75.2879 175.885 75.7837C176.331 76.197 176.789 76.5866 177.199 77.0353C177.271 77.1061 177.873 77.8736 177.403 77.2478C177.584 77.4839 177.753 77.7319 177.922 77.9916C178.247 78.4993 178.524 79.0425 178.777 79.5856C179.572 81.333 182.163 81.7463 183.717 80.8489C185.548 79.7981 185.813 77.7555 185.006 76.0081L185.018 76.0199Z" fill="#38332F"/>
<path d="M174.138 164.962C153.559 162.152 141.053 163.675 114.692 170.428C117.861 165.186 124.62 156.036 132.234 151.75C139.849 147.464 149.981 147.369 157.367 149.813C164.282 152.104 171.15 159.271 174.331 164.784" fill="#FFE7C5"/>
<path d="M175.066 161.691C167.572 160.676 160.042 160.014 152.463 160.31C144.885 160.605 137.174 161.821 129.668 163.391C124.343 164.513 119.041 165.812 113.776 167.158L117.68 172.14C121.969 165.103 127.764 157.57 135.463 153.91C143.162 150.25 154.054 150.746 161.222 155.599C165.331 158.373 168.861 162.27 171.331 166.496C173.548 170.275 179.524 166.862 177.307 163.072C174.692 158.609 171.078 154.56 166.945 151.372C162.403 147.865 157.451 145.858 151.728 145.126C146.005 144.394 140.451 144.831 135.222 146.696C129.993 148.562 125.572 151.844 121.728 155.752C117.885 159.66 114.535 164.064 111.704 168.704C110.138 171.278 112.728 174.419 115.608 173.687C130.801 169.802 145.572 166.402 161.258 167.11C165.246 167.288 169.331 167.689 173.21 168.208C175.054 168.456 176.921 167.772 177.463 165.847C177.909 164.265 176.909 161.927 175.054 161.679L175.066 161.691Z" fill="#38332F"/>
</svg>
