<svg width="187" height="191" viewBox="0 0 187 191" fill="none" xmlns="http://www.w3.org/2000/svg">
<g id="Asset 30icon" clip-path="url(#clip0_384_993)">
<g id="Layer_2-2">
<path id="Vector" d="M84.1514 190.278C82.8151 189.823 81.782 189.167 81.0521 188.334C80.3222 187.501 80.0078 186.546 80.064 185.479C82.0628 185.624 83.0509 185.668 85.0273 185.712C85.0834 186.434 85.4091 187.012 86.0155 187.434C86.6218 187.856 87.4753 188.078 88.5533 188.056C89.6537 188.045 90.5071 187.812 91.1135 187.401C91.7199 186.979 92.0006 186.457 91.9669 185.823C91.9445 185.301 91.7199 184.89 91.2932 184.568C90.8665 184.246 90.3499 184.002 89.7323 183.835C89.1147 183.657 88.2725 183.468 87.2058 183.224C85.7572 182.902 84.5781 182.524 83.691 182.169C82.8039 181.813 82.0515 181.28 81.4564 180.58C80.8612 179.88 80.603 178.981 80.6928 177.87C80.7714 176.837 81.1532 175.959 81.8045 175.226C82.467 174.493 83.3429 173.948 84.4321 173.571C85.5214 173.193 86.7454 173.004 88.1153 172.993C90.1703 172.971 91.8322 173.326 93.1797 174.115C94.5272 174.904 95.3694 176.048 95.6613 177.603C93.831 177.77 92.9102 177.836 91.0574 177.914C90.99 177.314 90.6644 176.826 90.0917 176.459C89.519 176.081 88.7778 175.904 87.8458 175.915C87.0373 175.915 86.3972 176.092 85.9032 176.437C85.4091 176.781 85.1508 177.281 85.1396 177.959C85.1396 178.425 85.308 178.825 85.6786 179.136C86.0491 179.447 86.5208 179.714 87.0935 179.903C87.6549 180.091 88.4634 180.314 89.4965 180.536C90.9114 180.836 92.0792 181.113 92.9888 181.391C93.8984 181.669 94.7069 182.113 95.4143 182.724C96.1217 183.335 96.5372 184.179 96.6495 185.257C96.7393 186.19 96.5148 187.09 95.9421 187.945C95.3694 188.801 94.471 189.523 93.2246 190.067C91.9782 190.622 90.4622 190.922 88.688 190.944C87.0036 190.967 85.4765 190.733 84.1402 190.278H84.1514Z" fill="#6169BC"/>
<path id="Vector_2" d="M99.6703 179.192C100.198 178.025 100.962 177.07 101.972 176.303C102.983 175.537 104.151 175.026 105.498 174.748C106.666 174.504 107.733 174.471 108.71 174.659C109.687 174.848 110.529 175.17 111.225 175.648C111.012 174.882 110.911 174.504 110.697 173.737C112.269 173.315 113.055 173.082 114.594 172.582C116.323 177.881 117.199 180.525 118.928 185.812C117.143 186.39 116.233 186.657 114.414 187.145C114.201 186.357 114.089 185.968 113.875 185.179C113.482 185.968 112.82 186.701 111.899 187.368C110.978 188.034 109.821 188.523 108.463 188.801C106.924 189.123 105.442 189.089 104.072 188.701C102.702 188.312 101.568 187.623 100.692 186.634C99.8162 185.646 99.2997 184.435 99.12 183.024C98.9404 181.624 99.1313 180.347 99.659 179.181L99.6703 179.192ZM111.382 178.481C110.832 177.992 110.181 177.681 109.44 177.525C108.699 177.37 107.957 177.381 107.194 177.548C106.43 177.714 105.768 178.014 105.173 178.458C104.577 178.903 104.139 179.458 103.836 180.125C103.533 180.802 103.443 181.547 103.589 182.369C103.735 183.191 104.072 183.879 104.622 184.424C105.173 184.968 105.835 185.335 106.61 185.524C107.385 185.712 108.193 185.712 109.002 185.535C109.833 185.346 110.563 185.013 111.203 184.513C111.831 184.024 112.281 183.424 112.528 182.724C112.775 182.024 112.786 181.258 112.561 180.436C112.337 179.614 111.933 178.958 111.382 178.47V178.481Z" fill="#6169BC"/>
<path id="Vector_3" d="M119.378 174.282C119.614 173.037 120.141 171.938 120.961 170.982C121.77 170.027 122.78 169.272 124.015 168.716C124.947 168.294 125.924 168.05 126.935 167.994C127.946 167.939 128.866 168.05 129.675 168.372C128.429 166.039 127.8 164.873 126.553 162.529C127.912 161.818 128.586 161.451 129.911 160.674C133.718 167.083 135.626 170.283 139.433 176.692C137.816 177.636 136.996 178.092 135.335 178.958C134.941 178.225 134.751 177.87 134.358 177.137C134.189 178.003 133.729 178.858 132.999 179.691C132.258 180.525 131.27 181.236 130.012 181.802C128.597 182.435 127.171 182.713 125.756 182.635C124.341 182.558 123.106 182.113 122.039 181.336C120.972 180.558 120.22 179.492 119.726 178.147C119.243 176.825 119.142 175.537 119.378 174.293V174.282ZM130.495 171.127C129.855 170.771 129.158 170.594 128.406 170.605C127.654 170.605 126.935 170.771 126.239 171.094C125.543 171.416 124.97 171.849 124.498 172.404C124.027 172.96 123.724 173.593 123.589 174.315C123.454 175.037 123.533 175.781 123.858 176.559C124.184 177.336 124.656 177.925 125.307 178.336C125.947 178.747 126.677 178.969 127.463 178.992C128.249 179.014 129.024 178.847 129.765 178.503C130.528 178.147 131.157 177.659 131.663 177.048C132.168 176.437 132.46 175.759 132.55 175.026C132.639 174.293 132.471 173.548 132.067 172.793C131.663 172.038 131.135 171.482 130.495 171.127Z" fill="#6169BC"/>
<path id="Vector_4" d="M147.136 155.708C148.72 155.708 150.168 156.375 151.448 157.752C153.683 160.152 154.806 161.351 157.041 163.751C155.682 164.995 154.986 165.595 153.56 166.783C151.561 164.428 150.561 163.262 148.551 160.907C147.833 160.063 147.024 159.63 146.137 159.585C145.25 159.541 144.374 159.852 143.498 160.529C142.6 161.218 142.061 161.985 141.881 162.851C141.701 163.718 141.926 164.606 142.577 165.506C144.385 168.005 145.284 169.261 147.091 171.76C145.587 172.826 144.823 173.337 143.262 174.337C140.197 169.672 138.67 167.339 135.604 162.673C136.94 161.807 137.603 161.362 138.905 160.452C139.31 161.018 139.512 161.296 139.927 161.862C140.017 161.063 140.287 160.285 140.747 159.507C141.207 158.741 141.814 158.063 142.589 157.452C144.06 156.297 145.542 155.719 147.125 155.719L147.136 155.708Z" fill="#6169BC"/>
<path id="Vector_5" d="M166.316 144.478C163.351 148.588 161.746 150.543 158.287 154.209C159.096 154.82 159.983 155.031 160.948 154.831C161.903 154.631 162.779 154.097 163.531 153.22C164.62 151.954 164.935 150.665 164.486 149.432C165.687 147.943 166.26 147.177 167.394 145.622C168.191 146.81 168.517 148.266 168.303 149.965C168.09 151.665 167.27 153.387 165.844 155.042C164.688 156.386 163.396 157.352 162.004 157.963C160.611 158.563 159.241 158.741 157.928 158.496C156.614 158.263 155.457 157.619 154.447 156.597C153.425 155.564 152.785 154.42 152.493 153.164C152.201 151.909 152.268 150.654 152.661 149.376C153.054 148.099 153.762 146.899 154.772 145.711C155.749 144.577 156.816 143.711 158.018 143.122C159.219 142.534 160.432 142.256 161.689 142.322C162.947 142.389 164.149 142.8 165.26 143.578C165.676 143.867 166.024 144.166 166.305 144.466L166.316 144.478ZM161.779 146.533C161.049 145.988 160.23 145.855 159.32 146.099C158.411 146.344 157.624 146.866 156.917 147.688C156.255 148.454 155.884 149.265 155.805 150.143C155.727 151.009 155.974 151.831 156.558 152.587C158.747 150.265 159.792 149.054 161.779 146.544V146.533Z" fill="#6169BC"/>
<path id="Vector_6" d="M174.479 142.289C173.491 143.089 172.503 143.567 171.526 143.755C170.549 143.933 169.696 143.811 168.943 143.378C169.954 141.9 170.448 141.145 171.391 139.612C171.897 139.823 172.458 139.768 173.076 139.434C173.682 139.101 174.221 138.557 174.659 137.779C175.086 137.024 175.299 136.357 175.299 135.802C175.299 135.246 175.097 134.869 174.726 134.669C174.322 134.458 173.884 134.558 173.401 134.969C172.918 135.38 172.234 136.068 171.38 137.024C170.504 138.001 169.718 138.79 169.044 139.345C168.382 139.901 167.641 140.267 166.855 140.456C166.069 140.645 165.283 140.456 164.485 139.945C163.834 139.512 163.396 138.912 163.149 138.123C162.902 137.346 162.88 136.457 163.07 135.457C163.261 134.458 163.677 133.413 164.328 132.291C165.283 130.647 166.349 129.492 167.63 128.837C168.898 128.181 170.201 128.07 171.537 128.57C170.83 130.048 170.459 130.781 169.684 132.214C169.168 132.014 168.64 132.047 168.112 132.325C167.585 132.603 167.124 133.08 166.72 133.791C166.338 134.447 166.147 135.002 166.136 135.469C166.136 135.935 166.304 136.279 166.664 136.502C167.068 136.746 167.528 136.69 168.034 136.324C168.539 135.957 169.213 135.324 170.021 134.391C170.852 133.447 171.56 132.658 172.177 132.058C172.795 131.458 173.48 131.014 174.255 130.725C175.03 130.436 175.861 130.459 176.692 130.836C177.421 131.17 177.96 131.747 178.286 132.547C178.612 133.347 178.679 134.335 178.499 135.48C178.309 136.624 177.859 137.857 177.118 139.134C176.366 140.456 175.479 141.523 174.491 142.311L174.479 142.289Z" fill="#6169BC"/>
<path id="Vector_7" d="M182.733 126.004C181.891 126.993 181.004 127.659 180.072 128.026C179.14 128.392 178.264 128.415 177.455 128.137C178.196 126.471 178.556 125.626 179.218 123.905C179.757 124.016 180.296 123.86 180.846 123.405C181.397 122.96 181.823 122.305 182.127 121.438C182.419 120.594 182.52 119.894 182.407 119.328C182.306 118.772 182.048 118.428 181.644 118.306C181.206 118.173 180.79 118.361 180.386 118.861C179.982 119.361 179.432 120.183 178.747 121.305C178.05 122.46 177.41 123.394 176.849 124.071C176.287 124.749 175.625 125.26 174.873 125.593C174.12 125.926 173.312 125.893 172.447 125.515C171.728 125.204 171.189 124.682 170.808 123.949C170.426 123.216 170.246 122.327 170.257 121.294C170.269 120.25 170.504 119.128 170.942 117.884C171.594 116.051 172.458 114.684 173.592 113.785C174.738 112.874 175.995 112.518 177.399 112.763C176.961 114.385 176.714 115.195 176.209 116.784C175.659 116.673 175.153 116.817 174.682 117.184C174.21 117.562 173.839 118.139 173.559 118.917C173.3 119.639 173.199 120.239 173.278 120.705C173.357 121.172 173.581 121.483 173.974 121.638C174.412 121.805 174.861 121.672 175.288 121.205C175.726 120.75 176.276 119.983 176.916 118.883C177.568 117.773 178.129 116.851 178.634 116.129C179.14 115.407 179.735 114.829 180.453 114.385C181.172 113.94 181.992 113.807 182.879 114.029C183.654 114.229 184.294 114.707 184.754 115.451C185.215 116.195 185.462 117.173 185.473 118.361C185.484 119.55 185.248 120.872 184.754 122.294C184.238 123.76 183.553 124.993 182.711 125.982L182.733 126.004Z" fill="#6169BC"/>
<g id="Vector_8" opacity="0.6" filter="url(#filter0_d_384_993)">
<path d="M133.927 152.082C172.08 125.199 181.013 72.8542 153.878 35.1657C126.743 -2.52269 73.8165 -11.2827 35.663 15.5996C-2.49044 42.482 -11.4228 94.827 15.7121 132.515C42.8469 170.204 95.7735 178.964 133.927 152.082Z" fill="#417ABD"/>
</g>
<path id="Vector_9" d="M43.3222 125.537C45.0065 121.794 47.1738 119.339 50.4415 116.717C53.4734 114.273 57.7629 112.096 61.6595 110.841C69.8905 108.208 79.2444 108.375 86.6781 112.163C87.7225 112.696 88.7443 113.296 89.71 113.962C89.8672 114.073 90.0244 114.185 90.1816 114.296C91.1361 114.973 89.7437 113.885 90.6196 114.64C90.9901 114.962 91.3719 115.284 91.7313 115.618C92.1243 115.995 92.5061 116.384 92.8654 116.784C92.9889 116.917 93.1012 117.051 93.2135 117.184C93.9322 117.995 92.8991 116.662 93.4943 117.55C94.0894 118.439 94.6172 119.283 95.0664 120.228C95.9198 122.038 98.5474 122.494 100.187 121.55C102.062 120.461 102.388 118.306 101.523 116.484C97.2673 107.508 86.869 103.065 77.459 101.921C67.1056 100.665 56.0336 103.587 47.578 109.619C43.1425 112.785 39.1 116.784 36.8541 121.783C36.0344 123.605 36.3151 125.76 38.1904 126.848C39.785 127.77 42.48 127.359 43.3109 125.526L43.3222 125.537Z" fill="#38332F"/>
<path id="Vector_10" d="M105.476 71.75C105.195 71.7722 102.478 71.9278 102.444 71.7056C103.017 71.7834 103.107 71.7945 102.691 71.7278L102.444 71.6834C102.197 71.6389 101.95 71.5834 101.703 71.5279C101.209 71.4168 100.726 71.2835 100.243 71.1168C100.007 71.0391 99.7715 70.9502 99.5245 70.8613C98.6935 70.5725 100.277 71.2168 99.4795 70.8502C99.0191 70.6392 98.57 70.417 98.1208 70.1726C97.6716 69.9282 97.2449 69.6616 96.8182 69.3839C96.6049 69.2395 96.4027 69.0951 96.1894 68.9507C95.4819 68.4397 96.807 69.4839 96.1445 68.9062C95.3697 68.2397 94.6285 67.5621 93.966 66.7956C93.82 66.629 93.5505 66.4179 93.4831 66.218L93.7526 66.5735C93.6516 66.4402 93.5505 66.3069 93.4495 66.1624C93.1575 65.7514 92.888 65.3293 92.6297 64.8961C92.3715 64.4628 92.1581 64.0185 91.9335 63.563C91.6191 62.9521 92.1244 64.074 91.9672 63.6408C91.8774 63.4075 91.7875 63.1742 91.7089 62.941C91.5405 62.4633 91.4057 61.9856 91.2935 61.4969C91.2373 61.2525 91.1812 61.0081 91.1362 60.7637C90.9566 59.7973 91.1924 61.3969 91.1025 60.6304C90.8892 58.7086 89.5417 56.8313 87.3632 56.9313C85.5216 57.009 83.3881 58.5753 83.6239 60.6304C84.219 65.8736 86.7119 70.7392 90.8555 74.1273C94.9317 77.4598 100.108 79.5371 105.465 79.115C107.407 78.9595 109.305 77.5265 109.204 75.4158C109.114 73.5385 107.553 71.5501 105.465 71.7167L105.476 71.75Z" fill="#38332F"/>
<path id="Vector_11" d="M27.1747 91.1899C37.7863 88.746 44.6249 77.5153 42.5587 67.1066C42.1769 65.2071 39.7851 63.9407 37.9547 64.5183C35.911 65.1737 34.9341 67.0289 35.3383 69.0728C35.3832 69.3061 35.3945 69.6505 35.4843 69.8615C35.2036 69.1284 35.4394 69.5505 35.4731 69.9393C35.5068 70.4281 35.518 70.9168 35.5068 71.3945C35.5068 71.8166 35.3159 72.4498 35.4057 72.8497L35.4731 72.3943C35.4506 72.572 35.4169 72.7386 35.3832 72.9164C35.3383 73.1385 35.2934 73.3496 35.2485 73.5718C35.1362 74.0494 35.0127 74.516 34.8667 74.9826C34.7881 75.2381 34.6982 75.4935 34.6084 75.7379C34.5186 75.9601 34.3501 76.7377 34.586 75.849C34.3614 76.7377 33.6764 77.6819 33.1823 78.4373C33.0588 78.6262 32.9353 78.815 32.8005 78.9927C32.7331 79.0816 32.1717 79.7925 32.531 79.3704C32.8903 78.9483 32.385 79.537 32.3064 79.6148C32.1268 79.8148 31.9471 80.0147 31.7674 80.2147C31.4305 80.5701 31.0824 80.9145 30.7119 81.2478C30.5098 81.4255 30.3076 81.6032 30.1055 81.7699C29.4991 82.2586 30.0157 81.7143 30.1167 81.7699C29.9932 81.7143 28.9601 82.5475 28.7805 82.6474C28.3987 82.8696 28.0056 83.0807 27.6014 83.2806C27.4442 83.3584 27.2757 83.4361 27.1185 83.5028L27.5228 83.3362C27.3993 83.3139 26.8827 83.5694 26.7704 83.6139C26.2539 83.7916 25.7373 83.9249 25.2096 84.0471C23.3006 84.4915 21.998 86.7465 22.5932 88.6016C23.2332 90.5678 25.1534 91.6564 27.1971 91.1899H27.1747Z" fill="#38332F"/>
</g>
</g>
<defs>
<filter id="filter0_d_384_993" x="-3.98438" y="0.0123291" width="177.559" height="175.656" filterUnits="userSpaceOnUse" color-interpolation-filters="sRGB">
<feFlood flood-opacity="0" result="BackgroundImageFix"/>
<feColorMatrix in="SourceAlpha" type="matrix" values="0 0 0 0 0 0 0 0 0 0 0 0 0 0 0 0 0 0 127 0" result="hardAlpha"/>
<feOffset dy="4"/>
<feGaussianBlur stdDeviation="2"/>
<feComposite in2="hardAlpha" operator="out"/>
<feColorMatrix type="matrix" values="0 0 0 0 0 0 0 0 0 0 0 0 0 0 0 0 0 0 0.25 0"/>
<feBlend mode="normal" in2="BackgroundImageFix" result="effect1_dropShadow_384_993"/>
<feBlend mode="normal" in="SourceGraphic" in2="effect1_dropShadow_384_993" result="shape"/>
</filter>
<clipPath id="clip0_384_993">
<rect width="187" height="191" fill="white"/>
</clipPath>
</defs>
</svg>
