<svg width="197" height="198" viewBox="0 0 197 198" fill="none" xmlns="http://www.w3.org/2000/svg">
<g id="Asset 27icon" clip-path="url(#clip0_384_1067)">
<g id="Layer_2-2">
<path id="Vector" d="M111.103 190.768C109.81 190.623 108.741 190.233 107.92 189.619C107.099 189.005 106.604 188.202 106.435 187.219C108.257 186.941 109.169 186.784 110.957 186.427C111.148 187.074 111.564 187.532 112.205 187.8C112.846 188.068 113.656 188.09 114.612 187.867C115.602 187.632 116.322 187.264 116.783 186.762C117.244 186.26 117.39 185.724 117.233 185.155C117.109 184.686 116.817 184.351 116.367 184.151C115.917 183.95 115.4 183.827 114.815 183.782C114.219 183.749 113.42 183.738 112.408 183.738C111.036 183.738 109.9 183.626 109.022 183.481C108.145 183.336 107.358 183.001 106.672 182.488C105.985 181.974 105.569 181.204 105.412 180.178C105.266 179.218 105.423 178.347 105.873 177.544C106.323 176.74 106.998 176.071 107.909 175.502C108.82 174.944 109.888 174.519 111.126 174.229C112.981 173.794 114.567 173.783 115.951 174.229C117.334 174.676 118.324 175.569 118.909 176.919C117.289 177.432 116.457 177.678 114.804 178.113C114.624 177.577 114.23 177.198 113.634 176.975C113.038 176.751 112.329 176.729 111.485 176.93C110.754 177.097 110.203 177.388 109.832 177.801C109.461 178.213 109.326 178.727 109.45 179.341C109.54 179.765 109.776 180.088 110.181 180.3C110.586 180.512 111.058 180.657 111.609 180.713C112.16 180.769 112.936 180.814 113.915 180.814C115.253 180.814 116.367 180.825 117.244 180.903C118.122 180.981 118.943 181.215 119.707 181.64C120.472 182.064 121.023 182.744 121.338 183.715C121.608 184.552 121.586 185.412 121.248 186.304C120.911 187.197 120.236 188.023 119.224 188.771C118.212 189.518 116.907 190.099 115.321 190.467C113.814 190.824 112.385 190.925 111.092 190.768H111.103Z" fill="#6169BC"/>
<path id="Vector_2" d="M134.734 168.917C137.31 173.437 138.603 175.702 141.179 180.222C139.66 181.07 138.896 181.483 137.332 182.276C137.028 181.695 136.882 181.394 136.579 180.814C136.342 181.561 135.904 182.276 135.229 182.956C134.565 183.626 133.733 184.195 132.766 184.619C131.528 185.166 130.336 185.423 129.211 185.412C128.087 185.4 127.097 185.088 126.265 184.508C125.421 183.927 124.814 183.09 124.42 181.997C123.363 179.128 122.845 177.7 121.788 174.832C123.217 174.319 123.936 174.04 125.331 173.459C126.433 176.104 126.984 177.421 128.098 180.066C128.492 181.015 129.11 181.628 129.931 181.885C130.764 182.142 131.708 182.03 132.754 181.55C133.812 181.059 134.52 180.412 134.869 179.631C135.206 178.838 135.139 177.99 134.666 177.064C133.362 174.519 132.709 173.236 131.393 170.692C132.743 170.011 133.418 169.654 134.734 168.917Z" fill="#6169BC"/>
<path id="Vector_3" d="M142.821 164.252C143.226 163.482 143.811 162.813 144.609 162.21C145.453 163.304 145.88 163.851 146.724 164.944C146.398 165.19 146.24 165.312 145.903 165.558C144.924 166.283 144.317 167.009 144.092 167.757C143.867 168.504 144.081 169.386 144.767 170.379C146.24 172.511 146.982 173.582 148.456 175.714C147.039 176.684 146.308 177.153 144.845 178.057C142.079 173.649 140.684 171.439 137.917 167.031C139.188 166.239 139.818 165.837 141.055 165C141.516 165.67 141.741 165.993 142.202 166.663C142.214 165.815 142.427 165.011 142.832 164.252H142.821Z" fill="#6169BC"/>
<path id="Vector_4" d="M151.268 157.378C151.616 156.518 152.167 155.715 152.932 154.956C153.821 154.074 154.811 153.461 155.913 153.081C157.015 152.702 158.151 152.612 159.321 152.824C160.491 153.037 161.593 153.55 162.605 154.42C163.617 155.291 164.315 156.295 164.652 157.467C164.99 158.639 164.978 159.844 164.596 161.083C164.214 162.31 163.505 163.46 162.47 164.475C161.582 165.346 160.648 165.96 159.681 166.317C158.725 166.674 157.814 166.808 156.981 166.752C159.13 169.163 160.209 170.368 162.358 172.767C160.997 173.973 160.299 174.553 158.882 175.702C154.001 169.754 151.571 166.774 146.69 160.815C147.848 159.878 148.422 159.398 149.536 158.416C150.042 158.974 150.289 159.253 150.795 159.822C150.762 159.052 150.93 158.237 151.279 157.378H151.268ZM157.982 156.474C157.296 156.351 156.644 156.407 155.992 156.641C155.351 156.864 154.777 157.222 154.26 157.724C153.765 158.204 153.393 158.762 153.146 159.398C152.899 160.034 152.831 160.703 152.944 161.384C153.045 162.065 153.36 162.701 153.877 163.293C154.406 163.873 155.002 164.252 155.688 164.42C156.374 164.587 157.071 164.554 157.769 164.33C158.466 164.107 159.085 163.728 159.625 163.203C160.187 162.668 160.581 162.054 160.817 161.362C161.053 160.67 161.098 159.989 160.952 159.297C160.806 158.617 160.434 158.003 159.85 157.456C159.276 156.92 158.646 156.597 157.971 156.474H157.982Z" fill="#6169BC"/>
<path id="Vector_5" d="M163.123 143.93C163.247 143.071 163.584 142.245 164.135 141.419C165.294 142.178 165.878 142.557 167.037 143.316C166.812 143.662 166.7 143.83 166.463 144.164C165.777 145.169 165.44 146.05 165.474 146.832C165.507 147.613 166.002 148.372 166.969 149.086C169.073 150.626 170.119 151.396 172.222 152.936C171.199 154.309 170.67 154.978 169.59 156.306C165.519 153.037 163.483 151.407 159.4 148.149C160.333 146.999 160.795 146.408 161.683 145.213C162.335 145.693 162.662 145.928 163.314 146.408C163.044 145.604 162.977 144.778 163.112 143.93H163.123Z" fill="#6169BC"/>
<path id="Vector_6" d="M163.978 138.104C163.438 138.272 162.932 138.205 162.471 137.915C161.998 137.625 161.728 137.212 161.627 136.665C161.526 136.118 161.627 135.594 161.953 135.058C162.268 134.533 162.684 134.176 163.213 133.998C163.742 133.819 164.248 133.864 164.731 134.12C165.215 134.388 165.519 134.79 165.631 135.337C165.744 135.884 165.631 136.442 165.305 137C164.979 137.558 164.54 137.915 164 138.082L163.978 138.104ZM167.554 136.207C172.121 138.752 174.404 140.024 178.971 142.557C178.127 144.053 177.688 144.789 176.777 146.251C172.323 143.517 170.096 142.144 165.642 139.41C166.43 138.149 166.812 137.502 167.543 136.207H167.554Z" fill="#6169BC"/>
<path id="Vector_7" d="M181.884 136.185C181.063 137.022 180.196 137.569 179.319 137.837C178.442 138.105 177.632 138.071 176.89 137.759C177.655 136.285 178.026 135.538 178.734 134.02C179.229 134.154 179.735 134.053 180.264 133.685C180.793 133.317 181.231 132.759 181.557 132C181.872 131.263 181.996 130.627 181.929 130.114C181.861 129.601 181.647 129.277 181.276 129.132C180.883 128.976 180.489 129.11 180.084 129.534C179.679 129.958 179.128 130.661 178.442 131.632C177.733 132.625 177.103 133.428 176.541 134.009C175.979 134.589 175.349 135.002 174.64 135.259C173.932 135.515 173.189 135.426 172.402 135.036C171.761 134.712 171.277 134.187 170.962 133.495C170.647 132.804 170.524 131.978 170.591 131.029C170.659 130.08 170.94 129.065 171.412 127.971C172.11 126.353 172.987 125.181 174.089 124.445C175.191 123.708 176.384 123.485 177.677 123.809C177.171 125.237 176.912 125.951 176.35 127.357C175.844 127.224 175.36 127.313 174.91 127.614C174.449 127.915 174.078 128.418 173.785 129.11C173.504 129.746 173.392 130.281 173.437 130.717C173.482 131.152 173.684 131.453 174.033 131.609C174.438 131.788 174.854 131.699 175.27 131.308C175.697 130.917 176.249 130.259 176.901 129.322C177.565 128.362 178.138 127.57 178.644 126.956C179.15 126.342 179.735 125.862 180.421 125.516C181.108 125.17 181.872 125.114 182.682 125.382C183.391 125.617 183.953 126.096 184.336 126.811C184.718 127.514 184.887 128.418 184.842 129.489C184.785 130.56 184.504 131.732 183.964 132.993C183.413 134.288 182.705 135.359 181.884 136.196V136.185Z" fill="#6169BC"/>
<path id="Vector_8" d="M185.292 106.7C184.639 111.555 184.144 113.932 182.896 118.575C183.829 118.72 184.662 118.508 185.37 117.916C186.079 117.325 186.563 116.477 186.81 115.394C187.159 113.832 186.866 112.604 185.944 111.756C186.281 109.948 186.439 109.033 186.686 107.203C187.867 107.861 188.756 108.955 189.318 110.495C189.881 112.035 189.948 113.865 189.498 115.896C189.127 117.548 188.486 118.943 187.597 120.07C186.709 121.197 185.652 121.956 184.459 122.336C183.267 122.726 182.03 122.693 180.759 122.291C179.465 121.878 178.442 121.208 177.655 120.282C176.867 119.356 176.372 118.273 176.147 117.012C175.922 115.751 175.979 114.423 176.305 112.961C176.62 111.555 177.126 110.339 177.857 109.29C178.588 108.24 179.477 107.459 180.545 106.946C181.614 106.433 182.783 106.243 184.043 106.41C184.516 106.477 184.932 106.566 185.292 106.7ZM182.446 110.506C181.602 110.372 180.871 110.629 180.23 111.243C179.589 111.856 179.162 112.66 178.937 113.675C178.723 114.624 178.768 115.483 179.083 116.253C179.398 117.023 179.949 117.604 180.77 117.983C181.569 115.048 181.906 113.553 182.457 110.517L182.446 110.506Z" fill="#6169BC"/>
<g id="Vector_9" opacity="0.6" filter="url(#filter0_d_384_1067)">
<path d="M136.932 156.053C175.876 128.531 184.929 74.8505 157.152 36.1541C129.374 -2.54217 75.2861 -11.6009 36.3419 15.9208C-2.60234 43.4425 -11.6549 97.1228 16.1223 135.819C43.8996 174.515 97.988 183.574 136.932 156.053Z" fill="#85EDE3"/>
</g>
<path id="Vector_10" d="M76.478 63.3036C77.1737 57.93 73.6071 53.0474 68.5118 52.398C63.4165 51.7486 58.7219 55.5782 58.0263 60.9517C57.3306 66.3253 60.8972 71.2079 65.9925 71.8573C71.0878 72.5067 75.7823 68.6771 76.478 63.3036Z" fill="#38332F"/>
<path id="Vector_11" d="M126.624 65.6483C127.32 60.2747 123.753 55.3922 118.658 54.7427C113.562 54.0933 108.868 57.9229 108.172 63.2965C107.477 68.67 111.043 73.5526 116.138 74.202C121.234 74.8515 125.928 71.0218 126.624 65.6483Z" fill="#38332F"/>
<path id="Vector_12" d="M64.1897 21.4941C53.9658 18.0903 42.3696 24.1167 38.6692 33.9486C38.028 35.6449 39.3777 37.8211 41.1099 38.2117C43.0894 38.6581 44.7203 37.6091 45.4064 35.79C45.4626 35.6561 45.8563 34.8638 45.4851 35.578C45.5976 35.3771 45.6876 35.1539 45.7888 34.953C46.025 34.4955 46.2837 34.0602 46.5536 33.625C46.6774 33.4353 46.8123 33.2456 46.9473 33.0447C47.1498 32.7657 47.296 32.6094 46.9923 32.9666C47.3185 32.576 47.6559 32.1854 48.0158 31.8171C48.3757 31.4488 48.7469 31.1028 49.1406 30.768C49.2081 30.7122 49.8154 30.21 49.4443 30.5114C49.0731 30.8127 49.6917 30.3328 49.7704 30.277C50.614 29.6855 51.5138 29.161 52.4473 28.7258C52.5373 28.6811 53.2572 28.3687 52.8073 28.5584C52.3574 28.7481 53.0884 28.4579 53.1784 28.4245C53.6621 28.2459 54.157 28.0897 54.6518 27.9557C55.1467 27.8218 55.6529 27.7102 56.159 27.6098C56.2602 27.5875 57.0476 27.4759 56.5302 27.5428C56.0128 27.6098 56.8001 27.5205 56.9014 27.5093C57.9361 27.4201 58.9484 27.4647 59.9832 27.5428C59.5108 27.5093 59.6232 27.4759 60.0282 27.554C60.2531 27.5986 60.4893 27.6433 60.7143 27.6879C61.2654 27.8107 61.8053 27.9669 62.3451 28.1455C64.0773 28.7258 66.2368 27.487 66.6417 25.7237C67.0803 23.8154 66.0568 22.0856 64.201 21.4606L64.1897 21.4941Z" fill="#38332F"/>
<path id="Vector_13" d="M121.608 31.7948C122.148 31.7724 122.677 31.7724 123.217 31.7948C123.464 31.8059 123.712 31.8394 123.948 31.8506C124.218 31.884 124.116 31.8617 123.633 31.8059C123.757 31.8282 123.88 31.8394 123.993 31.8617C125.005 32.0291 125.995 32.297 126.951 32.6541L127.176 32.7434C127.536 32.8884 127.479 32.8661 127.03 32.6764C127.153 32.7992 127.536 32.9108 127.704 32.9889C128.143 33.2009 128.582 33.4464 129.009 33.692C129.436 33.9375 129.841 34.2165 130.246 34.5066C130.381 34.6071 130.516 34.6964 130.64 34.7968L130.325 34.5624C130.561 34.6629 130.797 34.953 130.989 35.1204C131.765 35.8012 132.462 36.5489 133.126 37.3413C133.576 37.8769 132.755 36.7833 133.182 37.4194C133.317 37.6203 133.463 37.8211 133.598 38.022C133.868 38.4349 134.127 38.8479 134.352 39.2831C134.577 39.7183 134.745 40.1871 134.993 40.6C134.543 39.8746 134.914 40.4437 134.993 40.6781C135.071 40.9125 135.15 41.1357 135.229 41.37C135.375 41.8387 135.499 42.3074 135.6 42.7873C135.623 42.8878 135.825 43.8698 135.701 43.2895C135.578 42.7092 135.735 43.6913 135.746 43.8029C135.893 45.5996 137.254 47.3517 139.233 47.2625C140.999 47.1843 142.877 45.7336 142.72 43.8029C142.304 38.58 139.863 33.692 135.904 30.2101C131.945 26.7281 126.883 24.6189 121.586 24.8533C119.764 24.9314 118.009 26.3822 118.099 28.3129C118.178 30.1208 119.64 31.8617 121.586 31.7724L121.608 31.7948Z" fill="#38332F"/>
<path id="Vector_14" d="M124.499 110.919C119.91 98.6206 104.512 91.9804 91.6448 92.9625C78.7776 93.9446 65.1232 105.16 59.3194 122.693C58.2059 126.074 57.3736 129.846 57.9023 133.261C58.7683 138.796 62.9861 141.575 67.0015 141.408C71.0168 141.24 74.9647 138.863 78.9238 137.167C87.5732 133.484 96.6499 133.083 104.939 136.018C111.047 138.183 119.077 140.426 124.386 134.21C129.47 128.261 127.412 118.318 124.499 110.919Z" fill="#CBF6F7"/>
<path id="Vector_15" d="M127.862 109.993C122.969 97.2256 109.326 90.1614 96.0874 89.4471C82.9391 88.7441 71.5453 96.1543 63.897 106.299C59.5105 112.124 55.9675 119.345 54.7078 126.543C53.9992 130.583 54.0442 134.757 56.0238 138.462C57.6097 141.419 60.5565 143.763 63.8633 144.522C67.8899 145.448 71.804 144.131 75.4595 142.524C79.3623 140.816 83.0628 139.02 87.2693 138.149C90.8573 137.401 94.659 137.268 98.2694 137.859C101.88 138.451 105.119 139.89 108.595 140.772C112.07 141.653 116.097 142.122 119.741 141.118C123.756 140.013 127.254 137.089 129.054 133.362C132.608 126.029 130.673 117.224 127.85 109.981C127.175 108.241 125.511 107.035 123.554 107.56C121.878 108.017 120.438 110.06 121.113 111.823C122.272 114.814 123.25 117.905 123.734 121.086C124.116 123.597 124.127 126.465 123.363 128.909C122.654 131.163 121.192 133.083 118.796 134.154C119.313 133.92 118.2 134.355 118.234 134.344C117.998 134.422 117.761 134.478 117.525 134.545C117.165 134.634 116.805 134.712 116.434 134.757C116.985 134.69 116.198 134.757 116.074 134.757C114.511 134.79 113.521 134.745 112.306 134.511C109.438 133.964 106.761 132.859 103.972 132.056C100.373 131.007 96.5485 130.516 92.8031 130.605C88.7878 130.694 84.7387 131.409 80.937 132.692C77.1353 133.975 73.986 135.895 70.3756 137.145C69.0709 137.591 67.7437 137.982 66.3602 137.926C66.2253 137.926 65.2692 137.736 66.0228 137.904C65.7079 137.837 65.4042 137.736 65.0893 137.669C64.5156 137.547 64.8193 137.602 65.0105 137.669C64.6056 137.502 64.2232 137.279 63.852 137.044C63.3234 136.721 62.5248 135.839 62.0524 134.946C61.6138 134.132 61.2651 132.614 61.2314 131.33C61.1526 127.927 62.2549 124.568 63.4471 121.42C64.5494 118.497 66.0003 115.684 67.6762 113.039C70.6118 108.397 74.6496 104.044 79.0474 101.132C80.1047 100.44 81.1844 99.7924 82.3092 99.2121C82.8828 98.9108 83.4677 98.6318 84.0526 98.3751C84.6937 98.085 84.3225 98.2523 84.1763 98.3193C84.6037 98.1407 85.0311 97.9845 85.4585 97.8283C86.617 97.4154 87.8092 97.0694 89.0127 96.8016C89.5526 96.69 90.0925 96.5895 90.6323 96.5002C91.6784 96.3217 89.9462 96.5337 90.9923 96.4556C91.3297 96.4333 91.6671 96.3998 92.0045 96.3775C98.1007 95.9757 104.141 97.2368 109.416 99.9263C112.329 101.411 114.455 102.884 116.637 105.082C117.784 106.243 118.312 106.857 119.134 108.073C119.955 109.29 120.753 110.807 121.136 111.823C121.81 113.564 123.486 114.769 125.432 114.245C127.119 113.787 128.548 111.745 127.873 109.981L127.862 109.993Z" fill="#38332F"/>
</g>
</g>
<defs>
<filter id="filter0_d_384_1067" x="-16.9834" y="-15.9999" width="213.241" height="211.973" filterUnits="userSpaceOnUse" color-interpolation-filters="sRGB">
<feFlood flood-opacity="0" result="BackgroundImageFix"/>
<feColorMatrix in="SourceAlpha" type="matrix" values="0 0 0 0 0 0 0 0 0 0 0 0 0 0 0 0 0 0 127 0" result="hardAlpha"/>
<feOffset dx="3" dy="4"/>
<feGaussianBlur stdDeviation="10"/>
<feComposite in2="hardAlpha" operator="out"/>
<feColorMatrix type="matrix" values="0 0 0 0 0 0 0 0 0 0 0 0 0 0 0 0 0 0 0.14 0"/>
<feBlend mode="normal" in2="BackgroundImageFix" result="effect1_dropShadow_384_1067"/>
<feBlend mode="normal" in="SourceGraphic" in2="effect1_dropShadow_384_1067" result="shape"/>
</filter>
<clipPath id="clip0_384_1067">
<rect width="197" height="198" fill="white"/>
</clipPath>
</defs>
</svg>
