<svg width="200" height="200" viewBox="0 0 200 200" fill="none" xmlns="http://www.w3.org/2000/svg">
<g id="Asset 27icon" clip-path="url(#clip0_489_901)">
<g id="Layer_2-2">
<path id="Vector" d="M112.795 192.695C111.481 192.549 110.397 192.154 109.563 191.534C108.729 190.914 108.227 190.103 108.056 189.111C109.906 188.829 110.831 188.671 112.646 188.31C112.84 188.964 113.263 189.426 113.914 189.697C114.564 189.967 115.387 189.99 116.357 189.764C117.362 189.528 118.093 189.156 118.561 188.648C119.029 188.141 119.178 187.6 119.018 187.025C118.892 186.552 118.595 186.213 118.139 186.011C117.682 185.808 117.157 185.684 116.563 185.639C115.958 185.605 115.147 185.593 114.119 185.593C112.726 185.593 111.573 185.481 110.682 185.334C109.791 185.188 108.992 184.85 108.296 184.331C107.599 183.812 107.177 183.035 107.017 181.998C106.868 181.028 107.028 180.149 107.485 179.337C107.942 178.526 108.627 177.849 109.552 177.274C110.477 176.711 111.561 176.282 112.817 175.989C114.702 175.55 116.312 175.538 117.716 175.989C119.121 176.44 120.125 177.342 120.719 178.706C119.075 179.224 118.23 179.472 116.551 179.912C116.369 179.371 115.969 178.988 115.364 178.762C114.759 178.537 114.039 178.514 113.183 178.717C112.441 178.886 111.881 179.179 111.504 179.596C111.127 180.014 110.99 180.532 111.116 181.152C111.207 181.58 111.447 181.907 111.858 182.122C112.269 182.336 112.749 182.482 113.308 182.539C113.868 182.595 114.656 182.64 115.649 182.64C117.008 182.64 118.139 182.651 119.029 182.73C119.92 182.809 120.753 183.046 121.53 183.474C122.306 183.903 122.866 184.59 123.186 185.571C123.46 186.416 123.437 187.284 123.094 188.186C122.752 189.088 122.067 189.922 121.039 190.677C120.011 191.433 118.687 192.019 117.077 192.391C115.546 192.752 114.096 192.853 112.783 192.695H112.795Z" fill="#6169BC"/>
<path id="Vector_2" d="M136.786 170.623C139.401 175.189 140.714 177.477 143.329 182.043C141.787 182.899 141.011 183.316 139.423 184.117C139.115 183.531 138.967 183.226 138.658 182.64C138.418 183.395 137.973 184.117 137.288 184.804C136.614 185.481 135.769 186.056 134.787 186.484C133.531 187.036 132.321 187.296 131.179 187.284C130.037 187.273 129.032 186.958 128.187 186.371C127.331 185.785 126.714 184.94 126.315 183.835C125.241 180.938 124.716 179.495 123.643 176.598C125.093 176.079 125.824 175.798 127.239 175.211C128.359 177.883 128.918 179.213 130.049 181.885C130.448 182.843 131.076 183.463 131.91 183.722C132.755 183.982 133.714 183.869 134.776 183.384C135.849 182.888 136.569 182.234 136.923 181.445C137.265 180.645 137.197 179.788 136.717 178.852C135.393 176.282 134.73 174.986 133.394 172.416C134.764 171.728 135.45 171.367 136.786 170.623Z" fill="#6169BC"/>
<path id="Vector_3" d="M144.996 165.911C145.407 165.134 146.001 164.457 146.811 163.848C147.668 164.953 148.102 165.506 148.958 166.61C148.627 166.858 148.467 166.982 148.124 167.23C147.131 167.963 146.514 168.696 146.286 169.451C146.058 170.206 146.275 171.097 146.971 172.1C148.467 174.253 149.221 175.335 150.716 177.488C149.278 178.469 148.535 178.943 147.051 179.856C144.242 175.403 142.826 173.171 140.017 168.718C141.307 167.918 141.947 167.512 143.203 166.667C143.671 167.343 143.899 167.67 144.368 168.346C144.379 167.49 144.596 166.678 145.007 165.911H144.996Z" fill="#6169BC"/>
<path id="Vector_4" d="M153.571 158.967C153.925 158.099 154.485 157.288 155.261 156.521C156.163 155.631 157.168 155.011 158.287 154.627C159.406 154.244 160.56 154.154 161.747 154.368C162.935 154.582 164.054 155.101 165.081 155.98C166.109 156.859 166.817 157.874 167.16 159.058C167.502 160.241 167.491 161.459 167.103 162.71C166.714 163.95 165.995 165.111 164.944 166.137C164.042 167.016 163.095 167.636 162.113 167.997C161.142 168.358 160.217 168.493 159.372 168.436C161.553 170.871 162.649 172.089 164.83 174.512C163.449 175.73 162.741 176.316 161.302 177.477C156.346 171.469 153.88 168.459 148.924 162.439C150.1 161.493 150.682 161.008 151.813 160.016C152.327 160.579 152.578 160.861 153.092 161.436C153.057 160.658 153.229 159.835 153.583 158.967H153.571ZM160.388 158.054C159.692 157.93 159.029 157.987 158.367 158.223C157.716 158.449 157.134 158.81 156.609 159.317C156.106 159.802 155.729 160.365 155.478 161.008C155.227 161.65 155.158 162.327 155.273 163.014C155.375 163.702 155.695 164.344 156.22 164.942C156.757 165.528 157.362 165.911 158.059 166.08C158.755 166.25 159.463 166.216 160.171 165.99C160.879 165.765 161.507 165.382 162.055 164.852C162.626 164.311 163.026 163.691 163.266 162.992C163.506 162.293 163.551 161.605 163.403 160.906C163.254 160.219 162.878 159.599 162.284 159.046C161.701 158.505 161.062 158.178 160.377 158.054H160.388Z" fill="#6169BC"/>
<path id="Vector_5" d="M165.607 145.384C165.732 144.516 166.075 143.682 166.634 142.847C167.811 143.614 168.404 143.997 169.58 144.764C169.352 145.113 169.238 145.282 168.998 145.621C168.302 146.635 167.959 147.526 167.993 148.315C168.028 149.104 168.53 149.87 169.512 150.592C171.647 152.147 172.709 152.925 174.845 154.481C173.805 155.867 173.269 156.544 172.173 157.885C168.039 154.582 165.972 152.937 161.827 149.645C162.775 148.484 163.243 147.886 164.145 146.68C164.807 147.165 165.139 147.402 165.801 147.886C165.527 147.075 165.458 146.241 165.595 145.384H165.607Z" fill="#6169BC"/>
<path id="Vector_6" d="M166.475 139.5C165.926 139.669 165.413 139.601 164.944 139.308C164.465 139.015 164.191 138.598 164.088 138.045C163.985 137.493 164.088 136.963 164.419 136.422C164.739 135.892 165.161 135.532 165.698 135.351C166.235 135.171 166.749 135.216 167.24 135.475C167.731 135.746 168.039 136.152 168.153 136.704C168.267 137.256 168.153 137.82 167.822 138.384C167.491 138.947 167.045 139.308 166.497 139.477L166.475 139.5ZM170.106 137.583C174.742 140.153 177.06 141.438 181.696 143.997C180.839 145.508 180.394 146.252 179.469 147.729C174.947 144.967 172.686 143.58 168.165 140.818C168.964 139.545 169.352 138.891 170.094 137.583H170.106Z" fill="#6169BC"/>
<path id="Vector_7" d="M184.653 137.561C183.819 138.406 182.94 138.958 182.05 139.229C181.159 139.5 180.337 139.466 179.583 139.15C180.36 137.662 180.736 136.907 181.456 135.374C181.958 135.509 182.472 135.408 183.009 135.036C183.545 134.664 183.991 134.1 184.322 133.333C184.642 132.589 184.767 131.947 184.699 131.428C184.63 130.91 184.413 130.583 184.036 130.436C183.637 130.278 183.237 130.414 182.826 130.842C182.415 131.27 181.855 131.981 181.159 132.961C180.439 133.965 179.8 134.776 179.229 135.362C178.658 135.949 178.019 136.366 177.299 136.625C176.58 136.884 175.826 136.794 175.027 136.4C174.376 136.073 173.885 135.543 173.565 134.844C173.246 134.145 173.12 133.311 173.189 132.353C173.257 131.394 173.543 130.369 174.022 129.264C174.73 127.629 175.621 126.446 176.74 125.702C177.859 124.958 179.069 124.732 180.382 125.059C179.869 126.502 179.606 127.224 179.035 128.644C178.521 128.509 178.03 128.599 177.573 128.903C177.105 129.208 176.728 129.715 176.431 130.414C176.146 131.056 176.032 131.597 176.077 132.037C176.123 132.477 176.329 132.781 176.683 132.939C177.094 133.119 177.516 133.029 177.939 132.634C178.373 132.24 178.932 131.575 179.594 130.628C180.268 129.658 180.851 128.858 181.364 128.238C181.878 127.618 182.472 127.133 183.169 126.784C183.865 126.434 184.642 126.378 185.464 126.649C186.183 126.885 186.754 127.37 187.142 128.092C187.531 128.802 187.702 129.715 187.656 130.797C187.599 131.879 187.314 133.063 186.765 134.337C186.206 135.644 185.487 136.726 184.653 137.572V137.561Z" fill="#6169BC"/>
<path id="Vector_8" d="M188.113 107.778C187.451 112.682 186.948 115.083 185.681 119.772C186.629 119.919 187.474 119.705 188.193 119.107C188.912 118.51 189.403 117.653 189.655 116.56C190.009 114.981 189.712 113.741 188.775 112.885C189.118 111.059 189.278 110.134 189.529 108.285C190.728 108.951 191.63 110.055 192.201 111.611C192.772 113.166 192.841 115.015 192.384 117.067C192.007 118.735 191.356 120.144 190.454 121.283C189.552 122.421 188.479 123.188 187.268 123.571C186.058 123.966 184.802 123.932 183.511 123.526C182.198 123.109 181.159 122.433 180.36 121.497C179.56 120.561 179.058 119.468 178.83 118.194C178.601 116.92 178.658 115.579 178.99 114.102C179.309 112.682 179.823 111.453 180.565 110.393C181.308 109.334 182.21 108.545 183.294 108.026C184.379 107.508 185.567 107.316 186.846 107.485C187.325 107.553 187.748 107.643 188.113 107.778ZM185.224 111.622C184.368 111.487 183.626 111.746 182.975 112.366C182.324 112.986 181.89 113.798 181.662 114.824C181.445 115.782 181.49 116.65 181.81 117.428C182.13 118.205 182.689 118.792 183.523 119.175C184.334 116.21 184.676 114.7 185.236 111.633L185.224 111.622Z" fill="#6169BC"/>
<path id="Vector_9" opacity="0.6" d="M139.017 157.629C178.555 129.829 187.745 75.6064 159.545 36.5193C131.345 -2.56791 76.4324 -11.7182 36.8952 16.0815C-2.64207 43.8813 -11.8325 98.1038 16.3677 137.191C44.568 176.278 99.4801 185.428 139.017 157.629Z" fill="#85EDE3"/>
<path id="Vector_10" d="M77.6424 63.943C78.3487 58.5152 74.7278 53.5833 69.5549 52.9273C64.382 52.2713 59.616 56.1396 58.9097 61.5675C58.2034 66.9953 61.8243 71.9272 66.9972 72.5832C72.1701 73.2392 76.9362 69.3708 77.6424 63.943Z" fill="#38332F"/>
<path id="Vector_11" d="M128.552 66.3114C129.258 60.8836 125.637 55.9516 120.465 55.2956C115.292 54.6397 110.526 58.508 109.819 63.9358C109.113 69.3636 112.734 74.2955 117.907 74.9515C123.08 75.6075 127.846 71.7392 128.552 66.3114Z" fill="#38332F"/>
<path id="Vector_12" d="M65.1668 21.7112C54.7871 18.273 43.0143 24.3603 39.2576 34.2915C38.6067 36.005 39.9769 38.2031 41.7354 38.5977C43.7451 39.0486 45.4009 37.9889 46.0974 36.1515C46.1545 36.0162 46.5542 35.2159 46.1773 35.9373C46.2915 35.7344 46.3829 35.509 46.4856 35.306C46.7254 34.8439 46.9881 34.4042 47.2621 33.9646C47.3877 33.773 47.5248 33.5813 47.6618 33.3784C47.8673 33.0966 48.0158 32.9388 47.7075 33.2995C48.0386 32.905 48.3812 32.5104 48.7466 32.1384C49.112 31.7664 49.4888 31.417 49.8884 31.0788C49.957 31.0224 50.5736 30.5152 50.1968 30.8195C49.8199 31.1239 50.448 30.6392 50.5279 30.5828C51.3843 29.9853 52.2978 29.4555 53.2456 29.0159C53.3369 28.9708 54.0677 28.6552 53.611 28.8468C53.1542 29.0384 53.8964 28.7453 53.9878 28.7115C54.4788 28.5312 54.9812 28.3733 55.4837 28.2381C55.9861 28.1028 56.4999 27.9901 57.0138 27.8886C57.1165 27.8661 57.9159 27.7534 57.3906 27.821C56.8653 27.8886 57.6646 27.7984 57.7674 27.7872C58.8179 27.697 59.8456 27.7421 60.8962 27.821C60.4166 27.7872 60.5308 27.7534 60.9418 27.8323C61.1702 27.8774 61.41 27.9224 61.6384 27.9675C62.1979 28.0915 62.746 28.2493 63.2941 28.4297C65.0526 29.0159 67.245 27.7646 67.6561 25.9835C68.1014 24.0559 67.0623 22.3086 65.1782 21.6774L65.1668 21.7112Z" fill="#38332F"/>
<path id="Vector_13" d="M123.46 32.1159C124.008 32.0933 124.545 32.0933 125.093 32.1159C125.344 32.1272 125.595 32.161 125.835 32.1722C126.109 32.2061 126.006 32.1835 125.515 32.1272C125.641 32.1497 125.767 32.161 125.881 32.1835C126.909 32.3526 127.913 32.6232 128.884 32.9839L129.112 33.0741C129.478 33.2206 129.421 33.1981 128.964 33.0064C129.09 33.1304 129.478 33.2432 129.649 33.3221C130.094 33.5362 130.54 33.7842 130.974 34.0322C131.408 34.2802 131.819 34.5621 132.23 34.8551C132.367 34.9566 132.504 35.0468 132.629 35.1482L132.31 34.9115C132.549 35.013 132.789 35.3061 132.983 35.4751C133.771 36.1628 134.479 36.918 135.153 37.7184C135.61 38.2595 134.776 37.1548 135.21 37.7973C135.347 38.0002 135.495 38.2031 135.632 38.406C135.907 38.8231 136.169 39.2402 136.398 39.6799C136.626 40.1195 136.797 40.5929 137.048 41.01C136.592 40.2773 136.968 40.8522 137.048 41.0889C137.128 41.3257 137.208 41.5511 137.288 41.7878C137.437 42.2613 137.562 42.7348 137.665 43.2195C137.688 43.3209 137.893 44.3129 137.768 43.7268C137.642 43.1406 137.802 44.1326 137.813 44.2453C137.962 46.0602 139.344 47.83 141.353 47.7398C143.146 47.6609 145.053 46.1955 144.893 44.2453C144.471 38.9697 141.993 34.0322 137.973 30.5152C133.954 26.9981 128.815 24.8675 123.437 25.1043C121.587 25.1832 119.806 26.6486 119.897 28.5988C119.977 30.425 121.462 32.1835 123.437 32.0933L123.46 32.1159Z" fill="#38332F"/>
<path id="Vector_14" d="M126.395 112.039C121.736 99.6168 106.104 92.9095 93.0405 93.9015C79.9774 94.8935 66.115 106.223 60.2229 123.932C59.0924 127.348 58.2475 131.158 58.7841 134.607C59.6634 140.198 63.9454 143.005 68.0219 142.836C72.0984 142.667 76.1064 140.266 80.1258 138.553C88.9069 134.833 98.1218 134.427 106.537 137.392C112.738 139.578 120.891 141.844 126.281 135.565C131.442 129.557 129.352 119.513 126.395 112.039Z" fill="#CBF6F7"/>
<path id="Vector_15" d="M129.809 111.104C124.841 98.2077 110.99 91.072 97.5505 90.3506C84.202 89.6404 72.6348 97.1255 64.87 107.372C60.4167 113.257 56.8197 120.55 55.5408 127.821C54.8215 131.902 54.8671 136.118 56.8768 139.86C58.4869 142.847 61.4786 145.215 64.8357 145.981C68.9237 146.917 72.8974 145.587 76.6085 143.963C80.5708 142.239 84.3276 140.424 88.5982 139.545C92.2408 138.789 96.1004 138.654 99.7658 139.252C103.431 139.849 106.72 141.303 110.248 142.194C113.777 143.084 117.865 143.558 121.564 142.543C125.641 141.427 129.192 138.474 131.019 134.709C134.627 127.302 132.663 118.408 129.797 111.092C129.112 109.334 127.422 108.116 125.435 108.646C123.734 109.108 122.272 111.171 122.957 112.952C124.133 115.973 125.127 119.096 125.618 122.309C126.006 124.845 126.018 127.742 125.241 130.211C124.522 132.488 123.037 134.427 120.605 135.509C121.13 135.272 120 135.712 120.034 135.701C119.794 135.78 119.555 135.836 119.315 135.904C118.949 135.994 118.584 136.073 118.207 136.118C118.767 136.05 117.967 136.118 117.842 136.118C116.255 136.152 115.25 136.106 114.016 135.87C111.105 135.317 108.387 134.201 105.555 133.39C101.901 132.33 98.0187 131.834 94.2163 131.924C90.1398 132.014 86.029 132.736 82.1694 134.032C78.3099 135.329 75.1126 137.268 71.4472 138.53C70.1226 138.981 68.7752 139.376 67.3707 139.319C67.2337 139.319 66.2631 139.128 67.0281 139.297C66.7084 139.229 66.4001 139.128 66.0804 139.06C65.498 138.936 65.8063 138.992 66.0004 139.06C65.5894 138.891 65.2011 138.665 64.8243 138.429C64.2876 138.102 63.4769 137.211 62.9973 136.309C62.552 135.486 62.198 133.953 62.1637 132.657C62.0838 129.219 63.2028 125.826 64.4132 122.647C65.5323 119.693 67.0053 116.853 68.7067 114.181C71.687 109.492 75.7863 105.095 80.2511 102.153C81.3245 101.454 82.4207 100.8 83.5625 100.214C84.1449 99.9098 84.7387 99.628 85.3324 99.3687C85.9833 99.0757 85.6065 99.2447 85.458 99.3124C85.892 99.132 86.3259 98.9742 86.7598 98.8164C87.9359 98.3993 89.1463 98.0498 90.3681 97.7793C90.9162 97.6666 91.4643 97.5651 92.0124 97.4749C93.0744 97.2946 91.3159 97.5087 92.3778 97.4298C92.7204 97.4073 93.063 97.3735 93.4055 97.3509C99.5945 96.9451 105.726 98.2189 111.082 100.936C114.039 102.435 116.197 103.923 118.413 106.144C119.577 107.316 120.114 107.936 120.948 109.165C121.781 110.393 122.592 111.927 122.98 112.952C123.665 114.711 125.367 115.928 127.342 115.399C129.055 114.936 130.505 112.873 129.82 111.092L129.809 111.104Z" fill="#38332F"/>
</g>
</g>
<defs>
<clipPath id="clip0_489_901">
<rect width="200" height="200" fill="white"/>
</clipPath>
</defs>
</svg>
