<svg width="200" height="200" viewBox="0 0 200 200" fill="none" xmlns="http://www.w3.org/2000/svg">
<g id="Asset 31icon">
<g id="Layer_2-2">
<path id="Vector" d="M111.287 173.825C113.018 173.978 114.554 174.513 115.896 175.43C117.237 176.358 118.28 177.614 118.991 179.241C119.702 180.868 119.908 182.462 119.553 184.024C119.198 185.586 118.326 187.016 116.928 188.283C115.529 189.55 113.683 190.554 111.425 191.242C108.421 192.159 106.908 192.585 103.835 193.339C101.978 186.525 101.049 183.129 99.1919 176.314C101.852 175.659 103.17 175.288 105.784 174.491C107.744 173.89 109.556 173.661 111.299 173.825H111.287ZM114.841 185.356C115.644 184.002 115.689 182.462 115.002 180.759C114.325 179.044 113.236 177.909 111.769 177.319C110.301 176.729 108.604 176.751 106.598 177.363C105.509 177.69 104.97 177.854 103.869 178.16C105.245 182.615 105.945 184.843 107.32 189.298C108.524 188.96 109.12 188.785 110.313 188.425C112.514 187.748 114.039 186.71 114.841 185.356Z" fill="#6169BC"/>
<path id="Vector_2" d="M118.934 171.16C118.349 170.975 117.925 170.614 117.684 170.079C117.432 169.544 117.432 169.009 117.684 168.474C117.925 167.939 118.349 167.535 118.957 167.273C119.564 167.011 120.161 166.956 120.745 167.12C121.33 167.284 121.754 167.633 122.029 168.168C122.305 168.692 122.327 169.238 122.087 169.773C121.857 170.319 121.422 170.734 120.791 171.018C120.161 171.302 119.542 171.346 118.957 171.16H118.934ZM123.29 171.717C125.847 176.74 127.131 179.252 129.688 184.275C128.083 185.018 127.269 185.378 125.629 186.077C123.245 180.977 122.052 178.422 119.656 173.322C121.124 172.7 121.846 172.372 123.29 171.706V171.717Z" fill="#6169BC"/>
<path id="Vector_3" d="M135.947 180.737C134.732 180.901 133.666 180.814 132.737 180.486C131.809 180.158 131.109 179.612 130.651 178.881C132.199 178.116 132.967 177.734 134.48 176.926C134.824 177.363 135.34 177.592 136.016 177.636C136.693 177.68 137.403 177.494 138.149 177.079C138.871 176.675 139.352 176.238 139.605 175.779C139.857 175.321 139.868 174.906 139.639 174.556C139.387 174.174 138.963 174.021 138.355 174.109C137.747 174.196 136.842 174.414 135.661 174.764C134.446 175.135 133.402 175.397 132.565 175.528C131.728 175.659 130.914 175.605 130.146 175.364C129.367 175.124 128.759 174.589 128.301 173.748C127.922 173.06 127.819 172.329 127.957 171.532C128.094 170.734 128.495 169.97 129.137 169.217C129.779 168.463 130.651 167.786 131.74 167.174C133.368 166.268 134.858 165.875 136.28 166.006C137.702 166.137 138.871 166.738 139.788 167.862C138.47 168.692 137.793 169.096 136.44 169.883C136.085 169.435 135.615 169.195 135.03 169.151C134.446 169.107 133.815 169.271 133.127 169.653C132.485 170.003 132.061 170.374 131.832 170.767C131.602 171.16 131.602 171.542 131.809 171.903C132.049 172.318 132.474 172.493 133.081 172.449C133.689 172.394 134.572 172.209 135.718 171.848C136.876 171.488 137.862 171.215 138.676 171.04C139.49 170.876 140.293 170.876 141.095 171.051C141.898 171.226 142.597 171.695 143.124 172.449C143.594 173.115 143.778 173.868 143.675 174.687C143.571 175.506 143.182 176.347 142.494 177.177C141.806 178.007 140.854 178.782 139.639 179.449C138.389 180.147 137.151 180.573 135.936 180.748L135.947 180.737Z" fill="#6169BC"/>
<path id="Vector_4" d="M147.767 157.346C148.73 157.128 149.636 157.106 150.473 157.292C149.934 156.68 149.67 156.375 149.132 155.763C150.358 154.78 150.966 154.278 152.17 153.262C156.102 157.456 158.074 159.552 162.006 163.746C162.912 164.707 163.474 165.777 163.68 166.967C163.875 168.157 163.669 169.402 163.027 170.702C162.385 172.001 161.284 173.246 159.748 174.404C157.684 175.954 155.655 176.806 153.729 176.981C151.814 177.155 150.29 176.62 149.166 175.419C150.633 174.447 151.367 173.956 152.812 172.94C153.396 173.322 154.13 173.443 155.001 173.29C155.873 173.137 156.756 172.733 157.65 172.056C158.693 171.269 159.324 170.385 159.553 169.413C159.782 168.441 159.461 167.48 158.624 166.53C158.04 165.864 157.742 165.536 157.157 164.87C157.157 165.722 156.928 166.618 156.446 167.557C155.953 168.496 155.196 169.358 154.165 170.101C152.984 170.964 151.7 171.499 150.335 171.684C148.971 171.881 147.676 171.706 146.449 171.182C145.222 170.658 144.19 169.784 143.353 168.605C142.517 167.437 142.058 166.224 141.943 164.98C141.829 163.724 142.035 162.566 142.562 161.474C143.09 160.382 143.881 159.465 144.947 158.679C145.876 158.002 146.816 157.543 147.779 157.336L147.767 157.346ZM151.906 159.793C151.195 159.563 150.473 159.52 149.739 159.661C149.006 159.803 148.352 160.098 147.756 160.546C147.16 160.994 146.713 161.518 146.392 162.151C146.082 162.774 145.956 163.451 146.013 164.171C146.071 164.892 146.357 165.591 146.873 166.268C147.389 166.945 148.02 167.426 148.742 167.699C149.476 167.972 150.221 168.037 150.989 167.906C151.757 167.775 152.445 167.48 153.064 167.011C153.706 166.53 154.188 165.962 154.52 165.285C154.852 164.608 154.967 163.909 154.864 163.189C154.772 162.468 154.428 161.78 153.844 161.125C153.259 160.47 152.617 160.033 151.906 159.793Z" fill="#6169BC"/>
<path id="Vector_5" d="M165.205 140.366C169.722 143.926 171.98 145.706 176.498 149.266C175.351 150.587 174.766 151.242 173.574 152.52C173.024 152.05 172.737 151.821 172.187 151.351C172.29 152.159 172.164 153 171.809 153.885C171.453 154.769 170.903 155.588 170.158 156.331C169.206 157.281 168.174 157.958 167.085 158.34C165.996 158.722 164.907 158.788 163.818 158.526C162.729 158.264 161.754 157.685 160.848 156.779C158.475 154.398 157.294 153.219 154.933 150.838C156.091 149.79 156.664 149.266 157.776 148.185C160.069 150.347 161.215 151.428 163.52 153.59C164.345 154.365 165.216 154.737 166.145 154.693C167.074 154.649 167.945 154.212 168.747 153.382C169.573 152.542 169.974 151.668 169.963 150.794C169.951 149.91 169.504 149.113 168.633 148.37C166.214 146.339 164.999 145.324 162.58 143.281C163.646 142.135 164.173 141.545 165.193 140.366H165.205Z" fill="#6169BC"/>
<path id="Vector_6" d="M180.659 143.565C179.627 144.199 178.607 144.548 177.621 144.614C176.635 144.679 175.764 144.461 175.019 143.98C176.096 142.67 176.624 142.015 177.656 140.672C178.16 140.923 178.733 140.945 179.364 140.704C180.006 140.464 180.568 140.016 181.061 139.339C181.542 138.684 181.794 138.094 181.829 137.57C181.863 137.046 181.691 136.675 181.324 136.435C180.923 136.183 180.476 136.216 179.96 136.533C179.444 136.85 178.699 137.417 177.782 138.215C176.83 139.034 175.993 139.689 175.294 140.137C174.583 140.584 173.826 140.857 173.012 140.956C172.198 141.054 171.407 140.803 170.628 140.224C169.986 139.743 169.562 139.121 169.344 138.346C169.126 137.57 169.149 136.708 169.401 135.769C169.653 134.829 170.158 133.857 170.891 132.864C171.981 131.39 173.173 130.429 174.526 129.97C175.879 129.511 177.22 129.588 178.527 130.243C177.678 131.532 177.231 132.176 176.349 133.432C175.833 133.17 175.294 133.137 174.744 133.333C174.193 133.53 173.689 133.934 173.219 134.556C172.795 135.135 172.554 135.648 172.519 136.096C172.485 136.544 172.646 136.893 173.001 137.144C173.402 137.428 173.872 137.417 174.4 137.134C174.938 136.85 175.661 136.315 176.543 135.539C177.449 134.742 178.229 134.098 178.894 133.617C179.559 133.137 180.304 132.82 181.118 132.656C181.932 132.493 182.769 132.634 183.583 133.115C184.294 133.53 184.798 134.152 185.062 134.95C185.325 135.747 185.325 136.664 185.062 137.701C184.798 138.739 184.259 139.82 183.445 140.923C182.608 142.058 181.668 142.943 180.636 143.576L180.659 143.565Z" fill="#6169BC"/>
<path id="Vector_7" d="M181.473 122.566C183.961 123.855 185.211 124.499 187.71 125.788C188.146 126.017 188.524 126.061 188.856 125.919C189.189 125.777 189.51 125.427 189.819 124.859C190.198 124.161 190.393 123.811 190.759 123.112C191.872 123.647 192.433 123.92 193.545 124.455C193.029 125.427 192.766 125.908 192.227 126.869C190.427 130.09 188.123 130.898 185.509 129.446C183.067 128.092 181.851 127.404 179.41 126.05C179.02 126.694 178.813 127.011 178.412 127.644C177.369 127.043 176.853 126.738 175.81 126.137C176.199 125.515 176.394 125.209 176.784 124.575C175.534 123.877 174.904 123.527 173.654 122.828C174.457 121.529 174.847 120.874 175.603 119.541C176.876 120.197 177.518 120.524 178.79 121.19C179.478 119.989 179.811 119.378 180.464 118.155C181.553 118.679 182.092 118.941 183.181 119.465C182.516 120.721 182.172 121.343 181.473 122.577V122.566Z" fill="#6169BC"/>
<path id="Vector_8" opacity="0.6" d="M88.3692 168.103C137.174 168.103 176.738 130.472 176.738 84.0513C176.738 37.6311 137.174 0 88.3692 0C39.5642 0 0 37.6311 0 84.0513C0 130.472 39.5642 168.103 88.3692 168.103Z" fill="#7D3C99"/>
<path id="Vector_9" d="M122.155 26.8086C121.169 26.9287 120.183 26.9943 119.186 26.9724C118.693 26.9615 118.2 26.9178 117.707 26.8851C116.709 26.8086 118.544 27.0379 117.546 26.8632C117.352 26.8305 117.157 26.7977 116.962 26.7649C115.987 26.5793 115.024 26.3281 114.084 26.0224C113.797 25.9241 113.522 25.8149 113.247 25.7166C113.522 25.8149 113.752 25.935 113.339 25.7494C112.846 25.531 112.353 25.3017 111.871 25.0505C111 24.5919 110.175 24.0677 109.361 23.5108C108.914 23.205 110.037 24.0677 109.326 23.4671C109.143 23.3142 108.948 23.1613 108.765 23.0085C108.398 22.6918 108.042 22.3642 107.687 22.0257C107.331 21.6871 107.01 21.3377 106.689 20.9664C106.426 20.6607 106.357 20.5405 106.644 20.9337C106.495 20.7371 106.357 20.5515 106.208 20.3549C105.623 19.5359 105.107 18.6623 104.672 17.7669C103.823 16.0196 101.037 15.4409 99.3979 16.4455C97.5063 17.6031 97.105 19.6014 98.0107 21.4687C102.115 29.8662 112.456 35.3699 122.132 34.1469C124.127 33.8957 126.088 32.6399 125.984 30.4777C125.904 28.7087 124.276 26.5356 122.132 26.8086H122.155Z" fill="#38332F"/>
<path id="Vector_10" d="M42.419 47.5021C52.0263 46.1589 60.4643 38.1764 61.9662 29.0472C62.1381 28.0426 62.1381 27.1362 61.5764 26.219C61.1063 25.4546 60.1891 24.7338 59.272 24.5373C57.4262 24.1332 54.8696 25.0724 54.5371 27.1035C54.3766 28.0754 54.1358 29.0363 53.8148 29.9754C53.7346 30.1938 53.6658 30.4013 53.5741 30.6197C53.5167 30.7617 53.4594 30.9036 53.4021 31.0456L53.6085 30.587C53.3218 30.9364 53.1613 31.5261 52.9435 31.9192C52.4735 32.76 51.9346 33.5463 51.3614 34.3325C50.9257 34.9331 51.9117 33.6882 51.3041 34.3981C51.155 34.5728 50.9945 34.7475 50.8455 34.9222C50.5015 35.2935 50.1461 35.6539 49.7793 36.0033C49.4353 36.32 49.0914 36.6367 48.7245 36.9315C48.5411 37.0844 48.3577 37.2263 48.1742 37.3683C47.5895 37.8379 48.8736 36.8769 48.094 37.412C47.3144 37.9471 46.4431 38.4712 45.5603 38.908C45.3539 39.0172 45.1361 39.1155 44.9183 39.2138C44.8036 39.2684 43.8979 39.6943 44.5056 39.3994C45.1132 39.1046 44.2075 39.4977 44.0814 39.5414C43.8521 39.6178 43.6342 39.6943 43.405 39.7598C42.419 40.0546 41.4101 40.273 40.3783 40.415C39.4955 40.5351 38.5096 41.3978 38.0739 42.0967C37.5924 42.8829 37.386 44.0404 37.6841 44.9249C38.3949 47.0107 40.2751 47.786 42.419 47.4911V47.5021Z" fill="#38332F"/>
<path id="Vector_11" d="M84.3797 84.0404C86.6497 80.4805 90.3298 77.958 94.7093 77.0625C96.5551 76.6803 99.1576 76.724 101.015 77.128C103.56 77.674 105.532 78.5913 107.687 80.142C109.35 81.3323 111.998 80.3931 112.961 78.8207C114.119 76.9424 113.248 74.9986 111.574 73.7974C106.231 69.9645 99.1576 68.6432 92.6457 69.9754C86.4318 71.2531 80.9862 75.1952 77.7073 80.3276C75.1277 84.3789 81.7887 88.0699 84.3568 84.0295L84.3797 84.0404Z" fill="#38332F"/>
<path id="Vector_12" d="M109.54 53.2866C114.656 52.6042 118.187 47.8532 117.426 42.6749C116.665 37.4966 111.9 33.8518 106.783 34.5342C101.667 35.2166 98.1356 39.9676 98.8968 45.1459C99.6579 50.3242 104.423 53.969 109.54 53.2866Z" fill="#38332F"/>
<path id="Vector_13" d="M63.3171 60.0021C68.4338 59.3198 71.9648 54.5687 71.2036 49.3904C70.4424 44.2121 65.6774 40.5674 60.5607 41.2497C55.4439 41.9321 51.9129 46.6831 52.6741 51.8614C53.4353 57.0398 58.2003 60.6845 63.3171 60.0021Z" fill="#38332F"/>
<path id="Vector_14" d="M83.7487 91.6189C86.8442 83.9858 81.9832 74.4636 73.5911 72.4215C71.6421 71.941 69.3148 73.033 68.8562 74.9877C68.3976 76.9424 69.4638 78.9954 71.5504 79.4977C71.9402 79.596 72.3185 79.7161 72.6968 79.8362C73.3045 80.0328 72.0204 79.4977 72.4102 79.727C72.5822 79.8253 72.7656 79.8908 72.9376 79.9782C73.2586 80.142 73.5567 80.3167 73.8548 80.5133C74.1299 80.688 74.4624 81.1139 73.7057 80.3822C73.8204 80.4914 73.9579 80.5788 74.0841 80.688C74.3592 80.9173 74.6114 81.1575 74.8637 81.4087C75.0012 81.5507 75.1273 81.6926 75.2534 81.8346C75.7006 82.3151 74.7261 81.1139 75.1388 81.6817C75.5515 82.2495 75.9413 82.8392 76.2623 83.4726C76.3311 83.6036 76.5719 84.1605 76.3197 83.5599C76.0674 82.9593 76.3311 83.6145 76.3884 83.7456C76.5146 84.0732 76.6177 84.4117 76.7209 84.7502C76.8241 85.0887 76.87 85.4382 76.9502 85.7876C77.0419 86.1698 76.847 84.7611 76.9158 85.5801C76.9273 85.7439 76.9502 85.8968 76.9617 86.0606C76.9846 86.4428 76.9846 86.8359 76.9617 87.2181C76.9617 87.3819 76.9387 87.5457 76.9273 87.6986C76.8814 88.332 76.9846 87.6003 76.9731 87.4038C77.0075 88.1245 76.5833 89.0418 76.3197 89.6861C75.5974 91.4769 77.1222 93.792 79.0138 94.196C81.215 94.6765 82.9806 93.5518 83.7487 91.6298V91.6189Z" fill="#38332F"/>
<path id="Vector_15" d="M117.879 80.4368C117.764 80.3604 117.455 80.0983 117.329 80.0765C117.455 80.0983 117.982 80.6006 117.581 80.2621C117.283 80.0109 116.973 79.7598 116.698 79.4758C116.572 79.3557 116.446 79.2247 116.331 79.0936C116.228 78.9844 115.85 78.4821 116.217 78.9844C116.584 79.4868 116.217 78.9844 116.125 78.8534C115.999 78.6896 115.884 78.5149 115.77 78.3402C115.575 78.0453 115.403 77.7505 115.242 77.4447C115.162 77.2918 115.093 77.128 115.013 76.9861C114.795 76.593 115.322 77.8051 115.116 77.2045C114.875 76.5165 114.669 75.8504 114.52 75.1406C114.451 74.8348 114.543 74.4199 114.543 75.4136C114.543 75.2498 114.508 75.0751 114.497 74.9113C114.474 74.5728 114.463 74.2452 114.463 73.9066C114.463 73.5463 114.566 73.1532 114.531 72.8037C114.554 73.033 114.359 73.6992 114.497 73.0876C114.531 72.9238 114.566 72.76 114.6 72.5962C114.68 72.2686 114.772 71.952 114.887 71.6353C114.944 71.4824 115.013 71.3295 115.07 71.1657C115.208 70.7398 114.669 71.952 114.979 71.406C115.162 71.0784 115.334 70.7508 115.54 70.445C115.632 70.303 115.735 70.172 115.838 70.03C116.228 69.4731 115.277 70.6852 115.758 70.1283C117.054 68.6541 117.386 66.3609 115.758 64.9413C114.336 63.6964 111.688 63.3688 110.312 64.9413C107.32 68.3484 106.277 72.5416 107.056 76.8987C107.79 80.961 110.416 84.5318 114.015 86.7813C115.701 87.8406 118.349 87.1526 119.289 85.46C120.31 83.6255 119.713 81.5616 117.902 80.4368H117.879Z" fill="#38332F"/>
</g>
</g>
</svg>
