<svg width="183" height="183" viewBox="0 0 183 183" fill="none" xmlns="http://www.w3.org/2000/svg">
<g id="Asset 32icon" clip-path="url(#clip0_384_1084)">
<g id="Layer_2-2">
<path id="Vector" d="M141.56 157.075C144.35 160.842 145.75 162.731 148.54 166.498C149.503 167.809 149.806 169.154 149.38 170.565C148.943 171.965 147.89 173.232 146.198 174.288C144.495 175.355 142.837 175.766 141.314 175.543C139.79 175.321 138.659 174.454 137.886 172.988C139.297 172.243 140.003 171.865 141.37 171.054C141.751 171.665 142.21 172.043 142.759 172.176C143.308 172.31 143.902 172.176 144.551 171.787C145.179 171.399 145.549 170.932 145.661 170.398C145.773 169.865 145.638 169.332 145.268 168.776C142.658 164.876 141.359 162.931 138.748 159.041C139.902 158.286 140.462 157.897 141.572 157.086L141.56 157.075Z" fill="#6169BC"/>
<path id="Vector_2" d="M157.267 165.064C155.934 165.476 154.657 165.498 153.458 165.142C152.248 164.787 151.229 164.064 150.377 163.009C149.526 161.953 149.044 160.808 148.887 159.597C148.741 158.386 148.887 157.208 149.358 156.052C149.817 154.897 150.523 153.874 151.497 152.93C152.472 151.996 153.525 151.318 154.701 150.896C155.878 150.474 157.065 150.34 158.286 150.529C159.507 150.707 160.65 151.218 161.692 152.096C162.734 152.974 163.417 154.019 163.72 155.252C164.022 156.486 163.944 157.775 163.473 159.108C163.003 160.442 162.185 161.686 161.02 162.809C159.866 163.92 158.611 164.676 157.278 165.087L157.267 165.064ZM160.112 158.93C160.348 158.264 160.381 157.597 160.213 156.919C160.045 156.241 159.642 155.619 159.026 155.041C158.096 154.185 157.132 153.808 156.124 153.863C155.127 153.93 154.253 154.319 153.503 155.052C152.741 155.786 152.338 156.619 152.259 157.608C152.181 158.586 152.55 159.553 153.391 160.497C154.231 161.442 155.15 161.92 156.169 161.92C157.188 161.92 158.13 161.508 158.959 160.708C159.485 160.197 159.877 159.608 160.112 158.941V158.93Z" fill="#6169BC"/>
<path id="Vector_3" d="M165.669 134.527C170.946 141.284 173.298 145.018 177.242 153.052C176.155 154.619 175.584 155.386 174.419 156.897C173.254 154.074 172.626 152.696 171.282 150.018C165.501 149.207 162.678 148.607 157.233 147.062C158.253 145.84 158.746 145.207 159.698 143.929C163.563 144.962 165.535 145.395 169.545 146.084C167.372 142.662 166.218 141.006 163.787 137.839C164.571 136.539 164.952 135.872 165.669 134.527Z" fill="#6169BC"/>
<g id="Vector_4" opacity="0.4" filter="url(#filter0_d_384_1084)">
<path d="M158.314 130.985C183.812 91.2552 172.058 38.5741 132.062 13.3189C92.0656 -11.9363 38.9725 -0.201927 13.4752 39.5283C-12.0222 79.2585 -0.268502 131.94 39.7278 157.195C79.724 182.45 132.817 170.716 158.314 130.985Z" fill="#FCED23"/>
</g>
<path id="Vector_5" d="M98.8887 45.3055C98.9447 51.2506 104.468 55.6512 110.316 54.4288C114.539 53.5509 117.642 49.706 117.598 45.4277C117.542 39.4825 112.019 35.082 106.171 36.3044C101.947 37.1822 98.8439 41.0272 98.8887 45.3055Z" fill="#38332F"/>
<path id="Vector_6" d="M68.7988 51.3326C72.2063 47.5216 71.8203 41.6624 67.9366 38.2458C64.053 34.8292 58.1423 35.1488 54.7348 38.9598C51.3273 42.7708 51.7133 48.63 55.597 52.0466C59.4806 55.4632 65.3913 55.1436 68.7988 51.3326Z" fill="#38332F"/>
<path id="Vector_7" d="M109.699 77.5872C108.007 85.5326 102.507 92.678 95.1017 95.4338C94.1607 95.7894 93.1972 96.0784 92.2226 96.3117C90.979 96.6007 90.4749 96.6896 89.3882 96.7673C87.2933 96.9229 85.3327 96.7673 83.6075 96.4117C79.5072 95.5561 75.6982 93.7448 72.483 91.2C68.5843 88.1107 65.3467 84.0658 63.4758 79.5764C62.77 77.8984 61.224 76.6982 59.2971 77.2205C57.6951 77.6539 56.2163 79.6764 56.9221 81.3655C61.0784 91.3445 69.4806 99.5566 80.101 102.501C90.7214 105.446 100.938 102.112 108.153 94.6226C112.209 90.411 115.054 85.077 116.264 79.3763C116.645 77.5983 115.738 75.7315 113.889 75.2314C112.197 74.7758 110.091 75.7981 109.71 77.5872H109.699Z" fill="#38332F"/>
</g>
</g>
<defs>
<filter id="filter0_d_384_1084" x="-16.9995" y="-15.9957" width="211.789" height="210.505" filterUnits="userSpaceOnUse" color-interpolation-filters="sRGB">
<feFlood flood-opacity="0" result="BackgroundImageFix"/>
<feColorMatrix in="SourceAlpha" type="matrix" values="0 0 0 0 0 0 0 0 0 0 0 0 0 0 0 0 0 0 127 0" result="hardAlpha"/>
<feOffset dx="3" dy="4"/>
<feGaussianBlur stdDeviation="10"/>
<feComposite in2="hardAlpha" operator="out"/>
<feColorMatrix type="matrix" values="0 0 0 0 0 0 0 0 0 0 0 0 0 0 0 0 0 0 0.14 0"/>
<feBlend mode="normal" in2="BackgroundImageFix" result="effect1_dropShadow_384_1084"/>
<feBlend mode="normal" in="SourceGraphic" in2="effect1_dropShadow_384_1084" result="shape"/>
</filter>
<clipPath id="clip0_384_1084">
<rect width="183" height="183" fill="white"/>
</clipPath>
</defs>
</svg>
