<svg width="210" height="210" viewBox="0 0 210 210" fill="none" xmlns="http://www.w3.org/2000/svg">
<g id="Layer_1-2">
<path id="Vector" d="M144.533 185.962C145.069 186.777 145.342 187.184 145.877 187.999C144.336 188.833 143.56 189.24 141.975 190.015C144.544 194.346 145.823 196.511 148.391 200.842C147.047 201.507 146.358 201.825 144.981 202.441C142.576 198.031 141.374 195.826 138.969 191.425C137.351 192.151 136.543 192.498 134.881 193.164C134.455 192.3 134.247 191.863 133.821 190.988C138.259 189.21 140.401 188.197 144.533 185.953V185.962Z" fill="#6169BC"/>
<path id="Vector_2" d="M152.819 185.108C153.169 184.453 153.715 183.886 154.437 183.4C155.246 184.393 155.65 184.89 156.459 185.883C156.164 186.082 156.011 186.181 155.716 186.38C154.83 186.966 154.284 187.572 154.098 188.217C153.912 188.863 154.142 189.638 154.808 190.532C156.24 192.449 156.962 193.412 158.394 195.339C157.126 196.114 156.492 196.501 155.202 197.236C152.469 193.293 151.103 191.326 148.37 187.383C149.518 186.727 150.086 186.39 151.212 185.694C151.66 186.29 151.879 186.588 152.327 187.194C152.316 186.459 152.491 185.764 152.841 185.108H152.819Z" fill="#6169BC"/>
<path id="Vector_3" d="M165.859 174.719C169.477 178.026 171.281 179.675 174.899 182.973C173.806 183.956 173.259 184.443 172.134 185.386L171.03 184.304C171.051 184.969 170.877 185.655 170.505 186.35C170.133 187.045 169.587 187.671 168.887 188.217C167.991 188.913 167.051 189.379 166.078 189.598C165.105 189.817 164.165 189.767 163.258 189.459C162.351 189.151 161.553 188.585 160.853 187.76C159.017 185.595 158.099 184.512 156.262 182.357C157.333 181.602 157.869 181.225 158.907 180.44C160.7 182.417 161.607 183.41 163.4 185.386C164.045 186.102 164.766 186.479 165.564 186.529C166.362 186.568 167.149 186.29 167.914 185.684C168.69 185.069 169.106 184.393 169.16 183.668C169.215 182.943 168.898 182.248 168.199 181.572C166.275 179.695 165.313 178.751 163.389 176.874C164.384 176.03 164.876 175.603 165.848 174.729L165.859 174.719Z" fill="#6169BC"/>
<path id="Vector_4" d="M178.911 178.672C177.971 179.099 177.075 179.298 176.211 179.268C175.359 179.238 174.626 178.99 174.014 178.523C175.042 177.549 175.545 177.053 176.528 176.05C176.944 176.298 177.436 176.358 178.004 176.218C178.572 176.079 179.097 175.762 179.567 175.255C180.026 174.758 180.289 174.301 180.354 173.874C180.42 173.447 180.299 173.129 180.004 172.911C179.687 172.672 179.283 172.663 178.824 172.881C178.365 173.1 177.676 173.497 176.823 174.063C175.949 174.649 175.184 175.116 174.539 175.424C173.894 175.732 173.227 175.891 172.517 175.891C171.817 175.891 171.15 175.623 170.527 175.086C170.014 174.639 169.697 174.093 169.565 173.437C169.434 172.782 169.522 172.086 169.806 171.341C170.09 170.597 170.582 169.852 171.293 169.107C172.331 168.004 173.424 167.329 174.626 167.07C175.818 166.812 176.966 166.991 178.059 167.637C177.239 168.61 176.813 169.097 175.96 170.04C175.534 169.782 175.075 169.712 174.583 169.822C174.091 169.931 173.632 170.219 173.184 170.686C172.779 171.123 172.539 171.51 172.473 171.878C172.407 172.235 172.517 172.533 172.812 172.772C173.14 173.03 173.533 173.07 174.014 172.881C174.495 172.692 175.151 172.325 175.971 171.759C176.802 171.183 177.523 170.726 178.135 170.398C178.747 170.07 179.403 169.861 180.114 169.802C180.824 169.732 181.535 169.921 182.212 170.378C182.803 170.775 183.185 171.322 183.36 171.987C183.535 172.653 183.469 173.408 183.163 174.232C182.857 175.056 182.311 175.891 181.535 176.725C180.726 177.579 179.851 178.225 178.911 178.662V178.672Z" fill="#6169BC"/>
<path id="Vector_5" d="M181.097 161.657C183.163 162.908 184.191 163.534 186.256 164.776C186.617 164.994 186.945 165.064 187.24 164.974C187.535 164.885 187.841 164.627 188.147 164.19C188.53 163.653 188.716 163.385 189.077 162.849C190.006 163.375 190.465 163.634 191.394 164.16C190.88 164.905 190.618 165.272 190.093 166.017C188.322 168.481 186.278 168.958 184.114 167.557C182.103 166.256 181.097 165.6 179.086 164.289C178.703 164.776 178.507 165.014 178.113 165.501C177.26 164.925 176.834 164.637 175.971 164.061C176.353 163.594 176.539 163.355 176.911 162.879C175.883 162.213 175.359 161.875 174.331 161.2C175.107 160.217 175.479 159.72 176.222 158.707C177.282 159.343 177.807 159.66 178.856 160.306C179.523 159.392 179.851 158.925 180.496 157.992C181.403 158.508 181.851 158.757 182.748 159.273C182.092 160.237 181.753 160.703 181.064 161.647L181.097 161.657Z" fill="#6169BC"/>
<g id="Vector_6" filter="url(#filter0_d_384_1036)">
<path d="M102 186C148.944 186 187 147.944 187 101C187 54.0558 148.944 16 102 16C55.0558 16 17 54.0558 17 101C17 147.944 55.0558 186 102 186Z" fill="#CEFFAE"/>
</g>
<path id="Vector_7" d="M72.2373 76.7252C72.8604 76.0299 73.5381 75.3744 74.2923 74.7784C74.4891 74.6195 74.6858 74.4705 74.8935 74.3215C74.6312 74.5201 74.6093 74.5102 74.8935 74.3314C75.2761 74.093 75.6696 73.8546 76.0631 73.6361C76.5113 73.3878 76.9703 73.1693 77.4294 72.9607C77.6153 72.8812 77.812 72.8018 77.9978 72.7223C78.3804 72.5435 77.4732 72.8812 78.129 72.6726C79.069 72.3747 79.9982 72.0965 80.9819 71.8979C81.441 71.8085 81.9001 71.729 82.3701 71.6694C82.0422 71.7092 81.9329 71.7191 82.3264 71.6893C82.5887 71.6694 82.8511 71.6496 83.1025 71.6396C84.0972 71.59 85.0809 71.6297 86.0647 71.7092C86.4691 71.739 86.338 71.7588 86.021 71.7092C86.2724 71.7588 86.5347 71.7886 86.7861 71.8383C87.2452 71.9177 87.6934 72.027 88.1525 72.1363C88.6553 72.2654 89.1362 72.4343 89.6281 72.5932C89.3111 72.4939 89.2783 72.4442 89.6172 72.5932C89.9014 72.7124 90.1856 72.8415 90.4589 72.9706C92.164 73.7752 94.5251 73.4176 95.487 71.7688C96.3724 70.2391 95.9898 68.0539 94.1644 67.1997C85.2996 63.0279 73.4397 64.8754 67.0453 72.0171C65.8319 73.3679 65.4822 75.434 67.0453 76.7352C68.3897 77.8576 70.9475 78.1854 72.2373 76.7352V76.7252Z" fill="#38332F"/>
<path id="Vector_8" d="M147.528 86.8269C144.489 78.225 134.608 71.9177 124.563 72.911C122.661 73.0997 120.792 74.3115 120.89 76.2484C120.966 77.8972 122.519 79.7944 124.563 79.5858C125.568 79.4865 126.574 79.4567 127.58 79.5163C127.809 79.5262 128.039 79.556 128.257 79.566C128.727 79.5958 127.525 79.4468 128.235 79.566C128.727 79.6454 129.219 79.7348 129.711 79.8441C130.203 79.9533 130.684 80.0825 131.154 80.2315C131.373 80.301 131.591 80.3705 131.799 80.44C132.498 80.6784 131.919 80.3705 131.81 80.44C131.941 80.3606 133.012 80.9665 133.165 81.0459C133.613 81.2645 134.051 81.4929 134.477 81.7412C134.838 81.9498 135.318 82.1684 135.614 82.4564C135.034 81.8902 135.57 82.4365 135.734 82.5557C135.909 82.6849 136.084 82.8239 136.259 82.963C136.98 83.549 137.625 84.1847 138.248 84.8602C138.871 85.5356 137.822 84.284 138.346 84.9793C138.477 85.1482 138.609 85.3171 138.74 85.4958C139.013 85.8733 139.275 86.2706 139.527 86.6679C139.724 86.9957 140.062 87.4228 140.139 87.7804C139.986 87.0454 140.095 87.691 140.183 87.9095C140.281 88.1479 140.368 88.3863 140.445 88.6247C141.035 90.2835 143.025 91.5251 144.959 90.9589C146.785 90.4225 148.151 88.6346 147.528 86.8566V86.8269Z" fill="#38332F"/>
<path id="Vector_9" d="M117.458 112.493C113.413 117.43 105.674 120.002 99.2361 118.751C92.7979 117.499 87.0156 112.732 85.1792 106.812C83.9878 102.968 77.3747 104.597 78.5771 108.46C80.5227 114.708 85.5072 120.181 91.9672 122.992C98.9301 126.012 106.724 125.863 113.697 122.942C117.589 121.314 120.813 118.731 123.36 115.632C124.464 114.281 123.601 112.155 122.136 111.381C120.387 110.457 118.562 111.142 117.458 112.493Z" fill="#38332F"/>
</g>
<defs>
<filter id="filter0_d_384_1036" x="0" y="0" width="210" height="210" filterUnits="userSpaceOnUse" color-interpolation-filters="sRGB">
<feFlood flood-opacity="0" result="BackgroundImageFix"/>
<feColorMatrix in="SourceAlpha" type="matrix" values="0 0 0 0 0 0 0 0 0 0 0 0 0 0 0 0 0 0 127 0" result="hardAlpha"/>
<feOffset dx="3" dy="4"/>
<feGaussianBlur stdDeviation="10"/>
<feComposite in2="hardAlpha" operator="out"/>
<feColorMatrix type="matrix" values="0 0 0 0 0 0 0 0 0 0 0 0 0 0 0 0 0 0 0.14 0"/>
<feBlend mode="normal" in2="BackgroundImageFix" result="effect1_dropShadow_384_1036"/>
<feBlend mode="normal" in="SourceGraphic" in2="effect1_dropShadow_384_1036" result="shape"/>
</filter>
</defs>
</svg>
