<svg width="201" height="205" viewBox="0 0 201 205" fill="none" xmlns="http://www.w3.org/2000/svg">
<g id="Asset 28icon" clip-path="url(#clip0_384_1046)">
<g id="Layer_2-2">
<path id="Vector" d="M83.0099 195.847C79.4961 195.847 77.728 195.769 74.1695 195.469C73.4757 196.638 73.1288 197.228 72.4015 198.386C70.4655 198.197 69.492 198.085 67.5337 197.818C71.7636 191.895 73.6212 188.832 76.8664 182.586C78.7016 182.708 79.608 182.742 81.432 182.775C84.1177 189.267 85.6955 192.474 89.2876 198.742C87.3853 198.843 86.4341 198.876 84.5094 198.898C83.8939 197.673 83.603 197.061 83.0211 195.836L83.0099 195.847ZM81.8349 193.253C80.6151 190.547 80.0444 189.178 78.9814 186.439C77.6945 189.077 77.0119 190.391 75.5571 192.986C78.0749 193.164 79.3394 193.22 81.8349 193.253Z" fill="#6169BC"/>
<path id="Vector_2" d="M104.428 185.125C105.749 185.815 106.633 186.984 107.035 188.665C107.729 191.583 108.076 193.041 108.77 195.959C107.058 196.359 106.207 196.549 104.473 196.883C103.925 194.11 103.656 192.73 103.108 189.957C102.917 188.966 102.447 188.253 101.72 187.841C100.993 187.418 100.109 187.307 99.0232 187.474C97.9266 187.652 97.0985 188.042 96.5278 188.665C95.9571 189.289 95.7221 190.102 95.8452 191.115C96.1921 193.921 96.3711 195.313 96.718 198.119C94.95 198.33 94.0659 198.419 92.2755 198.564C91.8502 193.476 91.6376 190.926 91.2124 185.837C92.7902 185.704 93.5847 185.626 95.1402 185.436C95.2185 186.071 95.2521 186.383 95.3416 187.017C95.8004 186.405 96.4159 185.893 97.1768 185.459C97.9378 185.036 98.7882 184.746 99.7506 184.579C101.563 184.267 103.108 184.445 104.428 185.136V185.125Z" fill="#6169BC"/>
<path id="Vector_3" d="M114.511 183.844L116.435 189.723C116.57 190.135 116.793 190.391 117.118 190.48C117.442 190.581 117.901 190.525 118.517 190.313C119.255 190.057 119.636 189.924 120.374 189.656C120.744 190.681 120.934 191.193 121.314 192.217C120.285 192.585 119.77 192.774 118.741 193.119C115.272 194.289 113.123 193.476 112.396 190.926C111.724 188.554 111.389 187.374 110.717 185.002C110.001 185.203 109.632 185.303 108.904 185.492C108.636 184.468 108.501 183.956 108.222 182.931C108.927 182.742 109.285 182.653 109.979 182.452C109.632 181.239 109.464 180.626 109.117 179.413C110.572 179.001 111.288 178.789 112.72 178.321C113.112 179.524 113.313 180.125 113.705 181.328C115.003 180.905 115.641 180.682 116.928 180.225C117.297 181.216 117.476 181.717 117.834 182.72C116.525 183.198 115.865 183.421 114.522 183.855L114.511 183.844Z" fill="#6169BC"/>
<path id="Vector_4" d="M118.964 177.219C118.427 177.041 118.058 176.707 117.856 176.206C117.655 175.705 117.7 175.215 117.957 174.714C118.215 174.224 118.64 173.856 119.233 173.611C119.826 173.366 120.374 173.322 120.911 173.478C121.449 173.634 121.829 173.957 122.042 174.446C122.265 174.936 122.254 175.437 121.997 175.939C121.739 176.44 121.303 176.829 120.699 177.085C120.083 177.341 119.501 177.386 118.964 177.208V177.219ZM123.026 177.753C125.097 182.43 126.137 184.768 128.207 189.434C126.63 190.135 125.835 190.469 124.224 191.104C122.333 186.349 121.381 183.978 119.501 179.234C120.923 178.667 121.639 178.377 123.038 177.753H123.026Z" fill="#6169BC"/>
<path id="Vector_5" d="M127.692 178.811C127.849 177.631 128.297 176.551 129.046 175.549C129.796 174.547 130.792 173.701 132.045 172.977C133.657 172.053 135.167 171.596 136.645 171.596C138.111 171.596 139.42 172.064 140.584 173.01C139.162 173.957 138.446 174.424 136.98 175.315C136.499 174.959 135.951 174.792 135.324 174.792C134.709 174.792 134.06 174.992 133.388 175.371C132.426 175.927 131.81 176.64 131.553 177.531C131.296 178.433 131.441 179.424 132.012 180.515C132.582 181.595 133.321 182.263 134.25 182.53C135.179 182.786 136.175 182.631 137.215 182.04C138.692 181.205 139.33 180.125 139.162 178.856C140.684 177.932 141.434 177.453 142.911 176.462C143.314 177.865 143.169 179.279 142.441 180.704C141.714 182.129 140.438 183.388 138.625 184.423C137.204 185.236 135.783 185.693 134.407 185.782C133.03 185.882 131.81 185.626 130.747 185.047C129.684 184.457 128.879 183.566 128.308 182.363C127.737 181.172 127.547 179.98 127.692 178.8V178.811Z" fill="#6169BC"/>
<path id="Vector_6" d="M139.465 166.018C138.905 165.973 138.469 165.728 138.156 165.294C137.842 164.86 137.753 164.37 137.887 163.824C138.021 163.29 138.335 162.833 138.838 162.455C139.342 162.076 139.879 161.909 140.427 161.942C140.987 161.976 141.423 162.198 141.759 162.622C142.095 163.045 142.195 163.535 142.083 164.08C141.96 164.626 141.636 165.105 141.11 165.494C140.584 165.884 140.036 166.062 139.465 166.018ZM143.505 165.595C146.638 169.636 148.205 171.663 151.349 175.705C149.995 176.751 149.301 177.253 147.902 178.244C144.926 174.079 143.437 172.008 140.461 167.844C141.692 166.964 142.307 166.519 143.505 165.595Z" fill="#6169BC"/>
<path id="Vector_7" d="M151.036 159.715C151.394 158.847 151.964 158.034 152.737 157.255C153.643 156.353 154.639 155.718 155.747 155.328C156.855 154.939 157.985 154.838 159.149 155.028C160.312 155.228 161.387 155.74 162.371 156.598C163.356 157.455 164.028 158.457 164.33 159.626C164.643 160.784 164.609 161.987 164.218 163.212C163.826 164.436 163.11 165.572 162.08 166.597C161.196 167.476 160.268 168.089 159.316 168.456C158.365 168.823 157.47 168.979 156.642 168.924C158.768 171.273 159.831 172.442 161.957 174.792C160.615 175.994 159.932 176.584 158.544 177.731C153.688 171.941 151.259 169.046 146.414 163.245C147.578 162.276 148.149 161.786 149.279 160.773C149.771 161.319 150.029 161.597 150.521 162.143C150.499 161.374 150.666 160.562 151.024 159.693L151.036 159.715ZM157.739 158.691C157.067 158.58 156.407 158.646 155.758 158.88C155.109 159.114 154.527 159.481 154.012 159.983C153.509 160.472 153.139 161.04 152.882 161.675C152.636 162.321 152.558 162.978 152.658 163.657C152.759 164.336 153.061 164.96 153.576 165.539C154.091 166.107 154.684 166.474 155.366 166.63C156.049 166.786 156.732 166.741 157.425 166.507C158.119 166.274 158.735 165.895 159.283 165.372C159.842 164.837 160.245 164.214 160.491 163.523C160.738 162.833 160.794 162.154 160.659 161.475C160.525 160.795 160.167 160.183 159.596 159.649C159.037 159.125 158.41 158.802 157.739 158.691Z" fill="#6169BC"/>
<path id="Vector_8" d="M161.577 152.244C161.207 151.131 161.129 150.006 161.353 148.848C161.577 147.701 162.069 146.621 162.819 145.586C163.479 144.684 164.206 144.004 165.001 143.526C165.795 143.047 166.579 142.746 167.362 142.646L165.829 141.644C166.68 140.363 167.082 139.718 167.877 138.404C172.275 141.043 174.479 142.356 178.877 144.995C177.982 146.476 177.512 147.211 176.561 148.648C175.934 148.236 175.621 148.035 174.994 147.623C175.195 148.403 175.195 149.304 174.972 150.329C174.748 151.342 174.255 152.378 173.506 153.391C172.655 154.549 171.637 155.406 170.473 155.985C169.309 156.553 168.123 156.776 166.915 156.642C165.706 156.509 164.609 156.008 163.613 155.172C162.617 154.337 161.946 153.358 161.577 152.244ZM169.197 144.517C168.515 144.517 167.877 144.695 167.261 145.051C166.657 145.407 166.142 145.875 165.717 146.454C165.292 147.044 165.012 147.668 164.878 148.325C164.744 148.993 164.777 149.65 164.99 150.295C165.202 150.941 165.605 151.509 166.21 151.977C166.814 152.444 167.474 152.701 168.179 152.745C168.884 152.779 169.567 152.623 170.204 152.277C170.854 151.932 171.402 151.442 171.838 150.83C172.297 150.195 172.588 149.516 172.722 148.792C172.857 148.069 172.801 147.389 172.543 146.744C172.297 146.109 171.838 145.574 171.178 145.151C170.518 144.728 169.846 144.517 169.175 144.517H169.197Z" fill="#6169BC"/>
<path id="Vector_9" d="M174.233 132.424C176.46 133.516 177.568 134.072 179.806 135.163C180.197 135.353 180.533 135.375 180.824 135.208C181.115 135.052 181.406 134.685 181.686 134.095C182.021 133.382 182.189 133.026 182.514 132.313C183.51 132.758 184.013 132.981 185.009 133.438C184.561 134.429 184.326 134.918 183.845 135.898C182.256 139.183 180.175 140.118 177.836 138.86C175.665 137.68 174.58 137.101 172.398 135.921C172.04 136.566 171.86 136.889 171.491 137.535C170.562 137.012 170.104 136.745 169.175 136.221C169.533 135.598 169.712 135.286 170.059 134.651C168.94 134.05 168.38 133.749 167.272 133.137C167.989 131.834 168.336 131.166 168.996 129.83C170.137 130.387 170.708 130.665 171.838 131.233C172.442 130.019 172.733 129.407 173.304 128.171C174.278 128.605 174.759 128.828 175.732 129.262C175.15 130.531 174.848 131.166 174.233 132.413V132.424Z" fill="#6169BC"/>
<path id="Vector_10" d="M172.599 124.608C172.096 124.875 171.592 124.897 171.1 124.686C170.607 124.474 170.272 124.107 170.104 123.572C169.936 123.038 169.97 122.481 170.205 121.88C170.44 121.279 170.809 120.844 171.29 120.577C171.782 120.299 172.286 120.254 172.79 120.444C173.293 120.633 173.651 120.989 173.83 121.535C174.009 122.08 173.987 122.659 173.741 123.283C173.495 123.906 173.114 124.352 172.611 124.619L172.599 124.608ZM175.845 122.058C180.656 123.851 183.062 124.742 187.874 126.523C187.259 128.16 186.934 128.973 186.263 130.576C181.529 128.605 179.157 127.614 174.423 125.643C175.016 124.229 175.307 123.506 175.845 122.058Z" fill="#6169BC"/>
<path id="Vector_11" d="M189.676 119.241C188.769 120.365 187.706 121.112 186.52 121.512C185.334 121.902 184.114 121.869 182.872 121.446C181.63 121.022 180.656 120.31 179.929 119.319C179.202 118.328 178.754 117.181 178.575 115.856C178.396 114.542 178.497 113.172 178.855 111.725C179.224 110.277 179.784 109.019 180.578 107.939C181.361 106.848 182.313 106.024 183.42 105.49C184.539 104.944 185.737 104.766 187.035 104.989C188.333 105.2 189.407 105.779 190.258 106.748C191.108 107.717 191.668 108.93 191.925 110.4C192.182 111.859 192.104 113.44 191.679 115.099C191.265 116.736 190.582 118.127 189.676 119.252V119.241ZM189.038 112.148C188.915 111.413 188.613 110.779 188.143 110.266C187.673 109.743 187.035 109.409 186.229 109.242C185.032 108.986 184.036 109.209 183.219 109.843C182.402 110.478 181.865 111.358 181.585 112.471C181.305 113.584 181.361 114.598 181.787 115.522C182.201 116.457 182.984 117.092 184.159 117.448C185.334 117.793 186.341 117.682 187.191 117.092C188.042 116.502 188.635 115.6 188.937 114.397C189.127 113.64 189.161 112.883 189.038 112.148Z" fill="#6169BC"/>
<path id="Vector_12" d="M183.319 87.5518C184.282 86.3381 185.613 85.6923 187.348 85.6589C190.358 85.6032 191.869 85.5809 194.879 85.5253C194.913 87.3959 194.913 88.3201 194.879 90.1684C192.048 90.1016 190.627 90.0682 187.796 90.0014C186.777 89.9791 185.983 90.302 185.423 90.9367C184.853 91.5825 184.55 92.4622 184.483 93.5868C184.416 94.7336 184.618 95.6578 185.11 96.3593C185.602 97.0719 186.341 97.4839 187.359 97.573C190.179 97.8402 191.589 97.9849 194.42 98.2522C194.252 100.067 194.14 100.969 193.894 102.751C188.814 102.049 186.263 101.704 181.182 101.002C181.395 99.4213 181.495 98.6196 181.641 97.0162C182.279 97.0719 182.592 97.1053 183.23 97.1721C182.726 96.582 182.357 95.8471 182.1 94.9897C181.842 94.1324 181.742 93.2082 181.798 92.1949C181.887 90.2798 182.391 88.7432 183.353 87.5295L183.319 87.5518Z" fill="#6169BC"/>
<g id="Vector_13" opacity="0.5" filter="url(#filter0_d_384_1046)">
<path d="M152.574 140.381C182.926 103.848 177.81 49.7842 141.147 19.626C104.483 -10.5323 50.1566 -5.36442 19.8043 31.1687C-10.5479 67.7018 -5.43186 121.766 31.2314 151.924C67.8947 182.082 122.222 176.914 152.574 140.381Z" fill="#F97F12"/>
</g>
<path id="Vector_14" d="M118.627 75.9624C123.739 75.4664 127.453 70.6832 126.924 65.2788C126.394 59.8745 121.821 55.8954 116.709 56.3914C111.598 56.8875 107.883 61.6707 108.413 67.075C108.943 72.4794 113.516 76.4584 118.627 75.9624Z" fill="#38332F"/>
<path id="Vector_15" d="M72.4175 81.0134C77.529 80.5174 81.2433 75.7342 80.7137 70.3298C80.184 64.9255 75.6109 60.9465 70.4994 61.4425C65.3878 61.9385 61.6735 66.7217 62.2032 72.126C62.7329 77.5304 67.306 81.5094 72.4175 81.0134Z" fill="#38332F"/>
<path id="Vector_16" d="M57.798 42.6123C58.0554 42.0556 58.3352 41.5212 58.6597 41.009C58.8163 40.7529 58.9954 40.5079 59.1632 40.2629C59.6892 39.5058 58.7156 40.6972 59.3535 40.0291C59.7675 39.5949 60.1592 39.1495 60.6068 38.7486C60.8306 38.5482 61.0544 38.3589 61.2894 38.1696C60.8194 38.5482 61.3565 38.1362 61.5468 38.0026C62.0503 37.6686 62.5651 37.3568 63.091 37.0784C63.3596 36.9337 63.6394 36.8112 63.9079 36.6776C64.501 36.3769 63.6617 36.7555 64.0534 36.6108C65.206 36.1877 66.3698 35.8536 67.5783 35.6309C67.9029 35.5641 68.2162 35.5418 67.7014 35.5975C68.0036 35.5641 68.3057 35.5307 68.619 35.5196C69.2233 35.475 69.8388 35.475 70.4431 35.4862C70.7452 35.4862 71.0473 35.5196 71.3495 35.5418C71.4726 35.5418 72.4461 35.7089 71.618 35.5641C72.2111 35.6643 72.8042 35.7868 73.3861 35.9427C73.968 36.0986 74.5387 36.2879 75.087 36.5106C74.5163 36.2767 75.1206 36.544 75.3444 36.6553C75.613 36.7889 75.8703 36.9337 76.1277 37.0784C76.3851 37.2232 76.6425 37.3902 76.8887 37.5572C76.9558 37.6018 77.616 38.0917 77.2579 37.8133C76.9334 37.5572 77.6384 38.1474 77.7167 38.2253C77.9853 38.4703 78.2315 38.7152 78.4777 38.9713C79.7758 40.3409 82.1145 40.2741 83.435 38.9713C84.7554 37.6686 84.7442 35.4194 83.435 34.0387C74.7401 24.886 57.0819 27.5138 51.7553 39.0827C50.972 40.7974 51.2629 42.835 53.0086 43.8483C54.5193 44.7279 57.0147 44.3159 57.798 42.6012V42.6123Z" fill="#38332F"/>
<path id="Vector_17" d="M136.689 36.7109C134.306 31.3885 128.621 28.1484 123.004 27.3244C116.782 26.4114 110.303 27.9257 105.681 32.3127C102.548 35.2857 107.304 39.9956 110.426 37.0338C111.332 36.1764 111.59 35.9537 112.944 35.23C113.212 35.0852 113.492 34.9628 113.76 34.818C114.32 34.5396 113.593 34.8625 113.94 34.7401C114.465 34.5508 114.991 34.3615 115.54 34.2167C116.133 34.0497 116.737 33.9384 117.341 33.827C118.304 33.6489 116.692 33.8493 117.666 33.7825C117.968 33.7602 118.281 33.7268 118.584 33.7157C119.143 33.6934 119.714 33.6823 120.273 33.7157C120.575 33.7268 120.889 33.7602 121.191 33.7714C121.348 33.7825 121.493 33.7936 121.65 33.8159C121.314 33.7714 121.269 33.7602 121.515 33.7936C122.657 33.9718 123.787 34.2501 124.884 34.6399C125.029 34.6955 125.835 35.0184 125.186 34.7401C125.454 34.8514 125.723 34.985 125.991 35.1186C126.473 35.3636 126.931 35.6197 127.39 35.9092C127.592 36.0428 127.793 36.1764 127.983 36.3101C128.621 36.7332 127.704 36.0206 128.207 36.4882C128.621 36.8779 129.046 37.2454 129.427 37.6685C129.494 37.7353 130.054 38.459 129.617 37.8689C129.785 38.0916 129.942 38.3254 130.098 38.5704C130.4 39.0492 130.658 39.5614 130.893 40.0736C131.631 41.7215 134.037 42.1112 135.481 41.265C137.182 40.274 137.428 38.3477 136.678 36.6998L136.689 36.7109Z" fill="#38332F"/>
<path id="Vector_18" d="M126.585 120.588C107.472 117.938 95.8564 119.375 71.3721 125.744C74.3151 120.8 80.5929 112.17 87.6651 108.129C94.7374 104.087 104.148 103.998 111.008 106.302C117.431 108.463 123.81 115.221 126.764 120.421" fill="#FFE7C5"/>
<path id="Vector_19" d="M127.446 117.504C120.486 116.546 113.492 115.923 106.453 116.201C99.4148 116.48 92.253 117.626 85.2814 119.107C80.3353 120.165 75.4116 121.39 70.5215 122.659L74.1471 127.358C78.1309 120.722 83.5134 113.618 90.664 110.166C97.8146 106.714 107.931 107.182 114.589 111.758C118.405 114.375 121.683 118.05 123.977 122.036C126.036 125.599 131.587 122.381 129.528 118.807C127.1 114.598 123.742 110.779 119.904 107.772C115.685 104.465 111.086 102.572 105.771 101.882C100.455 101.192 95.2968 101.604 90.4402 103.363C85.5836 105.122 81.4767 108.218 77.907 111.903C74.3373 115.589 71.2264 119.742 68.5967 124.118C67.142 126.545 69.5479 129.507 72.2224 128.817C86.3333 125.153 100.053 121.947 114.622 122.615C118.326 122.782 122.12 123.16 125.723 123.65C127.435 123.884 129.17 123.238 129.673 121.423C130.087 119.931 129.159 117.727 127.435 117.493L127.446 117.504Z" fill="#38332F"/>
</g>
</g>
<defs>
<filter id="filter0_d_384_1046" x="-3.99512" y="-0.00354004" width="180.368" height="179.557" filterUnits="userSpaceOnUse" color-interpolation-filters="sRGB">
<feFlood flood-opacity="0" result="BackgroundImageFix"/>
<feColorMatrix in="SourceAlpha" type="matrix" values="0 0 0 0 0 0 0 0 0 0 0 0 0 0 0 0 0 0 127 0" result="hardAlpha"/>
<feOffset dy="4"/>
<feGaussianBlur stdDeviation="2"/>
<feComposite in2="hardAlpha" operator="out"/>
<feColorMatrix type="matrix" values="0 0 0 0 0 0 0 0 0 0 0 0 0 0 0 0 0 0 0.25 0"/>
<feBlend mode="normal" in2="BackgroundImageFix" result="effect1_dropShadow_384_1046"/>
<feBlend mode="normal" in="SourceGraphic" in2="effect1_dropShadow_384_1046" result="shape"/>
</filter>
<clipPath id="clip0_384_1046">
<rect width="201" height="205" fill="white"/>
</clipPath>
</defs>
</svg>
