<svg width="195" height="201" viewBox="0 0 195 201" fill="none" xmlns="http://www.w3.org/2000/svg">
<path d="M155.44 175.495C158.488 179.514 160.019 181.53 163.068 185.549C164.12 186.948 164.451 188.383 163.986 189.888C163.508 191.382 162.357 192.734 160.509 193.86C158.648 194.998 156.836 195.437 155.17 195.2C153.505 194.962 152.269 194.038 151.424 192.473C152.967 191.678 153.738 191.275 155.232 190.41C155.648 191.062 156.15 191.465 156.75 191.607C157.35 191.75 157.999 191.607 158.709 191.192C159.394 190.777 159.798 190.279 159.921 189.71C160.043 189.141 159.896 188.572 159.492 187.979C156.64 183.818 155.219 181.743 152.367 177.594C153.628 176.788 154.24 176.373 155.452 175.507L155.44 175.495Z" fill="#6169BC"/>
<path d="M172.605 184.02C171.148 184.458 169.752 184.482 168.442 184.103C167.12 183.723 166.006 182.953 165.075 181.826C164.145 180.7 163.618 179.479 163.447 178.187C163.288 176.894 163.447 175.638 163.961 174.405C164.463 173.172 165.234 172.081 166.3 171.073C167.365 170.077 168.516 169.354 169.801 168.904C171.087 168.453 172.385 168.311 173.719 168.512C175.054 168.702 176.303 169.247 177.441 170.184C178.58 171.121 179.327 172.235 179.657 173.551C179.988 174.867 179.902 176.242 179.388 177.665C178.874 179.088 177.98 180.416 176.707 181.613C175.446 182.799 174.074 183.605 172.617 184.043L172.605 184.02ZM175.715 177.475C175.972 176.764 176.009 176.053 175.825 175.329C175.641 174.606 175.201 173.942 174.527 173.326C173.511 172.413 172.458 172.01 171.356 172.069C170.267 172.14 169.312 172.555 168.491 173.338C167.659 174.12 167.218 175.009 167.132 176.064C167.046 177.108 167.45 178.139 168.369 179.147C169.287 180.155 170.291 180.664 171.405 180.664C172.519 180.664 173.548 180.226 174.454 179.372C175.029 178.827 175.458 178.199 175.715 177.487V177.475Z" fill="#6169BC"/>
<path d="M181.788 151.44C187.555 158.649 190.126 162.632 194.436 171.204C193.248 172.875 192.623 173.693 191.35 175.306C190.077 172.294 189.391 170.824 187.922 167.967C181.604 167.102 178.519 166.461 172.568 164.813C173.683 163.509 174.221 162.834 175.262 161.47C179.486 162.573 181.641 163.035 186.024 163.77C183.649 160.119 182.388 158.352 179.731 154.973C180.588 153.586 181.004 152.875 181.788 151.44Z" fill="#6169BC"/>
<path opacity="0.4" d="M97.3146 191.81C148.041 191.81 187.949 150.201 186.452 98.8744C184.954 47.5473 142.618 5.93848 91.8909 5.93848C41.1641 5.93848 1.25613 47.5473 2.75385 98.8744C4.25157 150.201 46.5879 191.81 97.3146 191.81Z" fill="#FCED23"/>
<path d="M108.803 56.251C108.864 62.5938 114.901 67.2887 121.292 65.9846C125.908 65.048 129.299 60.9459 129.25 56.3815C129.189 50.0387 123.153 45.3438 116.762 46.648C112.146 47.5846 108.754 51.6866 108.803 56.251Z" fill="#38332F"/>
<path d="M75.9187 62.6813C79.6427 58.6154 79.2209 52.3644 74.9764 48.7193C70.732 45.0741 64.2722 45.4152 60.5482 49.4811C56.8241 53.5469 57.246 59.7979 61.4904 63.4431C65.7349 67.0882 72.1946 66.7471 75.9187 62.6813Z" fill="#38332F"/>
<path d="M120.619 90.6918C118.77 99.1686 112.758 106.792 104.665 109.732C103.637 110.111 102.584 110.42 101.519 110.669C100.16 110.977 99.6086 111.072 98.421 111.155C96.1314 111.321 93.9888 111.155 92.1033 110.775C87.6221 109.862 83.4592 107.93 79.9453 105.215C75.6845 101.919 72.1461 97.6037 70.1014 92.814C69.3301 91.0238 67.6405 89.7434 65.5346 90.3006C63.7837 90.763 62.1675 92.9207 62.9389 94.7228C67.4813 105.369 76.664 114.13 88.271 117.272C99.878 120.414 111.044 116.857 118.929 108.867C123.361 104.373 126.471 98.6826 127.794 92.6006C128.21 90.7037 127.218 88.7119 125.198 88.1784C123.349 87.6924 121.047 88.7831 120.631 90.6918H120.619Z" fill="#38332F"/>
</svg>
