<svg width="260" height="252" viewBox="0 0 260 252" fill="none" xmlns="http://www.w3.org/2000/svg">
<path d="M190.44 202.157C193.488 206.176 195.019 208.192 198.068 212.211C199.12 213.61 199.451 215.044 198.986 216.55C198.508 218.044 197.357 219.395 195.509 220.522C193.648 221.66 191.836 222.098 190.17 221.861C188.505 221.624 187.269 220.699 186.424 219.134C187.967 218.34 188.738 217.937 190.232 217.072C190.648 217.724 191.15 218.127 191.75 218.269C192.35 218.411 192.999 218.269 193.709 217.854C194.394 217.439 194.798 216.941 194.921 216.372C195.043 215.803 194.896 215.234 194.492 214.641C191.64 210.48 190.219 208.405 187.367 204.256C188.628 203.449 189.24 203.034 190.452 202.169L190.44 202.157Z" fill="#6169BC"/>
<path d="M207.605 210.681C206.148 211.12 204.752 211.144 203.442 210.764C202.12 210.385 201.006 209.614 200.075 208.488C199.145 207.362 198.618 206.141 198.447 204.848C198.288 203.556 198.447 202.299 198.961 201.066C199.463 199.833 200.234 198.743 201.3 197.735C202.365 196.739 203.516 196.016 204.801 195.565C206.087 195.115 207.385 194.973 208.719 195.174C210.054 195.364 211.303 195.909 212.441 196.846C213.58 197.782 214.327 198.897 214.657 200.213C214.988 201.529 214.902 202.904 214.388 204.327C213.874 205.749 212.98 207.077 211.707 208.275C210.446 209.46 209.074 210.266 207.617 210.705L207.605 210.681ZM210.715 204.137C210.972 203.426 211.009 202.714 210.825 201.991C210.641 201.268 210.201 200.604 209.527 199.988C208.511 199.075 207.458 198.672 206.356 198.731C205.267 198.802 204.312 199.217 203.491 199.999C202.659 200.782 202.218 201.671 202.132 202.726C202.046 203.769 202.45 204.801 203.369 205.809C204.287 206.816 205.291 207.326 206.405 207.326C207.519 207.326 208.548 206.888 209.454 206.034C210.029 205.489 210.458 204.86 210.715 204.149V204.137Z" fill="#6169BC"/>
<path d="M216.788 178.102C222.555 185.31 225.126 189.294 229.436 197.865C228.248 199.537 227.623 200.355 226.35 201.967C225.077 198.956 224.391 197.486 222.922 194.629C216.604 193.763 213.519 193.123 207.568 191.475C208.683 190.171 209.221 189.495 210.262 188.132C214.486 189.234 216.641 189.697 221.024 190.432C218.649 186.78 217.388 185.014 214.731 181.635C215.588 180.248 216.004 179.536 216.788 178.102Z" fill="#6169BC"/>
<path opacity="0.4" d="M208.75 174.323C236.616 131.936 223.771 75.7312 180.059 48.7869C136.347 21.8427 78.3218 34.3618 50.4558 76.7492C22.5898 119.137 35.4354 175.341 79.1472 202.285C122.859 229.229 180.884 216.71 208.75 174.323Z" fill="#FCED23"/>
<path d="M143.804 82.9127C143.865 89.2555 149.901 93.9504 156.292 92.6462C160.908 91.7096 164.3 87.6076 164.251 83.0431C164.189 76.7004 158.153 72.0055 151.762 73.3096C147.146 74.2462 143.755 78.3483 143.804 82.9127Z" fill="#38332F"/>
<path d="M110.919 89.343C114.643 85.2771 114.221 79.0261 109.977 75.3809C105.732 71.7358 99.2727 72.0769 95.5487 76.1427C91.8246 80.2086 92.2465 86.4596 96.4909 90.1048C100.735 93.7499 107.195 93.4088 110.919 89.343Z" fill="#38332F"/>
<path d="M155.619 117.353C153.77 125.83 147.758 133.453 139.665 136.394C138.637 136.773 137.584 137.081 136.519 137.33C135.16 137.639 134.609 137.733 133.421 137.816C131.131 137.982 128.989 137.816 127.103 137.437C122.622 136.524 118.459 134.592 114.945 131.877C110.685 128.581 107.146 124.265 105.101 119.476C104.33 117.685 102.64 116.405 100.535 116.962C98.7837 117.425 97.1675 119.582 97.9389 121.384C102.481 132.031 111.664 140.792 123.271 143.934C134.878 147.076 146.044 143.519 153.929 135.528C158.361 131.035 161.471 125.344 162.794 119.262C163.21 117.365 162.218 115.374 160.198 114.84C158.349 114.354 156.047 115.445 155.631 117.353H155.619Z" fill="#38332F"/>
</svg>
