<svg width="179" height="179" viewBox="0 0 179 179" fill="none" xmlns="http://www.w3.org/2000/svg">
<g id="Asset 29icon" clip-path="url(#clip0_384_1023)">
<g id="Layer_2-2">
<path id="Vector" d="M138.354 158.769C139.001 159.618 139.325 160.053 139.972 160.902C137.674 162.645 136.492 163.472 134.049 165.036C134.964 166.466 135.41 167.181 136.324 168.611C138.288 167.359 139.247 166.7 141.11 165.337C141.723 166.186 142.035 166.611 142.66 167.46C140.741 168.868 139.749 169.538 137.741 170.823C139.247 173.18 139.994 174.353 141.489 176.71C140.128 177.581 139.448 177.995 138.053 178.81C134.729 173.102 133.056 170.242 129.732 164.533C133.335 162.433 135.064 161.271 138.354 158.769Z" fill="#6169BC"/>
<path id="Vector_2" d="M157.183 156.467C154.204 159.662 152.621 161.182 149.286 164.03C149.966 164.689 150.747 165.013 151.606 164.969C152.476 164.924 153.279 164.555 154.015 163.885C155.086 162.902 155.454 161.796 155.153 160.623C156.335 159.461 156.915 158.869 158.041 157.663C158.666 158.847 158.822 160.187 158.51 161.662C158.186 163.148 157.328 164.555 155.945 165.84C154.818 166.879 153.602 167.572 152.331 167.918C151.048 168.264 149.832 168.242 148.672 167.851C147.523 167.46 146.531 166.734 145.705 165.673C144.869 164.611 144.378 163.483 144.199 162.299C144.021 161.126 144.166 159.986 144.612 158.88C145.058 157.774 145.772 156.78 146.776 155.853C147.735 154.97 148.761 154.345 149.877 153.987C150.992 153.63 152.108 153.574 153.223 153.82C154.349 154.065 155.376 154.624 156.313 155.495C156.658 155.819 156.948 156.132 157.171 156.445L157.183 156.467ZM152.966 157.618C152.353 157.026 151.639 156.78 150.814 156.869C149.988 156.959 149.241 157.316 148.549 157.953C147.891 158.556 147.501 159.238 147.367 160.009C147.233 160.779 147.401 161.55 147.858 162.321C149.966 160.511 150.992 159.573 152.966 157.618Z" fill="#6169BC"/>
<path id="Vector_3" d="M155.643 151.373C155.253 150.267 155.164 149.172 155.353 148.077C155.543 146.983 156 145.988 156.725 145.061C157.35 144.246 158.052 143.654 158.822 143.263C159.603 142.872 160.361 142.648 161.131 142.603C160.517 142.179 160.216 141.955 159.603 141.531C160.406 140.38 160.796 139.788 161.566 138.604C165.972 141.442 168.18 142.86 172.586 145.698C171.716 147.061 171.27 147.731 170.344 149.049C169.72 148.614 169.407 148.39 168.771 147.955C168.983 148.725 168.995 149.597 168.794 150.557C168.582 151.518 168.125 152.479 167.4 153.417C166.585 154.467 165.593 155.238 164.455 155.707C163.317 156.177 162.157 156.3 160.975 156.076C159.792 155.853 158.711 155.283 157.707 154.389C156.725 153.507 156.045 152.501 155.654 151.384L155.643 151.373ZM162.971 144.525C162.302 144.48 161.666 144.603 161.075 144.894C160.484 145.184 159.982 145.586 159.581 146.122C159.179 146.647 158.922 147.228 158.8 147.865C158.677 148.491 158.733 149.128 158.945 149.775C159.168 150.423 159.569 150.993 160.183 151.496C160.785 151.999 161.432 152.3 162.135 152.39C162.826 152.479 163.496 152.378 164.12 152.088C164.756 151.797 165.28 151.373 165.715 150.814C166.15 150.233 166.429 149.597 166.552 148.915C166.675 148.223 166.608 147.563 166.34 146.938C166.083 146.312 165.615 145.765 164.957 145.307C164.299 144.849 163.629 144.592 162.96 144.547L162.971 144.525Z" fill="#6169BC"/>
<path id="Vector_4" d="M166.24 131.242C166.218 130.415 166.418 129.578 166.82 128.729C168.069 129.332 168.705 129.633 169.954 130.225C169.787 130.572 169.709 130.751 169.53 131.097C169.028 132.125 168.85 133.007 169.006 133.744C169.162 134.493 169.776 135.152 170.846 135.733C173.144 136.973 174.293 137.587 176.591 138.827C175.832 140.246 175.431 140.95 174.617 142.335C170.099 139.665 167.846 138.336 163.329 135.677C164.042 134.471 164.388 133.856 165.046 132.616C165.76 133.007 166.117 133.197 166.842 133.577C166.452 132.84 166.251 132.058 166.229 131.231L166.24 131.242Z" fill="#6169BC"/>
<g id="Vector_5" opacity="0.6" filter="url(#filter0_d_384_1023)">
<path d="M134.278 154.124C172.495 126.861 181.421 73.7476 154.215 35.4905C127.01 -2.76657 73.9739 -11.6797 35.757 15.5824C-2.45996 42.8445 -11.3863 95.9583 15.8195 134.215C43.0253 172.472 96.0609 181.386 134.278 154.124Z" fill="#5BC491"/>
</g>
<path id="Vector_6" d="M118.445 50.0284C123.453 49.0942 126.71 44.0148 125.718 38.6832C124.727 33.3516 119.863 29.7868 114.855 30.721C109.846 31.6553 106.59 36.7347 107.581 42.0663C108.573 47.3979 113.436 50.9627 118.445 50.0284Z" fill="#38332F"/>
<path id="Vector_7" d="M68.9263 55.18C73.9346 54.2458 77.191 49.1664 76.1996 43.8348C75.2082 38.5032 70.3444 34.9384 65.336 35.8726C60.3277 36.8069 57.0713 41.8863 58.0627 47.2179C59.0541 52.5495 63.9179 56.1143 68.9263 55.18Z" fill="#38332F"/>
<path id="Vector_8" d="M130.279 41.1668C130.313 40.8986 130.246 41.4125 130.235 41.4572C130.201 41.6471 130.168 41.8259 130.123 42.0158C130.045 42.3844 129.956 42.7531 129.844 43.1106C129.733 43.4681 129.621 43.8367 129.476 44.183C129.476 44.1719 129.275 44.6746 129.365 44.4735C129.286 44.6522 129.208 44.8198 129.13 44.9874C128.472 46.3615 127.68 47.5233 126.754 48.5399C124.758 50.7295 122.371 52.1706 119.504 52.8297C118.59 53.042 118.054 54.0921 118.3 54.9635C118.556 55.9019 119.516 56.3823 120.43 56.17C127.513 54.5501 132.845 48.3053 133.737 41.1668C133.848 40.2395 132.856 39.4352 132.008 39.4352C130.982 39.4352 130.391 40.2395 130.279 41.1668Z" fill="#38332F"/>
<path id="Vector_9" d="M50.7507 48.1601C52.29 55.2652 58.4805 60.661 65.5968 61.6106C66.5225 61.7334 67.3256 60.728 67.3256 59.879C67.3256 58.84 66.5225 58.2703 65.5968 58.1474C65.8645 58.1809 65.3625 58.1027 65.3179 58.0915C65.1394 58.058 64.9498 58.0245 64.7714 57.9798C64.4033 57.9016 64.0463 57.8011 63.6894 57.6894C62.9086 57.4548 62.5071 57.2984 61.849 56.9744C61.1909 56.6504 60.5328 56.2706 59.9082 55.8461C59.5959 55.6338 59.3728 55.4774 59.2055 55.3322C58.8932 55.0753 58.5809 54.8071 58.2909 54.539C56.1381 52.517 54.7216 50.1263 54.0969 47.2329C53.8962 46.3168 52.8365 45.7806 51.9665 46.0264C51.0184 46.2833 50.5611 47.2441 50.7619 48.1601H50.7507Z" fill="#38332F"/>
<path id="Vector_10" d="M141.02 105.179C136.246 98.5545 131.528 91.8963 126.699 85.3051C125.393 83.5289 123.81 81.9537 121.4 82.3112C118.991 82.6687 117.865 84.7242 116.638 86.5787C114.384 89.986 112.142 93.3821 109.889 96.7894H115.868C113.448 93.5497 110.782 90.5334 107.714 87.8857C106.041 86.4334 104.245 84.7577 102.148 83.9646C99.8284 83.082 97.3745 83.6406 95.6903 85.4839C94.2403 87.0702 93.1806 89.1146 92.0206 90.9132C90.8606 92.7118 89.589 94.6556 88.3844 96.5324C85.8524 100.431 83.3316 104.341 80.7996 108.24L86.2317 107.536C80.755 101.481 74.9995 95.6946 68.9875 90.1759C67.2363 88.5784 64.8717 89.0141 63.5555 90.8797C59.0716 97.2474 54.2419 103.347 49.0776 109.179C47.8395 110.575 47.7056 112.698 49.0776 114.083C50.338 115.345 52.7249 115.49 53.9742 114.083C59.5289 107.816 64.7155 101.224 69.5341 94.3763L64.102 95.0801C70.1141 100.599 75.8696 106.397 81.3462 112.441C82.9078 114.172 85.6293 113.524 86.7782 111.737C90.9275 105.336 95.0657 98.9343 99.215 92.5331C99.6834 91.8069 100.241 91.0919 100.654 90.3211L100.598 90.377C100.966 90.0418 100.966 89.9971 100.598 90.2429C100.408 90.2541 99.94 90.4999 99.9288 90.5334C99.9288 90.6674 101.301 91.5165 101.557 91.7175C102.182 92.2203 102.784 92.7341 103.375 93.2592C105.762 95.3818 107.993 97.7278 109.912 100.286C111.484 102.397 114.351 102.61 115.89 100.286C117.686 97.5602 119.493 94.8455 121.289 92.1197C121.735 91.4383 122.192 90.7568 122.638 90.0753C122.862 89.7402 123.263 89.3269 123.386 88.9359L123.687 88.4778L120.664 88.7013C120.541 88.489 120.575 88.5225 120.753 88.7906L121.077 89.2375L121.88 90.3546L123.33 92.3655C127.245 97.7948 131.16 103.235 135.075 108.665C136.168 110.184 138.087 110.921 139.805 109.905C141.299 109.033 142.147 106.687 141.043 105.168L141.02 105.179Z" fill="#38332F"/>
</g>
</g>
<defs>
<filter id="filter0_d_384_1023" x="-16.9302" y="-16.2129" width="209.895" height="210.132" filterUnits="userSpaceOnUse" color-interpolation-filters="sRGB">
<feFlood flood-opacity="0" result="BackgroundImageFix"/>
<feColorMatrix in="SourceAlpha" type="matrix" values="0 0 0 0 0 0 0 0 0 0 0 0 0 0 0 0 0 0 127 0" result="hardAlpha"/>
<feOffset dx="3" dy="4"/>
<feGaussianBlur stdDeviation="10"/>
<feComposite in2="hardAlpha" operator="out"/>
<feColorMatrix type="matrix" values="0 0 0 0 0 0 0 0 0 0 0 0 0 0 0 0 0 0 0.14 0"/>
<feBlend mode="normal" in2="BackgroundImageFix" result="effect1_dropShadow_384_1023"/>
<feBlend mode="normal" in="SourceGraphic" in2="effect1_dropShadow_384_1023" result="shape"/>
</filter>
<clipPath id="clip0_384_1023">
<rect width="179" height="179" fill="white"/>
</clipPath>
</defs>
</svg>
