<svg width="200" height="201" viewBox="0 0 200 201" fill="none" xmlns="http://www.w3.org/2000/svg">
<g id="Asset 30icon" clip-path="url(#clip0_489_861)">
<g id="Layer_2-2">
<path id="Vector" d="M90.0019 199.664C88.5728 199.187 87.4678 198.501 86.6872 197.629C85.9066 196.756 85.5703 195.756 85.6303 194.639C87.7681 194.791 88.825 194.837 90.9387 194.884C90.9987 195.64 91.347 196.245 91.9956 196.687C92.6441 197.129 93.5568 197.361 94.7098 197.338C95.8867 197.326 96.7995 197.082 97.448 196.652C98.0966 196.21 98.3968 195.663 98.3608 195C98.3368 194.453 98.0966 194.023 97.6402 193.686C97.1838 193.348 96.6314 193.092 95.9708 192.918C95.3103 192.732 94.4095 192.534 93.2686 192.278C91.7193 191.941 90.4583 191.545 89.5095 191.173C88.5607 190.801 87.7561 190.242 87.1196 189.51C86.483 188.777 86.2068 187.835 86.3029 186.671C86.387 185.59 86.7953 184.671 87.4919 183.903C88.2004 183.135 89.1372 182.565 90.3022 182.17C91.4671 181.774 92.7762 181.577 94.2414 181.565C96.4392 181.542 98.2167 181.914 99.6578 182.74C101.099 183.566 102 184.764 102.312 186.392C100.354 186.567 99.3696 186.637 97.388 186.718C97.3159 186.09 96.9676 185.578 96.3551 185.194C95.7426 184.799 94.95 184.613 93.9532 184.624C93.0885 184.624 92.4039 184.81 91.8755 185.171C91.347 185.532 91.0708 186.055 91.0588 186.765C91.0588 187.253 91.2389 187.672 91.6353 187.997C92.0316 188.323 92.536 188.602 93.1485 188.8C93.749 188.998 94.6137 189.23 95.7186 189.463C97.2318 189.777 98.4809 190.068 99.4537 190.359C100.426 190.65 101.291 191.115 102.048 191.755C102.804 192.394 103.249 193.278 103.369 194.407C103.465 195.384 103.225 196.326 102.612 197.222C102 198.117 101.039 198.873 99.7059 199.443C98.3728 200.025 96.7515 200.339 94.8539 200.362C93.0524 200.386 91.4191 200.141 89.9899 199.664H90.0019Z" fill="#6169BC"/>
<path id="Vector_2" d="M106.599 188.056C107.164 186.834 107.98 185.834 109.061 185.031C110.142 184.229 111.391 183.694 112.832 183.403C114.081 183.147 115.222 183.112 116.267 183.31C117.312 183.508 118.213 183.845 118.957 184.345C118.729 183.542 118.621 183.147 118.393 182.344C120.074 181.902 120.915 181.658 122.56 181.135C124.41 186.683 125.347 189.452 127.196 194.988C125.287 195.593 124.314 195.872 122.368 196.384C122.14 195.558 122.02 195.151 121.792 194.325C121.371 195.151 120.663 195.919 119.678 196.617C118.693 197.315 117.456 197.827 116.003 198.117C114.358 198.455 112.772 198.42 111.307 198.013C109.842 197.606 108.629 196.884 107.692 195.849C106.755 194.814 106.203 193.546 106.011 192.069C105.819 190.603 106.023 189.265 106.587 188.044L106.599 188.056ZM119.126 187.311C118.537 186.799 117.841 186.474 117.048 186.311C116.255 186.148 115.463 186.16 114.646 186.334C113.829 186.509 113.121 186.823 112.484 187.288C111.848 187.753 111.379 188.335 111.055 189.033C110.731 189.742 110.635 190.522 110.791 191.382C110.947 192.243 111.307 192.964 111.896 193.534C112.484 194.104 113.193 194.488 114.021 194.686C114.85 194.884 115.715 194.884 116.579 194.698C117.468 194.5 118.249 194.151 118.933 193.627C119.606 193.116 120.086 192.487 120.351 191.755C120.615 191.022 120.627 190.219 120.387 189.358C120.146 188.498 119.714 187.811 119.126 187.3V187.311Z" fill="#6169BC"/>
<path id="Vector_3" d="M127.677 182.914C127.929 181.612 128.493 180.46 129.37 179.46C130.235 178.459 131.316 177.668 132.637 177.087C133.634 176.645 134.679 176.389 135.759 176.331C136.84 176.272 137.825 176.389 138.69 176.726C137.357 174.283 136.684 173.062 135.351 170.608C136.804 169.863 137.525 169.479 138.942 168.665C143.013 175.377 145.055 178.727 149.126 185.438C147.397 186.427 146.52 186.904 144.743 187.811C144.322 187.044 144.118 186.671 143.698 185.904C143.518 186.811 143.025 187.707 142.245 188.579C141.452 189.451 140.395 190.196 139.05 190.789C137.537 191.452 136.012 191.743 134.498 191.662C132.985 191.58 131.664 191.115 130.523 190.301C129.382 189.486 128.578 188.37 128.049 186.962C127.533 185.578 127.425 184.229 127.677 182.926V182.914ZM139.567 179.611C138.882 179.239 138.137 179.053 137.333 179.064C136.528 179.064 135.759 179.239 135.015 179.576C134.27 179.913 133.658 180.367 133.153 180.949C132.649 181.53 132.325 182.193 132.18 182.949C132.036 183.705 132.12 184.485 132.469 185.299C132.817 186.113 133.321 186.73 134.018 187.16C134.703 187.59 135.483 187.823 136.324 187.846C137.165 187.87 137.993 187.695 138.786 187.334C139.603 186.962 140.275 186.45 140.816 185.811C141.356 185.171 141.668 184.461 141.764 183.694C141.86 182.926 141.68 182.147 141.248 181.356C140.816 180.565 140.251 179.983 139.567 179.611Z" fill="#6169BC"/>
<path id="Vector_4" d="M157.365 163.466C159.058 163.466 160.608 164.164 161.977 165.606C164.367 168.118 165.568 169.375 167.958 171.887C166.504 173.19 165.76 173.818 164.235 175.063C162.097 172.597 161.028 171.375 158.878 168.909C158.109 168.025 157.245 167.572 156.296 167.525C155.347 167.479 154.41 167.804 153.474 168.514C152.513 169.235 151.936 170.038 151.744 170.945C151.552 171.852 151.792 172.783 152.489 173.725C154.422 176.342 155.383 177.657 157.317 180.274C155.708 181.391 154.891 181.926 153.221 182.972C149.943 178.087 148.309 175.644 145.031 170.759C146.46 169.852 147.169 169.386 148.562 168.433C148.994 169.026 149.21 169.317 149.655 169.91C149.751 169.072 150.039 168.258 150.531 167.444C151.024 166.641 151.672 165.932 152.501 165.292C154.074 164.082 155.659 163.477 157.353 163.477L157.365 163.466Z" fill="#6169BC"/>
<path id="Vector_5" d="M177.878 151.706C174.707 156.01 172.99 158.057 169.291 161.895C170.155 162.535 171.104 162.756 172.137 162.547C173.158 162.337 174.095 161.779 174.899 160.86C176.064 159.534 176.401 158.185 175.92 156.894C177.205 155.335 177.818 154.532 179.031 152.904C179.883 154.148 180.232 155.672 180.004 157.452C179.775 159.232 178.899 161.035 177.373 162.768C176.136 164.175 174.755 165.187 173.266 165.827C171.777 166.455 170.312 166.641 168.906 166.385C167.501 166.141 166.264 165.466 165.183 164.396C164.09 163.314 163.406 162.116 163.094 160.802C162.781 159.488 162.853 158.173 163.274 156.835C163.694 155.498 164.451 154.242 165.532 152.997C166.577 151.81 167.717 150.903 169.002 150.287C170.288 149.67 171.585 149.379 172.93 149.449C174.275 149.519 175.56 149.949 176.749 150.764C177.193 151.066 177.566 151.38 177.866 151.694L177.878 151.706ZM173.026 153.858C172.245 153.288 171.368 153.148 170.396 153.404C169.423 153.66 168.582 154.207 167.826 155.067C167.117 155.87 166.721 156.719 166.637 157.638C166.552 158.545 166.817 159.406 167.441 160.197C169.783 157.766 170.9 156.498 173.026 153.869V153.858Z" fill="#6169BC"/>
<path id="Vector_6" d="M186.609 149.414C185.552 150.252 184.495 150.752 183.45 150.95C182.406 151.136 181.493 151.008 180.688 150.554C181.769 149.007 182.297 148.216 183.306 146.611C183.847 146.832 184.447 146.774 185.108 146.425C185.756 146.076 186.333 145.506 186.801 144.692C187.257 143.901 187.486 143.203 187.486 142.621C187.486 142.04 187.27 141.644 186.873 141.435C186.441 141.214 185.972 141.318 185.456 141.749C184.94 142.179 184.207 142.9 183.294 143.901C182.357 144.924 181.517 145.75 180.796 146.332C180.088 146.913 179.295 147.297 178.454 147.495C177.614 147.693 176.773 147.495 175.92 146.96C175.224 146.506 174.755 145.878 174.491 145.052C174.227 144.238 174.203 143.307 174.407 142.261C174.611 141.214 175.055 140.12 175.752 138.946C176.773 137.224 177.914 136.014 179.283 135.328C180.64 134.642 182.033 134.525 183.462 135.049C182.706 136.596 182.309 137.364 181.481 138.864C180.928 138.655 180.364 138.69 179.799 138.98C179.235 139.271 178.743 139.771 178.31 140.516C177.902 141.202 177.698 141.784 177.686 142.272C177.686 142.761 177.866 143.121 178.25 143.354C178.682 143.61 179.175 143.552 179.715 143.168C180.256 142.784 180.976 142.121 181.841 141.144C182.73 140.155 183.486 139.329 184.147 138.701C184.807 138.073 185.54 137.608 186.369 137.305C187.197 137.003 188.086 137.026 188.975 137.422C189.756 137.771 190.332 138.376 190.68 139.213C191.029 140.051 191.101 141.086 190.908 142.284C190.704 143.482 190.224 144.773 189.431 146.111C188.627 147.495 187.678 148.612 186.621 149.438L186.609 149.414Z" fill="#6169BC"/>
<path id="Vector_7" d="M195.436 132.362C194.536 133.397 193.587 134.095 192.59 134.479C191.593 134.863 190.656 134.886 189.792 134.595C190.584 132.85 190.969 131.966 191.677 130.163C192.254 130.28 192.83 130.117 193.419 129.64C194.007 129.175 194.463 128.488 194.788 127.581C195.1 126.697 195.208 125.964 195.088 125.371C194.98 124.789 194.704 124.429 194.271 124.301C193.803 124.161 193.359 124.359 192.926 124.882C192.494 125.406 191.905 126.267 191.173 127.442C190.428 128.651 189.744 129.628 189.143 130.338C188.543 131.047 187.834 131.582 187.029 131.931C186.225 132.28 185.36 132.246 184.435 131.85C183.667 131.524 183.09 130.978 182.682 130.21C182.273 129.442 182.081 128.512 182.093 127.43C182.105 126.336 182.358 125.162 182.826 123.859C183.522 121.94 184.447 120.509 185.66 119.567C186.885 118.613 188.23 118.241 189.732 118.497C189.263 120.195 188.999 121.044 188.459 122.707C187.87 122.591 187.33 122.742 186.825 123.126C186.321 123.522 185.924 124.126 185.624 124.941C185.348 125.697 185.24 126.325 185.324 126.813C185.408 127.302 185.648 127.628 186.069 127.79C186.537 127.965 187.017 127.825 187.474 127.337C187.942 126.86 188.531 126.057 189.215 124.906C189.912 123.743 190.512 122.777 191.053 122.021C191.593 121.265 192.23 120.66 192.998 120.195C193.767 119.73 194.644 119.59 195.592 119.823C196.421 120.032 197.106 120.532 197.598 121.311C198.09 122.091 198.355 123.114 198.367 124.359C198.379 125.604 198.126 126.988 197.598 128.477C197.046 130.012 196.313 131.303 195.412 132.339L195.436 132.362Z" fill="#6169BC"/>
<path id="Vector_8" opacity="0.6" d="M143.237 159.668C184.043 131.519 193.597 76.7075 164.575 37.2432C135.554 -2.22113 78.9482 -11.394 38.1423 16.7551C-2.6635 44.9042 -12.2168 99.7157 16.8044 139.18C45.8256 178.644 102.432 187.817 143.237 159.668Z" fill="#417ABD"/>
<path id="Vector_9" d="M46.3338 131.873C48.1353 127.953 50.4532 125.383 53.948 122.638C57.1907 120.078 61.7785 117.799 65.9459 116.484C74.7491 113.727 84.7533 113.902 92.7038 117.868C93.8207 118.427 94.9136 119.055 95.9465 119.753C96.1146 119.869 96.2827 119.985 96.4509 120.102C97.4717 120.811 95.9825 119.671 96.9193 120.462C97.3156 120.8 97.7239 121.137 98.1083 121.486C98.5286 121.881 98.9369 122.289 99.3212 122.707C99.4534 122.847 99.5735 122.986 99.6936 123.126C100.462 123.975 99.3573 122.579 99.9938 123.51C100.63 124.44 101.195 125.324 101.675 126.313C102.588 128.209 105.398 128.686 107.152 127.697C109.157 126.557 109.506 124.301 108.581 122.393C104.029 112.995 92.908 108.342 82.8437 107.144C71.7707 105.829 59.9289 108.889 50.8855 115.205C46.1416 118.52 41.8181 122.707 39.4161 127.942C38.5394 129.849 38.8397 132.106 40.8453 133.246C42.5507 134.211 45.4331 133.781 46.3218 131.862L46.3338 131.873Z" fill="#38332F"/>
<path id="Vector_10" d="M112.808 75.5513C112.508 75.5746 109.602 75.7374 109.566 75.5048C110.178 75.5862 110.274 75.5978 109.83 75.5281L109.566 75.4815C109.301 75.435 109.037 75.3768 108.773 75.3187C108.245 75.2024 107.728 75.0628 107.212 74.8883C106.96 74.8069 106.707 74.7138 106.443 74.6208C105.554 74.3183 107.248 74.993 106.395 74.6091C105.903 74.3881 105.422 74.1555 104.942 73.8996C104.461 73.6437 104.005 73.3645 103.549 73.0737C103.321 72.9225 103.104 72.7713 102.876 72.6201C102.12 72.085 103.537 73.1784 102.828 72.5735C101.999 71.8756 101.207 71.1661 100.498 70.3635C100.342 70.189 100.054 69.968 99.9818 69.7586L100.27 70.1308C100.162 69.9912 100.054 69.8517 99.9458 69.7004C99.6335 69.2701 99.3453 68.828 99.0691 68.3744C98.7928 67.9207 98.5646 67.4555 98.3244 66.9786C97.9882 66.3388 98.5286 67.5136 98.3605 67.06C98.2644 66.8157 98.1683 66.5714 98.0842 66.3272C97.9041 65.827 97.76 65.3268 97.6399 64.815C97.5798 64.5591 97.5198 64.3032 97.4718 64.0473C97.2796 63.0353 97.5318 64.7103 97.4357 63.9077C97.2075 61.8954 95.7664 59.9296 93.4364 60.0343C91.4668 60.1157 89.185 61.7558 89.4372 63.9077C90.0737 69.398 92.7399 74.4928 97.1715 78.0406C101.531 81.5302 107.068 83.7053 112.796 83.2633C114.874 83.1005 116.904 81.5999 116.796 79.3899C116.7 77.4241 115.03 75.3419 112.796 75.5164L112.808 75.5513Z" fill="#38332F"/>
<path id="Vector_11" d="M29.0638 95.9073C40.4131 93.3482 47.7271 81.5883 45.5173 70.6892C45.109 68.7001 42.5509 67.374 40.5933 67.9789C38.4075 68.6652 37.3626 70.6077 37.795 72.748C37.843 72.9923 37.855 73.3529 37.9511 73.5739C37.6509 72.8062 37.9031 73.2482 37.9391 73.6553C37.9751 74.1671 37.9872 74.6789 37.9751 75.1791C37.9751 75.6211 37.771 76.2841 37.8671 76.7029L37.9391 76.226C37.9151 76.4121 37.8791 76.5866 37.843 76.7727C37.795 77.0053 37.747 77.2263 37.6989 77.459C37.5788 77.9591 37.4467 78.4477 37.2906 78.9362C37.2065 79.2038 37.1104 79.4713 37.0144 79.7272C36.9183 79.9598 36.7381 80.7741 36.9903 79.8435C36.7501 80.7741 36.0175 81.7628 35.4891 82.5538C35.357 82.7515 35.2249 82.9492 35.0808 83.1354C35.0087 83.2284 34.4082 83.9729 34.7925 83.5308C35.1768 83.0888 34.6364 83.7053 34.5523 83.7867C34.3602 83.9961 34.168 84.2055 33.9759 84.4149C33.6156 84.7871 33.2433 85.1477 32.8469 85.4966C32.6308 85.6828 32.4146 85.8689 32.1984 86.0433C31.5499 86.5552 32.1023 85.9852 32.2104 86.0433C32.0783 85.9852 30.9734 86.8576 30.7812 86.9623C30.3729 87.1949 29.9526 87.4159 29.5202 87.6253C29.3521 87.7067 29.1719 87.7881 29.0038 87.8579L29.4361 87.6835C29.304 87.6602 28.7516 87.9277 28.6315 87.9743C28.079 88.1604 27.5266 88.3 26.9621 88.4279C24.9204 88.8932 23.5273 91.2545 24.1638 93.197C24.8484 95.2559 26.9021 96.3958 29.0879 95.9073H29.0638Z" fill="#38332F"/>
</g>
</g>
<defs>
<clipPath id="clip0_489_861">
<rect width="200" height="200" fill="white" transform="translate(0 0.420471)"/>
</clipPath>
</defs>
</svg>
