<svg width="200" height="228" viewBox="0 0 200 228" fill="none" xmlns="http://www.w3.org/2000/svg">
<path d="M122.916 214.233C119.295 215.201 117.455 215.608 113.749 216.29C113.41 217.857 113.229 218.634 112.841 220.189C110.807 220.536 109.778 220.68 107.719 220.943C110.25 212.809 111.207 208.707 112.539 200.537C114.403 200.166 115.336 199.951 117.176 199.496C121.935 206.302 124.575 209.604 130.35 215.883C128.401 216.517 127.42 216.816 125.434 217.378C124.405 216.134 123.909 215.5 122.916 214.245V214.233ZM120.894 211.553C118.787 208.742 117.782 207.319 115.856 204.436C115.384 207.869 115.093 209.58 114.415 213.013C117.031 212.51 118.326 212.211 120.894 211.565V211.553Z" fill="#6169BC"/>
<path d="M141.66 196.135C143.295 196.59 144.639 197.702 145.644 199.52C147.4 202.678 148.271 204.269 150.015 207.427C148.32 208.336 147.46 208.778 145.741 209.628C144.215 206.589 143.452 205.07 141.927 202.02C141.382 200.932 140.643 200.238 139.735 199.951C138.827 199.652 137.858 199.748 136.78 200.226C135.691 200.716 134.952 201.374 134.577 202.248C134.189 203.121 134.213 204.125 134.686 205.25C135.981 208.396 136.635 209.962 137.931 213.108C136.139 213.826 135.23 214.173 133.414 214.831C131.295 209.053 130.242 206.159 128.123 200.394C129.709 199.831 130.496 199.532 132.058 198.898C132.349 199.604 132.494 199.963 132.784 200.669C133.063 199.843 133.523 199.078 134.177 198.396C134.831 197.702 135.618 197.152 136.562 196.71C138.354 195.884 140.025 195.693 141.672 196.147L141.66 196.135Z" fill="#6169BC"/>
<path d="M154.41 187.009C155.44 186.83 156.396 186.842 157.28 187.093C156.735 186.399 156.469 186.052 155.936 185.358C157.28 184.342 157.934 183.815 159.242 182.751C163.25 187.499 165.26 189.88 169.268 194.64C170.188 195.729 170.745 196.937 170.89 198.264C171.036 199.592 170.733 200.98 169.946 202.403C169.159 203.826 167.887 205.19 166.132 206.41C163.783 208.061 161.506 208.91 159.411 209.006C157.316 209.101 155.73 208.408 154.616 207.02C156.287 206.039 157.111 205.537 158.745 204.484C159.351 204.939 160.126 205.106 161.07 204.975C162.027 204.843 163.008 204.436 164.025 203.731C165.211 202.905 165.962 201.937 166.265 200.872C166.568 199.795 166.289 198.719 165.454 197.642C164.86 196.889 164.57 196.506 163.988 195.753C163.952 196.686 163.637 197.678 163.056 198.695C162.463 199.724 161.591 200.633 160.428 201.422C159.096 202.319 157.68 202.846 156.202 202.977C154.725 203.109 153.345 202.846 152.073 202.176C150.802 201.518 149.785 200.489 148.986 199.138C148.199 197.798 147.799 196.434 147.775 195.047C147.751 193.671 148.053 192.404 148.671 191.243C149.3 190.083 150.184 189.126 151.347 188.337C152.364 187.643 153.381 187.212 154.41 187.021V187.009ZM158.661 189.892C157.91 189.605 157.147 189.521 156.372 189.64C155.585 189.76 154.871 190.047 154.217 190.502C153.563 190.956 153.054 191.518 152.679 192.176C152.303 192.846 152.134 193.576 152.146 194.365C152.146 195.167 152.412 195.956 152.909 196.733C153.417 197.511 154.047 198.073 154.798 198.42C155.561 198.755 156.348 198.886 157.183 198.779C158.007 198.671 158.782 198.384 159.472 197.906C160.186 197.415 160.743 196.793 161.143 196.064C161.53 195.334 161.7 194.557 161.639 193.767C161.579 192.966 161.252 192.2 160.671 191.447C160.089 190.693 159.423 190.191 158.673 189.904L158.661 189.892Z" fill="#6169BC"/>
<path d="M179.887 174.689C176.497 178.756 174.693 180.694 170.866 184.306C171.726 185.035 172.67 185.346 173.7 185.215C174.729 185.095 175.685 184.593 176.533 183.732C177.756 182.476 178.144 181.148 177.696 179.773C179.04 178.301 179.706 177.548 180.989 176.005C181.8 177.356 182.079 178.923 181.776 180.717C181.473 182.512 180.529 184.258 178.943 185.885C177.659 187.2 176.242 188.121 174.729 188.648C173.215 189.162 171.75 189.234 170.345 188.863C168.941 188.492 167.718 187.703 166.664 186.531C165.599 185.334 164.945 184.055 164.667 182.679C164.388 181.304 164.497 179.964 164.957 178.624C165.429 177.285 166.229 176.053 167.367 174.88C168.469 173.756 169.655 172.931 170.975 172.416C172.295 171.902 173.615 171.723 174.983 171.926C176.339 172.117 177.611 172.68 178.785 173.625C179.221 173.971 179.584 174.33 179.875 174.677L179.887 174.689ZM174.898 176.423C174.136 175.778 173.252 175.55 172.271 175.718C171.29 175.885 170.406 176.376 169.619 177.189C168.868 177.954 168.444 178.792 168.335 179.713C168.226 180.646 168.457 181.531 169.062 182.392C171.484 180.096 172.658 178.899 174.898 176.411V176.423Z" fill="#6169BC"/>
<path d="M179.125 161.723C179.234 160.742 179.597 159.774 180.214 158.817C181.607 159.69 182.309 160.132 183.702 161.006C183.447 161.4 183.326 161.592 183.06 161.986C182.297 163.147 181.946 164.163 182.019 165.06C182.091 165.969 182.697 166.831 183.883 167.656C186.414 169.426 187.673 170.311 190.204 172.082C189.066 173.66 188.485 174.45 187.298 175.981C182.37 172.225 179.912 170.347 174.983 166.603C176.025 165.276 176.533 164.594 177.514 163.218C178.301 163.769 178.701 164.044 179.488 164.594C179.137 163.673 179.028 162.716 179.137 161.735L179.125 161.723Z" fill="#6169BC"/>
<path opacity="0.6" d="M168.544 158.732C198.916 117.59 189.821 59.9518 148.231 29.9935C106.641 0.0352102 48.3049 9.10122 17.9335 50.243C-12.4378 91.3848 -3.34321 149.023 38.2468 178.981C79.8369 208.939 138.173 199.873 168.544 158.732Z" fill="#E53833"/>
<path d="M76.8176 160.467C76.7571 157.979 76.6481 155.157 77.0598 152.884C77.2414 151.891 77.4836 150.827 77.859 149.906C78.0891 149.343 78.3918 148.793 78.7187 148.279C78.7914 148.147 79.639 147.011 79.2515 147.477C81.8549 144.32 85.5117 142.633 89.6529 142.801C91.445 142.872 93.3824 143.471 95.0171 144.403C96.1795 145.061 96.4217 145.229 97.2935 146.054C97.5962 146.341 97.8868 146.628 98.1653 146.939C98.347 147.143 98.5165 147.346 98.686 147.549C98.4559 147.262 98.4802 147.31 98.7587 147.693C99.8363 149.475 100.466 151.138 100.575 153.386C100.708 156.09 100.309 158.757 99.8606 161.4C99.4973 163.541 100.43 165.73 102.706 166.34C104.656 166.866 107.356 165.682 107.707 163.529C108.615 158.123 109.523 152.37 107.501 147.083C105.866 142.813 102.646 139.272 98.5407 137.143C89.3865 132.406 78.0164 135.193 72.1194 143.566C68.6685 148.47 68.511 154.726 68.6685 160.467C68.729 162.644 70.4969 164.486 72.737 164.486C74.9771 164.486 76.8661 162.644 76.8055 160.467H76.8176Z" fill="#38332F"/>
<path d="M126.01 124.662C131.537 124.476 135.856 119.62 135.656 113.817C135.456 108.014 130.813 103.46 125.285 103.646C119.758 103.832 115.439 108.687 115.64 114.49C115.84 120.294 120.482 124.847 126.01 124.662Z" fill="#38332F"/>
<path d="M57.126 125.338C62.6534 125.152 66.972 120.297 66.772 114.494C66.572 108.69 61.929 104.137 56.4017 104.322C50.8743 104.508 46.5557 109.364 46.7557 115.167C46.9557 120.97 51.5987 125.524 57.126 125.338Z" fill="#38332F"/>
<path d="M140.522 88.844C133.281 89.4062 127.178 93.0065 121.765 97.5996C116.728 101.858 112.405 106.977 106.702 110.422C102.234 113.113 106.327 120.075 110.807 117.359C116.534 113.903 121.075 109.034 126.003 104.609C130.108 100.925 135.182 97.3005 140.522 96.8819C142.713 96.7144 144.59 95.1595 144.59 92.8629C144.59 90.8176 142.726 88.6766 140.522 88.844Z" fill="#38332F"/>
<path d="M74.8561 111.869C68.9713 109.393 63.4012 106.259 58.2671 102.492C53.6779 99.1186 49.0161 94.8605 42.998 93.772C40.8427 93.3773 38.6147 94.3581 37.9971 96.5829C37.4522 98.5325 38.6631 101.14 40.8427 101.523C46.1705 102.492 50.2512 106.594 54.6103 109.752C59.6112 113.388 65.048 116.402 70.7513 118.819C72.7734 119.668 75.1104 119.417 76.3213 117.371C77.3263 115.685 76.8904 112.73 74.8561 111.869Z" fill="#38332F"/>
</svg>
