<svg width="200" height="203" viewBox="0 0 200 203" fill="none" xmlns="http://www.w3.org/2000/svg">
<g id="Layer_1-2">
<path id="Vector" d="M145.319 182.04C145.944 183.036 146.263 183.533 146.888 184.529C145.089 185.548 144.184 186.046 142.334 186.993C145.332 192.285 146.824 194.931 149.821 200.224C148.253 201.037 147.449 201.425 145.842 202.178C143.036 196.789 141.633 194.094 138.826 188.716C136.939 189.603 135.995 190.027 134.056 190.841C133.559 189.785 133.316 189.251 132.819 188.182C137.997 186.01 140.497 184.771 145.319 182.028V182.04Z" fill="#6169BC"/>
<path id="Vector_2" d="M154.987 180.996C155.395 180.195 156.033 179.503 156.875 178.908C157.819 180.122 158.291 180.729 159.235 181.943C158.89 182.186 158.712 182.307 158.367 182.55C157.334 183.266 156.696 184.007 156.48 184.796C156.263 185.585 156.531 186.531 157.309 187.624C158.98 189.967 159.821 191.144 161.492 193.499C160.013 194.446 159.273 194.919 157.768 195.817C154.579 190.998 152.985 188.595 149.796 183.776C151.135 182.975 151.798 182.562 153.112 181.712C153.635 182.441 153.89 182.805 154.413 183.545C154.4 182.647 154.605 181.797 155.013 180.996H154.987Z" fill="#6169BC"/>
<path id="Vector_3" d="M170.204 168.299C174.426 172.342 176.53 174.357 180.752 178.387C179.477 179.588 178.839 180.183 177.525 181.336L176.237 180.013C176.263 180.826 176.058 181.664 175.625 182.514C175.191 183.363 174.553 184.128 173.737 184.796C172.691 185.645 171.594 186.216 170.459 186.483C169.324 186.75 168.227 186.689 167.168 186.313C166.109 185.937 165.178 185.245 164.362 184.237C162.219 181.591 161.148 180.268 159.005 177.634C160.255 176.711 160.88 176.25 162.092 175.291C164.183 177.707 165.242 178.921 167.334 181.336C168.087 182.21 168.928 182.671 169.859 182.732C170.791 182.781 171.709 182.441 172.602 181.7C173.507 180.948 173.992 180.122 174.056 179.236C174.12 178.35 173.75 177.5 172.933 176.675C170.689 174.381 169.566 173.228 167.321 170.934C168.482 169.902 169.056 169.38 170.191 168.312L170.204 168.299Z" fill="#6169BC"/>
<path id="Vector_4" d="M185.434 173.131C184.337 173.653 183.291 173.895 182.283 173.859C181.288 173.823 180.434 173.519 179.719 172.949C180.918 171.759 181.505 171.152 182.653 169.926C183.138 170.23 183.712 170.302 184.375 170.132C185.038 169.963 185.651 169.574 186.199 168.955C186.735 168.348 187.041 167.79 187.117 167.268C187.194 166.746 187.054 166.357 186.709 166.09C186.339 165.799 185.867 165.787 185.332 166.054C184.796 166.321 183.992 166.807 182.997 167.498C181.977 168.215 181.084 168.785 180.332 169.161C179.579 169.538 178.801 169.732 177.972 169.732C177.156 169.732 176.378 169.404 175.651 168.749C175.051 168.202 174.681 167.535 174.528 166.734C174.375 165.933 174.477 165.083 174.809 164.173C175.14 163.262 175.714 162.352 176.543 161.441C177.755 160.094 179.031 159.269 180.434 158.953C181.824 158.637 183.163 158.856 184.439 159.645C183.482 160.834 182.985 161.429 181.99 162.582C181.492 162.267 180.957 162.182 180.383 162.315C179.809 162.449 179.273 162.801 178.75 163.371C178.278 163.905 177.997 164.379 177.921 164.828C177.844 165.265 177.972 165.629 178.316 165.92C178.699 166.236 179.158 166.285 179.719 166.054C180.281 165.823 181.046 165.374 182.003 164.682C182.972 163.978 183.814 163.42 184.528 163.019C185.242 162.619 186.008 162.364 186.837 162.291C187.666 162.206 188.495 162.437 189.286 162.995C189.974 163.481 190.421 164.148 190.625 164.961C190.829 165.775 190.753 166.697 190.395 167.705C190.038 168.712 189.401 169.732 188.495 170.752C187.551 171.795 186.531 172.584 185.434 173.119V173.131Z" fill="#6169BC"/>
<path id="Vector_5" d="M187.984 152.337C190.395 153.867 191.594 154.632 194.005 156.149C194.426 156.416 194.808 156.501 195.153 156.392C195.497 156.282 195.854 155.967 196.211 155.433C196.658 154.777 196.875 154.45 197.295 153.794C198.38 154.437 198.915 154.753 200 155.396C199.4 156.307 199.094 156.756 198.482 157.666C196.415 160.677 194.03 161.259 191.505 159.548C189.158 157.958 187.984 157.156 185.637 155.554C185.191 156.149 184.961 156.44 184.502 157.035C183.507 156.331 183.01 155.979 182.002 155.275C182.449 154.704 182.665 154.413 183.099 153.83C181.9 153.017 181.288 152.604 180.089 151.779C180.994 150.577 181.428 149.97 182.295 148.732C183.533 149.509 184.145 149.898 185.369 150.687C186.148 149.57 186.53 148.999 187.283 147.858C188.341 148.49 188.864 148.793 189.91 149.424C189.145 150.602 188.75 151.172 187.946 152.325L187.984 152.337Z" fill="#6169BC"/>
<path id="Vector_6" d="M97.0025 184.359C150.576 184.359 194.005 143.089 194.005 92.1794C194.005 41.2701 150.576 0 97.0025 0C43.4295 0 0 41.2701 0 92.1794C0 143.089 43.4295 184.359 97.0025 184.359Z" fill="#CEFFAE"/>
<path id="Vector_7" d="M57.2706 67.696C57.9976 66.8463 58.7884 66.0452 59.6685 65.3169C59.8981 65.1227 60.1277 64.9406 60.3701 64.7585C60.0639 65.0013 60.0384 64.9891 60.3701 64.7706C60.8165 64.4793 61.2757 64.188 61.7349 63.9209C62.2578 63.6175 62.7935 63.3504 63.3292 63.0955C63.5461 62.9984 63.7757 62.9013 63.9925 62.8042C64.4389 62.5857 63.3803 62.9984 64.1456 62.7435C65.2425 62.3794 66.3267 62.0395 67.4746 61.7967C68.0104 61.6875 68.5461 61.5904 69.0945 61.5175C68.7119 61.5661 68.5843 61.5782 69.0435 61.5418C69.3496 61.5175 69.6558 61.4933 69.9491 61.4811C71.1099 61.4204 72.2578 61.469 73.4058 61.5661C73.8777 61.6025 73.7246 61.6268 73.3547 61.5661C73.6481 61.6268 73.9542 61.6632 74.2476 61.7239C74.7833 61.821 75.3063 61.9545 75.842 62.088C76.4287 62.2458 76.99 62.4522 77.5639 62.6464C77.194 62.525 77.1558 62.4643 77.5512 62.6464C77.8828 62.7921 78.2144 62.9499 78.5333 63.1077C80.5231 64.0909 83.2782 63.6539 84.4007 61.6389C85.4338 59.7696 84.9874 57.0991 82.8573 56.0552C72.5129 50.9571 58.6736 53.2148 51.2119 61.9424C49.7961 63.5932 49.3879 66.118 51.2119 67.7081C52.7808 69.0798 55.7655 69.4803 57.2706 67.7081V67.696Z" fill="#38332F"/>
<path id="Vector_8" d="M145.128 80.0409C141.582 69.529 130.051 61.8211 118.329 63.0349C116.11 63.2655 113.929 64.7464 114.043 67.1134C114.133 69.1284 115.944 71.4469 118.329 71.192C119.503 71.0706 120.676 71.0342 121.85 71.107C122.117 71.1191 122.385 71.1555 122.64 71.1677C123.189 71.2041 121.786 71.022 122.615 71.1677C123.189 71.2648 123.763 71.374 124.337 71.5075C124.911 71.6411 125.472 71.7989 126.02 71.9809C126.276 72.0659 126.531 72.1509 126.773 72.2359C127.589 72.5272 126.913 72.1509 126.786 72.2359C126.939 72.1387 128.189 72.8792 128.367 72.9763C128.89 73.2433 129.401 73.5225 129.898 73.826C130.319 74.0809 130.88 74.3479 131.225 74.7C130.548 74.0081 131.173 74.6757 131.365 74.8213C131.569 74.9791 131.773 75.1491 131.977 75.319C132.819 76.0352 133.571 76.812 134.299 77.6375C135.026 78.4629 133.801 76.9334 134.413 77.7831C134.566 77.9895 134.719 78.1958 134.872 78.4143C135.191 78.8756 135.497 79.3611 135.791 79.8467C136.02 80.2472 136.416 80.7692 136.505 81.2062C136.327 80.3079 136.454 81.0969 136.556 81.364C136.671 81.6553 136.773 81.9466 136.862 82.2379C137.551 84.2651 139.872 85.7824 142.13 85.0905C144.26 84.435 145.855 82.2501 145.128 80.0773V80.0409Z" fill="#38332F"/>
<path id="Vector_9" d="M110.039 111.407C105.319 117.439 96.2886 120.583 88.7759 119.054C81.2631 117.524 74.5157 111.698 72.3728 104.463C70.9825 99.7658 63.2657 101.756 64.6687 106.478C66.9391 114.113 72.7555 120.802 80.2937 124.237C88.4187 127.927 97.5131 127.745 105.651 124.176C110.192 122.185 113.954 119.029 116.926 115.242C118.215 113.591 117.207 110.994 115.498 110.047C113.457 108.918 111.327 109.756 110.039 111.407Z" fill="#38332F"/>
</g>
</svg>
