<svg width="189" height="203" viewBox="0 0 189 203" fill="none" xmlns="http://www.w3.org/2000/svg">
<g id="Asset 26icon" clip-path="url(#clip0_384_1093)" filter="url(#filter0_d_384_1093)">
<g id="Layer_2-2">
<path id="Vector" d="M117.697 187.773C114.348 188.674 112.646 189.052 109.219 189.686C108.905 191.143 108.737 191.867 108.378 193.313C106.497 193.635 105.545 193.769 103.641 194.014C105.982 186.449 106.866 182.633 108.098 175.035C109.823 174.69 110.686 174.49 112.388 174.067C116.79 180.397 119.232 183.467 124.575 189.308C122.771 189.897 121.864 190.176 120.027 190.698C119.075 189.542 118.616 188.952 117.697 187.784V187.773ZM115.827 185.281C113.878 182.666 112.948 181.343 111.167 178.662C110.731 181.854 110.462 183.445 109.835 186.638C112.254 186.171 113.452 185.893 115.827 185.292V185.281Z" fill="#6169BC"/>
<path id="Vector_2" d="M135.036 170.941C136.548 171.364 137.791 172.399 138.721 174.09C140.345 177.026 141.151 178.506 142.764 181.443C141.196 182.288 140.401 182.7 138.811 183.49C137.399 180.664 136.694 179.251 135.282 176.415C134.778 175.402 134.095 174.757 133.255 174.49C132.415 174.212 131.519 174.301 130.522 174.746C129.514 175.202 128.831 175.814 128.484 176.626C128.125 177.438 128.148 178.372 128.584 179.418C129.783 182.344 130.388 183.801 131.586 186.727C129.928 187.395 129.088 187.717 127.408 188.329C125.448 182.956 124.474 180.264 122.514 174.902C123.981 174.379 124.709 174.101 126.154 173.511C126.423 174.167 126.557 174.501 126.826 175.157C127.084 174.39 127.509 173.678 128.114 173.044C128.719 172.399 129.447 171.887 130.32 171.475C131.978 170.708 133.524 170.53 135.047 170.952L135.036 170.941Z" fill="#6169BC"/>
<path id="Vector_3" d="M146.83 162.453C147.782 162.286 148.667 162.297 149.485 162.531C148.981 161.886 148.734 161.563 148.241 160.918C149.485 159.972 150.089 159.483 151.299 158.493C155.006 162.909 156.866 165.123 160.573 169.551C161.424 170.563 161.94 171.687 162.074 172.921C162.208 174.156 161.928 175.447 161.2 176.77C160.472 178.094 159.296 179.363 157.672 180.497C155.499 182.032 153.394 182.822 151.456 182.911C149.518 183 148.051 182.355 147.02 181.065C148.566 180.152 149.328 179.685 150.84 178.706C151.4 179.129 152.117 179.285 152.99 179.162C153.875 179.04 154.783 178.662 155.723 178.005C156.821 177.238 157.515 176.337 157.795 175.347C158.075 174.345 157.818 173.344 157.045 172.343C156.496 171.642 156.227 171.286 155.69 170.585C155.656 171.453 155.365 172.376 154.827 173.322C154.278 174.279 153.472 175.124 152.397 175.858C151.165 176.693 149.854 177.182 148.488 177.304C147.121 177.427 145.844 177.182 144.668 176.559C143.492 175.947 142.551 174.991 141.812 173.733C141.084 172.487 140.715 171.219 140.692 169.929C140.67 168.649 140.95 167.47 141.521 166.391C142.103 165.312 142.921 164.422 143.996 163.688C144.937 163.043 145.878 162.642 146.83 162.464V162.453ZM150.761 165.134C150.067 164.867 149.361 164.789 148.645 164.9C147.917 165.012 147.256 165.279 146.651 165.701C146.046 166.124 145.576 166.647 145.228 167.259C144.881 167.882 144.724 168.56 144.736 169.295C144.736 170.04 144.982 170.774 145.441 171.497C145.912 172.22 146.494 172.743 147.188 173.066C147.894 173.377 148.622 173.5 149.395 173.4C150.157 173.3 150.873 173.033 151.512 172.588C152.173 172.131 152.688 171.553 153.058 170.874C153.416 170.196 153.573 169.473 153.517 168.738C153.461 167.993 153.158 167.281 152.621 166.58C152.083 165.879 151.467 165.412 150.773 165.145L150.761 165.134Z" fill="#6169BC"/>
<path id="Vector_4" d="M170.396 150.995C167.26 154.777 165.591 156.579 162.051 159.939C162.847 160.617 163.72 160.907 164.672 160.784C165.624 160.673 166.509 160.206 167.293 159.405C168.425 158.237 168.783 157.002 168.369 155.723C169.612 154.354 170.228 153.653 171.415 152.218C172.166 153.475 172.423 154.933 172.143 156.601C171.863 158.27 170.989 159.894 169.522 161.407C168.335 162.631 167.024 163.488 165.624 163.977C164.224 164.455 162.869 164.522 161.57 164.177C160.271 163.832 159.139 163.098 158.165 162.008C157.179 160.896 156.574 159.705 156.317 158.426C156.059 157.147 156.16 155.901 156.586 154.655C157.022 153.409 157.762 152.263 158.814 151.173C159.834 150.127 160.931 149.359 162.152 148.881C163.373 148.403 164.594 148.236 165.86 148.425C167.114 148.603 168.29 149.126 169.377 150.005C169.78 150.327 170.116 150.661 170.385 150.984L170.396 150.995ZM165.781 152.608C165.076 152.007 164.258 151.796 163.351 151.951C162.443 152.107 161.626 152.563 160.898 153.32C160.203 154.032 159.811 154.81 159.711 155.667C159.61 156.535 159.823 157.358 160.383 158.159C162.623 156.023 163.709 154.911 165.781 152.597V152.608Z" fill="#6169BC"/>
<path id="Vector_5" d="M169.69 138.936C169.791 138.023 170.127 137.122 170.699 136.232C171.987 137.044 172.636 137.456 173.924 138.268C173.689 138.635 173.577 138.813 173.331 139.18C172.625 140.259 172.3 141.205 172.367 142.039C172.435 142.885 172.995 143.686 174.092 144.453C176.433 146.1 177.598 146.923 179.939 148.57C178.886 150.038 178.349 150.772 177.251 152.196C172.692 148.703 170.419 146.956 165.86 143.474C166.823 142.24 167.294 141.606 168.201 140.326C168.929 140.838 169.298 141.094 170.026 141.606C169.702 140.749 169.601 139.859 169.702 138.947L169.69 138.936Z" fill="#6169BC"/>
<g id="Vector_6" opacity="0.6" filter="url(#filter1_d_384_1093)">
<path d="M159.904 136.153C187.997 97.8886 179.585 44.2815 141.114 16.4183C102.643 -11.4449 48.6824 -3.0129 20.5889 35.2517C-7.50455 73.5162 0.907924 127.123 39.3787 154.987C77.8495 182.85 131.81 174.418 159.904 136.153Z" fill="#E53833"/>
</g>
<path id="Vector_7" d="M75.0565 137.767C75.0005 135.454 74.8997 132.828 75.2805 130.714C75.4485 129.791 75.6725 128.801 76.0198 127.944C76.2326 127.422 76.5126 126.91 76.815 126.431C76.8822 126.309 77.6662 125.252 77.3078 125.686C79.7159 122.749 83.0985 121.181 86.9291 121.336C88.5868 121.403 90.3789 121.959 91.891 122.827C92.9662 123.439 93.1902 123.595 93.9967 124.362C94.2767 124.629 94.5455 124.896 94.8031 125.185C94.9711 125.375 95.128 125.564 95.2848 125.753C95.0719 125.486 95.0943 125.53 95.352 125.886C96.3488 127.544 96.9312 129.09 97.032 131.182C97.1553 133.696 96.7856 136.177 96.3712 138.635C96.0352 140.626 96.8976 142.662 99.0034 143.23C100.807 143.719 103.304 142.618 103.629 140.615C104.469 135.587 105.309 130.236 103.439 125.319C101.927 121.347 98.9473 118.055 95.1503 116.074C86.6827 111.669 76.1654 114.261 70.7107 122.048C67.5185 126.609 67.3729 132.428 67.5185 137.767C67.5745 139.792 69.2098 141.505 71.2819 141.505C73.354 141.505 75.1013 139.792 75.0453 137.767H75.0565Z" fill="#38332F"/>
<path id="Vector_8" d="M120.559 104.466C125.672 104.293 129.667 99.7772 129.482 94.3798C129.297 88.9824 125.002 84.7471 119.889 84.92C114.777 85.0929 110.782 89.6085 110.967 95.0059C111.152 100.403 115.447 104.639 120.559 104.466Z" fill="#38332F"/>
<path id="Vector_9" d="M56.8421 105.095C61.9549 104.922 65.9496 100.406 65.7646 95.009C65.5796 89.6115 61.2849 85.3762 56.1721 85.5491C51.0593 85.722 47.0645 90.2377 47.2496 95.6351C47.4346 101.033 51.7293 105.268 56.8421 105.095Z" fill="#38332F"/>
<path id="Vector_10" d="M133.983 71.1531C127.285 71.676 121.64 75.0245 116.633 79.2964C111.974 83.2567 107.975 88.0181 102.7 91.222C98.5668 93.725 102.353 100.2 106.497 97.6743C111.795 94.4592 115.995 89.9315 120.554 85.8154C124.351 82.389 129.044 79.0182 133.983 78.6289C136.01 78.4731 137.746 77.0269 137.746 74.891C137.746 72.9887 136.022 70.9974 133.983 71.1531Z" fill="#38332F"/>
<path id="Vector_11" d="M73.2421 92.5681C67.7986 90.2653 62.6464 87.3506 57.8973 83.8463C53.6523 80.7092 49.3401 76.7488 43.7734 75.7365C41.7797 75.3694 39.7188 76.2816 39.1475 78.3508C38.6435 80.1641 39.7636 82.5893 41.7797 82.9452C46.7079 83.8463 50.4825 87.6621 54.5147 90.599C59.1406 93.9809 64.1696 96.7843 69.4451 99.0315C71.3156 99.8213 73.4773 99.5877 74.5974 97.6854C75.527 96.1168 75.1238 93.369 73.2421 92.5681Z" fill="#38332F"/>
</g>
</g>
<defs>
<filter id="filter0_d_384_1093" x="0" y="0" width="193" height="209" filterUnits="userSpaceOnUse" color-interpolation-filters="sRGB">
<feFlood flood-opacity="0" result="BackgroundImageFix"/>
<feColorMatrix in="SourceAlpha" type="matrix" values="0 0 0 0 0 0 0 0 0 0 0 0 0 0 0 0 0 0 127 0" result="hardAlpha"/>
<feOffset dy="4"/>
<feGaussianBlur stdDeviation="2"/>
<feComposite in2="hardAlpha" operator="out"/>
<feColorMatrix type="matrix" values="0 0 0 0 0 0 0 0 0 0 0 0 0 0 0 0 0 0 0.25 0"/>
<feBlend mode="normal" in2="BackgroundImageFix" result="effect1_dropShadow_384_1093"/>
<feBlend mode="normal" in="SourceGraphic" in2="effect1_dropShadow_384_1093" result="shape"/>
</filter>
<filter id="filter1_d_384_1093" x="-0.0131836" y="-0.0098877" width="180.519" height="179.425" filterUnits="userSpaceOnUse" color-interpolation-filters="sRGB">
<feFlood flood-opacity="0" result="BackgroundImageFix"/>
<feColorMatrix in="SourceAlpha" type="matrix" values="0 0 0 0 0 0 0 0 0 0 0 0 0 0 0 0 0 0 127 0" result="hardAlpha"/>
<feOffset dy="4"/>
<feGaussianBlur stdDeviation="2"/>
<feComposite in2="hardAlpha" operator="out"/>
<feColorMatrix type="matrix" values="0 0 0 0 0 0 0 0 0 0 0 0 0 0 0 0 0 0 0.25 0"/>
<feBlend mode="normal" in2="BackgroundImageFix" result="effect1_dropShadow_384_1093"/>
<feBlend mode="normal" in="SourceGraphic" in2="effect1_dropShadow_384_1093" result="shape"/>
</filter>
<clipPath id="clip0_384_1093">
<rect width="185" height="201" fill="white" transform="translate(4)"/>
</clipPath>
</defs>
</svg>
