<svg width="199" height="201" viewBox="0 0 199 201" fill="none" xmlns="http://www.w3.org/2000/svg">
<path d="M85.1497 197.026C81.5794 197.026 79.7828 196.948 76.167 196.647C75.462 197.817 75.1096 198.407 74.3705 199.566C72.4034 199.377 71.4142 199.265 69.4243 198.998C73.7224 193.07 75.6099 190.006 78.9073 183.755C80.7721 183.877 81.6931 183.911 83.5465 183.944C86.2754 190.44 87.8786 193.649 91.5285 199.923C89.5956 200.023 88.6291 200.056 86.6733 200.079C86.048 198.853 85.7523 198.24 85.1611 197.014L85.1497 197.026ZM83.9558 194.429C82.7164 191.722 82.1365 190.351 81.0563 187.61C79.7487 190.251 79.0551 191.566 77.5769 194.162C80.1353 194.34 81.4202 194.396 83.9558 194.429Z" fill="#6169BC"/>
<path d="M106.913 186.295C108.255 186.986 109.153 188.156 109.562 189.839C110.267 192.758 110.62 194.218 111.325 197.137C109.585 197.538 108.721 197.728 106.958 198.062C106.401 195.287 106.128 193.906 105.571 191.131C105.378 190.139 104.9 189.426 104.161 189.014C103.422 188.591 102.524 188.479 101.421 188.646C100.307 188.825 99.4652 189.215 98.8854 189.839C98.3055 190.463 98.0667 191.276 98.1918 192.29C98.5442 195.098 98.7262 196.491 99.0786 199.299C97.2821 199.51 96.3838 199.6 94.5646 199.744C94.1325 194.652 93.9165 192.101 93.4844 187.008C95.0876 186.875 95.8949 186.797 97.4754 186.607C97.555 187.242 97.5891 187.554 97.6801 188.189C98.1463 187.577 98.7716 187.064 99.5448 186.629C100.318 186.206 101.182 185.916 102.16 185.749C104.002 185.437 105.571 185.615 106.913 186.306V186.295Z" fill="#6169BC"/>
<path d="M117.158 185.014L119.114 190.897C119.25 191.309 119.478 191.566 119.808 191.655C120.137 191.755 120.604 191.699 121.229 191.488C121.979 191.231 122.366 191.098 123.116 190.83C123.492 191.855 123.685 192.368 124.072 193.393C123.025 193.761 122.502 193.95 121.456 194.296C117.931 195.466 115.748 194.652 115.009 192.1C114.327 189.727 113.986 188.546 113.304 186.172C112.576 186.373 112.201 186.473 111.462 186.663C111.189 185.638 111.052 185.125 110.768 184.1C111.484 183.91 111.848 183.821 112.553 183.621C112.201 182.406 112.03 181.793 111.678 180.579C113.156 180.167 113.884 179.955 115.339 179.487C115.737 180.69 115.942 181.292 116.34 182.495C117.659 182.072 118.307 181.849 119.614 181.392C119.99 182.384 120.171 182.885 120.535 183.888C119.205 184.367 118.534 184.59 117.17 185.025L117.158 185.014Z" fill="#6169BC"/>
<path d="M121.683 178.384C121.138 178.205 120.762 177.871 120.558 177.37C120.353 176.868 120.399 176.378 120.66 175.877C120.922 175.386 121.354 175.019 121.956 174.773C122.559 174.528 123.116 174.484 123.662 174.64C124.208 174.796 124.594 175.119 124.81 175.609C125.038 176.099 125.026 176.601 124.765 177.102C124.503 177.604 124.06 177.994 123.446 178.25C122.82 178.506 122.229 178.551 121.683 178.373V178.384ZM125.811 178.919C127.914 183.598 128.972 185.938 131.075 190.607C129.472 191.309 128.665 191.644 127.028 192.279C125.106 187.521 124.139 185.147 122.229 180.401C123.673 179.832 124.401 179.543 125.822 178.919H125.811Z" fill="#6169BC"/>
<path d="M130.552 179.977C130.712 178.796 131.166 177.715 131.928 176.712C132.69 175.709 133.702 174.863 134.976 174.138C136.613 173.214 138.148 172.757 139.649 172.757C141.138 172.757 142.469 173.225 143.651 174.172C142.207 175.119 141.48 175.587 139.99 176.478C139.501 176.122 138.944 175.955 138.307 175.955C137.682 175.955 137.022 176.155 136.34 176.534C135.362 177.091 134.737 177.804 134.475 178.696C134.214 179.598 134.362 180.59 134.941 181.682C135.521 182.763 136.272 183.431 137.216 183.699C138.159 183.955 139.171 183.799 140.229 183.209C141.73 182.373 142.378 181.292 142.207 180.022C143.754 179.097 144.515 178.618 146.016 177.626C146.426 179.03 146.278 180.445 145.539 181.871C144.8 183.298 143.503 184.557 141.661 185.593C140.217 186.407 138.773 186.863 137.375 186.953C135.976 187.053 134.737 186.797 133.657 186.217C132.576 185.627 131.758 184.735 131.178 183.532C130.598 182.339 130.405 181.147 130.552 179.966V179.977Z" fill="#6169BC"/>
<path d="M142.514 167.174C141.945 167.129 141.502 166.884 141.183 166.45C140.865 166.015 140.774 165.525 140.911 164.979C141.047 164.444 141.365 163.987 141.877 163.608C142.389 163.229 142.934 163.062 143.492 163.096C144.06 163.129 144.504 163.352 144.845 163.775C145.186 164.199 145.288 164.689 145.174 165.235C145.049 165.781 144.72 166.26 144.185 166.65C143.651 167.04 143.094 167.219 142.514 167.174ZM146.619 166.751C149.802 170.795 151.394 172.823 154.589 176.868C153.213 177.916 152.508 178.417 151.087 179.409C148.063 175.241 146.55 173.169 143.526 169.001C144.776 168.121 145.402 167.675 146.619 166.751Z" fill="#6169BC"/>
<path d="M154.271 160.867C154.635 159.998 155.215 159.185 156 158.405C156.921 157.502 157.932 156.867 159.058 156.477C160.184 156.087 161.332 155.987 162.515 156.176C163.697 156.377 164.789 156.889 165.79 157.747C166.79 158.605 167.472 159.608 167.779 160.778C168.098 161.937 168.064 163.14 167.666 164.366C167.268 165.592 166.54 166.728 165.494 167.753C164.596 168.634 163.652 169.246 162.685 169.614C161.719 169.982 160.809 170.138 159.968 170.082C162.128 172.433 163.208 173.603 165.369 175.954C164.004 177.158 163.311 177.748 161.901 178.896C156.966 173.102 154.499 170.205 149.575 164.399C150.758 163.43 151.338 162.94 152.486 161.926C152.986 162.472 153.248 162.75 153.748 163.296C153.725 162.527 153.896 161.714 154.26 160.845L154.271 160.867ZM161.082 159.842C160.4 159.731 159.729 159.797 159.07 160.031C158.41 160.265 157.819 160.633 157.296 161.135C156.784 161.625 156.409 162.193 156.147 162.828C155.897 163.475 155.818 164.132 155.92 164.812C156.022 165.491 156.329 166.115 156.852 166.695C157.375 167.263 157.978 167.631 158.672 167.787C159.365 167.943 160.059 167.898 160.764 167.664C161.469 167.43 162.094 167.051 162.651 166.528C163.22 165.993 163.629 165.369 163.879 164.678C164.129 163.987 164.186 163.307 164.05 162.628C163.913 161.948 163.55 161.335 162.97 160.8C162.401 160.277 161.764 159.953 161.082 159.842Z" fill="#6169BC"/>
<path d="M164.982 153.39C164.607 152.276 164.527 151.151 164.755 149.992C164.982 148.844 165.483 147.763 166.244 146.727C166.915 145.825 167.654 145.145 168.462 144.666C169.269 144.187 170.065 143.886 170.861 143.785L169.303 142.783C170.167 141.501 170.577 140.855 171.384 139.54C175.852 142.181 178.092 143.496 182.561 146.137C181.651 147.619 181.174 148.354 180.207 149.791C179.571 149.379 179.252 149.179 178.615 148.766C178.82 149.546 178.82 150.449 178.593 151.474C178.365 152.488 177.865 153.524 177.103 154.538C176.239 155.697 175.204 156.555 174.022 157.134C172.839 157.703 171.634 157.926 170.406 157.792C169.178 157.658 168.064 157.157 167.052 156.321C166.04 155.485 165.357 154.505 164.982 153.39ZM172.726 145.657C172.032 145.657 171.384 145.836 170.758 146.192C170.144 146.549 169.621 147.017 169.189 147.596C168.757 148.187 168.473 148.811 168.337 149.468C168.2 150.137 168.234 150.794 168.45 151.441C168.666 152.087 169.076 152.655 169.69 153.123C170.304 153.591 170.974 153.847 171.691 153.892C172.407 153.925 173.101 153.769 173.749 153.424C174.408 153.078 174.966 152.588 175.409 151.975C175.875 151.34 176.171 150.661 176.307 149.936C176.444 149.212 176.387 148.532 176.125 147.886C175.875 147.251 175.409 146.716 174.738 146.293C174.067 145.869 173.385 145.657 172.703 145.657H172.726Z" fill="#6169BC"/>
<path d="M177.842 133.556C180.105 134.648 181.231 135.206 183.505 136.298C183.903 136.487 184.244 136.509 184.54 136.342C184.835 136.186 185.131 135.818 185.415 135.228C185.756 134.515 185.927 134.158 186.257 133.445C187.269 133.891 187.78 134.114 188.792 134.57C188.337 135.562 188.099 136.052 187.61 137.033C185.995 140.32 183.88 141.256 181.504 139.997C179.298 138.816 178.195 138.236 175.978 137.055C175.614 137.702 175.432 138.025 175.057 138.671C174.113 138.147 173.647 137.88 172.703 137.356C173.067 136.732 173.249 136.42 173.601 135.785C172.464 135.183 171.896 134.882 170.77 134.27C171.498 132.966 171.85 132.297 172.521 130.96C173.681 131.517 174.261 131.796 175.409 132.364C176.023 131.15 176.319 130.537 176.899 129.3C177.888 129.734 178.377 129.957 179.366 130.392C178.775 131.662 178.468 132.297 177.842 133.545V133.556Z" fill="#6169BC"/>
<path d="M176.182 125.734C175.67 126.001 175.158 126.024 174.658 125.812C174.158 125.6 173.817 125.233 173.646 124.698C173.476 124.163 173.51 123.606 173.748 123.004C173.987 122.402 174.362 121.968 174.851 121.7C175.352 121.422 175.863 121.377 176.375 121.567C176.887 121.756 177.251 122.113 177.433 122.659C177.614 123.205 177.592 123.784 177.342 124.408C177.091 125.032 176.705 125.478 176.193 125.745L176.182 125.734ZM179.479 123.182C184.369 124.976 186.813 125.868 191.702 127.651C191.077 129.289 190.747 130.102 190.065 131.707C185.255 129.734 182.845 128.743 178.035 126.77C178.638 125.355 178.933 124.631 179.479 123.182Z" fill="#6169BC"/>
<path d="M193.534 120.363C192.613 121.489 191.532 122.235 190.327 122.636C189.122 123.026 187.882 122.993 186.62 122.569C185.358 122.146 184.369 121.433 183.63 120.441C182.891 119.45 182.436 118.302 182.254 116.976C182.072 115.661 182.175 114.29 182.538 112.842C182.914 111.393 183.482 110.134 184.289 109.053C185.085 107.961 186.052 107.137 187.178 106.602C188.315 106.056 189.531 105.878 190.85 106.1C192.169 106.312 193.261 106.892 194.125 107.861C194.989 108.83 195.558 110.045 195.819 111.516C196.081 112.976 196.001 114.558 195.569 116.218C195.148 117.856 194.455 119.249 193.534 120.374V120.363ZM192.885 113.265C192.76 112.53 192.453 111.895 191.976 111.382C191.498 110.858 190.85 110.524 190.032 110.357C188.815 110.101 187.803 110.324 186.973 110.959C186.143 111.594 185.597 112.474 185.313 113.588C185.029 114.703 185.085 115.717 185.517 116.642C185.938 117.578 186.734 118.213 187.928 118.569C189.122 118.915 190.145 118.803 191.009 118.213C191.874 117.622 192.476 116.72 192.783 115.516C192.976 114.758 193.011 114.001 192.885 113.265Z" fill="#6169BC"/>
<path d="M187.075 88.6509C188.053 87.4363 189.406 86.7901 191.168 86.7566C194.227 86.7009 195.762 86.6786 198.821 86.6229C198.855 88.4949 198.855 89.4198 198.821 91.2695C195.944 91.2026 194.5 91.1692 191.623 91.1023C190.589 91.08 189.781 91.4032 189.213 92.0383C188.633 92.6846 188.326 93.5649 188.258 94.6903C188.189 95.838 188.394 96.7629 188.894 97.4648C189.395 98.178 190.145 98.5903 191.18 98.6794C194.045 98.9468 195.478 99.0917 198.355 99.3591C198.184 101.175 198.07 102.078 197.82 103.861C192.658 103.159 190.066 102.813 184.903 102.111C185.119 100.529 185.222 99.7268 185.37 98.1223C186.018 98.178 186.336 98.2114 186.984 98.2783C186.472 97.6877 186.097 96.9523 185.836 96.0943C185.574 95.2363 185.472 94.3114 185.529 93.2975C185.62 91.3809 186.131 89.8432 187.109 88.6286L187.075 88.6509Z" fill="#6169BC"/>
<path opacity="0.5" d="M89.8347 172.75C137.526 172.75 175.42 134.097 174.472 86.4146C173.525 38.7326 134.095 0.0787354 86.4037 0.0787354C38.7123 0.0787354 0.818837 38.7326 1.76628 86.4146C2.71373 134.097 42.1433 172.75 89.8347 172.75Z" fill="#F97F12"/>
<path d="M121.342 77.0532C126.535 76.5568 130.31 71.7701 129.771 66.3618C129.233 60.9535 124.586 56.9716 119.393 57.4679C114.199 57.9643 110.425 62.751 110.963 68.1593C111.501 73.5676 116.148 77.5495 121.342 77.0532Z" fill="#38332F"/>
<path d="M74.3875 82.1079C79.5813 81.6115 83.3554 76.8248 82.8172 71.4165C82.279 66.0082 77.6323 62.0263 72.4384 62.5226C67.2446 63.019 63.4705 67.8057 64.0087 73.214C64.5469 78.6223 69.1936 82.6042 74.3875 82.1079Z" fill="#38332F"/>
<path d="M59.5323 43.6788C59.7939 43.1216 60.0781 42.5868 60.4079 42.0742C60.567 41.8179 60.749 41.5728 60.9195 41.3277C61.4539 40.5699 60.4647 41.7622 61.1128 41.0937C61.5335 40.6591 61.9315 40.2134 62.3863 39.8122C62.6137 39.6117 62.8411 39.4222 63.0799 39.2328C62.6024 39.6117 63.1481 39.1994 63.3414 39.0657C63.8531 38.7314 64.3762 38.4194 64.9106 38.1408C65.1835 37.996 65.4677 37.8734 65.7406 37.7397C66.3433 37.4388 65.4905 37.8177 65.8884 37.6728C67.0596 37.2494 68.2421 36.9151 69.4701 36.6923C69.7999 36.6254 70.1183 36.6031 69.5952 36.6588C69.9022 36.6254 70.2092 36.592 70.5276 36.5808C71.1416 36.5363 71.767 36.5363 72.381 36.5474C72.688 36.5474 72.995 36.5808 73.302 36.6031C73.4271 36.6031 74.4163 36.7703 73.5749 36.6254C74.1775 36.7257 74.7802 36.8483 75.3714 37.0043C75.9627 37.1603 76.5426 37.3497 77.0997 37.5725C76.5198 37.3385 77.1338 37.606 77.3612 37.7174C77.6341 37.8511 77.8957 37.996 78.1572 38.1408C78.4187 38.2857 78.6802 38.4528 78.9304 38.62C78.9986 38.6645 79.6695 39.1548 79.3056 38.8762C78.9759 38.62 79.6922 39.2105 79.7718 39.2885C80.0447 39.5337 80.2948 39.7788 80.545 40.0351C81.864 41.4057 84.2404 41.3388 85.5821 40.0351C86.9238 38.7314 86.9124 36.4805 85.5821 35.0988C76.7472 25.9395 58.8046 28.5692 53.3923 40.1465C52.5963 41.8625 52.892 43.9016 54.6658 44.9156C56.2008 45.7959 58.7364 45.3836 59.5323 43.6676V43.6788Z" fill="#38332F"/>
<path d="M139.694 37.773C137.273 32.4468 131.496 29.2043 125.788 28.3797C119.466 27.466 112.883 28.9814 108.187 33.3717C105.003 36.3468 109.836 41.0602 113.008 38.0962C113.929 37.2382 114.19 37.0153 115.566 36.2911C115.839 36.1462 116.123 36.0236 116.396 35.8788C116.965 35.6002 116.226 35.9233 116.578 35.8008C117.113 35.6114 117.647 35.4219 118.204 35.2771C118.807 35.1099 119.421 34.9985 120.035 34.8871C121.013 34.7088 119.375 34.9094 120.365 34.8425C120.672 34.8202 120.99 34.7868 121.297 34.7756C121.866 34.7534 122.445 34.7422 123.014 34.7756C123.321 34.7868 123.639 34.8202 123.946 34.8314C124.106 34.8425 124.253 34.8536 124.413 34.8759C124.071 34.8314 124.026 34.8202 124.276 34.8536C125.436 35.0319 126.584 35.3105 127.699 35.7005C127.846 35.7562 128.665 36.0793 128.006 35.8008C128.279 35.9122 128.551 36.0459 128.824 36.1796C129.313 36.4248 129.779 36.6811 130.246 36.9708C130.45 37.1045 130.655 37.2382 130.848 37.3719C131.496 37.7953 130.564 37.0822 131.076 37.5502C131.496 37.9402 131.928 38.3079 132.315 38.7313C132.383 38.7982 132.952 39.5225 132.508 38.9319C132.679 39.1547 132.838 39.3887 132.997 39.6339C133.304 40.113 133.566 40.6256 133.805 41.1382C134.555 42.7873 137 43.1773 138.466 42.3304C140.195 41.3387 140.445 39.411 139.683 37.7619L139.694 37.773Z" fill="#38332F"/>
<path d="M129.426 121.712C110.005 119.06 98.2028 120.497 73.3242 126.871C76.3147 121.923 82.6935 113.288 89.8796 109.243C97.0658 105.198 106.628 105.109 113.598 107.415C120.125 109.577 126.606 116.341 129.608 121.544" fill="#FFE7C5"/>
<path d="M130.302 118.625C123.23 117.667 116.123 117.043 108.971 117.321C101.819 117.6 94.5419 118.748 87.4581 120.23C82.4323 121.288 77.4293 122.514 72.4604 123.784L76.1444 128.486C80.1923 121.845 85.6615 114.736 92.9273 111.282C100.193 107.828 110.472 108.296 117.237 112.875C121.115 115.494 124.446 119.171 126.777 123.16C128.869 126.726 134.509 123.506 132.417 119.929C129.95 115.717 126.538 111.895 122.638 108.886C118.352 105.577 113.678 103.683 108.277 102.992C102.876 102.301 97.6346 102.713 92.6998 104.474C87.7651 106.234 83.5921 109.332 79.9649 113.02C76.3377 116.708 73.1767 120.865 70.5047 125.244C69.0265 127.673 71.4712 130.637 74.1887 129.946C88.5269 126.28 102.467 123.071 117.271 123.74C121.035 123.907 124.89 124.286 128.551 124.776C130.291 125.01 132.053 124.364 132.565 122.547C132.985 121.054 132.042 118.848 130.291 118.614L130.302 118.625Z" fill="#38332F"/>
</svg>
