<svg width="213" height="212" viewBox="0 0 213 212" fill="none" xmlns="http://www.w3.org/2000/svg">
<g id="Layer_2-2">
<path id="Vector" d="M125.78 191.567C127.472 191.722 128.973 192.262 130.285 193.189C131.596 194.126 132.616 195.395 133.31 197.038C134.005 198.681 134.207 200.292 133.859 201.869C133.512 203.446 132.66 204.891 131.293 206.17C129.926 207.45 128.122 208.465 125.914 209.159C122.978 210.086 121.499 210.516 118.496 211.277C116.68 204.395 115.772 200.965 113.957 194.082C116.557 193.42 117.846 193.045 120.401 192.24C122.317 191.634 124.088 191.402 125.791 191.567H125.78ZM129.254 203.215C130.038 201.847 130.083 200.292 129.411 198.571C128.749 196.84 127.685 195.692 126.25 195.097C124.816 194.501 123.157 194.523 121.196 195.141C120.132 195.472 119.605 195.637 118.529 195.946C119.874 200.446 120.558 202.696 121.902 207.196C123.079 206.854 123.662 206.678 124.827 206.314C126.979 205.63 128.469 204.582 129.254 203.215Z" fill="#6169BC"/>
<path id="Vector_2" d="M133.254 188.876C132.683 188.689 132.268 188.325 132.033 187.784C131.786 187.244 131.786 186.703 132.033 186.163C132.268 185.623 132.683 185.214 133.276 184.95C133.87 184.685 134.453 184.63 135.025 184.795C135.596 184.961 136.011 185.314 136.28 185.854C136.549 186.384 136.571 186.935 136.336 187.475C136.112 188.027 135.686 188.446 135.069 188.733C134.453 189.02 133.848 189.064 133.276 188.876H133.254ZM137.512 189.439C140.011 194.512 141.267 197.049 143.766 202.123C142.197 202.873 141.401 203.237 139.799 203.943C137.468 198.792 136.302 196.211 133.96 191.06C135.394 190.431 136.1 190.101 137.512 189.428V189.439Z" fill="#6169BC"/>
<path id="Vector_3" d="M149.885 198.549C148.697 198.715 147.655 198.626 146.747 198.295C145.839 197.965 145.156 197.413 144.707 196.674C146.22 195.902 146.971 195.516 148.45 194.7C148.787 195.141 149.291 195.373 149.952 195.417C150.613 195.461 151.308 195.273 152.036 194.854C152.742 194.446 153.213 194.005 153.46 193.542C153.706 193.078 153.717 192.659 153.493 192.306C153.247 191.92 152.832 191.766 152.238 191.854C151.644 191.942 150.759 192.163 149.605 192.516C148.417 192.891 147.397 193.156 146.579 193.288C145.761 193.42 144.965 193.365 144.214 193.123C143.452 192.88 142.858 192.34 142.41 191.49C142.04 190.795 141.939 190.056 142.074 189.251C142.208 188.446 142.601 187.674 143.228 186.913C143.856 186.152 144.707 185.468 145.772 184.85C147.363 183.935 148.82 183.538 150.21 183.67C151.599 183.803 152.742 184.409 153.639 185.545C152.35 186.384 151.689 186.792 150.367 187.586C150.019 187.134 149.56 186.891 148.988 186.847C148.417 186.803 147.8 186.968 147.128 187.354C146.5 187.707 146.086 188.082 145.862 188.479C145.638 188.876 145.638 189.262 145.839 189.626C146.075 190.045 146.489 190.222 147.083 190.178C147.677 190.123 148.54 189.935 149.661 189.571C150.792 189.207 151.756 188.931 152.552 188.755C153.348 188.589 154.132 188.589 154.916 188.766C155.701 188.942 156.384 189.417 156.9 190.178C157.359 190.851 157.539 191.612 157.438 192.439C157.337 193.266 156.956 194.115 156.284 194.954C155.611 195.792 154.681 196.575 153.493 197.248C152.272 197.954 151.061 198.384 149.874 198.56L149.885 198.549Z" fill="#6169BC"/>
<path id="Vector_4" d="M161.438 174.924C162.379 174.703 163.265 174.681 164.083 174.869C163.556 174.251 163.298 173.942 162.772 173.325C163.971 172.332 164.565 171.825 165.741 170.799C169.585 175.034 171.513 177.152 175.356 181.387C176.242 182.358 176.791 183.439 176.993 184.641C177.183 185.843 176.981 187.101 176.354 188.413C175.726 189.726 174.65 190.983 173.149 192.152C171.132 193.718 169.148 194.579 167.265 194.755C165.394 194.931 163.904 194.391 162.805 193.178C164.24 192.196 164.957 191.7 166.369 190.674C166.94 191.06 167.658 191.181 168.509 191.027C169.361 190.873 170.224 190.465 171.098 189.781C172.118 188.987 172.734 188.093 172.958 187.112C173.182 186.13 172.869 185.159 172.051 184.2C171.479 183.527 171.188 183.196 170.616 182.523C170.616 183.384 170.392 184.288 169.921 185.237C169.439 186.185 168.7 187.056 167.691 187.806C166.537 188.678 165.282 189.218 163.948 189.406C162.615 189.604 161.349 189.428 160.149 188.898C158.95 188.369 157.942 187.487 157.124 186.295C156.306 185.115 155.857 183.891 155.745 182.634C155.633 181.365 155.835 180.196 156.35 179.093C156.866 177.99 157.639 177.064 158.681 176.27C159.589 175.586 160.508 175.123 161.449 174.913L161.438 174.924ZM165.484 177.395C164.789 177.163 164.083 177.119 163.366 177.262C162.648 177.406 162.01 177.703 161.427 178.156C160.844 178.608 160.407 179.137 160.093 179.777C159.791 180.406 159.668 181.089 159.724 181.817C159.78 182.545 160.06 183.251 160.564 183.935C161.068 184.619 161.685 185.104 162.391 185.38C163.108 185.656 163.836 185.722 164.587 185.589C165.338 185.457 166.01 185.159 166.615 184.685C167.243 184.2 167.714 183.626 168.039 182.942C168.364 182.259 168.476 181.553 168.375 180.825C168.285 180.097 167.949 179.402 167.377 178.74C166.806 178.078 166.178 177.637 165.484 177.395Z" fill="#6169BC"/>
<path id="Vector_5" d="M178.483 157.773C182.898 161.369 185.106 163.166 189.521 166.762C188.4 168.097 187.829 168.758 186.663 170.049C186.125 169.575 185.845 169.343 185.307 168.869C185.408 169.685 185.285 170.534 184.938 171.427C184.59 172.321 184.052 173.148 183.324 173.898C182.394 174.858 181.385 175.541 180.321 175.927C179.256 176.314 178.191 176.38 177.127 176.115C176.062 175.85 175.11 175.266 174.224 174.35C171.905 171.946 170.75 170.755 168.442 168.35C169.574 167.291 170.134 166.762 171.221 165.67C173.462 167.854 174.583 168.946 176.835 171.13C177.642 171.913 178.494 172.288 179.402 172.244C180.309 172.2 181.161 171.758 181.945 170.92C182.752 170.071 183.145 169.188 183.133 168.306C183.122 167.413 182.685 166.608 181.833 165.858C179.469 163.806 178.281 162.78 175.916 160.718C176.959 159.56 177.474 158.964 178.472 157.773H178.483Z" fill="#6169BC"/>
<path id="Vector_6" d="M193.589 161.005C192.58 161.644 191.583 161.997 190.619 162.063C189.656 162.13 188.804 161.909 188.075 161.424C189.129 160.1 189.644 159.438 190.653 158.082C191.146 158.336 191.706 158.358 192.323 158.115C192.95 157.872 193.499 157.42 193.981 156.736C194.452 156.074 194.698 155.479 194.732 154.949C194.766 154.42 194.598 154.045 194.239 153.802C193.847 153.549 193.41 153.582 192.905 153.902C192.401 154.222 191.673 154.795 190.776 155.6C189.846 156.427 189.028 157.089 188.344 157.541C187.65 157.994 186.91 158.269 186.114 158.369C185.319 158.468 184.545 158.214 183.783 157.63C183.156 157.144 182.741 156.516 182.528 155.733C182.315 154.949 182.338 154.078 182.584 153.13C182.831 152.181 183.324 151.199 184.041 150.196C185.106 148.707 186.271 147.736 187.594 147.273C188.916 146.81 190.227 146.887 191.505 147.549C190.675 148.85 190.238 149.501 189.375 150.769C188.871 150.505 188.344 150.471 187.807 150.67C187.269 150.869 186.776 151.277 186.316 151.905C185.901 152.49 185.666 153.008 185.632 153.46C185.599 153.913 185.756 154.266 186.103 154.519C186.495 154.806 186.955 154.795 187.47 154.508C187.997 154.222 188.703 153.681 189.566 152.898C190.451 152.093 191.213 151.442 191.863 150.957C192.513 150.471 193.242 150.152 194.037 149.986C194.833 149.821 195.651 149.964 196.447 150.449C197.141 150.869 197.634 151.497 197.892 152.302C198.15 153.108 198.15 154.034 197.892 155.082C197.634 156.13 197.108 157.222 196.312 158.336C195.494 159.483 194.575 160.376 193.567 161.016L193.589 161.005Z" fill="#6169BC"/>
<path id="Vector_7" d="M194.385 139.795C196.817 141.096 198.038 141.747 200.481 143.049C200.907 143.28 201.277 143.324 201.602 143.181C201.927 143.038 202.241 142.685 202.543 142.111C202.913 141.405 203.103 141.052 203.462 140.346C204.549 140.887 205.098 141.163 206.185 141.703C205.681 142.685 205.423 143.17 204.896 144.141C203.137 147.394 200.885 148.21 198.33 146.743C195.943 145.376 194.755 144.681 192.368 143.313C191.987 143.964 191.785 144.284 191.393 144.924C190.373 144.317 189.869 144.008 188.849 143.402C189.23 142.773 189.42 142.464 189.802 141.824C188.58 141.118 187.964 140.766 186.742 140.06C187.527 138.747 187.908 138.085 188.647 136.74C189.891 137.402 190.519 137.732 191.763 138.405C192.435 137.192 192.76 136.574 193.399 135.339C194.463 135.868 194.99 136.133 196.055 136.663C195.405 137.931 195.068 138.56 194.385 139.806V139.795Z" fill="#6169BC"/>
<g id="Vector_8" opacity="0.6" filter="url(#filter0_d_384_1007)">
<path d="M103.378 185.788C151.084 185.788 189.756 147.78 189.756 100.894C189.756 54.0083 151.084 16 103.378 16C55.6728 16 17 54.0083 17 100.894C17 147.78 55.6728 185.788 103.378 185.788Z" fill="#7D3C99"/>
</g>
<path id="Vector_9" d="M136.403 43.0774C135.439 43.1987 134.476 43.2649 133.501 43.2429C133.019 43.2318 132.537 43.1877 132.055 43.1546C131.08 43.0774 132.873 43.309 131.898 43.1326C131.708 43.0995 131.517 43.0664 131.327 43.0333C130.374 42.8458 129.433 42.5921 128.514 42.2833C128.234 42.184 127.965 42.0737 127.696 41.9745C127.965 42.0737 128.189 42.1951 127.785 42.0076C127.303 41.787 126.822 41.5554 126.351 41.3017C125.499 40.8384 124.692 40.309 123.897 39.7465C123.46 39.4377 124.558 40.309 123.863 39.7024C123.684 39.548 123.493 39.3936 123.314 39.2392C122.955 38.9193 122.608 38.5884 122.261 38.2465C121.913 37.9046 121.599 37.5516 121.286 37.1766C121.028 36.8678 120.961 36.7465 121.241 37.1436C121.095 36.945 120.961 36.7575 120.815 36.559C120.244 35.7318 119.739 34.8494 119.313 33.945C118.484 32.1803 115.761 31.5957 114.158 32.6104C112.309 33.7796 111.917 35.798 112.803 37.684C116.814 46.1657 126.922 51.7245 136.381 50.4892C138.33 50.2356 140.247 48.9672 140.146 46.7833C140.067 44.9966 138.476 42.8017 136.381 43.0774H136.403Z" fill="#38332F"/>
<path id="Vector_10" d="M58.463 63.9783C67.8539 62.6216 76.1017 54.5591 77.5698 45.3384C77.7378 44.3237 77.7378 43.4083 77.1887 42.4818C76.7293 41.7097 75.8328 40.9818 74.9363 40.7833C73.1321 40.3752 70.633 41.3237 70.3081 43.3752C70.1512 44.3568 69.9158 45.3274 69.6021 46.2759C69.5236 46.4965 69.4564 46.7061 69.3667 46.9267C69.3107 47.0701 69.2547 47.2135 69.1986 47.3568L69.4004 46.8936C69.1202 47.2465 68.9633 47.8421 68.7504 48.2392C68.2909 49.0885 67.7642 49.8826 67.2039 50.6767C66.7781 51.2833 67.7418 50.026 67.1479 50.7429C67.0022 50.9194 66.8453 51.0958 66.6996 51.2723C66.3634 51.6473 66.0161 52.0113 65.6574 52.3642C65.3213 52.6841 64.9851 53.0039 64.6265 53.3017C64.4472 53.4561 64.2679 53.5995 64.0886 53.7429C63.517 54.2172 64.7722 53.2466 64.0101 53.787C63.2481 54.3275 62.3964 54.8569 61.5335 55.2981C61.3318 55.4084 61.1189 55.5076 60.906 55.6069C60.7939 55.662 59.9086 56.0922 60.5026 55.7944C61.0965 55.4966 60.2112 55.8937 60.0879 55.9378C59.8638 56.015 59.6509 56.0922 59.4267 56.1584C58.463 56.4562 57.4769 56.6768 56.4683 56.8201C55.6054 56.9415 54.6417 57.8128 54.2158 58.5187C53.7452 59.3128 53.5434 60.4819 53.8348 61.3753C54.5296 63.4819 56.3674 64.265 58.463 63.9672V63.9783Z" fill="#38332F"/>
<path id="Vector_11" d="M99.4779 100.883C101.697 97.2873 105.294 94.7395 109.575 93.8351C111.379 93.449 113.923 93.4932 115.738 93.9012C118.226 94.4527 120.154 95.3792 122.26 96.9454C123.885 98.1476 126.474 97.1991 127.415 95.6108C128.547 93.7137 127.695 91.7505 126.059 90.5373C120.837 86.6659 113.923 85.3313 107.558 86.6769C101.484 87.9674 96.1609 91.949 92.9559 97.1329C90.4344 101.225 96.9453 104.953 99.4555 100.872L99.4779 100.883Z" fill="#38332F"/>
<path id="Vector_12" d="M124.072 69.8209C129.073 69.1317 132.524 64.3331 131.78 59.1028C131.036 53.8726 126.379 50.1913 121.377 50.8805C116.376 51.5697 112.924 56.3684 113.668 61.5986C114.412 66.8289 119.07 70.5101 124.072 69.8209Z" fill="#38332F"/>
<path id="Vector_13" d="M78.8905 76.6038C83.892 75.9146 87.3433 71.1159 86.5993 65.8857C85.8553 60.6554 81.1977 56.9742 76.1962 57.6634C71.1947 58.3526 67.7433 63.1512 68.4873 68.3815C69.2313 73.6117 73.889 77.293 78.8905 76.6038Z" fill="#38332F"/>
<path id="Vector_14" d="M98.862 108.537C101.888 100.828 97.1362 91.2101 88.9332 89.1476C87.0281 88.6623 84.7533 89.7653 84.305 91.7395C83.8567 93.7138 84.8989 95.7874 86.9385 96.2947C87.3195 96.394 87.6893 96.5153 88.0591 96.6366C88.653 96.8352 87.3979 96.2947 87.779 96.5263C87.947 96.6256 88.1263 96.6918 88.2944 96.78C88.6082 96.9455 88.8996 97.1219 89.1909 97.3205C89.4599 97.4969 89.7849 97.9271 89.0453 97.1881C89.1573 97.2984 89.2918 97.3866 89.4151 97.4969C89.684 97.7285 89.9306 97.9712 90.1771 98.2249C90.3116 98.3683 90.4348 98.5116 90.5581 98.655C90.9952 99.1403 90.0426 97.9271 90.4461 98.5006C90.8495 99.0741 91.2305 99.6697 91.5443 100.309C91.6115 100.442 91.8468 101.004 91.6003 100.398C91.3538 99.7911 91.6115 100.453 91.6675 100.585C91.7908 100.916 91.8917 101.258 91.9925 101.6C92.0934 101.942 92.1382 102.295 92.2167 102.648C92.3063 103.034 92.1158 101.611 92.183 102.438C92.1942 102.604 92.2166 102.758 92.2279 102.923C92.2503 103.309 92.2503 103.707 92.2279 104.093C92.2279 104.258 92.2054 104.423 92.1942 104.578C92.1494 105.218 92.2503 104.479 92.2391 104.28C92.2727 105.008 91.858 105.934 91.6003 106.585C90.8943 108.394 92.3847 110.732 94.2338 111.14C96.3854 111.626 98.1112 110.49 98.862 108.548V108.537Z" fill="#38332F"/>
<path id="Vector_15" d="M132.223 97.2431C132.111 97.1659 131.809 96.9012 131.685 96.8792C131.809 96.9012 132.324 97.4086 131.932 97.0667C131.641 96.813 131.338 96.5593 131.069 96.2725C130.946 96.1512 130.823 96.0189 130.711 95.8865C130.61 95.7762 130.24 95.2689 130.598 95.7762C130.957 96.2836 130.598 95.7762 130.509 95.6439C130.386 95.4784 130.273 95.3019 130.161 95.1255C129.971 94.8277 129.803 94.5299 129.646 94.2211C129.567 94.0666 129.5 93.9012 129.422 93.7578C129.209 93.3608 129.724 94.585 129.523 93.9784C129.287 93.2835 129.086 92.6107 128.94 91.8938C128.873 91.585 128.962 91.1659 128.962 92.1696C128.962 92.0041 128.929 91.8277 128.917 91.6622C128.895 91.3203 128.884 90.9894 128.884 90.6475C128.884 90.2835 128.985 89.8865 128.951 89.5335C128.974 89.7651 128.783 90.4379 128.917 89.8203C128.951 89.6548 128.985 89.4894 129.018 89.324C129.097 88.9931 129.186 88.6732 129.299 88.3534C129.355 88.199 129.422 88.0445 129.478 87.8791C129.612 87.4489 129.086 88.6732 129.388 88.1217C129.567 87.7909 129.736 87.46 129.937 87.1512C130.027 87.0078 130.128 86.8754 130.229 86.732C130.61 86.1695 129.68 87.3938 130.15 86.8313C131.416 85.3423 131.741 83.0261 130.15 81.5923C128.761 80.3349 126.172 80.004 124.827 81.5923C121.902 85.0335 120.883 89.2688 121.645 93.6696C122.362 97.7726 124.928 101.379 128.447 103.651C130.094 104.721 132.683 104.026 133.602 102.317C134.599 100.464 134.016 98.3792 132.246 97.2431H132.223Z" fill="#38332F"/>
</g>
<defs>
<filter id="filter0_d_384_1007" x="0" y="0" width="212.756" height="209.788" filterUnits="userSpaceOnUse" color-interpolation-filters="sRGB">
<feFlood flood-opacity="0" result="BackgroundImageFix"/>
<feColorMatrix in="SourceAlpha" type="matrix" values="0 0 0 0 0 0 0 0 0 0 0 0 0 0 0 0 0 0 127 0" result="hardAlpha"/>
<feOffset dx="3" dy="4"/>
<feGaussianBlur stdDeviation="10"/>
<feComposite in2="hardAlpha" operator="out"/>
<feColorMatrix type="matrix" values="0 0 0 0 0 0 0 0 0 0 0 0 0 0 0 0 0 0 0.14 0"/>
<feBlend mode="normal" in2="BackgroundImageFix" result="effect1_dropShadow_384_1007"/>
<feBlend mode="normal" in="SourceGraphic" in2="effect1_dropShadow_384_1007" result="shape"/>
</filter>
</defs>
</svg>
