<svg width="200" height="200" viewBox="0 0 200 200" fill="none" xmlns="http://www.w3.org/2000/svg">
<path d="M154.587 177.395C155.31 178.344 155.671 178.83 156.394 179.779C153.827 181.726 152.505 182.65 149.776 184.397C150.798 185.995 151.297 186.794 152.319 188.392C154.512 186.994 155.584 186.257 157.665 184.734C158.35 185.683 158.699 186.157 159.397 187.106C157.254 188.679 156.145 189.428 153.901 190.863C155.584 193.497 156.419 194.807 158.089 197.441C156.568 198.415 155.808 198.877 154.25 199.788C150.536 193.409 148.667 190.214 144.953 183.836C148.979 181.489 150.91 180.191 154.587 177.395Z" fill="#6169BC"/>
<path d="M175.623 174.824C172.296 178.394 170.526 180.091 166.8 183.274C167.56 184.01 168.432 184.372 169.392 184.323C170.364 184.273 171.261 183.861 172.084 183.112C173.28 182.013 173.692 180.778 173.355 179.467C174.676 178.169 175.324 177.507 176.583 176.159C177.281 177.482 177.455 178.98 177.106 180.628C176.745 182.288 175.785 183.861 174.24 185.296C172.981 186.457 171.623 187.231 170.202 187.618C168.769 188.005 167.41 187.98 166.114 187.543C164.831 187.106 163.721 186.295 162.799 185.109C161.864 183.923 161.316 182.662 161.117 181.339C160.917 180.029 161.079 178.756 161.578 177.52C162.076 176.284 162.874 175.173 163.996 174.137C165.067 173.151 166.214 172.452 167.46 172.053C168.706 171.653 169.953 171.591 171.199 171.865C172.458 172.14 173.604 172.764 174.651 173.738C175.037 174.1 175.362 174.449 175.611 174.799L175.623 174.824ZM170.912 176.109C170.227 175.448 169.429 175.173 168.507 175.273C167.585 175.373 166.75 175.772 165.977 176.484C165.242 177.158 164.806 177.919 164.656 178.78C164.507 179.642 164.694 180.503 165.204 181.364C167.56 179.342 168.706 178.294 170.912 176.109Z" fill="#6169BC"/>
<path d="M173.903 169.132C173.467 167.896 173.367 166.673 173.579 165.45C173.791 164.226 174.302 163.116 175.112 162.08C175.81 161.168 176.595 160.507 177.455 160.07C178.328 159.633 179.175 159.383 180.035 159.333C179.349 158.859 179.013 158.609 178.328 158.135C179.225 156.85 179.661 156.188 180.521 154.865C185.444 158.035 187.911 159.621 192.834 162.791C191.862 164.314 191.363 165.063 190.329 166.536C189.631 166.049 189.282 165.799 188.572 165.312C188.809 166.174 188.821 167.147 188.597 168.221C188.36 169.294 187.849 170.368 187.039 171.416C186.129 172.589 185.02 173.451 183.749 173.975C182.478 174.499 181.181 174.636 179.86 174.387C178.539 174.137 177.331 173.501 176.209 172.502C175.112 171.516 174.352 170.393 173.916 169.144L173.903 169.132ZM182.091 161.48C181.343 161.43 180.633 161.568 179.973 161.892C179.312 162.217 178.751 162.666 178.303 163.265C177.854 163.852 177.567 164.501 177.43 165.212C177.293 165.911 177.355 166.623 177.592 167.347C177.841 168.071 178.29 168.707 178.976 169.269C179.649 169.831 180.371 170.168 181.157 170.268C181.929 170.368 182.677 170.255 183.375 169.931C184.085 169.606 184.671 169.132 185.157 168.508C185.643 167.859 185.955 167.147 186.092 166.386C186.229 165.612 186.154 164.875 185.855 164.176C185.568 163.477 185.045 162.866 184.31 162.354C183.574 161.842 182.827 161.555 182.079 161.505L182.091 161.48Z" fill="#6169BC"/>
<path d="M185.743 146.639C185.718 145.716 185.942 144.779 186.391 143.831C187.787 144.505 188.497 144.842 189.893 145.503C189.706 145.89 189.619 146.09 189.419 146.477C188.859 147.625 188.659 148.611 188.834 149.435C189.008 150.271 189.694 151.008 190.89 151.657C193.457 153.042 194.741 153.729 197.308 155.114C196.461 156.7 196.012 157.486 195.102 159.034C190.055 156.051 187.538 154.565 182.49 151.595C183.288 150.246 183.674 149.56 184.409 148.174C185.207 148.611 185.606 148.824 186.416 149.248C185.98 148.424 185.755 147.55 185.731 146.627L185.743 146.639Z" fill="#6169BC"/>
<path opacity="0.6" d="M149.692 172.212C192.266 141.842 202.161 82.6051 171.795 39.9028C141.428 -2.7994 82.2974 -12.7964 39.7233 17.5738C-2.85069 47.9441 -12.7466 107.181 17.6203 149.883C47.9872 192.585 107.117 202.583 149.692 172.212Z" fill="#5BC491"/>
<path d="M132.341 55.8976C137.937 54.8538 141.575 49.1784 140.468 43.2213C139.36 37.2642 133.926 33.2812 128.33 34.3251C122.734 35.3689 119.095 41.0443 120.203 47.0013C121.311 52.9584 126.745 56.9414 132.341 55.8976Z" fill="#38332F"/>
<path d="M77.0129 61.6536C82.6089 60.6098 86.2473 54.9344 85.1396 48.9774C84.0318 43.0203 78.5974 39.0373 73.0015 40.0811C67.4056 41.1249 63.7671 46.8003 64.8749 52.7574C65.9826 58.7145 71.417 62.6975 77.0129 61.6536Z" fill="#38332F"/>
<path d="M145.564 45.9964C145.601 45.6968 145.526 46.271 145.514 46.3209C145.476 46.5331 145.439 46.7328 145.389 46.945C145.302 47.3569 145.202 47.7688 145.078 48.1682C144.953 48.5677 144.828 48.9796 144.666 49.3665C144.666 49.354 144.442 49.9157 144.542 49.6911C144.454 49.8908 144.367 50.078 144.28 50.2652C143.545 51.8005 142.66 53.0987 141.625 54.2345C139.395 56.681 136.728 58.2912 133.525 59.0276C132.503 59.2648 131.905 60.4381 132.179 61.4117C132.465 62.4602 133.537 62.9969 134.559 62.7598C142.473 60.9499 148.43 53.9724 149.427 45.9964C149.552 44.9604 148.442 44.0616 147.495 44.0616C146.349 44.0616 145.688 44.9604 145.564 45.9964Z" fill="#38332F"/>
<path d="M56.7051 53.8102C58.4249 61.7487 65.3417 67.7776 73.2928 68.8386C74.3272 68.9759 75.2245 67.8525 75.2245 66.9038C75.2245 65.743 74.3272 65.1064 73.2928 64.9691C73.5919 65.0066 73.0311 64.9192 72.9813 64.9067C72.7819 64.8693 72.57 64.8318 72.3706 64.7819C71.9593 64.6945 71.5605 64.5822 71.1617 64.4574C70.2893 64.1952 69.8407 64.0205 69.1054 63.6585C68.3701 63.2965 67.6348 62.8721 66.9369 62.3978C66.5879 62.1607 66.3387 61.9859 66.1517 61.8236C65.8028 61.5365 65.4538 61.237 65.1298 60.9374C62.7245 58.6782 61.1418 56.007 60.4439 52.7741C60.2195 51.7506 59.0356 51.1515 58.0635 51.4261C57.0042 51.7132 56.4932 52.7866 56.7175 53.8102H56.7051Z" fill="#38332F"/>
<path d="M157.565 117.519C152.231 110.117 146.959 102.677 141.563 95.3129C140.105 93.3283 138.335 91.5683 135.643 91.9678C132.951 92.3672 131.692 94.6639 130.322 96.7359C127.804 100.543 125.299 104.337 122.782 108.144H129.462C126.757 104.525 123.779 101.155 120.351 98.1963C118.482 96.5736 116.476 94.7013 114.133 93.8151C111.54 92.829 108.799 93.4531 106.917 95.5127C105.297 97.2851 104.113 99.5693 102.817 101.579C101.52 103.589 100.1 105.76 98.7538 107.857C95.9248 112.214 93.1082 116.582 90.2792 120.939L96.3485 120.152C90.2293 113.387 83.7986 106.921 77.0813 100.755C75.1247 98.9702 72.4826 99.457 71.012 101.541C66.002 108.656 60.6057 115.471 54.8355 121.987C53.4522 123.547 53.3026 125.919 54.8355 127.467C56.2438 128.877 58.9108 129.039 60.3066 127.467C66.513 120.464 72.3081 113.1 77.692 105.448L71.6227 106.235C78.34 112.401 84.7707 118.879 90.8899 125.632C92.6346 127.567 95.6755 126.843 96.9592 124.845C101.595 117.693 106.219 110.541 110.855 103.389C111.378 102.578 112.002 101.779 112.463 100.917L112.4 100.98C112.812 100.605 112.812 100.555 112.4 100.83C112.188 100.842 111.665 101.117 111.653 101.155C111.653 101.304 113.185 102.253 113.472 102.478C114.17 103.039 114.843 103.614 115.504 104.2C118.171 106.572 120.663 109.193 122.807 112.051C124.564 114.41 127.767 114.648 129.487 112.051C131.493 109.006 133.512 105.973 135.518 102.927C136.017 102.166 136.528 101.404 137.026 100.643C137.276 100.268 137.724 99.8065 137.861 99.3696L138.198 98.8578L134.821 99.1075C134.683 98.8703 134.721 98.9078 134.92 99.2073L135.282 99.7066L136.179 100.955L137.799 103.202C142.174 109.268 146.548 115.347 150.922 121.413C152.144 123.11 154.287 123.934 156.206 122.798C157.876 121.825 158.824 119.204 157.59 117.506L157.565 117.519Z" fill="#38332F"/>
</svg>
