<svg width="150" height="150" viewBox="0 0 150 150" fill="none" xmlns="http://www.w3.org/2000/svg">
<g id="Group 105">
<path id="Vector" d="M69.8814 143.94C108.476 146.787 142.054 118.027 144.881 79.702C147.708 41.3774 118.713 8.00141 80.1185 5.1546C41.5241 2.3078 7.9454 31.0682 5.1185 69.3928C2.2916 107.717 31.2869 141.093 69.8814 143.94Z" fill="#CCDDE2" stroke="#CCDDE2" stroke-miterlimit="10"/>
<path id="Vector_2" d="M47.5994 53.7737L47.1415 53.9803C46.2931 54.3382 45.5571 54.8847 45.0011 55.5646C44.3237 56.1755 43.8261 56.9198 43.5757 57.7424C43.1951 58.6154 43.129 59.5117 43.2516 60.4219C43.1855 61.3182 43.4383 62.1779 43.8841 62.9918L44.9149 64.4495C45.7337 65.351 46.7588 66.0274 47.9318 66.4143L49.801 66.7925C51.0589 66.8853 52.2759 66.6747 53.4521 66.1607L53.91 65.9541C54.7585 65.5962 55.4944 65.0497 56.0504 64.3698C56.7279 63.7589 57.2254 63.0146 57.4758 62.192C57.8564 61.3189 57.9225 60.4227 57.7999 59.5125C57.8661 58.6162 57.6133 57.7565 57.1674 56.9426L56.1367 55.4848C55.3179 54.5834 54.2927 53.907 53.1198 53.5201L51.2506 53.1419C49.9927 53.0491 48.7756 53.2597 47.5994 53.7737Z" fill="#6169BC"/>
<path id="Vector_3" d="M88.2585 48.0105C97.3806 48.6833 98.3899 35.0003 89.2678 34.3274C80.1458 33.6545 79.1365 47.3376 88.2585 48.0105Z" fill="#6169BC"/>
<path id="Vector_4" d="M60.3226 99.5543C65.1513 103.447 71.7583 103.872 77.643 104.182C83.5277 104.492 90.4967 104.138 95.8671 100.687C106.352 93.9536 112.774 82.0192 114.174 69.6522C114.563 66.0206 111.487 62.3194 107.899 62.2409C104.069 62.1445 101.013 64.7729 100.605 68.6514C100.564 69.2068 100.523 69.7621 100.357 70.3702C100.325 70.8021 100.061 71.8994 100.32 70.8639C100.057 71.9611 99.793 73.0584 99.4082 74.1468C99.0234 75.2351 98.6432 76.2618 98.1978 77.3457C98.1887 77.4691 97.4041 79.0242 97.757 78.3678C98.1099 77.7114 97.2647 79.2622 97.195 79.3811C96.0757 81.3459 94.7791 83.2355 93.3145 84.9267C93.9143 84.2264 93.1192 85.0984 92.9192 85.3318C92.5239 85.7369 92.1286 86.1421 91.7333 86.5472C90.8822 87.353 90.031 88.1588 89.0117 88.766C89.6493 88.3788 89.0117 88.766 88.6998 88.8671C88.0667 89.1926 87.4988 89.461 86.8098 89.7203C87.4988 89.461 86.8703 89.7248 86.5069 89.698C85.8269 89.834 85.147 89.9699 84.467 90.1059C84.0339 90.198 83.5448 90.224 83.1162 90.2544C84.3459 90.097 82.2591 90.3152 82.1379 90.3063C81.1036 90.2921 80.0088 90.2734 78.9745 90.2591C76.7333 90.0938 74.4315 89.924 72.1948 89.697C71.6497 89.6568 71.1045 89.6165 70.5685 89.4529C71.524 89.7095 70.5685 89.4529 70.1581 89.2365C69.7432 89.0819 68.7968 88.7018 69.6735 89.2008C69.086 88.9093 68.5682 88.4989 68.0503 88.0884C65.2324 85.8332 60.4076 86.8423 58.54 89.8686C56.4634 93.2517 57.2715 97.1578 60.262 99.5498L60.3226 99.5543Z" fill="#6169BC"/>
</g>
</svg>
