<svg width="172" height="135" viewBox="0 0 172 135" fill="none" xmlns="http://www.w3.org/2000/svg">
<g id="handsicon 1" clip-path="url(#clip0_644_538)">
<g id="Layer_1-2">
<path id="Vector" d="M26.2795 122.02C26.2795 122.02 26.3256 122.02 26.3532 122.02L26.7489 122.08C29.464 108.38 32.179 94.69 34.8941 80.99C35.1794 79.57 35.5015 78.06 36.4495 77.03C37.4159 75.99 38.8424 75.66 40.1769 75.37C50.172 73.24 60.2131 71.11 70.3831 70.51C74.2026 70.28 78.0865 70.27 81.7587 69.11C85.3297 67.98 88.6062 65.77 91.1188 62.8C92.5729 61.08 93.8246 58.83 93.392 56.55C92.7478 53.17 88.9651 51.86 85.7991 51.53C80.4058 50.97 74.9205 51.42 69.656 52.83C81.6759 42.32 98.5184 42.24 113.226 37.16C115.149 36.5 117.1 35.7 118.536 34.17C119.972 32.64 120.754 30.17 119.889 28.2C119.411 27.1 117.625 26.42 117.929 25.25C118.674 22.46 116.962 19.56 114.928 18.03C113.686 17.09 111.864 17.16 110.897 15.9C110.474 15.34 110.29 14.62 109.977 13.98C109.25 12.49 107.832 11.56 106.452 10.8C97.7361 6.03 87.4649 5.3 77.884 7.28C68.3031 9.26 59.302 13.81 50.8715 19.15C36.3483 28.35 23.0767 40.17 13.0448 54.83C8.82956 60.98 5.22176 67.66 2.36865 74.68C11.1028 90.03 19.3216 105.7 26.2795 122.05V122.02Z" fill="#F4BFA8"/>
<path id="Vector_2" d="M26.2796 124.27C25.7182 124.34 25.8931 124.2 26.1876 124.24C27.246 124.41 28.4793 123.97 28.737 122.67C30.7802 112.36 32.8234 102.04 34.8666 91.73C35.382 89.15 35.8882 86.57 36.4036 84C36.7349 82.34 36.7993 79.29 38.2903 78.31C38.9622 77.87 39.7997 77.74 40.5544 77.57C41.7877 77.3 43.0209 77.05 44.2542 76.79C46.5367 76.31 48.8192 75.84 51.1109 75.4C55.7955 74.49 60.4985 73.7 65.2292 73.19C69.9598 72.68 74.58 72.78 79.2002 72.01C83.3418 71.32 87.1613 69.47 90.4102 66.6C93.4381 63.92 96.7422 59.56 95.1224 55.05C93.5026 50.54 88.7903 49.52 84.9156 49.2C79.6144 48.76 74.2579 49.3 69.0947 50.67L71.1103 54.43C77.3779 49.01 85.2561 46.53 92.9411 44.64C97.0275 43.64 101.151 42.79 105.246 41.79C109.342 40.79 113.419 39.88 117.101 37.94C120.782 36 124.178 30.83 121.399 26.61C121.288 26.44 119.852 24.67 119.705 24.76C120.027 24.56 119.493 26.67 120.009 25.46C120.092 25.26 120.129 24.59 120.138 24.48C120.193 23.83 120.138 23.2 120.046 22.55C119.714 20.36 118.481 18.29 116.935 16.87C116.153 16.15 115.352 15.64 114.385 15.26C113.824 15.04 112.922 14.94 112.49 14.45C112.204 14.13 112.085 13.54 111.91 13.14C111.68 12.62 111.394 12.16 111.054 11.71C110.345 10.76 109.416 10.01 108.449 9.39C104.694 6.99999 100.286 5.53999 96.0151 4.74999C77.5528 1.34999 59.7346 10.13 44.5211 20.7C29.3076 31.27 16.3306 44.26 6.9245 60.56C5.70962 62.67 4.55918 64.82 3.49156 67.01C2.97616 68.07 2.46996 69.15 1.98217 70.23C1.43916 71.44 0.702877 72.75 0.371548 74.04C0.0218118 75.41 1.10783 76.71 1.72447 77.79C2.36872 78.94 3.01297 80.08 3.65723 81.24C4.93652 83.54 6.20662 85.85 7.4583 88.17C12.3914 97.3 17.0852 106.58 21.3833 116.09C22.4417 118.43 23.4725 120.78 24.4849 123.15C24.9543 124.25 26.4177 124.53 27.3196 123.96C28.3596 123.3 28.5345 121.99 28.0651 120.88C21.0888 104.52 12.87 88.84 4.15422 73.51V75.78C9.92486 61.67 18.613 49.35 29.1235 39.01C39.634 28.67 51.3502 20.28 64.0419 14.31C76.7336 8.33999 92.1312 5.64999 105.053 12.52C106.36 13.22 107.685 13.93 108.348 15.41C109.13 17.17 109.977 18.29 111.698 19.01C112.968 19.54 113.981 19.81 114.901 20.98C115.821 22.15 116.143 23.36 115.904 24.87C115.61 26.74 116.696 27.72 117.782 28.91C118.527 29.72 118.113 31.13 117.505 32.03C116.659 33.29 115.251 34 113.935 34.52C112.379 35.14 110.768 35.63 109.167 36.1C96.7882 39.72 83.2866 40.66 72.1503 48.17C70.7697 49.1 69.472 50.14 68.2019 51.23C66.4809 52.72 68.3768 55.48 70.2175 54.99C74.534 53.85 78.9517 53.37 83.397 53.59C85.6519 53.7 90.1432 53.75 91.2477 56.52C91.9103 58.18 90.631 60.03 89.6647 61.19C88.4406 62.65 87.0416 63.89 85.477 64.9C81.9613 67.18 78.0313 67.81 74.0002 68.06C69.5732 68.33 65.1739 68.62 60.7746 69.24C56.3753 69.86 51.6631 70.71 47.1349 71.63C44.9261 72.08 42.7172 72.55 40.5084 73.01C38.64 73.41 36.7257 73.79 35.2347 75.19C33.6425 76.69 33.1731 78.97 32.7497 81.11C32.2712 83.53 31.7926 85.94 31.314 88.36C29.1235 99.4 26.9423 110.44 24.7518 121.48L27.3012 119.91C26.9883 119.86 26.6017 119.73 26.2888 119.78C25.1752 119.93 24.218 120.71 24.218 122.03C24.218 123.13 25.1752 124.43 26.2888 124.28L26.2796 124.27Z" fill="black"/>
<path id="Vector_3" d="M63.0205 29.09C71.1104 25.01 79.6422 21.96 88.3764 19.98C95.7852 18.3 103.489 17.18 110.953 19.23C113.539 19.94 114.643 15.6 112.057 14.89C106.066 13.25 99.798 13.39 93.7328 14.38C86.5448 15.56 79.4673 17.46 72.6014 20.05C68.6347 21.55 64.7416 23.28 60.9313 25.2C59.9189 25.71 59.6612 27.3 60.1858 28.28C60.7932 29.41 61.9989 29.6 63.0205 29.09Z" fill="black"/>
<path id="Vector_4" d="M69.205 41.8C80.24 33.78 93.2907 29.27 106.571 28.93C110.317 28.83 114.082 29.04 117.781 29.62C118.886 29.79 120.009 29.32 120.331 28.05C120.598 26.99 120 25.46 118.886 25.28C104.85 23.1 90.5296 25.31 77.5894 31.61C73.9356 33.39 70.4382 35.51 67.1157 37.92C64.9161 39.52 66.9869 43.42 69.205 41.81V41.8Z" fill="black"/>
<path id="Vector_5" d="M135.333 2.27999C135.333 2.27999 135.287 2.29999 135.268 2.30999L134.873 2.34999C135.314 16.35 135.756 30.36 136.198 44.36C136.244 45.82 136.272 47.36 135.572 48.61C134.863 49.88 133.566 50.58 132.323 51.21C123.101 55.92 113.852 60.65 104.124 63.93C100.47 65.16 96.7055 66.21 93.4014 68.31C90.1893 70.35 87.5111 73.36 85.744 76.91C84.7224 78.96 84.0045 81.48 84.9433 83.58C86.333 86.69 90.2906 86.95 93.4382 86.43C98.7947 85.54 104.013 83.66 108.799 80.89C99.5033 94.27 83.1854 98.81 70.0703 107.64C68.3584 108.79 66.6374 110.08 65.5882 111.95C64.5389 113.82 64.3365 116.41 65.6158 118.1C66.3244 119.04 68.2112 119.23 68.1744 120.44C68.0823 123.34 70.3832 125.7 72.7025 126.65C74.1199 127.23 75.8685 126.68 77.0926 127.65C77.6356 128.08 77.967 128.73 78.4179 129.27C79.4579 130.52 81.041 131.05 82.5503 131.41C92.076 133.72 102.2 131.71 111.045 127.25C119.889 122.79 127.593 116 134.569 108.58C146.589 95.8 156.805 80.82 163.247 63.95C165.953 56.87 167.95 49.44 169.147 41.87C157.228 29.3 145.742 16.28 135.324 2.26999L135.333 2.27999Z" fill="#F4BFA8"/>
<path id="Vector_6" d="M134.78 0.109997C135.324 -0.120003 135.158 0.0699965 134.873 0.109997C133.787 0.229997 132.756 1.04 132.802 2.36C133.142 13.07 133.483 23.78 133.814 34.48C133.897 37.12 133.98 39.75 134.063 42.39C134.118 44.13 134.698 46.89 133.225 48.13C131.614 49.49 129.36 50.26 127.528 51.19C125.42 52.26 123.304 53.32 121.178 54.36C116.889 56.45 112.563 58.41 108.136 60.12C103.709 61.83 99.448 62.88 95.2971 64.8C91.1463 66.72 88.0079 69.46 85.4585 73.22C83.038 76.79 80.9672 82.05 83.9399 85.97C86.6366 89.52 91.5053 89.1 95.2235 88.38C100.332 87.38 105.255 85.46 109.848 82.83L107.013 79.75C97.3495 93.5 80.5806 97.16 67.9073 106.47C64.3731 109.06 61.1059 113.7 63.3883 118.48C63.8117 119.37 64.4376 120.08 65.2291 120.6C65.5052 120.78 65.8365 121 66.1402 121.11C66.3243 121.18 66.3979 121.25 66.3979 121.25C66.3979 121.25 66.0482 119.71 66.1218 120.98C66.2507 123.16 67.263 125.19 68.7724 126.63C70.4291 128.21 72.2606 129.05 74.4418 129.23C75.4082 129.31 75.804 129.31 76.4298 130.16C77.0557 131.01 77.838 131.83 78.7767 132.37C80.7371 133.49 83.0196 133.88 85.1916 134.2C87.5201 134.55 89.8578 134.7 92.2047 134.61C111.008 133.91 126.681 120.84 139.207 106.71C151.66 92.68 161.968 76.09 167.665 57.51C168.438 54.98 169.128 52.42 169.717 49.83C169.993 48.61 170.251 47.39 170.49 46.16C170.748 44.81 171.217 43.25 171.217 41.87C171.217 40.49 169.892 39.52 169.055 38.64C168.18 37.71 167.306 36.77 166.432 35.84C164.683 33.97 162.953 32.08 161.232 30.18C154.403 22.65 147.776 14.9 141.481 6.84C139.898 4.81 138.333 2.76 136.796 0.689997C136.087 -0.260003 134.596 -0.110003 133.869 0.689997C133.013 1.62 133.161 2.92 133.869 3.87C144.306 17.88 155.801 30.92 167.692 43.47L167.159 41.28C164.646 56.98 158.701 71.64 150.454 84.76C146.543 90.98 142.134 96.82 137.376 102.3C132.618 107.78 127.28 113.31 121.518 117.87C115.738 122.44 109.397 126.23 102.494 128.33C99.0798 129.37 95.5733 130.01 92.0207 130.13C88.4681 130.25 84.8143 130.06 81.547 128.8C79.9824 128.2 79.467 126.67 78.1509 125.73C76.7243 124.7 75.1505 125.07 73.6043 124.62C72.4447 124.28 71.285 123.29 70.6776 122.17C69.9505 120.83 70.4475 119.29 69.3339 118.09C68.5608 117.26 67.2815 117.13 66.9409 116.11C66.4899 114.77 67.1526 113.25 67.9717 112.26C69.9965 109.8 73.1533 108.23 75.7948 106.69C86.5998 100.38 98.7945 95.83 107.501 86.03C108.615 84.78 109.627 83.44 110.603 82.05C111.956 80.13 109.425 78.02 107.768 78.97C103.976 81.14 99.9542 82.73 95.7665 83.71C94.0363 84.12 92.2968 84.48 90.5205 84.41C89.3424 84.36 87.833 84.14 87.0599 83.05C86.112 81.73 86.7654 79.75 87.3729 78.44C88.2196 76.62 89.3332 74.97 90.6493 73.52C93.5117 70.37 97.1287 68.68 100.957 67.37C105.117 65.95 109.259 64.55 113.336 62.83C117.413 61.11 121.739 59.05 125.871 57C127.924 55.98 129.967 54.94 132.01 53.9C133.75 53.01 135.627 52.21 136.87 50.55C138.186 48.79 138.351 46.59 138.287 44.4C138.213 41.85 138.121 39.29 138.048 36.74C137.689 25.29 137.321 13.84 136.962 2.39L134.891 4.64C135.213 4.6 135.6 4.61 135.903 4.49C136.943 4.05 137.67 2.98 137.348 1.72C137.072 0.639997 135.848 -0.290003 134.799 0.149997L134.78 0.109997Z" fill="black"/>
<path id="Vector_7" d="M120.552 102.16C115.241 106.84 109.535 110.99 103.553 114.58C97.9756 117.93 92.0116 121.26 85.8084 122.95C82.6884 123.8 79.4672 124.41 76.2459 124.41C73.5769 124.41 73.5769 128.91 76.2459 128.91C82.5964 128.91 88.7628 127 94.5518 124.33C101.132 121.3 107.464 117.62 113.438 113.35C116.907 110.87 120.257 108.18 123.479 105.34C124.344 104.57 124.215 102.95 123.479 102.16C122.623 101.23 121.426 101.39 120.552 102.16Z" fill="black"/>
<path id="Vector_8" d="M111.707 91.48C102.798 102.2 91.1279 110.02 78.3073 113.87C74.6995 114.95 71.0181 115.73 67.2998 116.16C66.1862 116.29 65.229 117.1 65.229 118.41C65.229 119.53 66.177 120.79 67.2998 120.66C81.3997 119.05 94.7909 113.08 105.918 103.53C109.047 100.84 111.956 97.87 114.634 94.66C116.419 92.52 113.493 89.32 111.707 91.48Z" fill="black"/>
</g>
</g>
<defs>
<clipPath id="clip0_644_538">
<rect width="170.92" height="134.64" fill="white" transform="translate(0.307129)"/>
</clipPath>
</defs>
</svg>
