<svg width="257" height="126" viewBox="0 0 257 126" fill="none" xmlns="http://www.w3.org/2000/svg">
<path d="M131.35 56.21C131.46 56.19 131.57 56.17 131.68 56.15C134.51 55.65 142.51 54.46 144.47 54.36C147.02 54.23 155.94 53.17 157.99 52.77C159.48 52.48 165.25 52.08 166.8 51.98C167.79 51.91 169.15 52.11 168.54 53.53C167.93 54.95 165.32 55.16 164.13 55.64C162.27 56.39 160.3 56.63 158.34 57.03C155.99 57.5 153.56 57.95 151.17 58.17C149.14 58.35 147.31 58.88 145.32 59.2C120.61 63.16 120.84 65.15 120.63 66.35C120.02 69.85 127.72 67.85 129.58 67.88C133.99 67.94 146.43 65.9 148.45 65.73C149.62 65.63 153.91 65.08 154.97 64.92C157.4 64.54 166.27 63.33 167.57 63.3C168.56 63.27 170.12 62.71 170.96 63.51C173.2 65.62 159.53 68.07 157.61 68.68C156.61 68.99 152.53 69.61 151.29 69.99C148.47 70.86 145.41 71.27 142.99 73.07C142.4 73.51 141.05 74.4 141.43 75.37C141.96 76.73 145.96 76.07 146.91 75.95C148.6 75.73 150.31 75.76 152.01 75.56C154.3 75.29 156.53 74.67 158.83 74.42C160.85 74.2 162.8 73.59 164.83 73.43C167.43 73.23 170.14 72.53 172.67 71.89C174.59 71.41 176.65 71.27 178.53 70.65C182.37 69.39 192.57 67.38 195.82 66.56C200.32 65.43 204.69 63.81 209.17 62.61C213.42 61.48 222.28 57.18 223.22 56.72C224.54 56.08 230.3 53.38 235.3 46.99C236.6 45.33 237.73 41.86 239.69 40.85C241.95 39.68 251.61 37.31 252.85 34.71C253.3 33.77 254.65 23.36 255.48 18.92C255.69 17.82 257.23 5.27 256.36 4.88C254.78 4.18 247.59 5.76 244.08 6.63C241.28 7.33 234.93 9.51 232.31 9.87C231.07 10.04 226.16 11.08 224.96 10.67C221.48 9.49 211.21 6.17 209.51 5.93C207.81 5.69 206.07 5.41 204.28 5.33C200.65 5.17 179.62 3.14 177.51 2.73C174.84 2.21 160.25 0.449998 158.53 0.309998C156.43 0.149998 149.67 1.82 151.63 4.52C153.3 6.81 155.65 8.85 158.08 10.3C159.63 11.23 161.24 12.31 162.92 12.97C164.8 13.71 166.74 14.32 168.63 15.02C170.41 15.68 177.27 17.25 179.17 17.94C180.11 18.28 181.25 18.52 182.13 18.99C184.57 20.31 181.88 21.75 180.34 22.34C178.18 23.17 175.9 23.58 173.7 24.27C170.73 25.2 163.57 26.71 161.93 26.97C160.68 27.17 159.45 27.63 158.21 27.92C156.47 28.33 154.71 28.68 153.02 29.26C151.08 29.94 149.15 30.09 147.2 30.64C145.75 31.04 140.74 32.23 139.45 32.51C136.58 33.14 126.35 35.05 124.01 35.52C120.51 36.22 117.6 38.44 116.8 39.24C116 40.04 115.37 40.15 115.34 41.38C115.28 43.56 117.24 43.79 119.03 43.95C124.54 44.45 130.36 44.07 135.8 43.04C141.27 42.01 148.6 41.11 151.97 40.69C154.24 40.41 156.85 39.72 159.12 39.44C160.41 39.28 162.79 38.97 163.86 39.9C162.83 40.74 161 41.43 159.75 41.82C157.6 42.48 155.38 43.07 153.2 43.63C151.02 44.19 136.65 46.65 133.62 46.87C131.7 47.01 129.89 47.33 127.99 47.53C124.93 47.85 121.74 48.44 118.75 49.13C117.55 49.41 113.03 50.68 111.86 51.11C110.5 51.61 107.89 53.8 108.39 55.39C109.04 57.48 111.3 57.68 113.15 57.77C117.26 57.96 121.71 58.01 125.75 57.17C127.62 56.78 129.5 56.56 131.38 56.24L131.35 56.21Z" fill="url(#paint0_linear_406_1181)"/>
<path d="M215.17 35.01C209.75 35.79 204.25 34.18 199.68 31.27C197.49 29.88 195.55 28.34 193.87 26.35C192.19 24.36 190.43 21.92 190 19.27C189.93 18.85 189.3 19.03 189.37 19.44C189.79 22.03 191.39 24.32 193.01 26.32C194.82 28.57 196.93 30.29 199.36 31.83C204.11 34.86 209.75 36.45 215.36 35.64C215.78 35.58 215.6 34.95 215.19 35.01H215.17Z" fill="black"/>
<path d="M130.84 62.12L131.3 61.85C133.94 60.32 136.95 57.11 134.99 54.78C133.85 53.43 131.76 53.55 130.03 53.9C112.35 57.44 99.09 73.37 81.37 76.7C93.42 69.14 104.44 59.55 116.49 51.99C117.61 51.29 118.86 50.38 118.93 49.05C119.06 46.64 115.6 46.04 113.23 46.5C93.3 50.34 77.16 65.5 57.44 70.31C55.26 70.84 52.03 70.49 51.99 68.25C51.97 67.36 52.55 66.59 53.09 65.89C57.66 59.95 61.83 53.69 65.54 47.18C66.64 45.25 67.73 42.92 66.81 40.89C65.92 38.93 63.4 38.16 61.29 38.6C59.18 39.04 57.4 40.4 55.73 41.75C46.14 49.47 37.31 58.07 28.49 66.65C25.17 69.89 21.79 73.19 19.53 77.24C18 79.98 17.02 82.99 15.43 85.69C10.81 93.51 1.22004 98.46 0.290039 107.87C6.72004 113.04 13.15 118.22 19.58 123.39C20.79 124.37 22.18 125.4 23.73 125.25C24.93 125.14 25.93 124.34 27 123.79C32.77 120.83 41.99 121.92 48.48 122.05C52.84 122.14 63.06 119.31 68.38 117.81C76.56 115.5 81.14 113.58 86.92 110.75C91.52 108.5 94.51 106.43 100.19 102.82C106.24 98.98 112.08 96.41 118.28 92.8C118.31 90.1 115.58 88.92 113 89.72C104.55 92.32 98.7 97.29 90.25 99.9C103.8 88.94 132.86 76.54 132.13 72.16C130.04 70.13 126.6 71.13 123.91 72.25C111.27 77.53 98.62 82.8 85.98 88.08C100.94 79.42 115.9 70.77 130.85 62.11L130.84 62.12Z" fill="url(#paint1_linear_406_1181)"/>
<path d="M131.44 56.53C140.44 54.96 149.53 54.33 158.56 53.02C161.02 52.66 163.54 52.54 166.02 52.37C166.45 52.34 166.9 52.28 167.33 52.31C168.85 52.43 168.27 53.76 167.26 54.29C166.04 54.92 164.51 55.21 163.2 55.64C159.07 56.98 154.54 57.37 150.26 57.95C148.33 58.21 146.44 58.69 144.51 59C142.58 59.31 140.69 59.63 138.79 59.97C134.08 60.81 129.27 61.64 124.71 63.14C123.41 63.57 121.52 64.08 120.68 65.29C119.89 66.42 120.31 67.98 121.63 68.47C123.46 69.14 125.73 68.67 127.6 68.42C129.47 68.17 131.28 68.19 133.13 68.02C137.97 67.58 142.76 66.78 147.57 66.16C151.52 65.66 155.46 65.15 159.41 64.61C161.84 64.28 164.28 63.93 166.72 63.69C167.63 63.6 168.59 63.41 169.49 63.41C170.84 63.41 171.24 63.98 170.25 64.64C168.68 65.68 166.57 66.12 164.78 66.6C162.8 67.12 160.81 67.56 158.82 68.02C154.16 69.11 149.13 69.65 144.75 71.65C143.68 72.14 139.47 74.44 141.58 76.03C143.11 77.18 145.87 76.35 147.6 76.18C149.56 75.99 151.51 75.98 153.46 75.65C155.51 75.31 157.54 74.92 159.6 74.62C161.81 74.3 163.99 73.88 166.2 73.59C168.11 73.33 169.98 72.88 171.84 72.42C173.86 71.92 175.94 71.7 177.94 71.15C179.1 70.84 180.23 70.46 181.39 70.17C184.15 69.47 186.94 68.86 189.72 68.25C192.09 67.73 194.47 67.25 196.81 66.63C200.99 65.52 205.07 64.08 209.23 62.92C213.87 61.62 218.33 59.42 222.66 57.33C226.64 55.42 230.25 52.96 233.31 49.75C234.44 48.57 235.54 47.33 236.35 45.91C237.16 44.49 237.77 43.01 238.87 41.87C240.31 40.38 242.99 39.93 244.89 39.27C247.15 38.48 249.58 37.7 251.59 36.35C252.86 35.5 253.23 34.69 253.49 33.25C254.37 28.48 255 23.66 255.79 18.87C256.4 15.16 256.77 11.33 256.9 7.56999C256.93 6.79999 257.23 5.02999 256.41 4.53999C255.78 4.15999 254.58 4.34999 253.91 4.40999C252.6 4.51999 251.3 4.72999 250 4.96999C244.57 5.96999 239.43 7.80999 234.09 9.13999C231.88 9.68999 229.54 10.07 227.28 10.32C226.3 10.43 225.43 10.48 224.49 10.16C223.43 9.79999 222.37 9.45999 221.3 9.10999C216.8 7.64999 212.28 5.94999 207.58 5.30999C203.44 4.74999 199.21 4.60999 195.05 4.22999C187.57 3.53999 180.15 2.66999 172.71 1.67999C168.3 1.08999 163.89 0.529995 159.46 0.0599947C157.86 -0.110005 156.34 0.0599947 154.79 0.529995C153.45 0.929995 151.02 1.73999 150.92 3.45999C150.86 4.50999 151.9 5.47 152.53 6.16999C153.66 7.43999 154.96 8.56999 156.34 9.55999C157.95 10.71 159.71 11.78 161.48 12.68C163.25 13.58 165.14 14.13 166.98 14.78C169.36 15.61 171.76 16.26 174.2 16.89C175.43 17.21 176.67 17.52 177.89 17.88C179.21 18.26 180.75 18.59 181.94 19.26C184.35 20.62 179.91 22.15 178.92 22.46C177.06 23.05 175.14 23.48 173.27 24.04C170.66 24.82 167.99 25.39 165.33 25.95C162.67 26.51 159.93 27.17 157.22 27.79C155.31 28.23 153.46 28.85 151.56 29.33C149.87 29.76 148.15 30.04 146.46 30.47C142.04 31.62 137.57 32.55 133.09 33.41C128.18 34.36 122.61 34.73 118.35 37.56C116.76 38.62 114.35 40.14 115.12 42.38C115.45 43.34 116.35 43.8 117.29 44.02C118.88 44.39 120.62 44.4 122.25 44.45C129.93 44.68 137.36 42.94 144.93 41.9C147.84 41.5 150.79 41.24 153.69 40.72C155.49 40.4 157.26 39.98 159.07 39.74C160.52 39.55 162.42 39.21 163.68 40.15V39.58C162.36 40.58 160.76 41.13 159.19 41.61C157.18 42.22 155.14 42.79 153.1 43.28C151.61 43.64 150.1 43.89 148.59 44.16C144.03 44.98 139.46 45.8 134.86 46.37C128.68 47.13 122.51 47.68 116.48 49.34C114.44 49.9 112.03 50.29 110.29 51.57C108.67 52.77 107.05 54.82 108.73 56.67C109.61 57.64 110.98 57.89 112.22 58C114.23 58.18 116.28 58.19 118.3 58.17C122.74 58.12 127.07 57.24 131.43 56.52C131.85 56.45 131.67 55.82 131.26 55.89C127.5 56.52 123.72 57.32 119.9 57.48C118.08 57.56 116.27 57.53 114.45 57.46C113.03 57.41 111.36 57.49 110.06 56.84C106.56 55.1 110.49 51.84 112.58 51.17C114.67 50.5 116.63 49.94 118.68 49.44C124.35 48.06 130.15 47.68 135.91 46.89C140.21 46.3 144.5 45.56 148.77 44.79C150.43 44.49 152.11 44.21 153.74 43.79C157.09 42.93 161.19 42.3 164.01 40.15C164.22 39.99 164.22 39.74 164.01 39.58C161.98 38.07 158.32 39.15 156.08 39.59C152.92 40.21 149.75 40.59 146.56 41.02C139.17 42 131.84 43.76 124.36 43.81C122.38 43.82 120.38 43.76 118.41 43.53C117.76 43.45 116.96 43.36 116.41 42.98C115.4 42.28 115.45 40.86 116.29 40.06C118.46 37.99 121.13 36.43 124.08 35.8C128.55 34.85 133.06 34.09 137.54 33.2C139.48 32.81 141.41 32.37 143.33 31.91C144.5 31.63 145.68 31.35 146.85 31.04C148.62 30.58 150.44 30.33 152.2 29.83C155.57 28.88 158.97 27.81 162.41 27.19C164.84 26.75 167.26 26.21 169.66 25.65C172.75 24.92 175.85 24.08 178.89 23.15C180.08 22.78 184.37 21.55 183.26 19.53C182.65 18.42 180.88 18.12 179.8 17.77C178.82 17.46 177.85 17.15 176.85 16.88C174.41 16.22 171.94 15.67 169.52 14.94C166.02 13.88 162.53 12.61 159.41 10.71C157.73 9.68999 156.1 8.64999 154.64 7.32999C153.97 6.71999 153.33 6.07999 152.74 5.38999C152.3 4.87999 151.48 4.13999 151.61 3.37999C151.78 2.31999 153.39 1.70999 154.23 1.39999C155.29 1.00999 156.42 0.739995 157.54 0.639995C158.83 0.519995 160.17 0.779995 161.46 0.929995C168.7 1.76999 175.9 2.93999 183.15 3.69999C187.82 4.18999 192.5 4.64999 197.19 5.06999C201.35 5.43999 205.74 5.43 209.82 6.29999C214.34 7.25999 218.8 8.95999 223.18 10.4C223.93 10.65 224.7 11 225.49 11.06C226.55 11.13 227.65 10.94 228.7 10.78C230.81 10.47 232.94 10.13 235.01 9.57999C240.31 8.16999 245.44 6.41999 250.86 5.47999C252.16 5.24999 253.48 5.04 254.81 5.00999C255.55 4.99 256.11 4.83999 256.25 5.57999C256.59 7.32999 256.18 9.44999 256.02 11.21C255.69 14.98 255.13 18.68 254.55 22.41C254.13 25.06 253.75 27.71 253.33 30.35C253.17 31.35 253.02 32.35 252.82 33.34C252.71 33.92 252.64 34.48 252.25 34.95C250.83 36.66 247.98 37.45 245.99 38.17C244 38.89 241.92 39.46 239.97 40.32C237.66 41.33 236.8 43.95 235.57 45.96C233.75 48.94 230.79 51.5 227.97 53.51C225.15 55.52 221.86 57.01 218.65 58.47C216.09 59.63 213.51 60.78 210.86 61.7C207.49 62.87 203.99 63.78 200.57 64.83C195.09 66.52 189.48 67.56 183.9 68.86C181.33 69.46 178.79 70.35 176.2 70.84C174.21 71.22 172.26 71.62 170.3 72.09C168.15 72.6 166.03 72.86 163.85 73.16C159.81 73.71 155.83 74.76 151.78 75.2C150.07 75.39 148.34 75.38 146.63 75.61C145.55 75.75 144.45 75.9 143.35 75.82C142.33 75.75 141.38 75.5 142.09 74.21C142.41 73.62 143.45 73.09 144.02 72.75C145.69 71.77 147.59 71.3 149.44 70.81C151.96 70.15 154.48 69.69 157.02 69.13C160.51 68.35 164.06 67.58 167.47 66.49C168.65 66.11 170.52 65.67 171.31 64.6C172.25 63.32 170.34 62.69 169.35 62.74C165.02 62.98 160.66 63.74 156.37 64.36C152.7 64.89 149.01 65.27 145.33 65.79C140.38 66.49 135.37 67.38 130.37 67.52C128.59 67.57 126.85 67.89 125.08 68.02C123.76 68.12 120.69 68.4 120.99 66.32C121.1 65.55 121.71 65.13 122.42 64.75C125.05 63.35 128.23 62.76 131.11 62.13C133.99 61.5 137.03 60.92 140 60.4C144.04 59.69 148.09 58.84 152.16 58.38C154.12 58.16 156.06 57.8 157.99 57.42C160.02 57.02 162.08 56.73 164.04 56.02C165.51 55.49 169.29 55.09 169.04 52.78C168.85 50.99 165.67 51.71 164.52 51.8C162.28 51.97 160.02 52.09 157.81 52.47C153.42 53.21 148.94 53.72 144.5 54.02C140.06 54.32 135.65 55.12 131.29 55.88C130.87 55.95 131.05 56.59 131.46 56.51L131.44 56.53Z" fill="black"/>
<path d="M131.01 62.41C133.37 61.04 138.46 56.74 134.66 54.04C133 52.86 130.66 53.41 128.84 53.83C126.53 54.37 124.27 55.12 122.07 56.01C113.09 59.68 105.32 65.62 96.89 70.31C91.98 73.04 86.82 75.32 81.29 76.39L81.54 76.99C87.8 73.05 93.73 68.63 99.66 64.22C102.63 62.01 105.61 59.8 108.63 57.66C110.14 56.59 111.65 55.55 113.19 54.52C114.64 53.55 116.2 52.7 117.58 51.65C119.05 50.52 120.07 48.46 118.34 47.04C116.61 45.62 113.98 45.99 111.97 46.43C105.86 47.75 100.04 50.14 94.44 52.88C82.82 58.57 71.8801 65.96 59.31 69.49C58.03 69.85 56.73 70.25 55.38 70.21C53.55 70.15 51.51 69.15 52.71 67.01C53.49 65.61 54.68 64.36 55.63 63.07C56.83 61.43 58 59.77 59.14 58.09C61.24 54.99 63.24 51.81 65.13 48.57C66.45 46.3 68.42 43.26 67.03 40.59C66.01 38.64 63.59 37.92 61.53 38.23C58.47 38.7 55.97 41.12 53.67 43.02C47.83 47.84 42.25 52.97 36.77 58.2C34.03 60.82 31.32 63.46 28.6 66.1C26.18 68.46 23.74 70.81 21.66 73.48C19.45 76.33 18.08 79.5 16.58 82.75C15.28 85.56 13.59 88.03 11.53 90.34C8.10005 94.19 3.96005 97.64 1.61005 102.31C1.06005 103.41 0.610047 104.57 0.320047 105.77C0.190047 106.32 0.0700471 106.88 0.0200471 107.44C-0.0599529 108.21 0.210047 108.22 0.840047 108.73C3.93005 111.21 7.01005 113.7 10.1 116.18C13.19 118.66 16.25 121.17 19.36 123.63C20.31 124.39 21.32 125.19 22.52 125.49C24 125.85 25.22 125.19 26.47 124.48C31.86 121.44 38.66 121.99 44.62 122.25C46.93 122.35 49.2 122.48 51.49 122.17C54.1 121.81 56.67 121.23 59.23 120.61C64.95 119.22 70.69 117.68 76.24 115.71C81.47 113.85 86.62 111.54 91.42 108.75C97.32 105.32 102.9 101.44 108.95 98.25C112.14 96.57 115.34 94.92 118.45 93.12C118.55 93.06 118.62 92.95 118.61 92.84C118.55 90.87 117.21 89.49 115.27 89.23C112.7 88.9 109.85 90.46 107.57 91.49C101.72 94.13 96.33 97.68 90.16 99.62L90.48 100.17C100.53 92.09 112.46 86.58 123.47 79.97C125.48 78.76 127.49 77.53 129.37 76.11C130.4 75.33 131.63 74.43 132.22 73.24C133.19 71.29 130.2 70.67 128.78 70.7C126.97 70.74 125.24 71.38 123.59 72.06C121.3 73.01 119.02 73.97 116.73 74.92C106.45 79.21 96.16 83.5 85.88 87.8L86.13 88.4C101.09 79.74 116.05 71.09 131 62.43C131.37 62.22 131.04 61.65 130.67 61.86C115.71 70.52 100.75 79.17 85.8 87.83C85.4901 88.01 85.7001 88.58 86.05 88.43C94.66 84.84 103.26 81.25 111.87 77.65C116.07 75.9 120.25 74.06 124.49 72.39C126.21 71.71 128.21 71.05 130.07 71.47C131.02 71.68 132.12 72.02 131.57 73.03C130.91 74.26 129.49 75.21 128.39 76C126.55 77.33 124.6 78.52 122.65 79.68C117.44 82.78 112.11 85.67 106.86 88.7C101.06 92.05 95.23 95.49 90 99.7C89.74 99.91 90.02 100.34 90.32 100.25C97.06 98.13 102.88 94.1 109.36 91.41C111.63 90.47 116.8 88.16 117.83 91.98C118.1 92.98 116.72 93.34 115.99 93.74C115.16 94.2 114.33 94.65 113.5 95.09C111.73 96.04 109.95 96.96 108.18 97.89C102.07 101.12 96.46 105.1 90.47 108.52C85.33 111.45 79.8 113.84 74.19 115.71C68.58 117.58 62.72 119.17 56.91 120.48C54.36 121.05 51.74 121.66 49.11 121.74C46.27 121.83 43.41 121.52 40.58 121.46C37.55 121.39 34.49 121.44 31.5 122C30.21 122.24 28.93 122.59 27.72 123.1C25.96 123.85 24.34 125.44 22.3 124.74C20.62 124.17 19.22 122.7 17.86 121.61C16.19 120.27 14.52 118.92 12.85 117.58C9.64005 114.99 6.42005 112.41 3.21005 109.82C2.56005 109.3 1.34005 108.66 0.900047 107.96C0.460047 107.26 0.840047 106.32 1.02005 105.63C1.38005 104.28 1.94005 103 2.63005 101.79C4.06005 99.29 6.01005 97.14 7.98005 95.06C9.95005 92.98 11.98 90.97 13.74 88.72C15.67 86.25 16.96 83.49 18.24 80.64C19.81 77.14 21.82 74.08 24.43 71.25C26.87 68.59 29.53 66.12 32.12 63.61C37.78 58.12 43.49 52.66 49.44 47.48C52.24 45.04 55.06 42.39 58.18 40.36C59.59 39.44 61.2 38.72 62.92 38.85C64.94 39.01 66.76 40.32 66.83 42.48C66.89 44.35 65.8101 46.09 64.91 47.65C63.94 49.34 62.93 51.02 61.9 52.67C59.83 55.98 57.64 59.22 55.34 62.37C54.3 63.79 53.01 65.16 52.15 66.69C51.68 67.53 51.47 68.54 51.98 69.41C53.03 71.17 55.83 71.03 57.54 70.65C63.83 69.25 69.85 66.48 75.57 63.59C87.48 57.57 98.92 49.94 112.14 47.08C113.45 46.8 114.76 46.57 116.1 46.82C117.88 47.15 119.52 48.6 118 50.4C116.9 51.7 115.03 52.53 113.62 53.46C111.95 54.56 110.3 55.69 108.67 56.84C102.49 61.2 96.51 65.84 90.36 70.25C87.36 72.39 84.32 74.48 81.2 76.44C80.88 76.64 81.09 77.11 81.45 77.04C98.74 73.7 111.04 59.16 127.91 54.75C129.95 54.22 134.51 52.89 135.23 55.98C135.83 58.55 132.51 60.79 130.67 61.86C130.3 62.07 130.63 62.64 131 62.43L131.01 62.41Z" fill="black"/>
<defs>
<linearGradient id="paint0_linear_406_1181" x1="116.03" y1="10.46" x2="255.56" y2="60.67" gradientUnits="userSpaceOnUse">
<stop stop-color="#FFD9CC"/>
<stop offset="0.28" stop-color="#F4BFA8"/>
<stop offset="0.43" stop-color="#F2B69B"/>
<stop offset="0.87" stop-color="#F09F7C"/>
</linearGradient>
<linearGradient id="paint1_linear_406_1181" x1="27.26" y1="137.39" x2="111.23" y2="31.26" gradientUnits="userSpaceOnUse">
<stop offset="0.07" stop-color="#D1A393"/>
<stop offset="0.51" stop-color="#F4BFA8"/>
<stop offset="0.67" stop-color="#F6C4AF"/>
<stop offset="0.92" stop-color="#FCD4C5"/>
<stop offset="0.99" stop-color="#FFD9CC"/>
</linearGradient>
</defs>
</svg>
