<svg width="179" height="179" viewBox="0 0 179 179" fill="none" xmlns="http://www.w3.org/2000/svg">
<g id="Face With Open Eyes And Hand Over Mouth" clip-path="url(#clip0_1086_4739)">
<path id="Vector" d="M89.5001 153.648C124.927 153.648 153.646 124.929 153.646 89.5018C153.646 54.0748 124.927 25.3555 89.5001 25.3555C54.0731 25.3555 25.3538 54.0748 25.3538 89.5018C25.3538 124.929 54.0731 153.648 89.5001 153.648Z" fill="#6169BC"/>
<path id="Vector_2" d="M109.358 126.172L109.011 126.447L97.1242 135.858L97.1169 135.864L97.1168 135.864C96.7254 136.162 96.2699 136.024 96.0339 135.757C95.7945 135.487 95.7183 135.015 96.0687 134.665L96.0725 134.661L96.0725 134.661L111.805 119.264L111.808 119.261C113.492 117.645 113.213 115.288 111.921 113.744C111.282 112.979 110.421 112.457 109.49 112.342C108.572 112.23 107.525 112.506 106.477 113.448C106.476 113.448 106.476 113.449 106.476 113.449L90.2968 128.076L90.296 128.076C89.9307 128.405 89.4646 128.312 89.2033 128.059C88.9428 127.807 88.8331 127.349 89.1393 126.971L89.1465 126.962L89.154 126.953L105.571 108.453C105.571 108.453 105.571 108.453 105.571 108.452C106.512 107.386 106.808 106.3 106.71 105.339C106.611 104.368 106.105 103.477 105.358 102.826C103.868 101.527 101.505 101.242 99.7108 103.167L99.7064 103.172L99.7063 103.172L82.8284 120.819L109.358 126.172ZM109.358 126.172C110.181 125.63 110.987 125.496 111.699 125.615C112.529 125.754 113.282 126.246 113.817 126.943C114.885 128.333 115.027 130.436 113.249 131.934L97.1191 145.017L86.7341 153.012L109.358 126.172ZM81.608 119.778L81.6081 119.778L94.4014 103.154C95.2711 101.984 95.4859 100.834 95.3082 99.8419C95.1287 98.8393 94.5406 97.9575 93.7351 97.3554C92.9293 96.753 91.9272 96.4461 90.938 96.564C89.9594 96.6807 88.9487 97.2182 88.1178 98.3892L88.1121 98.3972L88.1062 98.4049L73.926 116.822L73.9144 116.837L73.9016 116.852L67.9163 123.508L67.8643 123.566L67.7972 123.605C67.6805 123.674 67.5382 123.726 67.3768 123.728C67.2104 123.73 67.0608 123.677 66.9374 123.593C66.7133 123.44 66.5849 123.193 66.5037 122.983C66.334 122.544 66.2346 121.896 66.1739 121.159C66.0507 119.662 66.0729 117.585 66.1499 115.52L66.1499 115.519C66.3068 111.452 63.0636 108.052 58.9985 108.025C57.5304 108.026 56.3311 109.173 56.2834 110.631C56.1158 116.763 55.6681 130.349 55.0784 136.049L55.0783 136.05C54.619 140.413 56.1993 144.751 59.3484 147.819C59.3486 147.819 59.3488 147.82 59.349 147.82L63.3334 151.678C63.3334 151.678 63.3334 151.678 63.3335 151.678C69.7276 157.868 79.6862 158.426 86.7337 153.012L81.608 119.778ZM81.608 119.778L81.6 119.789M81.608 119.778L81.6 119.789M81.6 119.789C81.3106 120.187 81.451 120.643 81.7262 120.879M81.6 119.789L81.7262 120.879M81.7262 120.879C81.8621 120.995 82.0464 121.076 82.2532 121.075M81.7262 120.879L82.2532 121.075M82.2532 121.075C82.4691 121.074 82.6723 120.983 82.8272 120.82L82.2532 121.075Z" fill="#6169BC" stroke="black"/>
<path id="Vector_3" d="M49.7843 85.0377C49.7843 93.4716 56.6213 100.309 65.0552 100.309C73.4891 100.309 80.3262 93.4716 80.3262 85.0377C80.3262 76.6037 73.4891 69.7667 65.0552 69.7667C56.6213 69.7667 49.7843 76.6037 49.7843 85.0377Z" fill="white"/>
<path id="Vector_4" d="M62.4262 86.5147C62.4262 89.3608 64.7334 91.668 67.5794 91.668C70.4255 91.668 72.7327 89.3608 72.7327 86.5147C72.7327 83.6687 70.4255 81.3615 67.5794 81.3615C64.7334 81.3615 62.4262 83.6687 62.4262 86.5147Z" fill="#3A3A3A"/>
<path id="Vector_5" d="M47.2393 71.2364C47.0156 71.2364 46.7778 71.1945 46.5541 71.1106C45.6031 70.733 45.1277 69.6562 45.5053 68.6913C45.6591 68.3137 49.1971 59.5315 57.4619 55.2523C58.3709 54.7768 59.5036 55.1404 59.9791 56.0494C60.4546 56.9584 60.091 58.0911 59.182 58.5666C52.1758 62.2025 49.0014 69.9918 48.9734 70.0757C48.6797 70.8029 47.9805 71.2504 47.2393 71.2504V71.2364Z" fill="#3A3A3A"/>
<path id="Vector_6" d="M129.202 85.0405C129.202 76.6066 122.365 69.7695 113.931 69.7695C105.497 69.7695 98.6597 76.6066 98.6597 85.0405C98.6597 93.4744 105.497 100.311 113.931 100.311C122.365 100.311 129.202 93.4744 129.202 85.0405Z" fill="white"/>
<path id="Vector_7" d="M116.574 86.5282C116.574 83.6822 114.267 81.375 111.421 81.375C108.575 81.375 106.267 83.6822 106.267 86.5282C106.267 89.3743 108.575 91.6815 111.421 91.6815C114.267 91.6815 116.574 89.3743 116.574 86.5282Z" fill="#3A3A3A"/>
<path id="Vector_8" d="M131.761 71.2504C131.02 71.2504 130.32 70.8029 130.027 70.0757C129.999 70.0058 126.81 62.2025 119.818 58.5666C118.909 58.0911 118.546 56.9724 119.021 56.0494C119.497 55.1404 120.615 54.7768 121.538 55.2523C129.803 59.5455 133.355 68.3277 133.495 68.6913C133.872 69.6422 133.411 70.733 132.446 71.1106C132.222 71.1945 131.985 71.2364 131.761 71.2364V71.2504Z" fill="#3A3A3A"/>
</g>
<defs>
<clipPath id="clip0_1086_4739">
<rect width="179" height="179" fill="white"/>
</clipPath>
</defs>
</svg>
