<svg width="154" height="149" viewBox="0 0 154 149" fill="none" xmlns="http://www.w3.org/2000/svg">
<g id="Layer_1-2">
<path id="Vector" d="M78.2728 32.9422C84.8803 19.0593 96.3364 7.22904 110.454 3.69455C124.559 0.160049 141.067 6.50028 147.742 20.3589C151.328 27.8044 151.88 36.5374 151.238 44.8817C150.37 55.9589 147.483 66.8661 142.781 76.7651C136.14 90.7695 126.082 102.49 116.012 113.871C107.026 124.025 97.9263 134.046 88.7141 143.957C87.8458 144.892 86.8874 145.876 85.6697 146.07C84.4632 146.265 83.2905 145.633 82.2193 145.002C73.0973 139.56 65.0013 132.357 56.973 125.203C49.4409 118.499 41.92 111.794 34.5232 104.92C26.0439 97.0368 17.6435 88.8261 11.4419 78.7813C5.24023 68.7366 1.33884 56.5541 2.84979 44.6024C5.15002 26.3348 20.7781 11.5044 37.8382 9.97405C54.8983 8.44365 70.019 16.9337 78.0586 33.2094" fill="#EFABC3"/>
<path id="Vector_2" d="M80.4606 34.3268C86.4931 21.7435 96.5285 10.6663 109.473 6.79173C120.782 3.39084 134.031 6.65812 142.015 16.2049C146.762 21.8893 148.633 29.5048 148.893 36.9989C149.175 45.3797 147.889 53.8455 145.634 61.8619C141.045 78.174 131.573 91.7047 121.031 104.118C115.449 110.689 109.676 117.09 103.914 123.479C100.847 126.88 97.7688 130.268 94.6793 133.633C93.2585 135.175 91.8378 136.718 90.4171 138.26C88.9963 139.803 87.5643 141.856 85.873 143.07C84.7003 143.908 83.1781 142.463 82.1633 141.831C80.393 140.726 78.6565 139.56 76.9426 138.345C73.5599 135.928 70.3012 133.329 67.1215 130.621C60.5478 125.021 54.1319 119.191 47.6935 113.397C41.2551 107.604 34.9745 101.968 28.8969 95.9315C23.2027 90.2714 17.7566 84.1984 13.4831 77.2023C5.70287 64.4854 1.79021 47.9425 8.7022 33.8288C14.3626 22.2779 25.6834 13.8121 37.8386 12.7069C49.9937 11.6016 62.4759 16.2535 70.7297 26.4562C72.7368 28.934 74.4169 31.6911 75.8602 34.5819C77.4049 37.6791 81.7912 34.922 80.2464 31.8247C73.7629 18.8527 62.1264 9.68249 48.5166 7.60552C41.5934 6.54881 34.422 6.98607 27.8032 9.52459C21.1844 12.0631 15.321 16.1806 10.6078 21.6342C5.89456 27.0878 2.3991 33.6952 0.89943 40.91C-0.859576 49.3636 0.0650299 58.2788 2.77119 66.3802C8.55562 83.6883 21.331 96.3323 33.9597 108.017C41.0183 114.539 48.1896 120.928 55.3497 127.305C61.9685 133.196 68.6212 139.111 75.8602 144.103C79.1526 146.374 83.6178 150.273 87.6996 148.196C89.4924 147.285 90.8568 145.487 92.2324 144.006C93.8561 142.256 95.4686 140.507 97.081 138.758C103.598 131.677 110.048 124.523 116.453 117.309C127.999 104.3 139.793 90.818 146.705 74.2022C150.257 65.6514 152.546 56.6391 153.527 47.3352C154.508 38.0313 154.136 29.1769 150.753 20.869C145.239 7.31401 131.303 -0.143656 117.975 0.00209681C103.249 0.172141 90.293 9.70678 81.6558 21.9986C79.5473 25.0108 77.6981 28.2173 76.0857 31.5575C74.586 34.679 78.961 37.4483 80.4719 34.3147L80.4606 34.3268Z" fill="black"/>
<path id="Vector_3" d="M17.3163 87.818C21.5334 88.2917 25.7618 88.6682 30.0015 88.9112C34.2411 89.1541 38.5597 89.6278 42.7092 89.227C47.4224 88.7775 48.1215 83.7855 49.3054 79.7531C50.6021 75.3197 51.9101 70.8743 53.2068 66.441L48.5725 67.0969C51.865 73.8987 55.1575 80.7004 58.45 87.5022C59.4423 89.5428 62.622 89.1176 63.0843 86.8463C65.4184 75.5384 68.4515 64.4126 72.1725 53.554H67.2789C71.3945 71.1658 76.2092 88.5954 81.7005 105.77C82.5349 108.393 85.7259 108.321 86.5941 105.77C91.048 92.6278 95.5132 79.4858 99.9671 66.3317H95.0734C96.4603 71.5666 97.8585 76.8137 99.2454 82.0487C99.8205 84.1985 100.283 86.6034 101.794 88.2674C103.395 90.0286 105.639 90.393 107.815 90.1015C111.074 89.6764 114.321 88.9354 117.568 88.3524C121.256 87.6966 124.943 87.0528 128.63 86.4091C132.317 85.7653 135.97 85.1216 139.624 84.4171C140.977 84.1621 141.732 82.3887 141.394 81.0527C140.999 79.5223 139.624 78.8907 138.271 79.1457C130.231 80.6761 122.158 82.0122 114.107 83.4454C112.359 83.7612 110.611 84.077 108.875 84.405C107.995 84.575 106.913 84.9273 106.033 84.7208C105.267 84.5386 105.075 83.907 104.838 83.1539C103.891 80.2267 103.237 77.1538 102.448 74.178C101.658 71.2022 100.801 67.9714 99.9783 64.862C99.2567 62.1291 95.9191 62.4085 95.0847 64.862C90.6308 78.004 86.1656 91.146 81.7117 104.3H86.6054C81.1141 87.1257 76.3107 69.6961 72.1838 52.0844C71.5298 49.2908 68.1133 49.6916 67.2901 52.0844C63.5692 62.9551 60.536 74.0808 58.2019 85.3767L62.8362 84.7208C59.5437 77.919 56.2512 71.1172 52.9588 64.3154C51.9101 62.1413 48.9446 62.8336 48.3244 64.9713C47.1631 68.9431 46.0017 72.9027 44.8403 76.8744C44.2878 78.7571 43.7578 80.664 43.1827 82.5466C43.07 82.911 42.9234 83.6033 42.6866 83.7369C42.1228 84.0649 40.8374 83.7977 40.2285 83.7977C32.5723 83.7127 24.9274 83.2147 17.3163 82.3523C15.952 82.1944 14.7793 83.7248 14.7793 85.0852C14.7793 86.6884 15.952 87.6601 17.3163 87.818Z" fill="black"/>
</g>
</svg>
