<svg width="116" height="140" viewBox="0 0 116 140" fill="none" xmlns="http://www.w3.org/2000/svg">
<g id="mind_1icon" clip-path="url(#clip0_406_1192)">
<g id="Layer_1-2">
<path id="Vector" d="M57.6699 9.67C57.2599 46.5 57.4199 83.34 58.1499 120.17C58.2099 122.99 58.2699 125.87 59.1799 128.54C59.8299 130.48 60.9099 132.25 62.1699 133.86C64.0599 136.27 66.5899 138.43 69.6299 138.75C72.9399 139.1 76.1599 137.13 78.1799 134.48C80.1999 131.83 81.2399 128.59 82.2099 125.41C87.5699 125.57 92.9699 123.35 96.6599 119.45C100.35 115.55 102.27 110.04 101.81 104.7C101.73 103.77 101.61 102.74 102.15 101.98C102.62 101.32 103.47 101.07 104.22 100.78C108.3 99.23 111.93 95.7 113.44 91.6C114.95 87.5 115.27 83.15 114.84 78.8C114.68 77.2 114 75.32 112.8 73.9C111.76 72.67 110.32 71.54 108.74 71.88C112.95 67.41 114.96 60.95 114.02 54.88C113.08 48.81 109.23 43.26 103.87 40.27C107.95 32.66 104.12 21.93 96.1499 18.62C95.1799 18.22 94.0499 17.79 93.7199 16.8C93.5799 16.37 93.6199 15.91 93.6299 15.46C93.9099 7.59 86.3299 0.969996 78.4799 0.409996C70.6299 -0.150004 63.0899 4.13 57.6599 9.83" fill="url(#paint0_linear_406_1192)"/>
<path id="Vector_2" d="M57.3002 9.66999C57.0602 31.57 57.0102 53.47 57.1702 75.38C57.2502 86.41 57.3802 97.45 57.5602 108.48C57.6502 113.76 57.4502 119.16 57.9702 124.42C58.4102 128.87 60.3502 132.89 63.5702 136C66.7902 139.11 71.0902 140.18 75.0702 137.78C79.4402 135.14 81.1502 130.13 82.5602 125.51L82.2002 125.79C92.3102 125.99 101.04 118.39 102.13 108.32C102.26 107.12 102.26 105.91 102.17 104.71C102.12 104.07 101.99 103.32 102.2 102.7C102.53 101.76 103.47 101.48 104.31 101.15C106.4 100.34 108.3 99.11 109.91 97.55C113.67 93.91 115.12 88.8 115.35 83.68C115.48 80.92 115.47 77.9 114.21 75.37C113.17 73.29 111.15 71.17 108.64 71.51L109 72.14C113.32 67.46 115.38 60.9 114.35 54.59C113.32 48.28 109.43 43.01 104.05 39.94L104.18 40.45C106.3 36.38 106.36 31.53 104.71 27.28C103.88 25.15 102.66 23.17 101.06 21.54C99.4602 19.91 97.5302 18.92 95.4402 17.91C94.3102 17.36 94.0002 16.75 94.0002 15.46C94.0002 14.88 94.0002 14.3 93.9302 13.72C93.7902 12.44 93.4502 11.19 92.9402 9.99999C92.0002 7.80999 90.5102 5.87999 88.7102 4.33999C84.7402 0.919993 79.5902 -0.510007 74.4202 0.169993C67.8202 1.02999 61.9302 4.84999 57.4002 9.56999C57.0702 9.91999 57.6002 10.45 57.9302 10.1C65.4402 2.27999 78.0302 -3.16001 87.6402 4.41999C89.5202 5.90999 91.1102 7.79999 92.1202 9.97999C92.6702 11.16 93.0402 12.43 93.1802 13.72C93.3002 14.76 93.0102 15.99 93.3802 16.99C93.7102 17.87 94.5402 18.33 95.3502 18.69C96.4202 19.17 97.4702 19.63 98.4402 20.3C100.3 21.58 101.81 23.32 102.93 25.27C105.49 29.75 105.95 35.43 103.53 40.07C103.44 40.25 103.48 40.48 103.66 40.58C108.77 43.5 112.48 48.61 113.55 54.42C114.68 60.56 112.67 67.04 108.46 71.61C108.19 71.91 108.46 72.29 108.82 72.24C111.71 71.84 113.75 75.48 114.28 77.84C114.81 80.2 114.71 83.06 114.44 85.53C113.88 90.64 111.9 95.36 107.66 98.46C106.84 99.06 105.96 99.59 105.04 100.02C104.18 100.43 103.15 100.64 102.38 101.21C100.87 102.33 101.43 104.3 101.47 105.91C101.57 110.63 99.8102 115.4 96.6402 118.9C92.9702 122.94 87.6202 125.15 82.1902 125.04C82.0202 125.04 81.8802 125.16 81.8302 125.32C80.5002 129.68 78.9302 134.48 74.8502 137.04C72.9302 138.25 70.6402 138.78 68.4202 138.15C66.3202 137.55 64.5802 136.1 63.1602 134.5C61.5602 132.69 60.2002 130.56 59.4602 128.25C58.7202 125.94 58.5902 123.49 58.5302 121.08C58.4002 115.97 58.3302 110.86 58.2502 105.75C57.9302 85.34 57.7802 64.93 57.8102 44.52C57.8302 32.9 57.9002 21.29 58.0302 9.67999C58.0302 9.19999 57.2902 9.19999 57.2802 9.67999L57.3002 9.66999Z" fill="black"/>
<path id="Vector_3" d="M66.6302 25.59C75.2702 26.87 81.7502 33.56 83.4002 42.04C85.0502 50.52 81.4802 58.88 75.4302 64.6C75.0802 64.93 75.6102 65.46 75.9602 65.13C80.8702 60.49 84.1802 54.12 84.5202 47.32C84.8602 40.52 82.2902 34.17 77.4502 29.8C74.4802 27.13 70.7602 25.45 66.8302 24.86C66.3602 24.79 66.1502 25.51 66.6302 25.58V25.59Z" fill="black"/>
<path id="Vector_4" d="M78.2401 30.6C80.7801 28.34 82.2401 24.92 82.1101 21.52C81.9801 18.12 80.2701 14.82 77.5601 12.76" fill="url(#paint1_linear_406_1192)"/>
<path id="Vector_5" d="M78.5 30.87C81.13 28.48 82.66 24.95 82.48 21.39C82.3 17.83 80.56 14.64 77.83 12.5C77.45 12.21 76.92 12.73 77.3 13.03C79.88 15.04 81.57 18.1 81.73 21.39C81.89 24.68 80.46 28.07 77.97 30.34C77.61 30.67 78.14 31.2 78.5 30.87Z" fill="black"/>
<path id="Vector_6" d="M92.6104 49C99.2804 52.16 103.01 60.46 100.95 67.55L92.6104 49Z" fill="url(#paint2_linear_406_1192)"/>
<path id="Vector_7" d="M92.4202 49.32C98.9702 52.49 102.56 60.43 100.59 67.44C100.46 67.91 101.18 68.1 101.31 67.64C103.37 60.33 99.6402 51.99 92.7902 48.67C92.3602 48.46 91.9802 49.11 92.4102 49.32H92.4202Z" fill="black"/>
<path id="Vector_8" d="M73.0503 102.84C78.7403 99.54 83.6203 94.77 86.7003 88.97C89.7803 83.16 90.9903 76.31 89.7003 69.87" fill="url(#paint3_linear_406_1192)"/>
<path id="Vector_9" d="M73.2403 103.16C84.8303 96.36 92.6803 83.43 90.0603 69.76C89.9703 69.29 89.2503 69.49 89.3403 69.96C91.8903 83.3 84.1403 95.9 72.8603 102.51C72.4403 102.75 72.8203 103.4 73.2403 103.16Z" fill="black"/>
<path id="Vector_10" d="M87.1699 88.23C91.0699 85.73 96.6799 86.37 99.9199 89.67L87.1699 88.23Z" fill="url(#paint4_linear_406_1192)"/>
<path id="Vector_11" d="M87.36 88.55C91.18 86.16 96.47 86.75 99.66 89.94C100 90.28 100.53 89.75 100.19 89.41C96.77 85.99 91.08 85.34 86.98 87.91C86.57 88.17 86.95 88.81 87.36 88.56V88.55Z" fill="black"/>
<path id="Vector_12" d="M66.6502 81.01C72.1102 80.31 77.5902 84.31 78.5602 89.73C78.6402 90.2 79.3702 90 79.2802 89.53C78.2602 83.82 72.4102 79.51 66.6502 80.26C66.1802 80.32 66.1702 81.07 66.6502 81.01Z" fill="black"/>
<path id="Vector_13" d="M65.29 119.65C71.59 121.06 78.63 118.04 81.96 112.51L65.29 119.65Z" fill="url(#paint5_linear_406_1192)"/>
<path id="Vector_14" d="M65.1899 120.01C71.7199 121.41 78.7799 118.4 82.2799 112.7C82.5299 112.29 81.8799 111.91 81.6299 112.32C78.3199 117.72 71.5799 120.61 65.3899 119.29C64.9199 119.19 64.7199 119.91 65.1899 120.01Z" fill="black"/>
<path id="Vector_15" d="M57.76 9.69C58.15 46.52 57.97 83.36 57.22 120.19C57.16 123.01 57.09 125.89 56.19 128.56C55.54 130.5 54.46 132.27 53.2 133.88C51.31 136.28 48.78 138.45 45.74 138.77C42.43 139.12 39.22 137.14 37.2 134.49C35.18 131.84 34.14 128.6 33.17 125.41C27.81 125.57 22.41 123.34 18.73 119.44C15.04 115.54 13.12 110.03 13.59 104.68C13.67 103.75 13.8 102.72 13.25 101.96C12.78 101.3 11.94 101.05 11.18 100.76C7.10003 99.2 3.47003 95.67 1.96003 91.57C0.450033 87.47 0.140033 83.12 0.560033 78.77C0.720033 77.17 1.40003 75.29 2.60003 73.87C3.64003 72.64 5.09003 71.51 6.66003 71.85C2.45003 67.38 0.450033 60.92 1.39003 54.85C2.33003 48.78 6.19003 43.23 11.55 40.24C7.48003 32.63 11.31 21.9 19.29 18.59C20.26 18.19 21.39 17.77 21.72 16.77C21.86 16.34 21.82 15.88 21.81 15.43C21.53 7.56 29.12 0.939996 36.97 0.389996C44.82 -0.160004 52.36 4.12 57.78 9.83" fill="url(#paint6_linear_406_1192)"/>
<path id="Vector_16" d="M57.3901 9.68999C57.6101 30.26 57.6501 50.84 57.5101 71.41C57.4401 81.61 57.3301 91.82 57.1701 102.02C57.0901 107.16 57.0001 112.31 56.9001 117.45C56.8001 122.3 56.9701 127.23 54.3701 131.53C51.7701 135.83 47.3401 139.91 42.1101 137.87C36.8801 135.83 35.0001 130.18 33.5201 125.32C33.4701 125.16 33.3301 125.04 33.1601 125.04C23.1801 125.23 14.5901 117.52 13.9201 107.5C13.8501 106.44 13.9001 105.39 13.9801 104.33C14.0401 103.51 14.0801 102.65 13.6401 101.92C13.3201 101.37 12.8101 101.05 12.2401 100.79C11.1401 100.28 10.0101 99.91 8.96011 99.28C4.73011 96.76 2.25011 92.66 1.29011 87.9C0.680107 84.93 0.570107 81.78 0.920107 78.77C1.23011 76.15 3.30011 71.76 6.54011 72.21C6.90011 72.26 7.18011 71.88 6.90011 71.58C2.69011 67.01 0.690107 60.53 1.82011 54.39C2.89011 48.58 6.60011 43.48 11.7201 40.56C11.9001 40.46 11.9501 40.23 11.8501 40.05C9.69011 35.9 9.82011 30.89 11.7401 26.66C12.6401 24.67 13.9301 22.85 15.5501 21.39C16.3901 20.64 17.3101 19.99 18.3001 19.46C19.2901 18.93 20.3901 18.68 21.2401 17.99C21.9301 17.43 22.1601 16.75 22.1701 15.89C22.1901 14.48 22.2101 13.16 22.6101 11.79C23.2901 9.40999 24.6901 7.27999 26.4501 5.56999C30.3801 1.76999 35.8301 0.159993 41.2101 0.939993C47.5401 1.86999 53.1501 5.55999 57.5101 10.11C57.8401 10.46 58.3701 9.92999 58.0401 9.57999C50.5101 1.73999 38.1201 -3.72001 28.1901 3.18999C24.0301 6.08999 21.5301 10.38 21.4201 15.45C21.3901 16.75 21.1201 17.34 19.9801 17.9C19.5001 18.14 18.9901 18.31 18.5101 18.54C17.4301 19.05 16.4301 19.7 15.5101 20.46C13.7801 21.89 12.3801 23.72 11.3801 25.72C9.09011 30.31 8.83011 35.84 11.2201 40.44L11.3501 39.93C5.97011 43 2.06011 48.45 1.05011 54.58C0.0101074 60.89 2.07011 67.44 6.39011 72.13L6.75011 71.5C4.56011 71.2 2.81011 72.76 1.68011 74.49C0.330107 76.56 0.0801074 78.92 0.0201074 81.34C-0.119893 86.47 0.820107 92.04 4.16011 96.11C5.64011 97.92 7.51011 99.43 9.60011 100.49C10.5501 100.97 12.0101 101.22 12.7501 101.98C13.7401 102.99 13.1401 105.04 13.1401 106.3C13.1401 111.16 15.0201 116 18.3201 119.57C22.1001 123.66 27.6201 125.9 33.1701 125.79L32.8101 125.51C34.0801 129.68 35.5501 134.15 39.1001 136.96C42.1501 139.36 46.0701 139.9 49.4501 137.85C52.8301 135.8 55.7501 131.73 56.8101 127.81C57.4401 125.48 57.5301 123.04 57.5901 120.64C57.6501 118 57.7001 115.37 57.7401 112.73C58.1401 90.75 58.3401 68.76 58.3401 46.78C58.3401 34.42 58.2701 22.06 58.1401 9.69999C58.1401 9.21999 57.3801 9.21999 57.3901 9.69999V9.68999Z" fill="black"/>
<path id="Vector_17" d="M48.6903 25.24C45.3303 25.7 42.1003 27.04 39.4103 29.1C34.0103 33.22 31.0203 40.14 31.2403 46.93C31.4603 53.72 34.7303 60.25 39.7003 64.88" fill="url(#paint7_linear_406_1192)"/>
<path id="Vector_18" d="M48.59 24.88C41.7 25.9 35.89 30.33 32.98 36.64C30.21 42.65 30.26 49.53 32.8 55.62C34.31 59.23 36.6 62.45 39.44 65.14C39.79 65.47 40.32 64.94 39.97 64.61C33.92 58.89 30.38 50.39 32.01 42.05C33.64 33.71 40.15 26.88 48.79 25.61C49.27 25.54 49.06 24.82 48.59 24.89V24.88Z" fill="black"/>
<path id="Vector_19" d="M37.1803 30.61C34.6403 28.35 33.1803 24.92 33.3103 21.53C33.4403 18.13 35.1603 14.83 37.8703 12.77" fill="url(#paint8_linear_406_1192)"/>
<path id="Vector_20" d="M37.4503 30.34C34.9603 28.07 33.5203 24.77 33.7003 21.38C33.8803 17.99 35.5603 15.04 38.1403 13.02C38.5203 12.72 37.9903 12.2 37.6103 12.49C34.8803 14.62 33.1303 17.9 32.9503 21.38C32.7703 24.86 34.3003 28.47 36.9203 30.87C37.2803 31.19 37.8103 30.67 37.4503 30.34Z" fill="black"/>
<path id="Vector_21" d="M22.8003 49C16.1303 52.15 12.3903 60.46 14.4503 67.54L22.8003 49Z" fill="url(#paint9_linear_406_1192)"/>
<path id="Vector_22" d="M22.6103 48.67C15.7703 51.98 12.0303 60.32 14.0803 67.64C14.2103 68.1 14.9303 67.91 14.8003 67.44C12.8303 60.43 16.4303 52.49 22.9803 49.32C23.4103 49.11 23.0303 48.46 22.6003 48.67H22.6103Z" fill="black"/>
<path id="Vector_23" d="M42.3299 102.84C36.6399 99.54 31.7599 94.77 28.6899 88.96C25.6099 83.15 24.4099 76.3 25.6999 69.86" fill="url(#paint10_linear_406_1192)"/>
<path id="Vector_24" d="M42.5203 102.52C31.2403 95.9 23.5003 83.29 26.0603 69.96C26.1503 69.49 25.4303 69.29 25.3403 69.76C22.7103 83.43 30.5603 96.36 42.1503 103.17C42.5703 103.41 42.9403 102.77 42.5303 102.52H42.5203Z" fill="black"/>
<path id="Vector_25" d="M28.2202 88.23C24.3202 85.73 18.7102 86.36 15.4702 89.67L28.2202 88.23Z" fill="url(#paint11_linear_406_1192)"/>
<path id="Vector_26" d="M28.4103 87.9C24.3103 85.33 18.6203 85.98 15.2003 89.4C14.8603 89.74 15.3903 90.27 15.7303 89.93C18.9203 86.74 24.2103 86.16 28.0303 88.55C28.4403 88.81 28.8203 88.16 28.4103 87.9Z" fill="black"/>
<path id="Vector_27" d="M48.7402 80.65C43.1802 79.88 37.4102 84.11 36.4702 89.64L48.7402 80.65Z" fill="url(#paint12_linear_406_1192)"/>
<path id="Vector_28" d="M48.7399 80.27C42.9799 79.53 37.1299 83.83 36.0999 89.54C36.0199 90.01 36.7399 90.21 36.8199 89.74C37.7899 84.32 43.2799 80.32 48.7299 81.02C49.2099 81.08 49.1999 80.33 48.7299 80.27H48.7399Z" fill="black"/>
<path id="Vector_29" d="M50.0799 119.66C43.7799 121.06 36.7399 118.04 33.4199 112.51L50.0799 119.66Z" fill="url(#paint13_linear_406_1192)"/>
<path id="Vector_30" d="M49.9799 119.3C43.7799 120.62 37.0499 117.73 33.7399 112.32C33.4899 111.91 32.8399 112.29 33.0899 112.7C36.5799 118.4 43.6399 121.42 50.1799 120.02C50.6499 119.92 50.4499 119.2 49.9799 119.3Z" fill="black"/>
</g>
</g>
<defs>
<linearGradient id="paint0_linear_406_1192" x1="57.4499" y1="69.58" x2="115.02" y2="69.58" gradientUnits="userSpaceOnUse">
<stop stop-color="#FFD9CC"/>
<stop offset="0.35" stop-color="#EFABC3"/>
<stop offset="0.87" stop-color="#EFABC3"/>
</linearGradient>
<linearGradient id="paint1_linear_406_1192" x1="77.5601" y1="21.68" x2="82.1201" y2="21.68" gradientUnits="userSpaceOnUse">
<stop stop-color="#EFABC3"/>
<stop offset="0.35" stop-color="#EFABC3"/>
<stop offset="0.5" stop-color="#F3B9C5"/>
<stop offset="0.88" stop-color="#FFD9CC"/>
</linearGradient>
<linearGradient id="paint2_linear_406_1192" x1="92.6104" y1="58.27" x2="101.52" y2="58.27" gradientUnits="userSpaceOnUse">
<stop stop-color="#FFD9CC"/>
<stop offset="0.35" stop-color="#EFABC3"/>
<stop offset="0.87" stop-color="#EFABC3"/>
</linearGradient>
<linearGradient id="paint3_linear_406_1192" x1="75.1003" y1="82.76" x2="90.0003" y2="91.28" gradientUnits="userSpaceOnUse">
<stop stop-color="#EFABC3"/>
<stop offset="0.36" stop-color="#EFABC3"/>
<stop offset="1" stop-color="#FFD9CC"/>
</linearGradient>
<linearGradient id="paint4_linear_406_1192" x1="87.1699" y1="88.19" x2="99.9199" y2="88.19" gradientUnits="userSpaceOnUse">
<stop stop-color="#FFD9CC"/>
<stop offset="0.35" stop-color="#EFABC3"/>
<stop offset="0.87" stop-color="#EFABC3"/>
</linearGradient>
<linearGradient id="paint5_linear_406_1192" x1="65.29" y1="116.25" x2="81.96" y2="116.25" gradientUnits="userSpaceOnUse">
<stop stop-color="#FFD9CC"/>
<stop offset="0.35" stop-color="#EFABC3"/>
<stop offset="0.87" stop-color="#EFABC3"/>
</linearGradient>
<linearGradient id="paint6_linear_406_1192" x1="0.370033" y1="69.59" x2="57.96" y2="69.59" gradientUnits="userSpaceOnUse">
<stop stop-color="#FFD9CC"/>
<stop offset="0.35" stop-color="#EFABC3"/>
<stop offset="0.87" stop-color="#EFABC3"/>
</linearGradient>
<linearGradient id="paint7_linear_406_1192" x1="31.2303" y1="45.06" x2="48.6903" y2="45.06" gradientUnits="userSpaceOnUse">
<stop stop-color="#FFD9CC"/>
<stop offset="0.35" stop-color="#EFABC3"/>
<stop offset="0.87" stop-color="#EFABC3"/>
</linearGradient>
<linearGradient id="paint8_linear_406_1192" x1="33.3103" y1="21.68" x2="37.8703" y2="21.68" gradientUnits="userSpaceOnUse">
<stop stop-color="#FFD9CC"/>
<stop offset="0.35" stop-color="#EFABC3"/>
<stop offset="0.87" stop-color="#EFABC3"/>
</linearGradient>
<linearGradient id="paint9_linear_406_1192" x1="13.8803" y1="58.27" x2="22.8003" y2="58.27" gradientUnits="userSpaceOnUse">
<stop stop-color="#FFD9CC"/>
<stop offset="0.35" stop-color="#EFABC3"/>
<stop offset="0.87" stop-color="#EFABC3"/>
</linearGradient>
<linearGradient id="paint10_linear_406_1192" x1="26.7199" y1="89.69" x2="42.3099" y2="82.55" gradientUnits="userSpaceOnUse">
<stop stop-color="#FFD9CC"/>
<stop offset="0.51" stop-color="#EFABC3"/>
<stop offset="0.87" stop-color="#EFABC3"/>
</linearGradient>
<linearGradient id="paint11_linear_406_1192" x1="15.4602" y1="88.18" x2="28.2202" y2="88.18" gradientUnits="userSpaceOnUse">
<stop stop-color="#FFD9CC"/>
<stop offset="0.35" stop-color="#EFABC3"/>
<stop offset="0.87" stop-color="#EFABC3"/>
</linearGradient>
<linearGradient id="paint12_linear_406_1192" x1="39.9602" y1="82.08" x2="47.9802" y2="91.37" gradientUnits="userSpaceOnUse">
<stop stop-color="#FFD9CC"/>
<stop offset="0.35" stop-color="#EFABC3"/>
<stop offset="0.87" stop-color="#EFABC3"/>
</linearGradient>
<linearGradient id="paint13_linear_406_1192" x1="33.4199" y1="116.26" x2="50.0799" y2="116.26" gradientUnits="userSpaceOnUse">
<stop stop-color="#FFD9CC"/>
<stop offset="0.35" stop-color="#EFABC3"/>
<stop offset="0.87" stop-color="#EFABC3"/>
</linearGradient>
<clipPath id="clip0_406_1192">
<rect width="115.41" height="139.12" fill="white"/>
</clipPath>
</defs>
</svg>
