<svg width="132" height="132" viewBox="0 0 132 132" fill="none" xmlns="http://www.w3.org/2000/svg">
<g id="love">
<g id="Group">
<path id="Vector" d="M52.7171 2.86719C47.4011 2.86719 42.0694 4.92183 38.0255 8.97366C29.9384 17.0773 29.9384 30.2534 38.0255 38.357L64.6006 64.9933C65.3661 65.7619 66.6127 65.7619 67.3784 64.9933L93.9535 38.357C102.041 30.2534 102.041 17.0773 93.9535 8.97366C86.2488 1.25337 74.0844 0.992521 65.9855 7.65769C62.5645 4.80972 58.6436 2.89806 52.7171 2.86719Z" fill="#6169BC"/>
<path id="Vector_2" fill-rule="evenodd" clip-rule="evenodd" d="M35.9771 52.5659C35.8992 58.4837 34.4618 67.3014 34.4618 67.3014C34.03 70.0128 29.9438 69.3887 30.375 66.6776C30.375 66.6776 31.7718 57.8183 31.8467 52.5283C31.7999 50.6246 30.3501 49.8701 29.4954 49.8426C28.758 49.7647 28.0845 49.9827 27.5609 50.4193C25.6729 52.2051 24.7271 49.2158 24.9189 47.2602C26.283 46.1314 28.1091 45.5373 30.0043 45.7496C33.9939 46.2516 35.9902 49.4975 35.9771 52.5659Z" fill="#6169BC"/>
<path id="Vector_3" fill-rule="evenodd" clip-rule="evenodd" d="M28.6089 43.8197C28.2706 50.5976 27.134 63.9214 27.134 63.9214C26.9002 66.6572 22.7758 66.3285 23.009 63.5926C23.009 63.5926 24.1486 50.2225 24.4776 43.638C24.3685 41.591 22.67 40.4128 19.2853 41.7497C16.4587 42.2314 15.9382 38.3958 18.6493 37.4654C21.4327 36.5097 23.7559 36.7154 25.7564 38.131C27.2266 39.308 28.6822 41.0071 28.6089 43.8197Z" fill="#6169BC"/>
<path id="Vector_4" fill-rule="evenodd" clip-rule="evenodd" d="M20.4657 35.8449C20.3877 41.4451 20.5591 64.7249 20.5591 64.7249C20.562 64.9951 20.5113 65.2635 20.41 65.5147C20.3086 65.7659 20.1586 65.9949 19.9685 66.1889C19.7783 66.3828 19.5519 66.5379 19.3019 66.6451C19.052 66.7523 18.7834 66.8094 18.5117 66.8135C18.2399 66.8176 17.9703 66.7685 17.7182 66.6689C17.4661 66.5693 17.2364 66.4213 17.0423 66.2331C16.8481 66.0449 16.6934 65.8203 16.5868 65.5723C16.4803 65.3242 16.424 65.0574 16.4212 64.7872C16.4212 64.7872 16.248 41.6521 16.3276 35.8135C16.3431 34.5741 14.898 33.2052 14.0646 33.1297C13.1479 33.0518 12.5367 33.3559 11.997 33.8828C11.4576 34.4098 11.1349 35.2219 11.1084 35.5428C10.1293 47.1763 8.38902 70.5112 8.38902 70.5112C7.92444 76.9668 8.72427 86.1148 11.9823 93.7914C15.4074 101.864 24.6591 107.801 30.6486 116.447C31.902 118.256 32.9057 120.668 33.6848 122.715C34.4721 124.758 34.9773 126.433 34.9773 126.433C35.0623 126.692 35.0944 126.966 35.0717 127.239C35.049 127.511 34.9719 127.777 34.845 128.02C34.7181 128.263 34.5438 128.479 34.3325 128.654C34.1211 128.83 33.8769 128.962 33.6141 129.043C33.3512 129.124 33.0749 129.152 32.8015 129.126C32.528 129.1 32.2628 129.02 32.0214 128.89C31.78 128.761 31.5673 128.584 31.3956 128.372C31.2238 128.159 31.0965 127.915 31.0211 127.652C31.0211 127.652 30.5425 126.109 29.8145 124.192C29.074 122.28 28.0615 119.979 27.2408 118.794C21.9334 111.134 12.2959 105.13 8.17124 95.409C4.56045 86.8993 3.75775 77.282 4.26567 70.2333C4.26567 70.2333 6.00047 46.8993 6.98372 35.2145C7.10844 33.654 7.84276 32.1775 9.09542 30.955C10.3473 29.7327 12.2665 28.8328 14.4505 29.0314C17.8262 29.337 20.5166 32.246 20.4657 35.8449Z" fill="#6169BC"/>
<path id="Vector_5" fill-rule="evenodd" clip-rule="evenodd" d="M24.547 67.9608C22.846 67.6895 21.302 68.101 19.9187 68.5702C19.8465 68.5872 19.7751 68.608 19.7051 68.6326C18.0509 69.4121 16.7083 70.8437 16.2035 72.6518C15.6983 74.4598 15.9945 76.4958 16.9346 78.559C16.9627 78.6213 16.994 78.6825 17.0282 78.7417L28.6294 98.5031C28.7674 98.737 28.9501 98.9417 29.167 99.105C29.384 99.2683 29.6309 99.3873 29.8939 99.4551C30.1568 99.523 30.4306 99.5383 30.6995 99.5003C30.9684 99.4624 31.2272 99.3719 31.4611 99.2339C31.695 99.096 31.8995 98.9133 32.0628 98.6963C32.2261 98.4793 32.3451 98.2323 32.413 97.9693C32.4808 97.7064 32.4962 97.4327 32.4583 97.1638C32.4203 96.895 32.3298 96.6361 32.1918 96.4021L20.6821 76.8234V76.792C20.0413 75.3671 19.9931 74.3907 20.1646 73.7775C20.3298 73.1867 20.7009 72.7957 21.4133 72.4387C22.4314 72.1066 23.2656 71.9395 23.91 72.0424C24.5944 72.1515 25.2835 72.4666 26.2546 73.5953L37.6729 86.8711C37.7388 86.9474 37.8102 87.0188 37.8865 87.0847L46.595 94.423C48.8282 96.302 50.3982 98.8299 51.01 101.639C51.0256 101.764 53.1398 114.554 54.39 121.066C54.8124 123.257 55.7291 127.46 55.7291 127.46C55.7852 127.728 55.8937 127.982 56.0485 128.207C56.2032 128.433 56.4011 128.626 56.6307 128.774C56.8603 128.923 57.117 129.025 57.3861 129.074C57.6552 129.123 57.9314 129.118 58.1987 129.06C58.466 129.002 58.7191 128.891 58.9434 128.735C59.1677 128.578 59.3589 128.379 59.5058 128.148C59.6526 127.917 59.7523 127.66 59.7992 127.39C59.8461 127.121 59.8391 126.844 59.7787 126.578C59.7787 126.578 58.834 122.327 58.4396 120.275C57.2111 113.876 55.0597 100.879 55.0597 100.879C55.061 100.837 55.061 100.796 55.0597 100.754C54.2459 97.0168 52.1462 93.6957 49.2438 91.2539L40.6876 84.0374L29.3606 70.8834C27.9278 69.2175 26.2478 68.2324 24.547 67.9608ZM96.0206 52.5659C96.0986 58.4837 97.536 67.3014 97.536 67.3014C97.9678 70.0128 102.054 69.3887 101.623 66.6776C101.623 66.6776 100.226 57.8183 100.151 52.5283C100.198 50.6246 101.648 49.8701 102.503 49.8426C103.24 49.7647 103.913 49.9827 104.437 50.4193C106.325 52.2051 107.271 49.2158 107.079 47.2602C105.715 46.1314 103.889 45.5373 101.994 45.7496C98.004 46.2516 96.0076 49.4975 96.0206 52.5659Z" fill="#6169BC"/>
<path id="Vector_6" fill-rule="evenodd" clip-rule="evenodd" d="M103.389 43.8197C103.727 50.5976 104.864 63.9214 104.864 63.9214C105.098 66.6572 109.222 66.3285 108.989 63.5926C108.989 63.5926 107.849 50.2225 107.52 43.638C107.63 41.591 109.328 40.4128 112.713 41.7497C115.539 42.2314 116.06 38.3958 113.349 37.4654C110.565 36.5097 108.242 36.7154 106.242 38.131C104.771 39.308 103.316 41.0071 103.389 43.8197Z" fill="#6169BC"/>
<path id="Vector_7" fill-rule="evenodd" clip-rule="evenodd" d="M111.532 35.8449C111.61 41.4451 111.439 64.7249 111.439 64.7249C111.436 64.9951 111.487 65.2635 111.588 65.5147C111.689 65.7659 111.839 65.9949 112.029 66.1889C112.219 66.3828 112.446 66.5379 112.696 66.6451C112.946 66.7523 113.214 66.8094 113.486 66.8135C113.758 66.8176 114.028 66.7685 114.28 66.6689C114.532 66.5693 114.762 66.4213 114.956 66.2331C115.15 66.0449 115.305 65.8203 115.411 65.5723C115.518 65.3242 115.574 65.0574 115.577 64.7872C115.577 64.7872 115.75 41.6521 115.67 35.8135C115.655 34.5741 117.1 33.2052 117.933 33.1297C118.85 33.0518 119.461 33.3559 120.001 33.8828C120.54 34.4098 120.863 35.2219 120.89 35.5428C121.869 47.1763 123.609 70.5112 123.609 70.5112C124.073 76.9668 123.274 86.1148 120.016 93.7914C116.591 101.864 107.339 107.801 101.349 116.447C100.096 118.256 99.0923 120.668 98.3131 122.715C97.5258 124.758 97.0207 126.433 97.0207 126.433C96.9356 126.692 96.9036 126.966 96.9263 127.239C96.949 127.511 97.0259 127.777 97.1528 128.02C97.2798 128.263 97.454 128.479 97.6654 128.654C97.8767 128.83 98.121 128.962 98.3839 129.043C98.6468 129.124 98.9229 129.152 99.1964 129.126C99.4698 129.1 99.735 129.02 99.9764 128.89C100.218 128.761 100.431 128.584 100.602 128.372C100.774 128.159 100.901 127.915 100.977 127.652C100.977 127.652 101.455 126.109 102.183 124.192C102.924 122.28 103.936 119.979 104.757 118.794C110.064 111.134 119.702 105.13 123.827 95.409C127.437 86.8993 128.24 77.282 127.732 70.2333C127.732 70.2333 125.997 46.8993 125.014 35.2145C124.889 33.654 124.155 32.1775 122.903 30.955C121.651 29.7327 119.731 28.8328 117.547 29.0314C114.172 29.337 111.481 32.246 111.532 35.8449Z" fill="#6169BC"/>
<path id="Vector_8" fill-rule="evenodd" clip-rule="evenodd" d="M107.451 67.9577C109.152 67.6864 110.696 68.0979 112.079 68.5671C112.151 68.584 112.223 68.6048 112.293 68.6294C113.947 69.4089 115.29 70.8406 115.794 72.6487C116.3 74.4567 116.003 76.4927 115.063 78.5558C115.035 78.6182 115.004 78.6793 114.97 78.7385L103.368 98.5C103.231 98.7339 103.048 98.9385 102.831 99.1018C102.614 99.2652 102.367 99.3842 102.104 99.452C101.841 99.5199 101.567 99.5351 101.298 99.4972C101.029 99.4593 100.771 99.3687 100.537 99.2308C100.303 99.0928 100.098 98.9101 99.9351 98.6932C99.7718 98.4762 99.6528 98.2291 99.5849 97.9662C99.517 97.7032 99.5017 97.4296 99.5396 97.1607C99.5775 96.8918 99.668 96.6329 99.8059 96.399L111.316 76.8202V76.7888C111.956 75.3639 112.005 74.3875 111.833 73.7744C111.668 73.1835 111.297 72.7926 110.585 72.4356C109.567 72.1035 108.732 71.9364 108.088 72.0393C107.403 72.1484 106.714 72.4635 105.743 73.5922L94.3248 86.868C94.2589 86.9443 94.1875 87.0157 94.1112 87.0816L85.4029 94.4198C83.1696 96.2989 81.5995 98.8268 80.9878 101.636C80.9722 101.761 78.8581 114.551 77.6079 121.063C77.1854 123.254 76.2687 127.457 76.2687 127.457C76.2127 127.725 76.1041 127.978 75.9494 128.204C75.7947 128.43 75.5968 128.622 75.3672 128.771C75.1376 128.92 74.8809 129.022 74.6118 129.071C74.3427 129.12 74.0664 129.115 73.7992 129.057C73.5319 128.999 73.2788 128.888 73.0545 128.732C72.8301 128.575 72.639 128.376 72.4921 128.145C72.3452 127.914 72.2454 127.657 72.1986 127.387C72.1517 127.118 72.1588 126.841 72.2191 126.575C72.2191 126.575 73.1639 122.324 73.5583 120.272C74.7868 113.873 76.9382 100.876 76.9382 100.876C76.9369 100.834 76.9369 100.792 76.9382 100.751C77.7519 97.0136 79.8516 93.6926 82.7539 91.2507L91.3102 84.0343L102.637 70.8803C104.07 69.2143 105.75 68.2292 107.451 67.9577Z" fill="#6169BC"/>
</g>
</g>
</svg>
