<svg width="128" height="128" viewBox="0 0 128 128" fill="none" xmlns="http://www.w3.org/2000/svg">
<g id="Impact" clip-path="url(#clip0_1086_4703)">
<path id="Vector" d="M126 10H2.00001C1.46957 10 0.960865 10.2107 0.585792 10.5858C0.210719 10.9609 5.40048e-06 11.4696 5.40048e-06 12C5.40048e-06 12.5304 0.210719 13.0391 0.585792 13.4142C0.960865 13.7893 1.46957 14 2.00001 14H28.46L11.484 90.026C11.657 90.021 11.827 90 12.001 90C14.0693 90.0007 16.1175 90.4049 18.031 91.19L43.618 14H51.118L55.716 90.342C57.8822 89.8856 60.1198 89.8856 62.286 90.342L66.883 14H79.117L83.715 90.342C85.8812 89.8856 88.1188 89.8856 90.285 90.342L94.883 14H107.117L111.715 90.342C113.881 89.8856 116.119 89.8856 118.285 90.342L122.883 14H126C126.53 14 127.039 13.7893 127.414 13.4142C127.789 13.0391 128 12.5304 128 12C128 11.4696 127.789 10.9609 127.414 10.5858C127.039 10.2107 126.53 10 126 10ZM115 94C112.627 94 110.307 94.7038 108.333 96.0224C106.36 97.3409 104.822 99.2151 103.913 101.408C103.005 103.601 102.768 106.013 103.231 108.341C103.694 110.669 104.836 112.807 106.515 114.485C108.193 116.164 110.331 117.306 112.659 117.769C114.987 118.232 117.399 117.995 119.592 117.087C121.785 116.178 123.659 114.64 124.978 112.667C126.296 110.693 127 108.373 127 106C126.997 102.818 125.731 99.7682 123.481 97.5185C121.232 95.2688 118.182 94.0034 115 94ZM12 94C9.62663 94 7.30655 94.7038 5.33316 96.0224C3.35977 97.3409 1.8217 99.2151 0.913451 101.408C0.00519943 103.601 -0.232441 106.013 0.230582 108.341C0.693605 110.669 1.83649 112.807 3.51472 114.485C5.19295 116.164 7.33115 117.306 9.65892 117.769C11.9867 118.232 14.3995 117.995 16.5922 117.087C18.7849 116.178 20.6591 114.64 21.9776 112.667C23.2962 110.693 24 108.373 24 106C23.9966 102.818 22.7312 99.7682 20.4815 97.5185C18.2318 95.2688 15.1815 94.0034 12 94ZM59 94C56.6266 94 54.3065 94.7038 52.3332 96.0224C50.3598 97.3409 48.8217 99.2151 47.9134 101.408C47.0052 103.601 46.7676 106.013 47.2306 108.341C47.6936 110.669 48.8365 112.807 50.5147 114.485C52.193 116.164 54.3311 117.306 56.6589 117.769C58.9867 118.232 61.3995 117.995 63.5922 117.087C65.7849 116.178 67.6591 114.64 68.9776 112.667C70.2962 110.693 71 108.373 71 106C70.9966 102.818 69.7312 99.7682 67.4815 97.5185C65.2318 95.2688 62.1815 94.0034 59 94ZM87 94C84.6266 94 82.3066 94.7038 80.3332 96.0224C78.3598 97.3409 76.8217 99.2151 75.9135 101.408C75.0052 103.601 74.7676 106.013 75.2306 108.341C75.6936 110.669 76.8365 112.807 78.5147 114.485C80.193 116.164 82.3311 117.306 84.6589 117.769C86.9867 118.232 89.3995 117.995 91.5922 117.087C93.7849 116.178 95.6591 114.64 96.9776 112.667C98.2962 110.693 99 108.373 99 106C98.9966 102.818 97.7312 99.7682 95.4815 97.5185C93.2318 95.2688 90.1815 94.0034 87 94Z" fill="#6169BC"/>
</g>
<defs>
<clipPath id="clip0_1086_4703">
<rect width="128" height="128" fill="white"/>
</clipPath>
</defs>
</svg>
