<svg width="212" height="213" viewBox="0 0 212 213" fill="none" xmlns="http://www.w3.org/2000/svg">
<g id="Find" clip-path="url(#clip0_1086_4715)">
<path id="Vector" d="M134.063 127.509C133.31 128.315 132.638 129.196 131.795 130.099C130.951 131.001 130.198 131.807 129.35 132.554C128.326 133.65 127.125 134.581 125.908 135.527L142.455 154.005C143.413 155.064 144.579 155.913 145.88 156.5C147.181 157.086 148.589 157.398 150.016 157.416C151.439 157.43 152.85 157.149 154.158 156.588C155.466 156.028 156.644 155.202 157.615 154.162C158.587 153.121 159.332 151.891 159.802 150.547C160.272 149.204 160.457 147.777 160.346 146.358C160.232 144.936 159.825 143.552 159.151 142.294C158.477 141.036 157.551 139.93 156.43 139.047L136.871 123.793C135.933 125.12 135.038 126.337 134.063 127.509ZM54.4243 57.8154C45.6936 67.1674 40.8186 79.4726 40.7754 92.2665C40.7323 105.06 45.5244 117.398 54.1918 126.809C62.8593 136.219 74.7621 142.008 87.5163 143.015C100.271 144.022 112.934 140.174 122.972 132.24C124.127 131.327 125.233 130.369 126.322 129.333C127.03 128.575 127.908 127.796 128.571 127.087C129.234 126.378 130.077 125.475 130.659 124.691C131.683 123.594 132.499 122.365 133.332 121.151C140.566 110.598 143.546 97.7019 141.675 85.0455C139.804 72.3891 133.22 60.9069 123.243 52.8984C113.265 44.89 100.63 40.9468 87.8691 41.8586C75.1077 42.7704 63.1619 48.4698 54.4243 57.8154ZM117.965 117.178C113.074 122.413 106.741 126.08 99.7667 127.715C92.7921 129.351 85.4892 128.881 78.7814 126.366C72.0737 123.851 66.2623 119.404 62.0823 113.586C57.9023 107.768 55.5413 100.841 55.2979 93.6817C55.0546 86.522 56.9397 79.451 60.7151 73.3628C64.4904 67.2746 69.9863 62.4426 76.5078 59.4779C83.0293 56.5132 90.2835 55.5489 97.353 56.707C104.423 57.8651 110.99 61.0935 116.225 65.984C123.234 72.5481 127.353 81.6241 127.679 91.2213C128.005 100.818 124.512 110.153 117.965 117.178Z" fill="#6169BC"/>
<path id="Vector_2" d="M70.5436 72.8775C65.3515 78.435 62.5797 85.8274 62.8381 93.4285C63.0965 101.03 66.3638 108.217 71.9213 113.409C72.3488 113.808 72.9174 114.021 73.5021 114.002C74.0868 113.982 74.6397 113.73 75.0391 113.303C75.4385 112.875 75.6517 112.307 75.6318 111.722C75.6119 111.137 75.3606 110.584 74.9331 110.185C70.2306 105.792 67.466 99.7103 67.2473 93.2786C67.0287 86.8469 69.374 80.5918 73.7673 75.8894C74.1667 75.4619 74.3799 74.8932 74.3601 74.3085C74.3402 73.7238 74.0888 73.171 73.6613 72.7716C73.2338 72.3722 72.6652 72.159 72.0805 72.1788C71.4958 72.1987 70.9429 72.45 70.5436 72.8775Z" fill="#6169BC"/>
</g>
<defs>
<clipPath id="clip0_1086_4715">
<rect width="150" height="150" fill="white" transform="translate(0 109.609) rotate(-46.9468)"/>
</clipPath>
</defs>
</svg>
