<svg width="120" height="143" viewBox="0 0 120 143" fill="none" xmlns="http://www.w3.org/2000/svg">
<g id="mindicon 1" clip-path="url(#clip0_644_552)">
<g id="Layer_1-2">
<path id="Vector" d="M59.9752 14.3034C59.5623 50.3989 59.7234 86.5041 60.4586 122.6C60.5191 125.363 60.5795 128.186 61.496 130.803C62.1506 132.704 63.2383 134.439 64.5073 136.017C66.4108 138.378 68.9588 140.495 72.0205 140.809C75.3541 141.152 78.5971 139.221 80.6315 136.624C82.6659 134.027 83.7133 130.852 84.6903 127.735C90.0885 127.892 95.527 125.716 99.2434 121.894C102.96 118.072 104.893 112.672 104.43 107.438C104.35 106.527 104.229 105.517 104.773 104.772C105.246 104.126 106.102 103.881 106.857 103.596C110.966 102.077 114.622 98.6176 116.143 94.5994C117.664 90.5812 117.986 86.3179 117.553 82.0547C117.392 80.4866 116.707 78.6441 115.498 77.2524C114.451 76.0469 113.001 74.9395 111.41 75.2727C115.65 70.8918 117.674 64.5607 116.727 58.6117C115.78 52.6628 111.903 47.2235 106.505 44.2931C110.614 36.8349 106.757 26.3189 98.7297 23.0749C97.7528 22.6829 96.6147 22.2614 96.2824 21.2912C96.1414 20.8698 96.1817 20.4189 96.1917 19.9779C96.4737 12.2649 88.8397 5.77691 80.9337 5.22807C73.0277 4.67924 65.4339 8.87388 59.9651 14.4602" fill="#FFD9CC"/>
<path id="Vector_2" d="M57.709 14.3034C57.4673 35.7666 57.4169 57.2299 57.5781 78.7029C57.6587 89.5129 57.7896 100.333 57.9709 111.143C58.0615 116.317 57.8601 121.61 58.3838 126.765C58.8773 131.616 60.952 136.007 64.5777 139.417C68.4149 143.034 73.7124 144.229 78.4459 141.456C83.1794 138.682 85.2843 133.341 86.8555 128.333L84.67 129.95C90.1085 130.058 95.406 128.147 99.5051 124.687C103.604 121.228 106.051 116.2 106.626 110.986C106.756 109.81 106.756 108.624 106.666 107.448C106.646 107.134 106.444 106.262 106.636 105.968C106.495 106.184 107.29 105.792 107.441 105.733C109.858 104.821 112.044 103.498 113.917 101.734C118.067 97.8238 119.688 92.3355 119.95 86.8472C120.091 83.7894 119.98 80.565 118.54 77.7816C117.1 74.9983 114.229 72.6952 110.805 73.1558L113.011 76.8408C117.855 71.7249 120.041 64.7175 118.882 57.8571C117.795 51.4083 113.444 45.6162 107.643 42.4016L108.458 45.4202C110.815 41.0099 111.027 35.7176 109.184 31.0918C108.227 28.7004 106.867 26.4953 105.024 24.6528C103.181 22.8103 101.227 21.8792 98.9814 20.811C98.3167 20.4876 98.3972 20.6248 98.4677 19.9975C98.5282 19.4389 98.4677 18.8509 98.3972 18.2922C98.2462 16.8516 97.9037 15.4991 97.3297 14.1564C96.2923 11.7161 94.6406 9.52073 92.576 7.79583C88.0338 3.97362 82.2529 2.40553 76.341 3.20917C69.3817 4.15003 63.1576 8.04085 58.3637 12.9019C56.3393 14.9502 59.542 18.0766 61.5663 16.0185C68.3947 9.09931 79.8962 3.80701 88.8194 10.4518C90.602 11.7749 92.1329 13.5292 93.0393 15.5285C93.4321 16.3811 93.7241 17.3318 93.8551 18.2726C94.0464 19.6545 93.6738 21.0952 94.3183 22.3987C95.406 24.6234 98.1656 25.0056 100.089 26.3091C101.691 27.397 102.97 28.8866 103.936 30.5233C106.172 34.326 106.656 39.2164 104.541 43.1759C103.977 44.2245 104.249 45.577 105.357 46.1944C110.11 48.8406 113.454 53.4076 114.451 58.6509C115.448 63.8942 113.565 69.7452 109.808 73.7046C108.156 75.4491 109.848 77.6836 112.014 77.3896C112.547 77.321 113.545 78.3599 113.897 78.8009C114.552 79.6143 114.965 80.5846 115.186 81.5941C115.69 83.8188 115.539 86.3865 115.277 88.6407C114.783 92.9823 113.051 97.0495 109.385 99.7251C108.569 100.323 107.673 100.842 106.746 101.254C105.82 101.666 104.742 101.94 103.876 102.567C101.761 104.106 102.164 106.37 102.214 108.614C102.305 112.75 100.764 116.964 97.9037 120.042C94.5298 123.668 89.6855 125.618 84.6801 125.53C83.6629 125.51 82.7867 126.236 82.4946 127.147C81.3162 130.92 79.9768 135.311 76.3309 137.536C74.8102 138.467 73.0678 138.927 71.3053 138.437C69.5428 137.947 68.0523 136.663 66.8437 135.331C65.4539 133.802 64.2453 131.969 63.6008 130.009C62.9058 127.892 62.795 125.687 62.7346 123.472C62.6037 118.464 62.5332 113.456 62.4526 108.448C62.1303 88.4446 61.9793 68.4417 62.0095 48.4388C62.0296 37.0505 62.1001 25.6721 62.2311 14.2936C62.2613 11.4514 57.7292 11.4514 57.6989 14.2936L57.709 14.3034Z" fill="black"/>
<path id="Vector_3" d="M68.4953 31.6798C76.6027 32.8559 82.5146 38.7656 84.0656 46.5179C85.6166 54.2701 82.1017 61.7087 76.5221 66.8344C74.3971 68.7847 77.6099 71.9013 79.7248 69.951C85.0425 65.0703 88.5272 58.3373 88.8998 51.1927C89.2523 44.4009 86.4424 37.2955 81.2255 32.7285C78.0127 29.9059 73.9741 28.034 69.6938 27.4166C68.4852 27.2402 67.2565 27.7106 66.904 28.9553C66.6119 29.9941 67.2666 31.4936 68.4852 31.67L68.4953 31.6798Z" fill="black"/>
<path id="Vector_4" d="M82.2829 36.3743C85.2641 33.7281 87.0467 29.7295 86.8453 25.7799C86.6438 21.8302 84.7504 18.155 81.6082 15.7637C80.6413 15.0287 79.3421 14.8522 78.4055 15.7637C77.6199 16.5281 77.4386 18.1452 78.4055 18.8803C83.1894 22.5261 83.6728 29.1807 79.0903 33.2479C78.1839 34.0515 78.2544 35.551 79.0903 36.3645C79.9867 37.2367 81.3866 37.1681 82.293 36.3645L82.2829 36.3743Z" fill="black"/>
<path id="Vector_5" d="M94.0162 54.7503C97.0779 56.2008 99.2029 58.4451 100.643 61.4931C101.932 64.2177 102.214 67.5205 101.368 70.441C100.583 73.1754 104.954 74.3416 105.739 71.6171C108.025 63.708 103.926 54.5543 96.2923 50.9477C95.1945 50.4283 93.845 50.6537 93.1903 51.7415C92.6062 52.7118 92.8983 54.2407 94.0061 54.7601L94.0162 54.7503Z" fill="black"/>
<path id="Vector_6" d="M76.6027 107.507C82.5146 104.135 87.6711 99.3429 90.9745 93.4625C94.5297 87.1216 95.8088 79.8005 94.4189 72.6951C94.1873 71.5289 92.7471 70.8526 91.6292 71.1564C90.3702 71.4897 89.8163 72.6951 90.048 73.8712C92.455 86.1121 84.9015 97.6572 74.3165 103.704C71.7987 105.135 74.0849 108.957 76.6027 107.517V107.507Z" fill="black"/>
<path id="Vector_7" d="M90.8234 93.1979C91.0551 93.0607 91.2867 92.9235 91.5284 92.7961C91.6594 92.7275 91.8004 92.6687 91.9313 92.6001C92.1629 92.4923 92.0622 92.5609 91.891 92.6197C92.4046 92.4433 92.9082 92.2767 93.442 92.1591C93.5628 92.1297 93.6736 92.1101 93.7945 92.0905C93.865 92.0807 94.3686 92.0219 94.0261 92.0513C93.7139 92.0807 94.1168 92.0513 94.1772 92.0513C94.3283 92.0415 94.4793 92.0317 94.6304 92.0219C95.1743 92.0023 95.7181 92.0219 96.262 92.0709C96.5339 92.0905 96.3727 92.0905 96.2015 92.0611C96.3224 92.0807 96.4433 92.1003 96.554 92.1199C96.826 92.1689 97.0878 92.2277 97.3497 92.2963C97.6115 92.3649 97.8734 92.4433 98.1252 92.5315C98.2662 92.5805 98.4072 92.6393 98.5482 92.6883C98.8503 92.7961 98.2158 92.5217 98.5079 92.6785C98.9913 92.9235 99.4647 93.1489 99.9179 93.4527C100.039 93.5311 100.16 93.6194 100.291 93.7076C100.139 93.5998 100.069 93.5311 100.26 93.688C100.492 93.884 100.713 94.08 100.925 94.2858C101.761 95.0992 103.302 95.1678 104.128 94.2858C104.954 93.4037 105.024 92.0415 104.128 91.1692C100.099 87.2588 93.3715 86.4551 88.5373 89.4051C87.5301 90.0127 87.0467 91.4044 87.7215 92.4237C88.3963 93.4429 89.7458 93.8742 90.8234 93.2175V93.1979Z" fill="black"/>
<path id="Vector_8" d="M69.0192 86.0533C69.7041 85.9651 70.3889 85.9455 71.0738 85.9945C71.245 86.0043 71.4263 86.0043 71.5874 86.0435C71.3155 85.9749 71.2853 86.0043 71.5774 86.0435C71.8694 86.0827 72.1917 86.1611 72.4938 86.2493C72.8262 86.3375 73.1485 86.4355 73.4708 86.5531C73.5715 86.5923 74.075 86.8275 73.5614 86.5825C73.7125 86.6511 73.8736 86.7197 74.0247 86.7981C74.6189 87.0824 75.1829 87.4156 75.7167 87.7978C75.9282 87.9448 75.9584 87.9938 75.7368 87.8076C75.8677 87.9154 75.9987 88.0232 76.1296 88.131C76.3914 88.3564 76.6432 88.5818 76.8749 88.8269C77.1065 89.0719 77.3382 89.3267 77.5597 89.5815C77.3784 89.3659 77.4187 89.3953 77.5597 89.6011C77.6604 89.7383 77.7612 89.8755 77.8518 90.0127C78.023 90.2675 78.1842 90.5322 78.3352 90.7968C78.4158 90.9438 78.4964 91.0908 78.5669 91.2378C78.6172 91.3358 78.7985 91.8356 78.6072 91.326C78.8287 91.963 79.0402 92.5903 79.1611 93.2567C79.3726 94.3936 80.8631 95.1384 81.9508 94.7954C83.2098 94.4034 83.7536 93.3057 83.532 92.0806C82.3738 85.7691 75.5555 80.8198 68.989 81.643C67.8207 81.79 66.6625 82.5545 66.723 83.8482C66.7733 84.9164 67.7301 86.2101 68.989 86.0533H69.0192Z" fill="black"/>
<path id="Vector_9" d="M67.0451 124.217C74.4676 125.765 82.4139 122.521 86.3921 116.21C87.0367 115.19 86.6237 113.789 85.5763 113.191C84.5289 112.593 83.1189 112.966 82.4744 113.985C81.719 115.19 80.9536 116.063 79.7249 117.072C79.3321 117.396 78.7882 117.778 78.1437 118.17C77.4991 118.562 76.8243 118.905 76.1193 119.199C76.3409 119.111 76.0589 119.218 75.9985 119.248C75.8071 119.316 75.6258 119.385 75.4345 119.444C75.0921 119.561 74.7496 119.659 74.3971 119.757C74.0144 119.855 73.6216 119.953 73.2289 120.022C73.0677 120.051 72.9167 120.081 72.7555 120.1C72.0102 120.228 72.9569 120.091 72.5239 120.13C70.9527 120.296 69.4823 120.228 68.2335 119.963C66.9846 119.699 65.7861 120.306 65.4437 121.502C65.1315 122.6 65.8264 123.962 67.0249 124.217H67.0451Z" fill="black"/>
<path id="Vector_10" d="M60.0658 14.3132C60.4586 50.4087 60.2773 86.514 59.5219 122.609C59.4615 125.373 59.391 128.196 58.4846 130.812C57.83 132.714 56.7423 134.449 55.4733 136.026C53.5698 138.379 51.0217 140.505 47.96 140.819C44.6264 141.162 41.3935 139.221 39.3591 136.624C37.3247 134.027 36.2773 130.852 35.3004 127.725C29.9021 127.882 24.4636 125.697 20.7574 121.874C17.0511 118.052 15.1073 112.652 15.5807 107.409C15.6613 106.497 15.7922 105.488 15.2383 104.743C14.7649 104.096 13.9189 103.851 13.1535 103.567C9.04439 102.038 5.3885 98.5785 3.86773 94.5602C2.34695 90.542 2.03474 86.2787 2.45774 82.0155C2.61888 80.4474 3.30373 78.6049 4.51229 77.2132C5.55971 76.0078 7.02006 74.9003 8.60126 75.2335C4.36122 70.8527 2.34695 64.5215 3.29366 58.5726C4.24037 52.6236 8.1279 47.1843 13.5261 44.2539C9.4271 36.7957 13.2844 26.2797 21.3214 23.0357C22.2983 22.6437 23.4363 22.2321 23.7687 21.252C23.9097 20.8306 23.8694 20.3798 23.8593 19.9388C23.5773 12.2257 31.2215 5.73774 39.1275 5.19871C47.0335 4.65968 54.6273 8.85432 60.0859 14.4504" fill="#FFD9CC"/>
<path id="Vector_11" d="M57.7996 14.3132C58.0211 34.473 58.0614 54.6425 57.9204 74.8023C57.8499 84.7988 57.7391 94.8052 57.578 104.802C57.4974 109.839 57.4068 114.887 57.3061 119.924C57.2154 124.344 57.4571 128.882 55.0199 132.792C52.9452 136.134 49.1886 139.956 44.8075 138.163C40.4265 136.369 38.7547 131.253 37.4756 127.147C37.1936 126.236 36.2973 125.51 35.2901 125.53C26.3065 125.697 18.4106 119.013 17.8063 110.182C17.6653 108.105 18.4106 105.694 17.2725 103.792C16.1344 101.891 13.6871 101.587 11.8843 100.548C8.02701 98.3138 5.90196 94.6974 5.02575 90.493C4.46176 87.788 4.29054 84.7694 4.72361 82.0351C4.87468 81.0648 5.23725 80.1338 5.76096 79.3007C6.14367 78.6931 7.27166 77.2916 7.9968 77.3896C10.1521 77.6836 11.8541 75.4491 10.2024 73.7046C6.44581 69.7452 4.56247 63.9922 5.5696 58.6411C6.57674 53.29 9.91035 48.8308 14.664 46.1846C15.7618 45.577 16.0337 44.2147 15.4798 43.1661C13.6267 39.6869 13.7777 35.4432 15.369 31.9052C16.1848 30.0823 17.3934 28.4456 18.9141 27.1127C19.6393 26.4757 20.445 25.9563 21.301 25.5054C22.429 24.9272 23.6577 24.6038 24.6447 23.7806C26.7496 22.0067 25.8231 19.2331 26.5079 16.881C27.1021 14.8424 28.3409 13.0587 29.8919 11.5887C33.3464 8.31527 38.1403 6.91379 42.894 7.52142C48.9569 8.30547 54.325 11.8239 58.4743 16.0283C60.4987 18.0766 63.7014 14.96 61.677 12.9117C53.5394 4.65966 40.0237 -0.88746 29.3279 6.36495C26.9913 7.95265 24.9469 9.97156 23.5469 12.4021C22.3082 14.568 21.2809 17.4494 21.573 19.9681C21.6435 20.5954 21.714 20.468 21.0492 20.7816C20.5658 21.0168 20.0522 21.1834 19.5688 21.4088C18.33 21.9772 17.2221 22.7319 16.1646 23.5747C14.3115 25.0644 12.7807 27.0147 11.7131 29.1023C9.09457 34.2083 8.81257 40.2651 11.552 45.381L12.3678 42.3624C6.56667 45.5868 2.21585 51.3691 1.11807 57.8179C-0.0401328 64.6783 2.13528 71.6955 6.97959 76.8016L9.18521 73.1166C6.05303 72.6951 3.60569 74.4102 1.94392 76.8996C0.403006 79.1929 0.0907945 81.8587 0.0102238 84.5342C-0.140846 90.1009 1.0375 95.9225 4.73368 100.303C6.31488 102.185 8.35936 103.783 10.5952 104.88C11.2196 105.184 11.8743 105.449 12.5289 105.703C12.7908 105.801 13.2037 105.85 13.395 106.056C13.2742 105.919 13.3447 105.968 13.3749 106.193C13.4051 106.478 13.3547 106.781 13.3346 107.066C13.2842 107.703 13.2339 108.34 13.2339 108.987C13.2339 114.24 15.3489 119.434 19.0048 123.286C23.134 127.637 29.2272 130.038 35.2901 129.921L33.1046 128.304C34.4743 132.694 36.116 137.369 39.933 140.329C43.75 143.289 48.4836 143.955 52.6531 141.485C56.5809 139.153 59.7333 134.85 60.9317 130.548C61.6166 128.108 61.7274 125.54 61.7777 123.031C61.8281 120.522 61.8885 117.866 61.9288 115.279C62.3317 93.7369 62.5331 72.1855 62.5331 50.6439C62.5331 38.5304 62.4626 26.4169 62.3317 14.3034C62.3014 11.471 57.7693 11.4612 57.7996 14.3034V14.3132Z" fill="black"/>
<path id="Vector_12" d="M50.9311 29.5629C47.5472 30.0137 44.2941 31.327 41.5849 33.3459C36.1464 37.3837 33.1351 44.1657 33.3566 50.8203C33.5782 57.4749 36.8715 63.8747 41.877 68.4123" fill="#FFD9CC"/>
<path id="Vector_13" d="M50.3264 27.4361C42.9743 28.4946 36.579 33.2577 33.467 39.8143C30.3549 46.3708 30.4053 53.6722 33.2857 60.268C34.887 63.9334 37.2941 67.2264 40.2651 69.9706C42.3801 71.9209 45.5929 68.8043 43.4678 66.854C37.8883 61.7185 34.4238 54.0545 35.9345 46.5276C37.4452 39.0008 43.4074 32.8657 51.5148 31.6994C52.7234 31.523 53.3982 30.0333 53.096 28.9846C52.7435 27.7204 51.5249 27.2695 50.3063 27.4459L50.3264 27.4361Z" fill="black"/>
<path id="Vector_14" d="M40.7704 32.8587C36.1779 28.7817 36.6714 22.1271 41.4654 18.4911C42.4322 17.7561 42.261 16.139 41.4654 15.3745C40.5086 14.4435 39.2295 14.6395 38.2627 15.3745C35.1204 17.7659 33.2169 21.5293 33.0155 25.3809C32.8141 29.2325 34.5866 33.3291 37.5678 35.9753C38.4742 36.7789 39.8842 36.8476 40.7704 35.9753C41.6064 35.1619 41.6769 33.6624 40.7704 32.8587Z" fill="black"/>
<path id="Vector_15" d="M23.7082 50.9379C16.0741 54.5347 11.9751 63.6884 14.2512 71.5975C15.0368 74.322 19.4077 73.1656 18.6222 70.4214C17.7762 67.5008 18.0682 64.2079 19.3574 61.4735C20.7875 58.4353 22.9327 56.1812 25.9944 54.7405C27.0922 54.2211 27.3943 52.6922 26.8102 51.7219C26.1555 50.6243 24.816 50.4087 23.7082 50.9281V50.9379Z" fill="black"/>
<path id="Vector_16" d="M44.5254 105.615C38.7948 102.381 33.88 97.7062 30.7881 92.0121C27.6861 86.3179 26.4776 79.6046 27.7768 73.293" fill="#FFD9CC"/>
<path id="Vector_17" d="M45.6638 103.714C35.0788 97.667 27.5354 86.1219 29.9525 73.8712C30.1842 72.7049 29.6202 71.4897 28.3713 71.1565C27.2635 70.8624 25.8132 71.5191 25.5816 72.6952C24.1816 79.7908 25.4506 87.1314 29.0159 93.4625C32.3193 99.3429 37.4657 104.135 43.3776 107.517C45.8955 108.957 48.1816 105.145 45.6638 103.704V103.714Z" fill="black"/>
<path id="Vector_18" d="M30.3048 91.2868C26.377 88.8366 20.727 89.4541 17.4639 92.6981L30.3048 91.2868Z" fill="white"/>
<path id="Vector_19" d="M31.4531 89.3855C26.6189 86.4356 19.8912 87.2294 15.8627 91.1398C15.0268 91.9533 14.9663 93.4528 15.8627 94.2564C16.759 95.0601 18.169 95.1287 19.0654 94.2564C19.2567 94.0702 19.4582 93.884 19.6596 93.7174C19.7402 93.6488 20.0927 93.4038 19.6999 93.6782C19.8006 93.6096 19.8912 93.541 19.9919 93.4724C20.4451 93.1686 20.9185 92.9235 21.4019 92.6883C21.6235 92.5805 21.5329 92.6295 21.3616 92.6981C21.5026 92.6393 21.6436 92.5903 21.7846 92.5413C22.0364 92.4531 22.2983 92.3747 22.5601 92.3061C22.822 92.2375 23.0838 92.1787 23.3558 92.1199C23.4766 92.1003 23.5975 92.0807 23.7083 92.0611C24.0406 91.9925 23.1543 92.1101 23.7385 92.0611C24.2521 92.0121 24.7658 91.9925 25.2794 92.0121C25.5513 92.0121 25.8232 92.0513 26.0952 92.0709C25.5312 92.0317 26.3067 92.1101 26.4779 92.1493C27.0117 92.2571 27.5152 92.4335 28.0389 92.5903C28.3511 92.6883 27.5656 92.3649 28.0792 92.6099C28.19 92.6589 28.3008 92.7079 28.4015 92.7667C28.6734 92.9039 28.9353 93.0509 29.1871 93.2078C30.1942 93.8252 31.725 93.443 32.289 92.4139C32.8732 91.3261 32.5509 90.052 31.4733 89.3953L31.4531 89.3855Z" fill="black"/>
<path id="Vector_20" d="M50.9812 81.6529C44.4247 80.8296 37.5964 85.7691 36.4382 92.0807C36.2267 93.2077 36.7504 94.5112 38.0194 94.7954C39.1272 95.0404 40.5876 94.472 40.8091 93.2567C40.93 92.5903 41.1314 91.9631 41.3631 91.326C41.2321 91.669 41.3026 91.4534 41.4033 91.2476C41.4638 91.1202 41.5242 91.0026 41.5947 90.8752C41.7458 90.6008 41.8968 90.346 42.0681 90.0813C42.1587 89.9441 42.2594 89.8069 42.3601 89.6697C42.4206 89.5913 42.7831 89.1797 42.4206 89.5815C42.6522 89.3267 42.8637 89.0719 43.1054 88.8269C43.327 88.6015 43.5485 88.3956 43.7903 88.1898C43.9212 88.082 44.0521 87.9742 44.183 87.8664C44.314 87.7684 44.2737 87.7978 44.0622 87.9546C44.1327 87.9056 44.2032 87.8566 44.2737 87.8076C44.8075 87.4352 45.3815 87.102 45.9657 86.808C46.1167 86.7296 46.2779 86.6609 46.4289 86.5923C46.0865 86.7492 46.298 86.6413 46.5196 86.5629C46.8117 86.4551 47.1138 86.3571 47.4159 86.2787C47.7181 86.2003 48.0202 86.1219 48.3324 86.0729C48.4432 86.0533 48.554 86.0337 48.6648 86.0141L48.4029 86.0435C48.4029 86.0435 48.8561 85.9945 48.9166 85.9945C49.6014 85.9455 50.2863 85.9749 50.9711 86.0533C52.1495 86.2003 53.2875 84.936 53.2372 83.8482C53.1767 82.5251 52.2401 81.7999 50.9711 81.6431L50.9812 81.6529Z" fill="black"/>
<path id="Vector_21" d="M51.7265 119.973C51.5352 120.012 51.3338 120.051 51.1323 120.091C51.0719 120.1 50.5683 120.169 50.9007 120.13C50.5482 120.169 50.1856 120.198 49.8231 120.218C49.0576 120.247 48.3124 120.218 47.5469 120.149L47.3052 120.12C47.4764 120.14 47.4764 120.14 47.3052 120.12C47.1441 120.091 46.993 120.071 46.8319 120.042C46.4391 119.973 46.0463 119.885 45.6636 119.787C45.3111 119.699 44.9687 119.591 44.6263 119.483C44.4349 119.424 44.2435 119.356 44.0623 119.287C44.0119 119.267 43.5587 119.091 43.8205 119.199C43.1558 118.924 42.5213 118.591 41.8969 118.229C41.5545 118.023 41.2221 117.817 40.8898 117.591C40.7589 117.503 40.6279 117.415 40.5071 117.317C40.7286 117.484 40.3459 117.18 40.3056 117.15C39.0568 116.121 38.2309 115.2 37.4655 113.985C36.831 112.966 35.4412 112.583 34.3636 113.191C33.2859 113.799 32.9133 115.19 33.5478 116.21C37.526 122.521 45.4722 125.775 52.8948 124.226C54.0933 123.981 54.7882 122.609 54.476 121.512C54.1336 120.306 52.8847 119.718 51.6863 119.973H51.7265Z" fill="black"/>
</g>
</g>
<defs>
<clipPath id="clip0_644_552">
<rect width="120" height="143" fill="white"/>
</clipPath>
</defs>
</svg>
