<svg width="150" height="136" viewBox="0 0 150 136" fill="none" xmlns="http://www.w3.org/2000/svg">
<g id="Group 186">
<path id="Vector" d="M85.3719 114.297C90.7521 114.297 95.9762 113.723 100.976 112.636C98.473 115.165 95.6847 117.47 92.6606 119.511L92.6599 119.511C83.0009 126.055 70.9063 129.944 57.7664 129.944C48.5921 129.944 39.9268 128.05 32.2518 124.679L31.9357 124.54L31.6939 124.786C26.3052 130.276 19.2898 132.786 13.5887 133.918C10.7419 134.484 8.23401 134.704 6.439 134.782C5.64088 134.817 4.98439 134.824 4.50253 134.821L17.7382 116.192L18.0018 115.821L17.6572 115.524C7.05626 106.378 0.5 93.6533 0.5 79.5862C0.5 67.0738 5.68693 55.6223 14.2892 46.8067C16.9921 44.0393 20.0332 41.5283 23.3545 39.329C21.3388 44.8669 20.2479 50.7703 20.2479 56.8977C20.2479 88.6586 49.4692 114.297 85.3719 114.297Z" fill="#9AA0E4" stroke="#6169BC"/>
<path id="Vector_2" d="M115.533 79.588C115.533 91.8035 110.647 103.01 102.496 111.776C97.042 113.097 91.3035 113.799 85.3725 113.799C49.6842 113.799 20.7485 88.3267 20.7485 56.8999C20.7485 50.3086 22.0234 43.9781 24.3631 38.0882C33.7942 32.1982 45.3173 28.7305 57.7666 28.7305C89.6701 28.73 115.533 51.496 115.533 79.588Z" fill="url(#paint0_linear_1086_4693)"/>
<path id="Vector_3" d="M130.615 97.5275L146.033 119.229C146.033 119.229 126.418 120.366 114.147 107.862C110.386 109.506 106.488 110.816 102.496 111.775C97.042 113.096 91.3035 113.798 85.3725 113.798C49.6842 113.798 20.7485 88.3256 20.7485 56.8988C20.7485 50.3075 22.0234 43.977 24.3631 38.0871C33.1839 15.9035 57.1702 0 85.3721 0C121.064 0 150 25.468 150 56.8988C150 72.8167 142.583 87.2022 130.615 97.5275Z" fill="#6169BC"/>
<path id="Vector_4" d="M61.2433 69.6019C66.351 69.6019 70.4916 65.4613 70.4916 60.3537C70.4916 55.246 66.351 51.1055 61.2433 51.1055C56.1357 51.1055 51.9951 55.246 51.9951 60.3537C51.9951 65.4613 56.1357 69.6019 61.2433 69.6019Z" fill="#9AA0E4"/>
<path id="Vector_5" d="M86.2912 69.6019C91.3988 69.6019 95.5394 65.4613 95.5394 60.3537C95.5394 55.246 91.3988 51.1055 86.2912 51.1055C81.1835 51.1055 77.043 55.246 77.043 60.3537C77.043 65.4613 81.1835 69.6019 86.2912 69.6019Z" fill="#9AA0E4"/>
<path id="Vector_6" d="M111.34 69.6019C116.447 69.6019 120.588 65.4613 120.588 60.3537C120.588 55.246 116.447 51.1055 111.34 51.1055C106.232 51.1055 102.091 55.246 102.091 60.3537C102.091 65.4613 106.232 69.6019 111.34 69.6019Z" fill="#9AA0E4"/>
</g>
<defs>
<linearGradient id="paint0_linear_1086_4693" x1="68.1406" y1="28.73" x2="68.1406" y2="113.799" gradientUnits="userSpaceOnUse">
<stop offset="0.394" stop-color="#80E8BE"/>
<stop offset="1" stop-color="#00C278"/>
</linearGradient>
</defs>
</svg>
