<svg width="132" height="132" viewBox="0 0 132 132" fill="none" xmlns="http://www.w3.org/2000/svg">
<g id="Lotus">
<path id="Vector" d="M65.5744 102.48C62.5013 109.177 54.0445 115.154 37.8511 115.578C30.0334 115.791 16.2969 115.082 7.03218 119.85C3.93894 121.442 0.363082 118.726 1.0285 115.312C3.18536 104.247 9.46902 94.7294 18.1184 88.279C35.9438 104.197 64.5571 102.543 65.5744 102.48ZM130.796 115.315C131.463 118.729 127.887 121.448 124.794 119.856C115.52 115.082 101.775 115.791 93.9544 115.578C77.7403 115.154 69.2836 109.198 66.2105 102.48C66.2105 102.48 95.5652 104.493 113.708 88.2578C122.342 94.7253 128.635 104.248 130.796 115.315Z" fill="#13BD79"/>
<path id="Vector_2" d="M115.785 38.2791C107.54 39.4238 97.3242 42.0731 88.6132 47.9017C87.0658 40.2715 83.7173 33.2982 80.0291 27.5118C88.9398 19.1489 99.6179 14.1971 105.249 11.9706C107.453 11.0995 109.918 12.2271 110.73 14.4531C112.502 19.3103 115.224 28.2082 115.785 38.2791Z" fill="#6169BC"/>
<path id="Vector_3" opacity="0.08" d="M115.79 38.2798C114.616 38.4476 113.386 38.6433 112.142 38.8671C111.233 28.6623 108.493 19.7998 106.676 14.7954C106.256 13.6631 105.474 12.7824 104.495 12.2652C104.761 12.1672 105.012 12.0695 105.25 11.9716C107.459 11.1048 109.919 12.2371 110.73 14.46C112.505 19.3105 115.217 28.215 115.79 38.2798Z" fill="black"/>
<path id="Vector_4" d="M51.7551 27.5114C48.0671 33.2977 44.7182 40.2708 43.1922 47.9013C34.4809 42.0726 24.2651 39.4234 16.0203 38.2787C16.582 28.208 19.3032 19.3101 21.0752 14.4532C21.8873 12.2272 24.353 11.0993 26.5565 11.9707C32.1867 14.1972 42.8596 19.149 51.7551 27.5114Z" fill="#6169BC"/>
<path id="Vector_5" opacity="0.08" d="M51.7524 27.5123C51.0674 28.5748 50.4105 29.679 49.7675 30.8252C39.3111 23.2069 28.7011 18.3842 22.4105 15.8958C21.8513 15.672 21.2782 15.5323 20.7051 15.4903C20.8309 15.1268 20.9428 14.7774 21.0686 14.4559C21.8933 12.2333 24.3536 11.101 26.5623 11.9675C32.1819 14.1904 42.8617 19.153 51.7524 27.5123Z" fill="black"/>
<path id="Vector_6" d="M67.6008 102.037C67.4338 102.032 67.2811 102.027 67.1435 102.023C69.2037 100.081 74.3804 94.9007 79.2863 87.6093C84.8002 79.4144 90.0035 68.5065 90.0035 56.5074C90.0035 53.6425 89.7062 50.8382 89.1699 48.1326C102.513 39.3374 119.321 38.0063 127.027 37.9027C129.112 37.8747 130.815 39.5488 130.788 41.6219C130.731 46.1461 130.251 53.8732 128.053 62.1987C125.854 70.5266 121.944 79.4205 115.05 86.3143C106.18 95.1848 94.0003 99.1117 83.9911 100.813C78.9926 101.662 74.551 101.954 71.3597 102.034C69.7644 102.073 68.4824 102.06 67.6008 102.037Z" fill="#6169BC" stroke="black"/>
<path id="Vector_7" opacity="0.08" d="M131.292 41.6343C131.167 50.7346 129.363 72.7095 115.398 86.6744C98.3159 103.757 69.1839 102.638 66.416 102.499C76.5648 102.079 96.191 99.5073 109.024 86.6744C122.989 72.7095 124.792 50.7346 124.918 41.6343C124.946 39.7611 123.73 38.1815 122.052 37.6083C123.953 37.4825 125.631 37.4127 127.015 37.3987C129.377 37.3706 131.32 39.2717 131.292 41.6343Z" fill="black"/>
<path id="Vector_8" d="M65.811 102.225C65.7899 102.395 65.7899 102.48 65.7899 102.48C65.7899 102.48 34.5484 104.62 16.5961 86.6681C2.64049 72.7125 0.827037 50.7262 0.711279 41.6283C0.681373 39.2678 2.61935 37.371 4.97962 37.4027C12.7625 37.5074 29.874 38.8571 43.3862 47.9021C42.8139 50.6788 42.4962 53.5611 42.4962 56.5074C42.4962 80.2672 63.1403 99.8091 65.811 102.225Z" fill="#6169BC"/>
<path id="Vector_9" opacity="0.08" d="M65.8152 102.233C65.7871 102.401 65.7871 102.484 65.7871 102.484C65.7871 102.484 63.4109 102.652 59.5806 102.512C53.0945 95.7887 39.2693 79.1676 39.2693 59.7231C39.2693 56.7876 39.5908 53.9079 40.1639 51.1261C26.6602 42.0817 9.53607 40.7256 1.76379 40.6279C1.4423 40.6279 1.12081 40.656 0.799316 40.7259C1.20486 38.8109 2.92421 37.371 4.97897 37.3988C12.7652 37.5107 29.8754 38.8526 43.393 47.9111C42.8199 50.679 42.4984 53.5585 42.4984 56.5082C42.4984 80.2718 63.1453 99.8145 65.8152 102.233Z" fill="black"/>
<path id="Vector_10" opacity="0.4" d="M9.63328 54.4613C8.98927 50.8246 8.67164 47.538 8.52185 44.9896C8.45534 43.8573 7.49782 42.9931 6.36422 43.0284C5.18782 43.0653 4.26666 44.0537 4.33214 45.2288C4.49431 48.1323 4.82946 51.5504 5.46755 55.2139C5.64106 56.2101 6.51943 56.9296 7.53057 56.9296H7.57285C8.87738 56.9296 9.86068 55.7458 9.63328 54.4613Z" fill="white"/>
<path id="Vector_11" d="M89.4976 56.5172C89.4976 81.9063 65.9026 102.473 65.9026 102.473C65.9026 102.473 42.3076 81.9063 42.3076 56.5172C42.3076 36.7809 56.5654 19.9586 62.9143 13.4463C64.5504 11.7679 67.2546 11.7679 68.8907 13.4463C75.2398 19.9586 89.4976 36.7809 89.4976 56.5172Z" fill="#6169BC"/>
<path id="Vector_12" opacity="0.08" d="M89.4954 56.5214C89.4954 81.9072 65.8989 102.47 65.8989 102.47C65.8989 102.47 65.0463 101.729 63.6482 100.331C69.5333 94.4601 84.994 77.0704 84.994 56.5214C84.994 36.783 70.7355 19.9525 64.3752 13.4523C64.1514 13.2146 63.914 13.0189 63.6482 12.8511C65.2838 11.7886 67.4785 11.9985 68.8903 13.4523C75.2371 19.9525 89.4954 36.7833 89.4954 56.5214Z" fill="black"/>
<path id="Vector_13" d="M65.5744 102.48C62.5013 109.177 54.0445 115.154 37.8511 115.578C30.0334 115.791 16.2969 115.082 7.03218 119.85C3.93894 121.442 0.363082 118.726 1.0285 115.312C3.18536 104.247 9.46902 94.7294 18.1184 88.279C35.9438 104.197 64.5571 102.543 65.5744 102.48ZM130.796 115.315C131.463 118.729 127.887 121.448 124.794 119.856C115.52 115.082 101.775 115.791 93.9544 115.578C77.7403 115.154 69.2836 109.198 66.2105 102.48C66.2105 102.48 95.5652 104.493 113.708 88.2578C122.342 94.7253 128.635 104.248 130.796 115.315Z" fill="#9AA0E4"/>
<path id="Vector_14" d="M114.751 88.2219C126.988 76.8758 131.751 58.2184 131.961 41.6377C131.997 38.8281 129.661 36.6764 127.01 36.7305C124.181 36.7687 120.517 36.9579 116.405 37.4978C115.737 27.4805 112.978 18.6525 111.363 14.224C110.421 11.6446 107.566 10.3347 105.002 11.3463C99.4925 13.5246 89.0503 18.3624 80.1699 26.4789C76.2455 20.427 72.0496 15.7211 69.3727 12.9752C67.4709 11.0243 64.3343 11.0246 62.4327 12.9752C59.7538 15.7232 55.5543 20.4332 51.6278 26.4905C42.7603 18.3681 32.3148 13.5264 26.8043 11.3471C24.2447 10.3349 21.3858 11.6415 20.4428 14.2245C18.8291 18.6494 16.0734 27.466 15.4023 37.4725C11.3685 36.9515 7.7749 36.7682 4.98898 36.7308C2.24766 36.6844 0.00442896 38.9039 0.038718 41.638C0.249093 58.2262 5.0096 76.8255 17.182 88.1579C8.42381 94.8923 2.45829 104.459 0.367945 115.184C-0.407555 119.159 3.75766 122.293 7.34023 120.45C16.3397 115.818 29.4433 116.483 37.8683 116.252C51.7487 115.888 61.9057 111.201 65.891 103.363C68.3616 108.23 75.205 115.762 93.9356 116.252C102.344 116.48 115.443 115.8 124.486 120.455C128.069 122.299 132.232 119.158 131.457 115.187C129.373 104.516 123.448 94.9766 114.751 88.2219ZM127.029 38.0768C128.969 38.0461 130.642 39.6033 130.615 41.6207C130.504 50.4173 128.751 72.3698 114.928 86.1931C103.444 97.6774 83.8842 102.257 67.5678 101.86C79.5298 90.4066 90.1767 73.2876 90.1767 56.5086C90.1767 53.8864 89.8534 50.7328 89.3635 48.2225C100.04 41.2263 114.384 38.2472 127.029 38.0768ZM105.497 12.5983C107.341 11.8684 109.412 12.8063 110.098 14.6855C111.694 19.0606 114.43 27.7917 115.075 37.6834C105.93 39.0271 96.8233 41.8468 89.067 46.8022C87.5514 40.0109 84.5847 33.5262 80.8985 27.6249C89.6556 19.5569 100.038 14.7567 105.497 12.5983ZM63.3964 13.9152C64.7703 12.5067 67.0354 12.5067 68.409 13.9152C79.3207 25.1086 88.8242 40.8269 88.8242 56.5161C88.8242 79.2036 69.4478 98.2621 65.9913 101.48C62.6382 98.3835 43.1695 79.4173 43.1695 56.5086C43.1697 40.6516 52.1021 25.5005 63.3964 13.9152ZM21.7073 14.686C22.3934 12.8081 24.4631 11.8681 26.3085 12.5988C31.7669 14.7577 42.1449 19.5582 50.8878 27.6259C47.263 33.4042 44.2567 40.0202 42.7619 46.6973C34.344 41.3523 24.7745 38.8188 16.7328 37.6556C17.3818 27.7757 20.1133 19.0567 21.7073 14.686ZM1.38476 41.6207C1.3582 39.6018 3.03837 38.0382 4.97041 38.0768C17.6112 38.2472 31.8966 41.3111 42.4484 48.2266C38.6167 68.2123 50.0608 88.1961 64.2608 101.861C48.3914 102.29 28.7289 97.8504 17.0719 86.1929C3.249 72.3705 1.49665 50.4178 1.38476 41.6207ZM37.8322 114.906C29.12 115.142 16.0448 114.456 6.72354 119.253C4.09385 120.605 1.13855 118.267 1.68898 115.441C3.72415 105.002 9.53808 95.6855 18.0853 89.1482C30.1762 99.6672 48.7261 103.58 64.4555 103.204C60.5403 110.317 50.9278 114.563 37.8322 114.906ZM125.102 119.258C115.653 114.394 101.875 115.12 93.9719 114.906C80.8503 114.563 71.2285 110.315 67.3239 103.199C82.903 103.627 101.855 99.4829 113.74 89.1281C122.285 95.6912 128.1 105.016 130.136 115.445C130.688 118.276 127.727 120.609 125.102 119.258Z" fill="#FDE1E5"/>
</g>
</svg>
