<svg width="158" height="158" viewBox="0 0 158 158" fill="none" xmlns="http://www.w3.org/2000/svg">
<g id="Group">
<path id="Vector" fill-rule="evenodd" clip-rule="evenodd" d="M37.7521 102.379C36.2379 102.162 34.6283 102.04 32.9167 102.04C20.3096 102.04 13.2687 108.693 10.5695 112.008C10.1317 112.577 9.89805 113.275 9.89805 113.996C9.89805 114.015 9.89803 114.035 9.89474 114.052C9.87499 115.27 9.875 116.882 9.875 118.499C9.875 120.316 11.3497 121.79 13.1667 121.79H36.7745C36.4025 120.744 36.2083 119.631 36.2083 118.499C36.2083 114.753 36.2083 110.289 36.2215 107.653C36.2215 105.776 36.758 103.95 37.7521 102.379ZM111.917 121.79H46.0833C45.211 121.79 44.3717 121.445 43.7561 120.826C43.1373 120.21 42.7917 119.371 42.7917 118.499C42.7917 114.763 42.7917 110.319 42.8048 107.672C42.8048 107.666 42.8048 107.659 42.8048 107.653C42.8048 106.896 43.0682 106.165 43.5455 105.579C47.6304 100.915 59.9742 88.8737 79 88.8737C100.534 88.8737 111.347 100.892 114.655 105.424C115.021 105.98 115.208 106.609 115.208 107.251V118.499C115.208 119.371 114.863 120.21 114.244 120.826C113.628 121.445 112.789 121.79 111.917 121.79ZM121.226 121.79H144.833C146.65 121.79 148.125 120.316 148.125 118.499V113.992C148.125 113.265 147.885 112.561 147.444 111.985C144.731 108.693 137.687 102.04 125.083 102.04C123.461 102.04 121.93 102.149 120.488 102.346C121.341 103.838 121.792 105.53 121.792 107.258V118.499C121.792 119.631 121.597 120.744 121.226 121.79ZM32.9167 62.5404C23.8317 62.5404 16.4583 69.9137 16.4583 78.9987C16.4583 88.0837 23.8317 95.457 32.9167 95.457C42.0017 95.457 49.375 88.0837 49.375 78.9987C49.375 69.9137 42.0017 62.5404 32.9167 62.5404ZM125.083 62.5404C115.998 62.5404 108.625 69.9137 108.625 78.9987C108.625 88.0837 115.998 95.457 125.083 95.457C134.168 95.457 141.542 88.0837 141.542 78.9987C141.542 69.9137 134.168 62.5404 125.083 62.5404ZM79 36.207C66.2843 36.207 55.9583 46.533 55.9583 59.2487C55.9583 71.9644 66.2843 82.2904 79 82.2904C91.7157 82.2904 102.042 71.9644 102.042 59.2487C102.042 46.533 91.7157 36.207 79 36.207Z" fill="#6169BC"/>
</g>
</svg>
