<svg width="30" height="30" viewBox="0 0 30 30" fill="none" xmlns="http://www.w3.org/2000/svg">
<g id="Facebook" clipPath="url(#clip0_425_142)">
<path id="Exclude" fill-rule="evenodd" clip-rule="evenodd" d="M30 15C30 23.2843 23.2843 30 15 30C6.71573 30 0 23.2843 0 15C0 6.71573 6.71573 0 15 0C23.2843 0 30 6.71573 30 15ZM16.7068 9.25501C16.71 9.46094 16.7104 9.89145 16.7098 10.305C16.709 10.8181 16.7068 11.305 16.7068 11.305H17.7069H18.8892H19.8918L19.8195 12.305L19.6337 14.8764H17.7813H16.7813V15.8764V24.3958V25.3958H15.7813H13.4597H12.4597V24.3958V15.9453V14.9453H11.4597H11.1079H10.1079V13.9453V12.3152V11.3152H11.1079H11.3891H12.3891C12.3891 10.9498 12.3902 10.5983 12.3913 10.2542V10.2541C12.3935 9.58744 12.3955 8.94886 12.3891 8.29196C12.3891 5.4336 14.5824 4.60425 16.5543 4.60425H18.8788H19.8772H19.8788V5.60425V8.19006V8.19014C19.6885 8.19125 19.1227 8.19085 18.6045 8.19048L17.9529 8.19014L17.9417 8.18996C17.8022 8.18709 16.7068 8.16457 16.7068 9.25501ZM15.7069 11.3005L15.7069 11.3005L15.7023 12.305H16.7068H18.8169L18.7034 13.8764H16.7813H15.7813V14.8764V24.3958H13.4597V14.9453V13.9453H12.4597H11.1079V12.3152H12.3891H13.3891V11.3152C13.3891 10.9572 13.3902 10.6092 13.3913 10.2667L13.3913 10.2661V10.2659C13.3934 9.59673 13.3955 8.94855 13.3891 8.28738C13.3902 7.15654 13.8037 6.55213 14.3114 6.19145C14.8745 5.79142 15.6832 5.60425 16.5543 5.60425H18.8788V7.19067L18.6124 7.19048L17.9529 7.19014C17.9559 7.19014 17.4389 7.16103 16.9216 7.37474C16.6463 7.48845 16.3293 7.68557 16.0833 8.0233C15.8314 8.36917 15.7068 8.79004 15.7068 9.25501V9.26274L15.707 9.27047C15.7104 9.49049 15.7104 9.99307 15.7095 10.4511C15.7091 10.6778 15.7084 10.8902 15.7078 11.046L15.7071 11.2318L15.7069 11.2828L15.7069 11.2961L15.7069 11.2994L15.7069 11.3003V11.3005Z" fill="white"/>
</g>
<defs>
<clipPath id="clip0_425_142">
<rect width="30" height="30" fill="white"/>
</clipPath>
</defs>
</svg>
