<svg width="30" height="30" viewBox="0 0 30 30" fill="none" xmlns="http://www.w3.org/2000/svg">
<g id="Instagram" clip-path="url(#clip0_425_138)">
<path id="Vector" d="M21.0906 10.3922C20.9605 10.0551 20.7611 9.74897 20.5055 9.49358C20.2498 9.23819 19.9435 9.03918 19.6062 8.90938C19.1419 8.73738 18.6514 8.64648 18.1562 8.64063C17.3328 8.60313 17.0859 8.59375 15 8.59375C12.9141 8.59375 12.6672 8.60313 11.8437 8.64063C11.3481 8.6463 10.857 8.73721 10.3922 8.90938C10.0551 9.03954 9.74897 9.23887 9.49358 9.49452C9.23819 9.75018 9.03918 10.0565 8.90938 10.3937C8.73738 10.8581 8.64648 11.3486 8.64063 11.8437C8.60313 12.6672 8.59375 12.9141 8.59375 15C8.59375 17.0859 8.60313 17.3328 8.64063 18.1562C8.6463 18.6519 8.73721 19.143 8.90938 19.6078C9.03954 19.9449 9.23887 20.251 9.49452 20.5064C9.75018 20.7618 10.0565 20.9608 10.3937 21.0906C10.8581 21.2626 11.3486 21.3535 11.8437 21.3594C12.6672 21.3969 12.9141 21.4062 15 21.4062C17.0859 21.4062 17.3328 21.3969 18.1562 21.3594C18.6519 21.3537 19.143 21.2628 19.6078 21.0906C19.9449 20.9605 20.251 20.7611 20.5064 20.5055C20.7618 20.2498 20.9608 19.9435 21.0906 19.6062C21.2626 19.1419 21.3535 18.6514 21.3594 18.1562C21.3969 17.3328 21.4062 17.0859 21.4062 15C21.4062 12.9141 21.3969 12.6672 21.3594 11.8437C21.3537 11.3481 21.2628 10.857 21.0906 10.3922ZM15 19.0125C14.2064 19.0125 13.4306 18.7772 12.7708 18.3363C12.1109 17.8954 11.5966 17.2687 11.2929 16.5355C10.9892 15.8023 10.9098 14.9955 11.0646 14.2172C11.2194 13.4389 11.6016 12.7239 12.1627 12.1627C12.7239 11.6016 13.4389 11.2194 14.2172 11.0646C14.9955 10.9098 15.8023 10.9892 16.5355 11.2929C17.2687 11.5966 17.8954 12.1109 18.3363 12.7708C18.7772 13.4306 19.0125 14.2064 19.0125 15C19.0125 16.0642 18.5898 17.0848 17.8373 17.8373C17.0848 18.5898 16.0642 19.0125 15 19.0125ZM19.1703 11.7672C18.9849 11.7672 18.8036 11.7122 18.6495 11.6092C18.4953 11.5062 18.3751 11.3598 18.3042 11.1885C18.2332 11.0171 18.2147 10.8286 18.2508 10.6468C18.287 10.4649 18.3763 10.2979 18.5074 10.1668C18.6385 10.0357 18.8056 9.94637 18.9874 9.9102C19.1693 9.87403 19.3578 9.89259 19.5291 9.96355C19.7004 10.0345 19.8468 10.1547 19.9498 10.3088C20.0528 10.463 20.1078 10.6443 20.1078 10.8297C20.1078 11.0783 20.009 11.3168 19.8332 11.4926C19.6574 11.6684 19.419 11.7672 19.1703 11.7672Z" fill="white"/>
<path id="Vector_2" d="M15.0002 17.6046C16.4387 17.6046 17.6049 16.4385 17.6049 15C17.6049 13.5614 16.4387 12.3953 15.0002 12.3953C13.5617 12.3953 12.3955 13.5614 12.3955 15C12.3955 16.4385 13.5617 17.6046 15.0002 17.6046Z" fill="white"/>
<path id="Vector_3" d="M15 0C12.0333 0 9.13319 0.879735 6.66645 2.52796C4.19972 4.17618 2.27713 6.51886 1.14181 9.25975C0.00649923 12.0006 -0.290551 15.0166 0.288228 17.9264C0.867006 20.8361 2.29562 23.5088 4.3934 25.6066C6.49119 27.7044 9.16394 29.133 12.0737 29.7118C14.9834 30.2906 17.9994 29.9935 20.7403 28.8582C23.4811 27.7229 25.8238 25.8003 27.472 23.3336C29.1203 20.8668 30 17.9667 30 15C30 11.0218 28.4197 7.20644 25.6066 4.3934C22.7936 1.58035 18.9783 0 15 0ZM22.7656 18.2219C22.7522 18.8697 22.6291 19.5105 22.4016 20.1172C22.2009 20.6361 21.8941 21.1073 21.5007 21.5007C21.1073 21.894 20.6361 22.2009 20.1172 22.4016C19.5105 22.6291 18.8697 22.7522 18.2219 22.7656C17.3875 22.8031 17.1219 22.8125 15 22.8125C12.8781 22.8125 12.6125 22.8031 11.7781 22.7656C11.1303 22.7522 10.4895 22.6291 9.88282 22.4016C9.36395 22.2009 8.89272 21.894 8.49934 21.5007C8.10596 21.1073 7.79911 20.6361 7.59844 20.1172C7.37088 19.5105 7.24779 18.8697 7.23438 18.2219C7.19688 17.3875 7.18751 17.1219 7.18751 15C7.18751 12.8781 7.19688 12.6125 7.23438 11.7781C7.24779 11.1303 7.37088 10.4895 7.59844 9.88281C7.79911 9.36394 8.10596 8.89271 8.49934 8.49933C8.89272 8.10595 9.36395 7.7991 9.88282 7.59844C10.4895 7.37088 11.1303 7.24778 11.7781 7.23437C12.6125 7.19687 12.8781 7.1875 15 7.1875C17.1219 7.1875 17.3875 7.19687 18.2219 7.23437C18.8697 7.24778 19.5105 7.37088 20.1172 7.59844C20.6361 7.7991 21.1073 8.10595 21.5007 8.49933C21.8941 8.89271 22.2009 9.36394 22.4016 9.88281C22.6291 10.4895 22.7522 11.1303 22.7656 11.7781C22.8031 12.6125 22.8125 12.8781 22.8125 15C22.8125 17.1219 22.8031 17.3875 22.7656 18.2219Z" fill="white"/>
</g>
<defs>
<clipPath id="clip0_425_138">
<rect width="30" height="30" fill="white"/>
</clipPath>
</defs>
</svg>
