<svg width="150" height="150" viewBox="0 0 150 150" fill="none" xmlns="http://www.w3.org/2000/svg">
<g id="Coffee Time">
<g id="coffee time-clock-coffee cup-Coffee break-mug">
<path id="Vector" d="M0 131.25C0 131.872 0.246931 132.468 0.686469 132.907C1.12601 133.347 1.72215 133.594 2.34375 133.594H128.906C129.528 133.594 130.124 133.347 130.564 132.907C131.003 132.468 131.25 131.872 131.25 131.25V126.562H0V131.25ZM0.117188 35.1562C0.675006 41.776 3.55804 47.9846 8.25548 52.682C12.9529 57.3795 19.1615 60.2625 25.7812 60.8203V56.25H30.4688V60.8203C37.0885 60.2625 43.2971 57.3795 47.9945 52.682C52.692 47.9846 55.575 41.776 56.1328 35.1562H51.5625V30.4688H56.1328C55.575 23.849 52.692 17.6404 47.9945 12.943C43.2971 8.24554 37.0885 5.36251 30.4688 4.80469V9.375H25.7812V4.80469C19.1615 5.36251 12.9529 8.24554 8.25548 12.943C3.55804 17.6404 0.675006 23.849 0.117188 30.4688H4.6875V35.1562H0.117188ZM25.7812 14.0625H30.4688V27.1547L35.843 21.7805L39.157 25.0945L29.782 34.4695C29.4543 34.7972 29.0367 35.0203 28.5821 35.1107C28.1275 35.2011 27.6564 35.1547 27.2282 34.9774C26.8 34.8 26.4339 34.4997 26.1764 34.1144C25.9189 33.729 25.7813 33.276 25.7812 32.8125V14.0625Z" fill="#6169BC"/>
<path id="Vector_2" d="M124.219 42.1875H59.5547C57.2017 50.1309 51.9243 56.8866 44.7868 61.0926C37.6493 65.2986 29.1826 66.6418 21.0938 64.8516V96.0938C21.0981 102.93 23.8157 109.485 28.6497 114.319C33.4837 119.153 40.0387 121.871 46.875 121.875H84.375C91.2113 121.871 97.7663 119.153 102.6 114.319C107.434 109.485 110.152 102.93 110.156 96.0938V89.0625C110.156 88.4409 110.403 87.8448 110.843 87.4052C111.282 86.9657 111.878 86.7188 112.5 86.7188H124.219C126.082 86.7132 127.867 85.9706 129.184 84.6532C130.502 83.3358 131.244 81.5506 131.25 79.6875V49.2188C131.244 47.3557 130.502 45.5705 129.184 44.2531C127.867 42.9356 126.082 42.1931 124.219 42.1875ZM126.562 75C126.562 76.2432 126.069 77.4355 125.19 78.3146C124.31 79.1936 123.118 79.6875 121.875 79.6875H112.5C111.878 79.6875 111.282 79.4406 110.843 79.001C110.403 78.5615 110.156 77.9654 110.156 77.3438V51.5625C110.156 50.9409 110.403 50.3448 110.843 49.9052C111.282 49.4657 111.878 49.2188 112.5 49.2188H121.875C123.118 49.2188 124.31 49.7126 125.19 50.5917C126.069 51.4708 126.562 52.663 126.562 53.9062V75ZM81.1898 17.0344C85.868 13.125 91.1719 8.71406 91.1719 0H86.4844C86.4844 6.52031 82.6406 9.72422 78.1852 13.4344C73.507 17.3438 68.2031 21.7547 68.2031 30.4688H72.8906C72.8906 23.9484 76.7344 20.7445 81.1898 17.0344ZM106.971 17.0344C111.649 13.125 116.953 8.71406 116.953 0H112.266C112.266 6.52031 108.422 9.72422 103.966 13.4344C99.2883 17.3438 93.9844 21.7547 93.9844 30.4688H98.6719C98.6719 23.9484 102.516 20.7445 106.971 17.0344Z" fill="#6169BC"/>
</g>
</g>
</svg>
