<svg width="135" height="117" viewBox="0 0 135 117" fill="none" xmlns="http://www.w3.org/2000/svg">
<g id="hearticon" clip-path="url(#clip0_406_1187)">
<g id="Layer_1-2">
<path id="Vector" d="M68.36 23.04C74.93 12 85.68 2.92 98.36 0.8C111.04 -1.32 126.84 4.36 132.02 16.11C134.8 22.43 135.03 30.28 134.02 37.11C132.68 46.17 127.85 54.77 123.18 62.64C116.57 73.77 107.53 83.32 98.02 92.11C89.5399 99.95 80.5 107.21 71.84 114.83C71.02 115.55 70.12 116.3 69.04 116.4C67.96 116.49 66.96 115.91 66.04 115.33C58.25 110.35 51.46 103.98 44.72 97.65C38.4 91.72 32.09 85.79 25.9 79.73C18.8 72.78 11.79 65.57 6.81995 56.97C1.83995 48.37 -0.950046 38.14 0.999954 28.41C3.98995 13.53 18.59 2.21 33.76 1.91C48.93 1.61 61.88 9.43 68.15 23.25" fill="url(#paint0_linear_406_1187)"/>
<path id="Vector_2" d="M68.6902 23.23C75.0602 12.61 85.2802 3.66 97.7102 1.3C108.23 -0.690003 120.69 2.52 127.99 10.62C132.26 15.36 133.9 21.66 134.16 27.92C134.46 35.19 132.99 42.25 130.09 48.9C124.37 62.03 115.83 73.79 105.86 84C95.3702 94.75 83.5802 104.06 72.3002 113.94C71.5802 114.57 70.8702 115.32 70.0002 115.74C68.8502 116.29 67.7902 115.94 66.7602 115.33C65.1502 114.39 63.6202 113.28 62.1102 112.19C59.0702 109.98 56.1802 107.58 53.3602 105.1C47.7002 100.11 42.2502 94.85 36.7702 89.66C31.3802 84.56 25.9702 79.45 20.8102 74.11C15.7902 68.92 11.0402 63.41 7.37017 57.16C0.550168 45.58 -2.13983 30.81 5.20017 18.82C11.2402 8.93 22.5302 2.41 34.1302 2.28C45.6202 2.15 56.7502 7.09 63.6802 16.38C65.3202 18.58 66.6902 20.95 67.8302 23.44C68.0302 23.88 68.6802 23.5 68.4802 23.06C63.6102 12.45 54.2202 4.69 42.7302 2.34C31.0402 -0.0600033 18.9802 3.17 10.2702 11.4C6.04017 15.4 2.78017 20.46 1.18017 26.07C-0.729832 32.76 -0.189831 39.96 1.83017 46.56C6.23017 60.95 17.2102 71.85 27.7302 82.05C33.6802 87.82 39.7202 93.49 45.7702 99.16C51.3202 104.36 56.9502 109.53 63.2002 113.88C64.5902 114.85 66.1002 116.12 67.7502 116.61C69.1402 117.03 70.3402 116.52 71.4302 115.66C74.5502 113.21 77.4602 110.44 80.4902 107.87C86.7102 102.59 92.9602 97.33 98.9302 91.77C104.43 86.65 109.74 81.29 114.52 75.49C119.21 69.79 123.18 63.64 126.75 57.19C130.36 50.68 133.51 43.79 134.49 36.35C135.38 29.63 135.13 22.4 132.41 16.11C127.97 5.81 116.12 0.549997 105.45 0.039997C92.9502 -0.560003 81.4202 6.02 73.4502 15.31C71.4302 17.67 69.6302 20.2 68.0302 22.86C67.7802 23.27 68.4302 23.65 68.6802 23.24L68.6902 23.23Z" fill="black"/>
<path id="Vector_3" d="M13.0204 66.5C16.6104 66.88 20.2004 67.12 23.8004 67.24C25.6604 67.31 27.5204 67.34 29.3704 67.37C31.1104 67.39 32.9404 67.56 34.6704 67.37C37.6404 67.05 37.9904 63.25 38.7204 60.95C39.8704 57.3 41.0304 53.64 42.1804 49.99L41.4904 50.08C44.4104 55.68 47.3304 61.28 50.2504 66.88C50.4004 67.16 50.8704 67.1 50.9404 66.79C53.0104 57.48 55.7004 48.32 59.0004 39.38H58.2804C61.9304 53.88 66.2004 68.23 71.0704 82.37C71.1904 82.73 71.6704 82.72 71.7904 82.37C75.7404 71.55 79.7004 60.73 83.6504 49.9H82.9304C84.2804 54.61 85.6204 59.33 86.9704 64.04C87.3704 65.43 87.8204 67 89.1904 67.74C90.5604 68.48 92.2604 68.13 93.7404 67.87C99.9504 66.79 106.2 65.95 112.44 65.01C115.68 64.53 118.91 64.05 122.13 63.48C122.6 63.4 122.4 62.67 121.93 62.76C116.32 63.75 110.68 64.52 105.05 65.36C102.14 65.79 99.2304 66.22 96.3304 66.69C95.1904 66.87 94.0504 67.08 92.9104 67.26C91.8504 67.43 90.5704 67.63 89.5704 67.09C88.5704 66.55 88.1704 65.43 87.8604 64.42C86.3704 59.54 85.0504 54.6 83.6504 49.7C83.5404 49.33 83.0504 49.36 82.9304 49.7C78.9804 60.52 75.0204 71.34 71.0704 82.17H71.7904C66.9204 68.03 62.6604 53.68 59.0004 39.18C58.9004 38.8 58.4004 38.85 58.2804 39.18C54.9804 48.13 52.2904 57.29 50.2204 66.59L50.9104 66.5C47.9904 60.9 45.0704 55.3 42.1504 49.7C41.9904 49.4 41.5604 49.5 41.4604 49.79C40.4304 53.06 39.4004 56.32 38.3704 59.59C37.8804 61.14 37.4104 62.71 36.9004 64.26C36.5804 65.22 36.2204 66.2 35.1604 66.55C34.3504 66.81 33.3204 66.67 32.4904 66.67C25.9904 66.63 19.5004 66.45 13.0304 65.77C12.5504 65.72 12.5504 66.47 13.0304 66.52L13.0204 66.5Z" fill="black"/>
</g>
</g>
<defs>
<linearGradient id="paint0_linear_406_1187" x1="20.72" y1="20.73" x2="138.79" y2="84.5" gradientUnits="userSpaceOnUse">
<stop stop-color="#FFD9CC"/>
<stop offset="0.15" stop-color="#FCD2CE"/>
<stop offset="0.34" stop-color="#F5C1D7"/>
<stop offset="0.57" stop-color="#EAA4E5"/>
<stop offset="0.82" stop-color="#DA7DF8"/>
<stop offset="0.87" stop-color="#D775FC"/>
</linearGradient>
<clipPath id="clip0_406_1187">
<rect width="134.96" height="116.77" fill="white"/>
</clipPath>
</defs>
</svg>
