<svg width="602" height="658" viewBox="0 0 602 658" fill="none" xmlns="http://www.w3.org/2000/svg">
<g clip-path="url(#clip0_682_908)">
<g opacity="0.6">
<path d="M173.45 420.531C170.749 421.642 168.048 422.747 165.354 423.858C164.845 424.066 163.549 424.516 163.26 424.977C162.934 425.504 163.145 426.605 163.375 427.174C164.685 430.414 165.539 433.865 166.68 437.436C166.871 438.027 167.098 438.661 167.623 439.021C168.197 439.411 169.042 439.257 169.68 438.971C172.063 437.909 172.502 438.131 177.53 435.65C178.225 435.31 178.84 434.579 179.579 434.818C180.04 434.962 180.343 435.392 180.597 435.799C182.501 438.807 184.115 441.991 185.408 445.296C185.67 445.974 186.038 446.756 186.778 446.885C187.269 446.969 187.755 446.717 188.189 446.475C191.18 444.792 194.165 443.116 197.156 441.434C197.551 441.213 197.971 440.965 198.149 440.555C198.346 440.105 198.192 439.59 198.028 439.126C196.84 435.796 195.054 431.865 193.047 428.933C195.197 426.972 196.393 427.297 198.543 425.335C199.077 424.849 201.681 423.658 201.831 422.959C201.953 422.364 201.912 421.333 201.715 420.761C200.741 417.95 198.69 414.685 197.716 411.874C197.504 411.258 197.249 410.587 196.678 410.248C196.017 409.85 195.16 410.024 194.411 410.238C191.515 411.063 188.749 412.326 186.243 413.97C184.198 410.188 182.153 406.406 180.108 402.623C179.828 402.108 179.499 401.55 178.929 401.367C178.387 401.195 177.799 401.427 177.278 401.654C174.399 402.924 171.61 404.395 168.944 406.048C168.428 406.366 167.887 406.73 167.67 407.291C167.453 407.858 167.633 408.495 167.843 409.065C169.137 412.648 171.942 416.817 173.246 420.057" fill="#85EDE3"/>
</g>
<g opacity="0.6">
<path d="M570.485 252.307C567.784 253.419 565.082 254.524 562.388 255.635C561.879 255.842 560.583 256.292 560.294 256.753C559.968 257.281 560.179 258.381 560.409 258.95C561.719 262.19 562.574 265.641 563.714 269.212C563.905 269.803 564.132 270.438 564.657 270.798C565.231 271.187 566.076 271.033 566.714 270.747C569.098 269.685 569.536 269.907 574.564 267.426C575.26 267.086 575.874 266.356 576.613 266.595C577.074 266.738 577.377 267.168 577.631 267.575C579.535 270.583 581.149 273.768 582.442 277.073C582.705 277.75 583.072 278.532 583.812 278.661C584.303 278.745 584.79 278.493 585.224 278.251C588.214 276.568 591.199 274.893 594.19 273.21C594.585 272.989 595.005 272.741 595.183 272.331C595.38 271.881 595.226 271.366 595.062 270.903C593.874 267.573 592.088 263.641 590.081 260.71C592.231 258.748 593.427 259.073 595.577 257.112C596.111 256.625 598.715 255.434 598.865 254.735C598.987 254.141 598.946 253.109 598.749 252.538C597.775 249.726 595.724 246.461 594.75 243.65C594.538 243.034 594.283 242.363 593.712 242.025C593.051 241.626 592.194 241.801 591.445 242.015C588.549 242.839 585.783 244.103 583.277 245.747C581.232 241.964 579.187 238.182 577.142 234.4C576.862 233.884 576.533 233.327 575.963 233.143C575.421 232.972 574.833 233.203 574.312 233.431C571.433 234.7 568.644 236.172 565.978 237.824C565.462 238.142 564.921 238.507 564.704 239.067C564.487 239.634 564.667 240.271 564.877 240.842C566.172 244.424 568.977 248.593 570.28 251.833" fill="#85EDE3"/>
</g>
<g opacity="0.6">
<path d="M181.429 52.4154C178.728 53.5269 176.026 54.632 173.332 55.7431C172.823 55.9508 171.527 56.4003 171.238 56.8614C170.913 57.3891 171.124 58.4894 171.353 59.0589C172.663 62.2984 173.518 65.7493 174.658 69.3208C174.849 69.9117 175.076 70.5459 175.601 70.906C176.175 71.2958 177.02 71.1415 177.658 70.8559C180.042 69.7934 180.48 70.0159 185.508 67.5347C186.204 67.1944 186.818 66.4641 187.558 66.7031C188.018 66.8468 188.321 67.2767 188.575 67.6834C190.48 70.6913 192.093 73.876 193.386 77.181C193.649 77.8587 194.016 78.6406 194.756 78.7696C195.247 78.8536 195.734 78.6018 196.168 78.3593C199.158 76.6768 202.143 75.0011 205.134 73.3187C205.529 73.0975 205.949 72.8492 206.127 72.4392C206.324 71.9895 206.17 71.4742 206.006 71.0111C204.818 67.6811 203.032 63.7494 201.025 60.818C203.175 58.8567 204.372 59.1814 206.521 57.2201C207.056 56.7332 209.659 55.5428 209.809 54.8435C209.931 54.2491 209.89 53.2173 209.694 52.6461C208.719 49.8348 206.669 46.5697 205.694 43.7583C205.482 43.1427 205.227 42.4712 204.656 42.1329C203.995 41.7348 203.138 41.9091 202.389 42.123C199.493 42.9475 196.727 44.2111 194.221 45.8551C192.176 42.0727 190.131 38.2904 188.086 34.508C187.806 33.9928 187.477 33.4351 186.907 33.2518C186.365 33.08 185.777 33.3113 185.256 33.5391C182.377 34.8086 179.588 36.2801 176.922 37.9325C176.406 38.2505 175.865 38.615 175.648 39.1757C175.431 39.7428 175.611 40.3795 175.821 40.95C177.116 44.5329 179.921 48.7017 181.224 51.9416" fill="#85EDE3"/>
</g>
<path d="M462.49 331.922C491.662 340.823 518.617 349.381 548.498 349.191C558.312 349.127 572.653 345.419 576.369 338.129C579.117 332.731 578.511 325.37 574.98 319.695C572.338 315.453 570.422 312.342 563.459 307.675C557.843 303.913 547.817 301.209 541.606 300.328C528.707 298.5 520.079 300.072 508.997 306.826C504.412 309.62 498.07 316.661 495.297 320.839C492.142 325.599 486.222 328.748 480.521 329.836C473.395 331.2 471.313 331.393 462.374 331.25" fill="white"/>
<path d="M462.295 332.773C472.624 335.925 482.936 339.124 493.379 341.915C503.823 344.706 513.676 346.914 524.036 348.366C529.239 349.093 534.471 349.606 539.723 349.866C544.307 350.097 548.961 350.265 553.533 349.753C557.462 349.308 561.384 348.474 565.107 347.161C568.522 345.953 571.909 344.328 574.566 341.868C580.884 336.024 579.755 325.705 575.626 319.047C573.872 316.219 571.998 313.532 569.525 311.246C566.359 308.317 562.678 305.881 558.676 304.166C550.706 300.754 541.762 298.853 533.039 298.756C524.064 298.66 515.458 301.543 508.028 306.399C504.62 308.627 501.699 311.643 499.038 314.652C497.748 316.109 496.508 317.615 495.371 319.194C494.234 320.772 493.068 322.417 491.513 323.765C488.172 326.655 483.947 328.312 479.598 329.135C476.121 329.796 472.655 330.302 469.107 330.391C466.851 330.452 464.59 330.416 462.336 330.386C461.182 330.369 461.273 332.109 462.427 332.126C466.296 332.187 470.185 332.26 474.033 331.799C477.881 331.338 481.848 330.729 485.44 329.332C489.444 327.777 493.199 325.292 495.689 321.826C497.932 318.71 500.289 315.749 503.01 312.995C504.428 311.564 505.907 310.168 507.508 308.933C509.11 307.699 510.954 306.645 512.775 305.671C516.58 303.629 520.635 302.026 524.903 301.194C533.242 299.566 542.145 300.823 550.221 303.08C558.135 305.293 565.879 308.963 571.017 315.426C573.265 318.248 575.328 321.493 576.362 324.928C577.59 329.024 577.583 333.716 575.629 337.618C574.211 340.446 571.42 342.363 568.622 343.79C565.227 345.519 561.472 346.609 557.733 347.355C553.993 348.101 549.928 348.36 545.967 348.316C540.732 348.262 535.497 347.944 530.296 347.39C520.155 346.302 510.141 344.328 500.262 341.882C490.383 339.436 480.2 336.405 470.264 333.381C467.738 332.609 465.211 331.837 462.691 331.065C461.587 330.729 461.21 332.435 462.301 332.766L462.295 332.773Z" fill="black"/>
<path d="M517.971 328.078C519.919 327.976 521.692 326.215 521.504 324.274C521.315 322.332 519.679 320.751 517.592 320.861C515.645 320.963 513.871 322.724 514.06 324.665C514.249 326.607 515.884 328.188 517.971 328.078Z" fill="black"/>
<path d="M533.427 330.108C535.374 330.006 537.148 328.245 536.959 326.304C536.77 324.362 535.134 322.781 533.047 322.891C531.1 322.993 529.326 324.754 529.515 326.696C529.704 328.637 531.34 330.218 533.427 330.108Z" fill="black"/>
<path d="M548.582 331.631C550.529 331.529 552.303 329.768 552.114 327.827C551.926 325.885 550.29 324.304 548.203 324.414C546.255 324.516 544.482 326.277 544.67 328.218C544.859 330.16 546.495 331.741 548.582 331.631Z" fill="black"/>
<path d="M101.835 213.611C77.6514 222.16 55.3444 230.403 29.4472 229.55C20.9415 229.267 8.07393 225.117 3.97526 217.508C0.939966 211.871 0.574753 204.285 2.95003 198.499C4.72219 194.173 6.00894 191.011 11.4753 186.342C15.8831 182.582 24.2388 180.009 29.5102 179.241C40.456 177.637 48.1161 179.457 58.5254 186.67C62.8343 189.655 69.1753 197.069 72.0778 201.446C75.3853 206.428 80.895 209.815 85.9593 211.067C92.2931 212.633 94.1188 212.88 101.846 212.932" fill="white"/>
<path d="M101.567 212.83C83.8287 219.101 65.9469 225.69 47.1041 227.942C42.3885 228.507 37.6454 228.801 32.8997 228.793C29.2669 228.784 25.742 228.543 22.2065 227.721C18.671 226.899 15.4512 225.744 12.3779 224.077C9.57184 222.551 6.89464 220.559 5.17423 217.878C3.04744 214.565 2.22292 210.414 2.2531 206.549C2.28329 202.683 3.39237 199.309 4.97232 195.892C6.55227 192.475 8.67775 189.927 11.3836 187.516C14.0895 185.106 17.607 183.428 21.1411 182.195C27.8952 179.836 35.4866 178.7 42.5793 180.123C46.2838 180.865 49.7601 182.336 53.0154 184.168C56.2707 186 59.3768 188.163 62.0679 190.8C64.759 193.437 67.1575 196.212 69.3909 199.144C70.3932 200.462 71.2739 201.876 72.2954 203.179C73.5172 204.743 74.944 206.148 76.534 207.363C79.5894 209.703 83.0342 211.208 86.7944 212.121C89.8187 212.854 92.8345 213.425 95.9566 213.61C97.9288 213.726 99.9158 213.744 101.889 213.757C102.983 213.764 102.89 212.121 101.803 212.113C98.2426 212.088 94.6816 212.049 91.1752 211.4C87.6688 210.751 83.9442 209.881 80.7192 208.118C78.887 207.116 77.1893 205.881 75.6944 204.447C74.3123 203.131 73.2537 201.629 72.1728 200.084C70.0406 197.049 67.6241 194.184 65.0689 191.469C59.8808 185.959 53.2551 181.5 45.8659 179.252C38.7748 177.099 30.9934 177.664 23.9113 179.613C20.2324 180.627 16.5587 181.997 13.3251 184.002C10.0914 186.007 7.13515 188.98 5.08374 192.177C0.987895 198.577 -0.567557 206.393 1.53481 213.681C2.52948 217.138 4.321 220.158 7.11088 222.519C9.75408 224.751 12.9191 226.387 16.1758 227.612C19.4326 228.836 22.8438 229.703 26.3184 230.128C30.6313 230.65 35.0758 230.507 39.4022 230.273C58.7479 229.222 77.2052 223.185 95.2917 216.811C97.5691 216.013 99.8391 215.202 102.11 214.398C103.13 214.034 102.608 212.472 101.574 212.836L101.567 212.83Z" fill="black"/>
<path d="M53.2398 208.098C55.0808 208.001 56.7532 206.343 56.5766 204.504C56.4001 202.665 54.8556 201.176 52.8816 201.28C51.0405 201.377 49.3682 203.035 49.5447 204.874C49.7213 206.713 51.2658 208.202 53.2398 208.098Z" fill="black"/>
<path d="M40.1026 209.849C41.9436 209.752 43.616 208.094 43.4394 206.255C43.2628 204.416 41.7184 202.927 39.7444 203.031C37.9033 203.128 36.231 204.786 36.4075 206.625C36.5841 208.464 38.1286 209.953 40.1026 209.849Z" fill="black"/>
<path d="M27.1651 211.092C29.0061 210.995 30.6785 209.336 30.5019 207.498C30.3253 205.659 28.7809 204.17 26.8069 204.274C24.9658 204.371 23.2935 206.029 23.47 207.868C23.6466 209.707 25.1911 211.195 27.1651 211.092Z" fill="black"/>
<path d="M42.0621 279.737C39.5519 276.865 38.533 272.821 39.3926 269.138C39.8821 267.038 40.9457 265.082 42.2817 263.364C45.1784 259.638 49.5607 256.913 54.3312 256.378C59.1087 255.849 64.1976 257.694 67.0592 261.42C69.9276 265.147 70.2127 270.702 67.3715 274.47C66.169 276.065 64.3725 277.898 65.2326 279.681C65.6136 280.462 66.4186 280.943 67.1884 281.388C69.3598 282.63 71.5308 283.867 73.7022 285.109C71.8645 287.048 70.0273 288.993 68.1896 290.931C67.9622 291.169 67.7022 291.422 67.3699 291.439C67.1905 291.449 67.0202 291.38 66.8567 291.311C63.922 290.128 61.1362 288.607 58.5811 286.784C57.8335 286.255 57.0898 285.673 56.6809 284.868C55.7133 282.941 57.0432 280.726 58.1584 278.864C59.7577 276.195 61.0093 273.125 60.5096 270.082C60.0098 267.038 57.2081 264.201 54.0462 264.528C51.2821 264.816 49.1932 267.427 48.901 270.111C48.6088 272.795 49.7746 275.448 51.3633 277.652C48.5686 279.007 45.9441 280.683 43.5541 282.638C43.1949 282.017 42.8361 281.403 42.4769 280.782" fill="#00CEB8"/>
<path d="M75.5312 291.637C74.5699 292.496 73.5837 293.388 72.9966 294.517C72.4094 295.647 72.2929 297.107 73.0532 298.133C74.0003 299.414 76.0025 299.593 77.4731 298.915C78.9437 298.236 79.9733 296.903 80.8225 295.559C81.7144 294.142 82.4464 292.217 81.366 290.936C80.6341 290.07 79.2979 289.882 78.1875 290.186C77.0771 290.49 76.1277 291.192 75.2107 291.88" fill="#00CEB8"/>
<path d="M470.792 79.1385C473.481 75.0164 478.226 72.2206 483.23 71.8151C486.084 71.5809 488.969 72.0817 491.664 73.0126C497.501 75.0187 502.639 79.1813 505.133 84.6719C507.628 90.1626 507.232 96.9621 503.596 101.838C499.959 106.715 493.02 109.225 487.154 107.311C484.666 106.499 481.658 105.067 479.723 106.798C478.876 107.553 478.57 108.713 478.308 109.799C477.563 112.876 476.818 115.952 476.073 119.028C472.905 117.592 469.737 116.157 466.576 114.72C466.187 114.547 465.763 114.33 465.622 113.937C465.544 113.728 465.565 113.494 465.587 113.273C465.965 109.312 466.832 105.389 468.168 101.629C468.557 100.536 469.011 99.4131 469.875 98.6115C471.954 96.6992 475.272 97.4293 478.063 98.032C482.067 98.8939 486.441 99.1936 490.113 97.4042C493.785 95.6149 496.317 91.1714 494.692 87.5219C493.272 84.3334 489.155 82.857 485.64 83.559C482.125 84.2609 479.199 86.6831 477.005 89.4415C474.218 86.635 471.082 84.1571 467.693 82.0609C468.337 81.3872 468.989 80.7197 469.633 80.046" fill="#00CEB8"/>
<path d="M468.484 123.732C467.021 122.917 465.518 122.091 463.858 121.83C462.198 121.568 460.302 122.004 459.291 123.311C458.023 124.941 458.559 127.401 459.984 128.89C461.408 130.379 463.492 131.09 465.523 131.577C467.663 132.091 470.389 132.213 471.601 130.417C472.423 129.204 472.149 127.539 471.339 126.328C470.529 125.117 469.271 124.265 468.048 123.438" fill="#00CEB8"/>
<path d="M264.106 104.7C265.825 100.125 267.952 95.6965 270.463 91.4739C270.775 90.9469 271.152 90.3843 271.749 90.2042C272.963 89.8431 273.896 91.2479 274.284 92.4165C275.194 95.1408 275.756 97.9739 275.967 100.838C276.014 101.495 276.058 102.191 276.459 102.725C276.868 103.272 277.567 103.526 278.231 103.731C282.284 105.016 286.55 105.774 290.378 107.602C291.301 108.038 292.236 108.59 292.683 109.49C293.667 111.467 291.658 113.693 289.57 114.552C287.482 115.412 285.019 115.716 283.443 117.304C281.215 119.541 281.796 123.116 281.785 126.219C281.781 129.056 281.162 131.86 280.345 134.585C280.17 135.182 279.95 135.814 279.451 136.202C278.515 136.924 277.13 136.428 276.13 135.796C274.455 134.74 272.989 133.357 271.859 131.756C271.161 130.771 270.432 129.588 269.21 129.407C268.175 129.248 267.208 129.881 266.324 130.431C262.438 132.833 257.812 134.084 253.214 133.971C254.561 129.551 255.916 125.138 257.263 120.718C257.451 120.1 257.643 119.444 257.49 118.812C257.242 117.779 256.19 117.168 255.292 116.563C253.184 115.129 251.512 113.111 250.531 110.804C250.326 110.33 250.157 109.777 250.379 109.306C250.607 108.835 251.149 108.613 251.652 108.431C255.564 107.03 259.584 105.914 263.661 105.098" fill="#FCED23"/>
<path d="M264.996 105.144C266.371 101.505 267.99 97.956 269.863 94.5295C270.344 93.6513 270.831 92.7726 271.352 91.9181C271.702 91.3439 272.081 90.8135 272.661 91.455C273.128 91.9732 273.331 92.6604 273.531 93.309C273.836 94.2881 274.101 95.2822 274.32 96.2788C274.539 97.2753 274.689 98.2238 274.814 99.2059C274.939 100.188 274.918 101.184 275.141 102.129C275.55 103.833 277.032 104.375 278.583 104.849C282.281 105.973 286.138 106.7 289.649 108.331C291.145 109.022 292.628 110.087 291.524 111.793C290.637 113.171 289.087 113.737 287.579 114.217C285.987 114.728 284.346 115.221 283.071 116.322C281.936 117.299 281.261 118.647 280.969 120.084C280.652 121.651 280.723 123.263 280.767 124.85C280.816 126.67 280.729 128.445 280.397 130.24C280.22 131.186 280.003 132.128 279.752 133.065C279.585 133.694 279.417 135.19 278.715 135.53C278.065 135.849 277.122 135.272 276.598 134.944C275.827 134.467 275.123 133.884 274.471 133.266C273.755 132.586 273.143 131.843 272.574 131.039C272.092 130.354 271.594 129.63 270.907 129.117C269.077 127.766 267.243 128.761 265.543 129.774C261.828 131.999 257.526 133.085 253.176 133.004L254.204 134.177C255.069 131.353 255.927 128.529 256.791 125.699C257.212 124.313 257.639 122.927 258.059 121.535C258.428 120.314 258.842 119.058 258.186 117.858C257.67 116.916 256.734 116.364 255.869 115.763C254.86 115.061 253.936 114.224 253.179 113.269C252.466 112.376 251.758 111.334 251.394 110.248C251.18 109.594 251.561 109.496 252.13 109.291C252.883 109.019 253.642 108.766 254.403 108.519C257.548 107.501 260.75 106.667 263.995 106.011C265.248 105.758 264.612 103.924 263.365 104.177C260.332 104.789 257.333 105.56 254.383 106.491C253.085 106.902 251.543 107.235 250.381 107.955C249.219 108.676 249.119 109.941 249.593 111.112C250.527 113.408 252.189 115.485 254.207 116.982C254.991 117.561 256.497 118.186 256.554 119.275C256.588 119.932 256.253 120.661 256.06 121.285C255.827 122.053 255.587 122.828 255.355 123.597C254.32 126.985 253.285 130.374 252.25 133.77C252.051 134.413 252.678 134.93 253.278 134.943C257.434 135.022 261.549 134.056 265.236 132.175C266.106 131.735 266.897 131.183 267.759 130.724C268.725 130.214 269.436 130.287 270.151 131.089C270.718 131.731 271.144 132.484 271.692 133.147C272.283 133.866 272.931 134.542 273.637 135.158C274.957 136.303 276.735 137.67 278.626 137.519C280.737 137.35 281.227 135.262 281.674 133.623C282.233 131.578 282.63 129.495 282.759 127.382C282.866 125.619 282.681 123.858 282.748 122.097C282.807 120.549 283.132 118.871 284.374 117.785C285.694 116.636 287.57 116.318 289.186 115.742C290.802 115.166 292.377 114.191 293.311 112.688C294.245 111.185 294.153 109.438 292.946 108.158C291.662 106.797 289.581 106.131 287.836 105.525C285.887 104.846 283.887 104.318 281.886 103.777C280.926 103.518 279.972 103.258 279.024 102.965C278.163 102.7 277.24 102.51 277.049 101.537C276.858 100.565 276.881 99.6012 276.758 98.6513C276.607 97.5542 276.409 96.4532 276.159 95.3742C275.743 93.5351 275.336 90.9976 273.704 89.7523C273.031 89.2384 272.167 89.0383 271.343 89.3337C270.414 89.6734 269.905 90.5079 269.44 91.2949C266.985 95.4306 264.927 99.7844 263.236 104.261C263.049 104.756 263.144 105.3 263.665 105.563C264.096 105.786 264.828 105.638 265.009 105.144L264.996 105.144Z" fill="black"/>
<path d="M156.36 230.021C157.384 227.298 158.651 224.66 160.146 222.145C160.336 221.831 160.551 221.497 160.912 221.387C161.634 221.175 162.191 222.011 162.421 222.704C162.96 224.33 163.301 226.018 163.424 227.717C163.451 228.11 163.48 228.522 163.716 228.839C163.96 229.162 164.374 229.315 164.768 229.443C167.181 230.208 169.723 230.655 172 231.75C172.547 232.012 173.111 232.338 173.372 232.874C173.961 234.051 172.764 235.381 171.518 235.892C170.272 236.403 168.808 236.584 167.872 237.531C166.542 238.868 166.888 240.995 166.885 242.843C166.88 244.53 166.515 246.204 166.027 247.826C165.919 248.18 165.792 248.555 165.491 248.791C164.934 249.221 164.111 248.921 163.512 248.552C162.513 247.92 161.643 247.1 160.973 246.146C160.556 245.561 160.126 244.86 159.394 244.75C158.775 244.653 158.202 245.032 157.673 245.357C155.362 246.791 152.602 247.531 149.866 247.468C150.667 244.834 151.476 242.207 152.277 239.573C152.391 239.206 152.503 238.812 152.411 238.442C152.265 237.829 151.633 237.462 151.101 237.102C149.843 236.251 148.846 235.043 148.261 233.672C148.14 233.387 148.036 233.057 148.174 232.778C148.306 232.5 148.633 232.366 148.934 232.26C151.262 231.427 153.653 230.758 156.087 230.274" fill="#FCED23"/>
<path d="M156.888 230.284C157.707 228.121 158.663 226.016 159.776 223.98C160.055 223.461 160.318 222.879 160.673 222.408C160.884 222.125 160.987 221.797 161.381 222.061C161.491 222.132 161.595 222.327 161.668 222.446C162.247 223.45 162.44 224.835 162.619 225.957C162.767 226.873 162.664 227.957 163.029 228.823C163.395 229.69 164.36 229.93 165.2 230.176C167.386 230.824 169.675 231.259 171.727 232.256C172.76 232.764 173.308 233.549 172.472 234.517C171.756 235.35 170.642 235.57 169.639 235.907C167.891 236.503 166.654 237.563 166.357 239.401C166.035 241.382 166.413 243.379 166.031 245.37C165.915 245.957 165.773 246.54 165.616 247.117C165.493 247.569 165.426 248.31 164.838 248.412C163.901 248.584 162.508 247.067 161.969 246.449C161.366 245.757 160.942 244.785 160.072 244.346C159.107 243.86 158.187 244.361 157.353 244.857C155.065 246.218 152.522 246.908 149.841 246.868L150.451 247.566C151.099 245.438 151.747 243.317 152.395 241.189C152.663 240.316 153.206 239.234 152.997 238.308C152.816 237.523 152.146 237.086 151.51 236.648C150.742 236.113 150.069 235.476 149.542 234.709C149.275 234.323 148.889 233.813 148.798 233.353C148.679 232.745 149.383 232.689 149.861 232.528C151.962 231.81 154.105 231.238 156.288 230.794C157.033 230.645 156.656 229.547 155.911 229.702C153.583 230.174 151.283 230.792 149.045 231.582C148.331 231.833 147.569 232.157 147.526 233C147.484 233.842 148.147 234.796 148.615 235.45C149.161 236.203 149.829 236.878 150.598 237.426C150.944 237.666 151.511 237.934 151.724 238.317C152.048 238.888 151.594 239.771 151.417 240.336C150.706 242.661 149.996 244.992 149.285 247.317C149.165 247.698 149.534 248.009 149.895 248.015C152.362 248.047 154.792 247.493 156.98 246.382C157.545 246.094 158.057 245.699 158.637 245.449C159.393 245.125 159.793 245.504 160.217 246.076C160.905 247.009 161.604 247.871 162.554 248.571C163.289 249.113 164.213 249.717 165.196 249.517C166.178 249.317 166.494 248.35 166.736 247.497C167.08 246.297 167.335 245.075 167.436 243.829C167.525 242.726 167.421 241.633 167.45 240.526C167.478 239.42 167.698 238.277 168.682 237.599C169.608 236.955 170.807 236.821 171.823 236.367C173.432 235.649 175.019 233.633 173.529 232.058C172.803 231.288 171.643 230.903 170.664 230.548C169.516 230.136 168.333 229.817 167.15 229.498C166.582 229.347 166.014 229.19 165.452 229.026C165.121 228.927 164.69 228.852 164.419 228.647C164.073 228.387 164.049 228.065 164.014 227.66C163.895 226.406 163.717 225.169 163.406 223.944C163.154 222.949 162.898 221.638 161.959 221.016C161.103 220.453 160.234 220.906 159.734 221.663C158.098 224.146 156.874 226.976 155.832 229.726C155.568 230.418 156.623 230.951 156.886 230.252L156.888 230.284Z" fill="black"/>
<path d="M469.869 387.36C470.893 384.637 472.16 381.998 473.655 379.484C473.845 379.17 474.06 378.835 474.421 378.726C475.143 378.513 475.7 379.35 475.93 380.042C476.469 381.668 476.81 383.356 476.933 385.056C476.96 385.448 476.989 385.861 477.225 386.178C477.469 386.501 477.883 386.653 478.277 386.781C480.69 387.546 483.232 387.994 485.509 389.089C486.056 389.351 486.62 389.677 486.881 390.212C487.47 391.39 486.273 392.719 485.027 393.231C483.781 393.742 482.318 393.923 481.381 394.87C480.052 396.207 480.397 398.334 480.394 400.182C480.389 401.869 480.024 403.542 479.536 405.164C479.428 405.519 479.301 405.894 479 406.129C478.443 406.559 477.62 406.26 477.021 405.891C476.022 405.259 475.152 404.438 474.482 403.485C474.065 402.9 473.635 402.198 472.903 402.088C472.284 401.992 471.711 402.371 471.182 402.696C468.871 404.129 466.111 404.869 463.375 404.806C464.176 402.173 464.985 399.546 465.786 396.912C465.9 396.544 466.013 396.151 465.92 395.781C465.774 395.168 465.142 394.801 464.61 394.441C463.352 393.589 462.356 392.382 461.77 391.01C461.649 390.726 461.545 390.395 461.683 390.117C461.815 389.838 462.142 389.705 462.443 389.599C464.771 388.765 467.162 388.097 469.596 387.613" fill="#FFF8B3"/>
<path d="M470.396 387.623C471.216 385.46 472.171 383.355 473.284 381.319C473.563 380.8 473.826 380.218 474.181 379.747C474.393 379.464 474.496 379.136 474.889 379.399C475 379.471 475.103 379.666 475.176 379.785C475.756 380.788 475.948 382.174 476.127 383.295C476.275 384.211 476.172 385.296 476.538 386.162C476.903 387.028 477.869 387.268 478.708 387.515C480.895 388.162 483.184 388.597 485.236 389.594C486.269 390.102 486.816 390.888 485.981 391.856C485.265 392.688 484.15 392.908 483.148 393.246C481.4 393.842 480.163 394.902 479.866 396.74C479.543 398.721 479.922 400.717 479.54 402.708C479.424 403.296 479.281 403.879 479.125 404.456C479.002 404.908 478.934 405.648 478.346 405.75C477.409 405.922 476.017 404.406 475.478 403.788C474.875 403.096 474.45 402.123 473.581 401.684C472.616 401.199 471.696 401.7 470.862 402.196C468.574 403.557 466.031 404.246 463.35 404.207L463.959 404.905C464.607 402.777 465.256 400.656 465.904 398.528C466.171 397.654 466.714 396.572 466.506 395.646C466.324 394.861 465.655 394.425 465.019 393.986C464.251 393.452 463.578 392.815 463.051 392.048C462.784 391.661 462.397 391.152 462.306 390.691C462.188 390.084 462.891 390.027 463.369 389.866C465.471 389.148 467.614 388.577 469.796 388.132C470.542 387.983 470.164 386.885 469.419 387.041C467.091 387.512 464.791 388.131 462.553 388.921C461.84 389.172 461.077 389.496 461.035 390.338C460.992 391.181 461.656 392.134 462.123 392.788C462.669 393.541 463.338 394.217 464.107 394.765C464.452 395.005 465.02 395.272 465.233 395.655C465.556 396.226 465.103 397.11 464.926 397.675C464.215 400 463.504 402.331 462.793 404.656C462.673 405.037 463.043 405.347 463.403 405.354C465.871 405.386 468.301 404.831 470.489 403.721C471.053 403.433 471.566 403.038 472.146 402.787C472.902 402.463 473.302 402.843 473.725 403.415C474.414 404.348 475.112 405.21 476.062 405.909C476.797 406.452 477.722 407.056 478.704 406.856C479.687 406.655 480.003 405.689 480.245 404.836C480.588 403.635 480.844 402.414 480.945 401.168C481.034 400.064 480.93 398.971 480.958 397.865C480.987 396.758 481.206 395.616 482.191 394.937C483.116 394.294 484.316 394.16 485.332 393.706C486.94 392.988 488.527 390.972 487.038 389.396C486.311 388.627 485.151 388.242 484.173 387.886C483.025 387.475 481.842 387.156 480.659 386.837C480.091 386.686 479.523 386.528 478.961 386.364C478.629 386.265 478.199 386.191 477.928 385.986C477.581 385.726 477.558 385.404 477.523 384.999C477.404 383.745 477.225 382.507 476.915 381.283C476.662 380.288 476.407 378.977 475.468 378.354C474.612 377.792 473.742 378.245 473.242 379.001C471.607 381.485 470.382 384.315 469.34 387.064C469.077 387.757 470.131 388.289 470.394 387.59L470.396 387.623Z" fill="black"/>
<path d="M72.9473 362.049C70.0945 356.842 69.0661 350.461 71.3237 344.972C73.5813 339.483 79.581 335.322 85.6186 336.071C88.8589 336.475 91.7871 338.169 94.3055 340.182C97.6451 342.856 100.432 346.173 102.473 349.878C105.354 355.122 106.69 361.017 107.909 366.839C108.995 372.036 110.015 377.242 110.969 382.458C111.062 382.951 111.143 383.483 110.913 383.935C110.683 384.38 110.204 384.638 109.742 384.856C105.809 386.743 101.557 387.897 97.3392 389.05C93.3834 390.124 89.428 391.204 85.4549 392.202C80.8963 393.346 76.2459 394.392 71.5426 394.304C66.8393 394.215 62.0111 392.893 58.5502 389.812C53.2579 385.108 52.2684 376.676 55.8834 370.637C59.4984 364.599 65.8462 361.357 72.987 362.17" fill="#FFBDDD"/>
<path d="M73.8434 361.479C71.0977 356.409 70.0171 349.919 72.669 344.578C74.8873 340.119 79.8856 336.56 85.1503 337.058C88.0908 337.337 90.7801 338.798 93.0646 340.545C95.4672 342.383 97.5872 344.552 99.3603 346.966C103.101 352.075 104.897 358.106 106.255 364.167C106.988 367.45 107.647 370.743 108.301 374.043C108.636 375.725 108.957 377.401 109.272 379.084C109.429 379.916 109.586 380.754 109.737 381.586C109.838 382.124 110.255 383.2 109.811 383.644C109.368 384.087 108.442 384.343 107.848 384.594C107.04 384.94 106.217 385.261 105.386 385.557C103.823 386.124 102.23 386.615 100.627 387.074C97.2987 388.031 93.9529 388.918 90.6075 389.811C84.0807 391.55 77.2665 393.654 70.4269 393.245C64.8842 392.91 59.3163 390.573 56.5864 385.676C54.1882 381.382 54.2094 375.824 56.6024 371.517C58.9954 367.21 63.602 363.808 68.8221 363.204C70.127 363.051 71.4531 363.046 72.7603 363.19C74.0675 363.335 74.5814 361.317 73.2206 361.169C67.3357 360.535 61.5645 362.448 57.524 366.732C53.4836 371.016 51.8822 376.69 53.0837 382.306C54.2852 387.923 58.7262 392.407 64.481 394.243C71.4018 396.45 78.7805 394.944 85.642 393.232C89.3586 392.3 93.0519 391.304 96.7445 390.296C100.372 389.31 104.02 388.349 107.513 386.963C108.329 386.643 109.131 386.29 109.924 385.919C110.581 385.606 111.238 385.294 111.673 384.703C112.109 384.111 112.183 383.377 112.079 382.659C111.941 381.684 111.723 380.713 111.546 379.746C110.852 376.054 110.132 372.37 109.379 368.694C107.973 361.854 106.586 354.857 103.031 348.712C101.396 345.89 99.3208 343.298 96.9235 341.053C94.5262 338.807 91.8507 336.848 88.7476 335.758C82.9829 333.735 76.7657 335.91 72.9235 340.416C68.6857 345.382 68.22 352.25 70.146 358.21C70.6393 359.735 71.2958 361.193 72.0631 362.606C72.698 363.781 74.4773 362.635 73.8494 361.466L73.8434 361.479Z" fill="black"/>
<path d="M75.7657 394.392C78.069 391.803 80.3871 389.115 82.3023 386.242C83.3776 384.635 82.1999 383.404 81.1937 382.139C80.0304 380.675 78.8675 379.218 77.7109 377.754L76.5874 379.331C79.5522 379.692 82.524 380.059 85.4888 380.42C86.5687 380.551 87.1688 379.414 86.435 378.639C83.4435 375.487 80.6749 372.137 78.1444 368.626L76.763 370.114C83.4763 372.558 90.2887 374.733 97.1928 376.625C98.0854 376.869 98.8338 375.763 98.3163 375.047C95.1832 370.721 92.0504 366.401 88.9172 362.075L87.7938 363.653C89.1163 364.087 90.4321 364.522 91.7545 364.956C92.9074 365.335 94.1091 365.879 95.3123 366.074C97.6517 366.455 98.4316 364.301 99.2442 362.643C100.857 359.334 102.53 356.047 104.115 352.726C104.692 351.52 102.802 350.572 102.219 351.779C100.784 354.788 99.2748 357.769 97.8057 360.761C97.4863 361.404 97.1739 362.054 96.8614 362.704C96.7052 363.029 96.5703 363.378 96.3662 363.68C96.0446 364.156 95.7471 364.074 95.2262 363.927C92.8785 363.262 90.5736 362.395 88.2541 361.632C87.3589 361.336 86.6279 362.519 87.1307 363.209C90.2638 367.536 93.3966 371.855 96.5297 376.182L97.6532 374.604C90.9252 372.767 84.283 370.661 77.7397 368.279C76.8224 367.946 75.6897 368.839 76.3582 369.767C78.9965 373.428 81.8849 376.901 85.0031 380.181L85.9492 378.399C82.9844 378.038 80.0126 377.671 77.0478 377.31C76.2158 377.206 75.3038 378.113 75.9243 378.888C76.9232 380.141 77.9154 381.394 78.9143 382.647C79.3782 383.23 79.855 383.806 80.3062 384.402C80.5711 384.75 80.6665 384.79 80.4871 385.181C80.3498 385.485 80.0586 385.779 79.8594 386.048C78.0794 388.448 76.182 390.771 74.1871 393.015C73.2871 394.025 74.8661 395.409 75.7727 394.398L75.7657 394.392Z" fill="black"/>
<path d="M269.22 56.0675C270.038 58.7061 269.28 61.6475 270.211 64.2737C270.407 64.8385 271.177 65.1534 271.704 64.7767C274.703 62.6221 276.479 59.2524 276.522 55.6379L275.308 56.6388C280.549 58.4502 286.414 58.4646 291.703 56.7517C294.246 55.9264 296.748 54.7091 298.806 53.037C300.864 51.3649 302.331 49.0906 302.952 46.4473C303.573 43.804 303.733 40.7713 303.846 37.9674C303.969 34.9884 303.879 31.9948 303.404 29.0537C302.575 23.9342 300.581 19.0829 296.985 15.2075C293.389 11.3322 288.8 9.23449 283.588 9.09526C277.868 8.93751 272.141 10.9448 266.981 13.1874C258.014 17.0777 248.985 23.4398 246.232 33.0708C245.477 35.7083 245.386 38.5434 246.362 41.1285C247.222 43.4225 248.787 45.4273 250.652 47.0545C254.871 50.7355 260.414 52.2337 265.63 54.0787C266.791 54.4893 268.31 54.8553 269.108 55.8407C269.906 56.8262 271.576 55.7561 270.778 54.7771C269.24 52.8871 266.443 52.3106 264.204 51.5496C261.626 50.6772 259.034 49.8056 256.591 48.603C252.487 46.5896 248.348 43.1565 247.735 38.465C247.122 33.7736 249.758 28.769 252.856 25.194C255.954 21.619 259.671 19.0454 263.736 16.8864C268.119 14.562 272.931 12.6545 277.808 11.6094C282.685 10.5644 288.281 10.8903 292.593 13.9395C301.419 20.1825 302.508 31.5306 301.662 41.3004C301.446 43.7931 301.267 46.4778 300.012 48.728C298.831 50.8516 296.736 52.3317 294.589 53.4593C290.049 55.8436 284.605 56.6277 279.54 55.7376C278.248 55.5083 276.984 55.1742 275.749 54.7481C275.097 54.5239 274.546 55.1927 274.535 55.749C274.501 58.6522 273.021 61.4376 270.613 63.167L272.105 63.67C271.659 62.3946 271.695 60.9388 271.619 59.6052C271.542 58.2716 271.524 56.7863 271.114 55.4637C270.745 54.2748 268.851 54.885 269.221 56.0804L269.22 56.0675Z" fill="black"/>
<path d="M470.432 275.573C465.835 272.804 458.302 268.709 453.655 266.014C452.779 266.984 450.345 270.007 450.19 272.884C450.091 274.802 450.337 276.185 451.167 277.905C452.729 281.119 456.123 283.305 459.458 283.492C462.801 283.684 465.042 282.842 467.26 280.645C468.818 279.096 469.377 277.684 470.419 275.574" fill="#FCED23"/>
<path d="M470.887 274.716C465.375 271.4 459.677 268.378 454.11 265.156C453.739 264.943 453.185 265.063 452.908 265.368C451.321 267.138 449.895 269.287 449.369 271.596C448.719 274.428 449.504 277.579 451.233 279.918C454.425 284.235 460.922 285.986 465.742 283.096C468.54 281.417 469.949 278.797 471.316 276.018C471.869 274.89 470.097 274.008 469.543 275.135C468.513 277.225 467.579 279.239 465.699 280.753C463.819 282.267 461.716 282.707 459.415 282.531C454.435 282.14 450.711 277.477 451.202 272.728C451.43 270.48 452.897 268.341 454.396 266.666L453.194 266.878C458.762 270.1 464.459 273.122 469.971 276.438C471.066 277.097 471.975 275.369 470.887 274.716Z" fill="black"/>
<path d="M472.736 276.427C478.651 264.821 493.547 258.479 503 250.279C511.432 242.055 516.436 222.884 505.289 213.177C492.948 202.434 478.223 201.49 466.078 213.256C455.356 226.493 461.491 250.137 451.358 263.937C458.261 268.466 467.003 273.11 472.736 276.434" fill="#F0FFFF"/>
<path d="M473.619 276.872C476.377 271.525 480.985 267.392 485.822 263.81C490.659 260.227 496.092 256.95 500.973 253.184C503.125 251.52 504.993 249.786 506.564 247.584C508.134 245.382 509.353 243.076 510.317 240.621C512.334 235.494 513.308 229.814 512.389 224.37C511.935 221.693 511.06 219.109 509.624 216.774C508.006 214.139 505.698 212.076 503.196 210.243C497.942 206.39 491.651 203.743 484.963 203.804C478.274 203.865 471.867 206.865 466.844 211.219C462.503 214.989 460.51 220.819 459.32 226.194C458.048 231.928 457.623 237.792 456.862 243.602C456.101 249.413 455.194 254.863 452.628 259.941C452.043 261.103 451.376 262.23 450.605 263.285C450.2 263.837 450.31 264.412 450.884 264.796C457.786 269.311 465.119 273.158 472.261 277.293C473.368 277.932 474.277 276.204 473.177 275.571C466.029 271.436 458.702 267.596 451.8 263.074L452.079 264.584C458.805 255.339 458.677 243.268 460.211 232.512C460.971 227.179 462.051 221.72 464.746 216.945C465.38 215.82 466.083 214.62 467.014 213.698C468.294 212.435 469.727 211.3 471.213 210.279C473.871 208.465 476.817 207.082 479.977 206.334C486.099 204.888 492.434 206.215 497.854 209.154C500.755 210.727 503.606 212.722 505.864 215.104C507.67 217.012 508.953 219.355 509.736 221.828C511.327 226.868 510.863 232.373 509.347 237.383C507.95 241.993 505.489 246.923 501.679 250.122C492.671 257.672 481.103 262.662 474.107 272.33C473.262 273.498 472.499 274.715 471.84 275.996C471.265 277.112 473.038 278.001 473.612 276.879L473.619 276.872Z" fill="black"/>
<path d="M490.474 267.61C495.342 263.238 501.316 260.358 506.73 256.713C511.364 253.593 515.194 249.611 517.591 244.626C519.844 239.932 520.693 234.647 520.529 229.505C520.366 224.363 519.152 219.012 516.295 214.62C514.823 212.358 512.936 210.299 511.023 208.39C508.997 206.371 506.793 204.516 504.422 202.896C499.7 199.655 494.245 197.176 488.424 196.623C482.603 196.07 476.873 197.115 471.619 199.097C466.913 200.87 462.892 203.873 459.65 207.617C457.715 209.858 456.027 212.357 454.842 215.056C453.658 217.755 452.991 220.666 452.691 223.589C452.361 226.818 452.124 230.055 451.748 233.287C451.354 236.7 450.893 240.104 450.418 243.508C450.182 245.22 449.938 246.933 449.702 248.645C449.533 249.868 451.474 250.29 451.643 249.053C452.551 242.485 453.499 235.921 454.159 229.328C454.438 226.515 454.528 223.661 455.088 220.878C455.648 218.096 456.714 215.3 458.262 212.782C461.031 208.281 465.16 204.155 470.056 201.829C474.257 199.837 479.092 198.762 483.769 198.477C495.249 197.77 505.647 204.647 512.591 212.993C514.163 214.881 515.493 216.859 516.418 219.124C517.344 221.388 517.975 223.888 518.285 226.366C518.913 231.341 518.505 236.513 516.849 241.285C515.194 246.057 511.978 250.304 507.906 253.471C503.11 257.2 497.502 259.815 492.592 263.408C491.34 264.321 490.145 265.295 488.993 266.324C488.051 267.169 489.532 268.454 490.467 267.61L490.474 267.61Z" fill="black"/>
<path d="M526.476 234.24C528.914 234.234 531.36 234.235 533.799 234.229C534.339 234.227 534.772 233.713 534.746 233.21C534.717 232.662 534.238 232.3 533.698 232.296C531.259 232.302 528.813 232.301 526.374 232.307C525.834 232.309 525.401 232.823 525.428 233.326C525.457 233.874 525.935 234.236 526.476 234.24Z" fill="black"/>
<path d="M523.813 226.186C528.157 223.767 532.732 221.781 537.476 220.239C538.688 219.846 538.072 218.011 536.853 218.411C531.945 220.007 527.216 222.078 522.722 224.576C521.608 225.197 522.699 226.807 523.813 226.186Z" fill="black"/>
<path d="M520.3 217.04C522.638 215.624 524.983 214.202 527.321 212.786C527.78 212.51 527.9 211.877 527.61 211.446C527.321 211.016 526.688 210.894 526.23 211.17C523.891 212.586 521.547 214.008 519.208 215.423C518.75 215.7 518.63 216.333 518.919 216.763C519.208 217.194 519.841 217.316 520.3 217.04Z" fill="black"/>
<path d="M514.952 207.867C518.92 203.471 523.09 199.251 527.436 195.203C528.364 194.34 526.883 193.055 525.962 193.917C521.616 197.959 517.452 202.184 513.478 206.581C512.634 207.517 514.108 208.809 514.952 207.867Z" fill="black"/>
<path d="M510.29 205.637C512.051 203.645 513.681 201.556 515.2 199.388C515.491 198.966 515.222 198.289 514.771 198.086C514.232 197.843 513.744 198.056 513.427 198.506C512.77 199.452 512.011 200.467 511.249 201.438C510.486 202.409 509.652 203.402 508.809 204.352C508.469 204.738 508.463 205.378 508.88 205.711C509.298 206.045 509.924 206.044 510.283 205.637L510.29 205.637Z" fill="black"/>
<path d="M505.131 200.306C507.161 195.566 509.457 190.934 512.007 186.432C512.629 185.339 510.857 184.463 510.241 185.549C507.691 190.051 505.395 194.676 503.365 199.423C502.878 200.566 504.638 201.456 505.131 200.306Z" fill="black"/>
<path d="M497.704 197.711C497.855 196.915 498.041 196.129 498.266 195.355C498.38 194.974 498.5 194.593 498.627 194.218C498.696 194.021 498.759 193.83 498.836 193.638C498.766 193.829 498.865 193.559 498.871 193.546C498.912 193.434 498.96 193.328 499 193.216C499.189 192.747 499.098 192.151 498.572 191.914C498.128 191.711 497.435 191.825 497.228 192.334C496.579 193.945 496.074 195.606 495.75 197.31C495.656 197.806 495.966 198.371 496.503 198.459C497.041 198.547 497.586 198.253 497.691 197.725L497.704 197.711Z" fill="black"/>
<path d="M488.656 195.738C489.27 190.426 489.522 185.081 489.382 179.738C489.35 178.499 487.362 178.604 487.394 179.843C487.526 185.012 487.311 190.18 486.714 195.323C486.572 196.545 488.514 196.967 488.656 195.731L488.656 195.738Z" fill="black"/>
<path d="M479.383 194.3C479.145 193.686 478.952 193.056 478.818 192.41C478.816 192.372 478.801 192.34 478.799 192.302C478.826 192.436 478.826 192.449 478.8 192.334C478.79 192.263 478.773 192.187 478.762 192.116C478.734 191.956 478.712 191.796 478.697 191.635C478.659 191.301 478.635 190.966 478.624 190.637C478.611 190.134 478.107 189.676 477.577 189.723C477.046 189.77 476.615 190.2 476.631 190.742C476.672 192.162 476.967 193.587 477.483 194.917C477.668 195.385 478.225 195.718 478.741 195.523C479.225 195.342 479.57 194.807 479.37 194.301L479.383 194.3Z" fill="black"/>
<path d="M472.836 194.883C470.599 190.361 468.161 185.947 465.515 181.64C464.86 180.576 463.196 181.64 463.852 182.704C466.41 186.866 468.787 191.129 470.949 195.5C471.18 195.972 471.65 196.283 472.207 196.105C472.666 195.959 473.074 195.356 472.836 194.883Z" fill="black"/>
<path d="M465.175 199.377C464.063 198.641 462.952 197.911 461.84 197.175C461.64 197.043 461.287 197.049 461.071 197.118C460.841 197.195 460.604 197.375 460.502 197.594C460.395 197.826 460.342 198.1 460.442 198.34C460.541 198.581 460.703 198.74 460.93 198.89C462.042 199.626 463.153 200.356 464.265 201.092C464.465 201.224 464.818 201.218 465.035 201.148C465.264 201.072 465.501 200.891 465.603 200.673C465.711 200.441 465.763 200.167 465.663 199.926C465.564 199.686 465.403 199.527 465.175 199.377Z" fill="black"/>
<path d="M465.478 271.866C467.281 268.004 469.062 264.091 471.516 260.563C472.711 258.839 474.099 257.222 475.664 255.795C477.381 254.225 479.372 252.919 481.281 251.584C483.306 250.165 485.359 248.771 487.478 247.49C489.306 246.386 491.243 245.45 493.02 244.271C496.131 242.208 500.612 237.804 498.721 233.781C497.896 232.028 496.061 231.11 494.229 230.618C492.249 230.089 490.048 230.185 488.204 229.223C486.361 228.26 485.826 226.207 484.997 224.5C484.167 222.792 482.963 221.311 481.037 220.676C477.226 219.423 473.195 221.618 471.201 224.754C468.738 228.632 468.59 233.667 468.208 238.068C467.278 248.663 466.99 260.31 460.202 269.249C459.448 270.245 460.915 271.538 461.676 270.535C467.36 263.043 468.837 253.731 469.629 244.701C470.047 239.962 470.171 235.102 471.152 230.43C471.916 226.823 473.802 222.885 478.005 222.328C479.692 222.104 481.377 222.577 482.395 223.945C483.521 225.45 483.907 227.355 484.974 228.895C486.135 230.566 487.925 231.396 489.906 231.802C491.779 232.182 493.78 232.225 495.482 233.163C499.855 235.576 494.632 240.826 492.136 242.528C490.456 243.67 488.617 244.568 486.872 245.597C484.88 246.768 482.962 248.058 481.071 249.365C479.007 250.792 476.888 252.203 474.974 253.822C473.219 255.31 471.682 257.013 470.34 258.861C467.611 262.617 465.665 266.809 463.725 270.983C463.198 272.115 464.964 272.998 465.491 271.865L465.478 271.866Z" fill="black"/>
<path d="M406.316 184.224C415.221 173.597 424.28 162.71 429.157 149.859C431.422 143.885 432.188 136.013 426.899 132.265C423.59 129.919 418.47 129.129 414.702 130.723C410.933 132.317 407.594 134.974 406.332 136.333L401.917 141.089C400.75 141.073 398.185 139.567 396.464 138.791C390.143 135.938 382.055 133.708 377.122 138.517C373.515 142.035 373.443 148.035 374.544 152.869C375.904 158.852 380.352 164.35 384.5 168.965C390.149 175.259 398.692 180.056 406.179 184.16" fill="#B580D1"/>
<path d="M407.056 184.87C415.843 174.385 424.86 163.603 429.841 150.831C431.785 145.85 433.076 139.714 430.403 134.756C427.73 129.798 420.588 127.828 415.277 129.484C412.011 130.503 408.879 132.658 406.385 134.915C404.514 136.61 402.88 138.609 401.17 140.45L401.86 140.129C400.79 140.069 399.574 139.248 398.657 138.786C397.439 138.178 396.215 137.602 394.949 137.1C392.246 136.015 389.407 135.117 386.48 134.845C383.747 134.595 380.97 134.883 378.555 136.231C376.14 137.58 374.543 139.796 373.696 142.316C371.902 147.618 373.181 153.826 375.682 158.683C377.181 161.596 379.16 164.251 381.272 166.77C383.384 169.289 385.364 171.459 387.757 173.498C393.171 178.105 399.474 181.618 405.718 185.037C406.837 185.65 407.753 183.928 406.634 183.315C401.213 180.344 395.769 177.315 390.898 173.526C386.027 169.738 381.812 164.99 378.608 159.834C375.681 155.116 373.972 149.215 375.356 143.721C375.979 141.246 377.417 139.063 379.751 137.803C382.084 136.543 384.782 136.517 387.281 136.896C390.109 137.329 392.832 138.278 395.431 139.421C396.618 139.94 397.763 140.551 398.932 141.11C399.786 141.511 401.23 142.346 402.226 142.029C402.855 141.828 403.396 140.959 403.825 140.491L405.042 139.18L406.745 137.345C408.398 135.565 410.402 134.122 412.524 132.912C415.106 131.432 417.733 130.576 420.754 130.986C423.298 131.324 425.971 132.353 427.672 134.286C431.004 138.091 430.063 144.028 428.633 148.4C426.72 154.232 423.538 159.75 420.128 164.873C416.619 170.144 412.647 175.096 408.592 179.981C407.589 181.191 406.579 182.394 405.57 183.597C404.761 184.564 406.235 185.863 407.05 184.889L407.056 184.87Z" fill="black"/>
<path d="M401.252 141.13C403.11 142.37 406.665 144.703 408.523 145.943C408.89 146.189 409.284 146.472 409.36 146.901C409.482 147.573 408.755 148.076 408.133 148.4C403.752 150.653 399.365 152.906 394.985 155.16C398.829 156.909 402.666 158.658 406.511 160.408C407.084 160.668 407.715 160.997 407.879 161.583C408.042 162.162 407.693 162.749 407.354 163.258C405.914 165.415 404.474 167.571 403.028 169.728" fill="#B580D1"/>
<path d="M400.791 141.994C402.242 142.959 403.699 143.922 405.155 144.879C405.887 145.364 406.626 145.849 407.358 146.334C407.627 146.514 408.003 146.688 408.215 146.922C408.427 147.156 408.395 146.913 408.286 147.132C408.22 147.264 407.895 147.417 407.778 147.481C405.644 148.718 403.359 149.756 401.159 150.886C398.959 152.017 396.681 153.19 394.435 154.342C393.773 154.68 393.888 155.721 394.523 156.011C398.067 157.627 401.618 159.243 405.162 160.86C405.633 161.074 406.917 161.407 406.895 162.003C406.879 162.346 406.477 162.8 406.285 163.082C406.013 163.484 405.747 163.892 405.475 164.294C404.363 165.955 403.25 167.616 402.145 169.284C401.447 170.335 403.226 171.204 403.918 170.166C405.178 168.277 406.439 166.395 407.699 164.507C408.225 163.723 408.92 162.885 408.909 161.903C408.902 161.005 408.367 160.342 407.609 159.878C406.769 159.366 405.798 159.011 404.903 158.605C403.872 158.136 402.834 157.661 401.803 157.192C399.686 156.224 397.57 155.263 395.453 154.295L395.54 155.964C398.168 154.611 400.797 153.264 403.432 151.91C404.749 151.234 406.06 150.557 407.377 149.88C408.351 149.383 409.626 148.916 410.166 147.899C411.226 145.878 408.245 144.581 406.899 143.689C405.173 142.552 403.447 141.415 401.727 140.265C401.278 139.966 400.614 140.266 400.383 140.685C400.103 141.197 400.369 141.694 400.811 141.987L400.791 141.994Z" fill="black"/>
<path d="M283.304 339.923C293.014 334.593 303.461 330.597 314.32 328.223C329.811 324.839 346.283 324.633 361.268 329.753C379.171 335.868 394.214 349.72 401.685 366.954C407.069 379.366 408.576 393.085 408.992 406.591C409.921 436.706 405.575 467.403 392.68 494.708C379.785 522.012 357.824 545.721 329.796 557.475C328.152 558.162 326.378 558.903 325.458 560.417C324.931 561.29 324.752 562.316 324.577 563.315L311.923 638.082C311.424 641.02 308.741 643.096 305.749 642.85C262.553 639.4 224.668 637.723 189.664 636.832C185.647 636.727 182.969 632.702 184.447 628.993C197.113 597.198 206.877 568.011 213.998 536.105C223.554 493.323 213.3 447.332 227.312 405.768C236.711 377.888 257.391 354.141 283.297 339.917L283.304 339.923Z" fill="#FFB88A"/>
<path d="M395.625 313.053C410.492 299.301 419.548 278.844 416.178 259.235C415.325 254.291 413.631 249.308 410.125 245.628C402.365 237.474 387.796 238.628 378.98 245.755C370.164 252.881 366.166 264.206 364.545 275.212C363.504 282.279 363.281 289.592 365.367 296.429C367.452 303.26 372.103 309.593 378.777 312.563C385.452 315.534 394.176 314.519 399.109 309.212" fill="#FFC595"/>
<path d="M335.695 160.208L209.901 186.692C198.381 189.117 191.038 200.132 193.501 211.296L255.867 494.029C258.33 505.192 269.664 512.275 281.184 509.85L406.978 483.367C418.498 480.942 425.84 469.926 423.378 458.763L361.012 176.03C358.549 164.867 347.214 157.783 335.695 160.208Z" fill="url(#paint0_linear_682_908)" stroke="black" stroke-width="24.81" stroke-miterlimit="10"/>
<path d="M306.54 172.702L242.113 186.265C238.518 187.022 236.228 190.458 236.996 193.941C237.764 197.424 241.301 199.634 244.895 198.877L309.322 185.314C312.917 184.557 315.207 181.121 314.439 177.638C313.671 174.155 310.134 171.945 306.54 172.702Z" fill="black" stroke="black" stroke-width="9" stroke-miterlimit="10"/>
<path d="M314.315 523.51C320.676 515.188 321.301 504.002 320.009 493.743C316.9 469.067 303.764 445.745 284.051 429.91C279.994 426.647 275.624 423.653 272.367 419.637C269.531 416.148 267.655 412.027 266.011 407.874C261.501 396.493 260.981 385.845 258.046 373.986C256.125 366.23 259.498 363.571 256.128 350.178C254.435 343.436 250.63 334.312 247.035 329.331C242.938 323.654 234.832 318.297 228.311 315.454C222.282 312.831 210.816 313.176 209.002 315.824C206.966 318.8 207.272 324.626 207.652 328.173C208.959 340.382 218.714 374.964 217.622 397.697C217.057 409.384 214.199 420.843 211.641 432.28C207.863 449.177 204.712 466.448 206.183 483.663C207.653 500.878 214.224 518.232 227.313 529.905" fill="url(#paint1_linear_682_908)"/>
<path d="M431.617 416.694C426.636 415.877 421.446 416.544 416.582 417.97C410.806 419.663 405.301 422.46 401.019 426.589C397.505 429.979 394.907 434.18 393.007 438.616C390.329 444.864 389.015 451.938 391.047 458.396C393.079 464.854 396.772 470.191 403.732 470.368C415.601 468.192 425.733 463.271 434.994 455.727C439.462 452.087 443.542 447.801 445.882 442.618C448.223 437.435 448.65 431.242 446.007 426.211C443.489 421.42 438.427 418.177 433.018 416.969C432.553 416.865 432.081 416.773 431.618 416.7L431.617 416.694Z" fill="#FFC595"/>
<path d="M423.284 361.222C421.355 361.556 419.462 362.063 417.683 362.7C404.443 367.442 393.481 377.88 388.345 390.628C386.458 395.302 385.326 400.396 386.133 405.348C386.94 410.301 389.917 415.081 394.576 417.246C398.62 419.127 402.392 419.381 407.82 418.669C423.361 413.179 436.222 400.851 441.984 385.808C444.492 379.253 445.47 371.24 440.921 365.838C436.841 360.993 429.868 360.074 423.29 361.209L423.284 361.222Z" fill="#FFC595"/>
<path d="M407.644 307.743C390.342 315.362 377.991 332.968 377.474 351.425C377.324 356.809 378.339 362.688 382.441 366.304C387.228 370.524 394.491 370.225 400.804 368.232C415.094 360.256 425.92 346.588 430.12 331.136C431.573 325.799 432.244 320.051 430.41 314.842C428.577 309.634 423.736 305.139 418.056 304.985C415.827 304.928 413.631 305.509 411.53 306.227C410.207 306.678 408.914 307.179 407.643 307.737L407.644 307.743Z" fill="#FFC595"/>
<g opacity="0.8">
<path d="M153.525 179.382C158.319 181.947 163.105 184.512 167.899 187.077C168.494 180.778 168.166 174.398 166.927 168.195C172.507 164.031 177.78 159.488 182.709 154.609C185.383 151.961 188.085 148.956 188.525 145.282C188.848 142.557 187.874 139.869 186.827 137.326C182.931 127.864 177.847 118.872 171.715 110.607C169.541 107.678 167.025 104.69 163.48 103.565C158.173 101.88 152.592 104.887 147.903 107.855C131.569 118.175 115.843 129.406 100.834 141.473C97.9568 143.789 94.9044 146.457 94.3324 150.034C93.8702 152.908 95.1258 155.75 96.4034 158.377C101.028 167.872 106.367 177.031 112.365 185.769C116.045 191.126 121.275 196.918 127.881 196.189C130.658 195.881 133.147 194.419 135.489 192.939C142.082 188.779 148.386 184.195 154.357 179.228" fill="#C93535"/>
</g>
<path d="M136.681 140.373C136.216 138.259 133.708 137.202 131.482 137.073C127.725 136.857 123.894 138.41 121.399 141.152C118.904 143.893 117.801 147.771 118.49 151.359C119.69 157.584 125.872 161.969 132.263 163.229C138.654 164.495 145.268 163.281 151.676 162.065C152.461 161.914 153.279 161.754 153.893 161.25C154.532 160.726 154.836 159.928 155.102 159.158C158.126 150.617 160.376 141.052 156.741 132.758C155.878 130.794 154.66 128.913 152.85 127.697C149.45 125.407 144.52 126.067 141.287 128.602C138.055 131.138 136.374 135.168 135.944 139.171" fill="white"/>
<path d="M137.565 140.081C136.481 135.815 130.51 135.696 127.035 136.674C122.642 137.913 119.218 141.253 117.915 145.496C116.612 149.739 117.619 153.945 120.273 157.269C122.927 160.593 126.492 162.609 130.436 163.719C135.503 165.152 140.961 164.761 146.104 163.961C147.439 163.755 148.773 163.517 150.106 163.272C151.308 163.047 152.628 162.933 153.733 162.403C155.833 161.4 156.317 158.558 156.947 156.592C158.464 151.86 159.599 146.934 159.544 141.961C159.497 137.395 158.413 132.225 155.286 128.661C152.394 125.369 147.689 124.615 143.629 126.243C139.569 127.872 136.843 131.68 135.665 135.755C135.36 136.811 135.157 137.894 135.034 138.98C134.901 140.124 136.721 140.52 136.854 139.362C137.284 135.618 138.743 131.69 141.896 129.281C144.741 127.109 149.086 126.344 152.218 128.37C155.661 130.592 157.036 135.328 157.494 139.09C158.014 143.412 157.403 147.767 156.345 151.978C155.81 154.106 155.154 156.208 154.43 158.282C154.152 159.085 153.92 160.125 153.168 160.649C152.3 161.25 150.843 161.308 149.827 161.497C145.167 162.362 140.389 163.137 135.631 162.774C128.558 162.235 120.218 158.138 119.293 150.548C118.755 146.137 120.969 141.73 124.937 139.486C126.833 138.41 129.064 137.86 131.255 137.958C133.079 138.036 135.302 138.746 135.789 140.653C136.074 141.781 137.844 141.204 137.558 140.081L137.565 140.081Z" fill="white"/>
<path d="M365.061 100.403C360.563 103.457 356.071 106.511 351.573 109.565C350.321 103.363 349.979 96.9832 350.561 90.6844C344.576 87.1287 338.856 83.1648 333.443 78.8294C330.507 76.4767 327.506 73.772 326.683 70.1643C326.076 67.4887 326.763 64.7126 327.538 62.0741C330.421 52.2553 334.535 42.7787 339.768 33.9154C341.622 30.7742 343.812 27.5378 347.219 26.0467C352.32 23.8138 358.185 26.2191 363.159 28.6778C380.484 37.2264 397.299 46.7451 413.489 57.1692C416.593 59.1706 419.908 61.5033 420.852 65.0013C421.613 67.811 420.662 70.7689 419.666 73.516C416.062 83.4439 411.712 93.1138 406.663 102.433C403.564 108.147 398.97 114.456 392.324 114.425C389.53 114.41 386.902 113.217 384.418 111.991C377.426 108.547 370.676 104.65 364.218 100.337" fill="#F49F9F"/>
<path d="M377.726 59.8396C377.966 57.6881 380.35 56.3736 382.55 56.0122C386.264 55.4032 390.236 56.5447 393.005 59.0096C395.773 61.4745 397.276 65.2145 396.968 68.8559C396.426 75.1719 390.738 80.182 384.514 82.1057C378.291 84.0358 371.586 83.5228 365.086 82.986C364.289 82.9181 363.459 82.8455 362.796 82.4087C362.106 81.9539 361.719 81.1923 361.374 80.4545C357.472 72.2786 354.232 63.0018 356.978 54.3727C357.63 52.3287 358.645 50.3302 360.318 48.9304C363.458 46.2967 368.431 46.4356 371.911 48.6175C375.392 50.7994 377.486 54.631 378.332 58.567" fill="white"/>
<path d="M378.636 60.0309C378.885 58.3054 380.577 57.3957 382.182 57.001C384.051 56.5408 386.099 56.7108 387.933 57.2347C391.871 58.365 394.809 61.506 395.77 65.3455C397.61 72.7123 391.156 79.0034 384.445 81.1724C379.936 82.6311 375.109 82.7107 370.411 82.4668C369.228 82.4063 368.037 82.3203 366.859 82.2273C365.808 82.1468 364.381 82.2478 363.447 81.7348C362.686 81.3161 362.35 80.3774 362.005 79.6459C361.509 78.5864 361.027 77.5262 360.571 76.4517C358.866 72.4251 357.459 68.2149 357.023 63.863C356.618 59.8198 357 55.3022 359.158 51.7185C361.432 47.9414 366.233 46.9714 370.199 48.7465C374.164 50.5216 376.54 54.7649 377.448 58.8592C377.701 59.9897 379.47 59.4119 379.217 58.2879C378.284 54.0851 375.996 49.9923 372.136 47.6946C368.641 45.6169 363.684 45.3931 360.286 47.8143C356.444 50.5496 355.246 55.7886 355.055 60.1476C354.841 65.0764 356.092 69.9863 357.826 74.5735C358.701 76.8861 359.669 79.2002 360.817 81.4015C361.321 82.3701 362.016 83.1671 363.089 83.5436C364.244 83.9545 365.569 83.93 366.787 84.0275C372.187 84.4476 377.68 84.7078 382.999 83.4585C390.972 81.5914 399.135 74.8485 397.825 66.1421C397.161 61.7506 394.284 57.8568 390.058 56.076C386.439 54.5476 381.048 54.1787 378.068 57.2111C377.41 57.879 376.968 58.7294 376.836 59.6475C376.67 60.7935 378.49 61.1824 378.656 60.0299L378.636 60.0309Z" fill="white"/>
<path d="M114.605 303.935C119.759 314.126 125.135 324.227 130.732 334.22C131.262 335.168 131.847 336.165 132.843 336.713C134.586 337.675 136.826 336.93 138.699 336.159C153.495 330.075 168.006 323.399 182.175 316.153C183.57 315.439 185.103 314.551 185.435 313.125C185.63 312.274 185.351 311.404 185.068 310.579C181.714 300.914 177.159 291.603 171.523 282.885C170.885 281.897 170.136 280.845 168.932 280.514C167.56 280.134 166.181 280.924 164.878 281.483C147.161 289.059 131.711 296.14 114.711 303.787" fill="#A9A8A9"/>
<path d="M113.322 304.759C116.334 310.707 119.417 316.619 122.572 322.495C124.175 325.48 125.797 328.457 127.44 331.427C128.206 332.815 128.953 334.223 129.764 335.589C130.576 336.955 131.588 337.962 133.099 338.425C136.046 339.33 139.232 337.56 141.867 336.464C144.984 335.163 148.094 333.836 151.188 332.484C157.397 329.767 163.553 326.942 169.658 324.016C172.694 322.558 175.722 321.08 178.728 319.571C180.229 318.82 181.742 318.069 183.227 317.293C184.427 316.661 185.594 315.915 186.348 314.783C187.225 313.47 187.126 311.957 186.671 310.52C186.215 309.084 185.645 307.615 185.096 306.183C183.954 303.206 182.693 300.274 181.329 297.386C179.964 294.499 178.51 291.68 176.944 288.907C176.18 287.551 175.39 286.21 174.58 284.876C173.77 283.542 173.056 282.255 172.121 281.083C171.187 279.911 169.925 278.989 168.309 278.931C166.693 278.874 165.329 279.67 163.94 280.26C160.818 281.594 157.703 282.947 154.589 284.306C142.581 289.552 130.649 294.968 118.709 300.353C117.212 301.026 115.721 301.699 114.223 302.372C113.468 302.709 112.966 303.434 113.249 304.259C113.486 304.957 114.43 305.541 115.191 305.197C126.527 300.096 137.84 294.945 149.212 289.92C154.977 287.375 160.747 284.816 166.557 282.364C167.724 281.87 168.64 281.667 169.526 282.686C170.413 283.706 171.073 284.989 171.773 286.129C173.354 288.695 174.845 291.311 176.244 293.977C178.992 299.215 181.35 304.649 183.322 310.205C183.682 311.227 184.402 312.494 183.572 313.449C182.805 314.33 181.512 314.831 180.486 315.35C177.63 316.805 174.759 318.236 171.881 319.641C166.137 322.451 160.334 325.16 154.493 327.774C151.608 329.063 148.709 330.334 145.802 331.579C142.895 332.824 140.053 334.156 137.095 335.191C136.061 335.555 134.724 335.987 133.676 335.455C132.628 334.922 132.036 333.421 131.485 332.436C129.933 329.661 128.4 326.873 126.887 324.077C123.883 318.536 120.938 312.965 118.065 307.365C117.337 305.956 116.623 304.54 115.902 303.124C115.538 302.406 114.413 302.298 113.781 302.699C113.02 303.185 112.971 304.041 113.336 304.758L113.322 304.759Z" fill="white"/>
<path d="M116.217 304.548C115.501 305.122 116.544 306.075 117.433 306.377C129.138 310.343 141.434 312.875 153.897 313.892C154.372 313.932 154.874 313.964 155.297 313.767C155.87 313.511 156.159 312.92 156.397 312.378C160.626 302.934 164.862 293.497 169.091 284.053C169.246 283.702 169.407 283.339 169.387 282.958C169.293 281.29 166.517 281.487 164.863 282.221C148.595 289.474 132.321 296.728 116.054 303.981" fill="#A9A8A9"/>
<path d="M115.079 303.554C114.32 304.331 114.277 305.425 114.877 306.305C115.534 307.272 116.608 307.668 117.686 308.024C119.837 308.745 122.004 309.413 124.19 310.034C128.669 311.311 133.21 312.377 137.794 313.234C142.378 314.091 147.031 314.745 151.692 315.184C152.804 315.287 154.003 315.522 155.107 315.347C156.211 315.173 157.045 314.444 157.567 313.473C158.703 311.358 159.562 309.058 160.539 306.868C162.526 302.44 164.506 298.013 166.493 293.592C167.466 291.427 168.432 289.264 169.405 287.099C170.186 285.352 171.882 282.879 170.173 281.172C168.964 279.976 167.036 280.077 165.49 280.449C164.575 280.666 163.738 281.11 162.892 281.484C161.784 281.976 160.684 282.466 159.577 282.964C155.058 284.979 150.538 286.994 146.019 289.009C135.872 293.53 125.733 298.05 115.587 302.578C114.832 302.915 114.33 303.639 114.613 304.464C114.85 305.163 115.793 305.74 116.555 305.402C124.689 301.776 132.823 298.149 140.963 294.522C145.079 292.683 149.201 290.851 153.317 289.012C157.354 287.21 161.359 285.287 165.456 283.605C165.978 283.39 166.502 283.233 167.047 283.191C167.346 283.169 167.552 283.165 167.753 283.193C168.277 283.275 167.647 283.198 167.928 283.222C167.928 283.222 168.11 283.265 167.954 283.215C167.927 283.203 167.867 283.064 167.879 283.044C167.785 283.152 167.673 283.559 167.619 283.672C167.422 284.115 167.219 284.559 167.022 285.002C166.556 286.034 166.097 287.067 165.632 288.099C163.848 292.083 162.058 296.067 160.275 300.051C158.491 304.035 156.847 308.012 154.959 311.911C154.905 312.017 154.764 312.373 154.693 312.422C154.481 312.569 153.545 312.379 153.31 312.359C152.272 312.265 151.234 312.165 150.202 312.058C148.03 311.823 145.863 311.543 143.7 311.217C139.078 310.517 134.498 309.608 129.967 308.49C127.658 307.92 125.366 307.297 123.084 306.616C121.994 306.292 120.91 305.955 119.832 305.605C119.249 305.416 118.64 305.254 118.068 305.025C117.959 304.979 117.837 304.934 117.734 304.875C117.012 304.454 118.128 304.77 117.369 305.547C118.729 304.151 116.452 302.164 115.092 303.56L115.079 303.554Z" fill="white"/>
<path d="M332.441 316.435C341.135 300.753 349.417 284.853 357.283 268.762C363.367 256.319 369.255 243.564 371.387 229.965C373.053 219.312 371.947 207.39 364.389 199.529C360.138 195.106 354.246 192.431 348.207 190.901C329.921 186.261 307.68 193.357 299.821 210.074C293.256 224.035 297.771 240.334 303.166 254.719C310.932 275.435 320.38 295.558 331.391 314.836" fill="#D37272"/>
<path d="M335.547 242.222C346.159 241.664 354.323 232.87 353.783 222.581C353.242 212.292 344.201 204.404 333.589 204.962C322.977 205.521 314.813 214.314 315.353 224.604C315.894 234.893 324.935 242.781 335.547 242.222Z" fill="white"/>
<path d="M331.534 386.267C328.103 384.897 324.672 383.526 321.241 382.156C320.376 381.807 319.471 381.454 318.51 381.434C317.203 381.406 315.987 381.993 314.836 382.538C310.038 384.839 304.902 386.913 299.436 387.265C292.468 387.709 285.518 385.199 280.666 381.022C275.815 376.851 273.003 371.144 272.208 365.286C271.099 357.106 273.963 348.438 280.431 342.166C286.893 335.893 296.973 332.274 306.634 333.22C314.472 333.99 321.634 337.625 326.885 342.551C331.161 346.559 334.329 351.548 335.072 356.944C335.822 362.345 333.941 368.144 329.409 372.079C328.052 373.261 326.434 374.309 325.626 375.806C324.818 377.302 330.086 385.736 331.912 386.234" fill="#FFFEFF"/>
<path d="M331.996 385.409C330.076 384.644 328.163 383.879 326.244 383.114C324.324 382.349 322.467 381.516 320.533 380.862C318.6 380.208 316.949 380.508 315.192 381.311C313.435 382.115 311.635 382.991 309.8 383.721C306.216 385.15 302.454 386.221 298.561 386.342C295.121 386.445 291.642 385.82 288.464 384.56C282.011 382.004 276.975 376.977 274.582 370.622C272.189 364.266 272.481 357.776 275.006 351.808C280.247 339.422 294.737 332.321 308.182 334.398C314.881 335.435 321.139 338.588 326.028 343.113C330.904 347.619 334.767 353.916 334.182 360.674C333.921 363.705 332.786 366.712 330.874 369.139C329.825 370.467 328.567 371.528 327.258 372.612C326.287 373.419 324.885 374.507 324.592 375.789C324.23 377.385 325.501 379.392 326.231 380.717C327.262 382.582 328.458 384.426 329.94 385.982C330.44 386.505 330.985 386.981 331.697 387.202C332.916 387.583 333.337 385.687 332.131 385.311C332.469 385.416 331.936 385.154 332.11 385.293C331.977 385.184 331.839 385.088 331.713 384.972C331.412 384.703 331.137 384.407 330.881 384.098C330.176 383.25 329.542 382.346 328.954 381.421C328.017 379.958 326.682 377.896 326.546 376.313C326.525 376.036 326.495 376.348 326.552 376.171C326.569 376.112 326.285 376.54 326.639 376.056C326.732 375.922 326.818 375.788 326.918 375.66C327.461 374.96 328.171 374.379 328.867 373.813C330.178 372.749 331.413 371.656 332.443 370.329C334.403 367.803 335.678 364.795 336.08 361.666C336.969 354.737 333.693 348.196 328.946 343.211C324.199 338.227 318.019 334.649 311.289 333.033C297.715 329.773 282.203 335.552 275.048 347.392C271.62 353.059 270.246 359.89 271.386 366.363C272.525 372.836 276.329 379.402 282.137 383.381C288.027 387.413 295.427 389.111 302.56 387.863C306.483 387.178 310.207 385.761 313.792 384.105C315.543 383.296 317.416 382.041 319.429 382.542C320.367 382.777 321.263 383.202 322.155 383.555C323.216 383.978 324.272 384.4 325.334 384.823C327.253 385.588 329.166 386.353 331.086 387.118C332.264 387.592 333.193 385.869 332.002 385.396L331.996 385.409Z" fill="black"/>
<path d="M126.857 435.343C124.557 435.955 122.263 436.567 119.963 437.179C119.384 437.332 118.78 437.5 118.285 437.855C117.611 438.337 117.224 439.094 116.868 439.81C115.359 442.798 113.591 445.799 110.957 448.057C107.595 450.928 103.049 452.305 98.8961 452.039C94.7433 451.773 91.0091 449.96 88.2369 447.301C84.3696 443.589 82.3158 438.114 83.0668 432.491C83.8174 426.862 87.4724 421.203 92.7631 418.01C97.059 415.419 102.165 414.536 106.829 415.027C110.622 415.429 114.25 416.743 116.812 419.193C119.373 421.637 120.764 425.286 120.053 429C119.838 430.116 119.445 431.261 119.634 432.324C119.83 433.386 125.914 435.651 127.043 435.204" fill="#FFFEFF"/>
<path d="M126.606 434.613C125.351 434.944 124.102 435.281 122.846 435.612C121.591 435.943 120.219 436.222 118.963 436.663C116.862 437.4 116.233 439.385 115.266 441.148C113.064 445.161 110.094 448.632 105.595 450.271C101.547 451.744 97.0542 451.606 93.1721 449.768C89.2557 447.913 86.2346 444.576 84.7532 440.609C81.7815 432.63 85.5617 423.52 92.751 418.915C96.6389 416.423 101.429 415.37 106.046 415.715C110.341 416.038 114.943 417.618 117.489 421.167C118.913 423.147 119.634 425.591 119.381 428.008C119.217 429.587 117.956 432.096 119.463 433.373C120.551 434.292 122.065 434.826 123.403 435.292C124.502 435.674 126.096 436.313 127.275 435.928C128.245 435.612 127.748 434.146 126.778 434.468C126.661 434.507 126.852 434.477 126.693 434.486C126.626 434.489 126.56 434.493 126.493 434.49C126.178 434.461 125.862 434.4 125.551 434.326C124.857 434.169 124.172 433.953 123.506 433.703C122.799 433.437 122.097 433.144 121.425 432.792C121.11 432.628 120.474 432.319 120.354 432.06C120.421 432.205 120.36 431.801 120.356 431.73C120.354 431.427 120.391 431.127 120.443 430.834C120.555 430.182 120.741 429.539 120.853 428.88C121.03 427.798 121.058 426.685 120.914 425.601C120.622 423.458 119.74 421.391 118.338 419.701C115.528 416.314 111.082 414.648 106.714 414.232C102.012 413.788 97.1995 414.662 93.0661 416.921C85.363 421.133 80.7372 430.132 82.514 438.581C84.3092 447.126 92.6269 453.726 101.759 452.728C106.338 452.229 110.555 450.036 113.492 446.579C114.998 444.807 116.193 442.805 117.251 440.753C117.772 439.75 118.178 438.604 119.334 438.156C120.49 437.707 121.811 437.463 123.027 437.141C124.387 436.778 125.741 436.416 127.102 436.054C128.088 435.789 127.591 434.328 126.605 434.594L126.606 434.613Z" fill="black"/>
</g>
<defs>
<linearGradient id="paint0_linear_682_908" x1="221.062" y1="299.513" x2="417.756" y2="388.844" gradientUnits="userSpaceOnUse">
<stop offset="0.01" stop-color="#2BAEE3"/>
<stop offset="0.04" stop-color="#35B1E4"/>
<stop offset="0.08" stop-color="#50BCE8"/>
<stop offset="0.14" stop-color="#7DCDED"/>
<stop offset="0.2" stop-color="#BBE5F6"/>
<stop offset="0.27" stop-color="white"/>
<stop offset="0.5" stop-color="#4BBAE7"/>
<stop offset="0.68" stop-color="white"/>
<stop offset="1" stop-color="#1EA9E1"/>
</linearGradient>
<linearGradient id="paint1_linear_682_908" x1="212.628" y1="499.918" x2="268.43" y2="402.601" gradientUnits="userSpaceOnUse">
<stop offset="0.19" stop-color="#FFB88A"/>
<stop offset="0.71" stop-color="#FEC28F"/>
<stop offset="0.85" stop-color="#FEC691"/>
</linearGradient>
<clipPath id="clip0_682_908">
<rect width="602" height="658" fill="white"/>
</clipPath>
</defs>
</svg>
