<svg width="118" height="44" viewBox="0 0 118 44" fill="none" xmlns="http://www.w3.org/2000/svg">
<rect width="118" height="44" fill="#D9D9D9"/>
<path d="M41.4089 27V15.3636H42.818V25.75H48.2271V27H41.4089ZM53.7725 27.1818C52.9847 27.1818 52.2934 26.9943 51.6987 26.6193C51.1078 26.2443 50.6456 25.7197 50.3123 25.0455C49.9828 24.3712 49.818 23.5833 49.818 22.6818C49.818 21.7727 49.9828 20.9792 50.3123 20.3011C50.6456 19.6231 51.1078 19.0966 51.6987 18.7216C52.2934 18.3466 52.9847 18.1591 53.7725 18.1591C54.5604 18.1591 55.2498 18.3466 55.8407 18.7216C56.4354 19.0966 56.8975 19.6231 57.2271 20.3011C57.5604 20.9792 57.7271 21.7727 57.7271 22.6818C57.7271 23.5833 57.5604 24.3712 57.2271 25.0455C56.8975 25.7197 56.4354 26.2443 55.8407 26.6193C55.2498 26.9943 54.5604 27.1818 53.7725 27.1818ZM53.7725 25.9773C54.371 25.9773 54.8634 25.8239 55.2498 25.517C55.6362 25.2102 55.9222 24.8068 56.1078 24.3068C56.2934 23.8068 56.3862 23.2652 56.3862 22.6818C56.3862 22.0985 56.2934 21.5549 56.1078 21.0511C55.9222 20.5473 55.6362 20.1402 55.2498 19.8295C54.8634 19.5189 54.371 19.3636 53.7725 19.3636C53.174 19.3636 52.6816 19.5189 52.2953 19.8295C51.9089 20.1402 51.6229 20.5473 51.4373 21.0511C51.2517 21.5549 51.1589 22.0985 51.1589 22.6818C51.1589 23.2652 51.2517 23.8068 51.4373 24.3068C51.6229 24.8068 51.9089 25.2102 52.2953 25.517C52.6816 25.8239 53.174 25.9773 53.7725 25.9773ZM63.2967 30.4545C62.6489 30.4545 62.0921 30.3712 61.6262 30.2045C61.1603 30.0417 60.7721 29.8258 60.4614 29.5568C60.1546 29.2917 59.9103 29.0076 59.7285 28.7045L60.7967 27.9545C60.9179 28.1136 61.0713 28.2955 61.2569 28.5C61.4425 28.7083 61.6963 28.8883 62.0183 29.0398C62.344 29.1951 62.7702 29.2727 63.2967 29.2727C64.0012 29.2727 64.5827 29.1023 65.041 28.7614C65.4993 28.4205 65.7285 27.8864 65.7285 27.1591V25.3864H65.6149C65.5164 25.5455 65.3762 25.7424 65.1944 25.9773C65.0164 26.2083 64.7588 26.4148 64.4217 26.5966C64.0883 26.7746 63.6376 26.8636 63.0694 26.8636C62.3649 26.8636 61.7323 26.697 61.1717 26.3636C60.6149 26.0303 60.1736 25.5455 59.8478 24.9091C59.5258 24.2727 59.3649 23.5 59.3649 22.5909C59.3649 21.697 59.5221 20.9186 59.8364 20.2557C60.1508 19.589 60.5883 19.0739 61.1489 18.7102C61.7096 18.3428 62.3573 18.1591 63.0921 18.1591C63.6603 18.1591 64.1111 18.2538 64.4444 18.4432C64.7815 18.6288 65.0391 18.8409 65.2171 19.0795C65.3989 19.3144 65.5391 19.5076 65.6376 19.6591H65.7739V18.2727H67.0694V27.25C67.0694 28 66.8989 28.6098 66.558 29.0795C66.2209 29.553 65.7664 29.8996 65.1944 30.1193C64.6262 30.3428 63.9936 30.4545 63.2967 30.4545ZM63.2512 25.6591C63.7891 25.6591 64.2436 25.536 64.6149 25.2898C64.9861 25.0436 65.2683 24.6894 65.4614 24.2273C65.6546 23.7652 65.7512 23.2121 65.7512 22.5682C65.7512 21.9394 65.6565 21.3845 65.4671 20.9034C65.2777 20.4223 64.9974 20.0455 64.6262 19.7727C64.255 19.5 63.7967 19.3636 63.2512 19.3636C62.683 19.3636 62.2096 19.5076 61.8308 19.7955C61.4558 20.0833 61.1736 20.4697 60.9842 20.9545C60.7986 21.4394 60.7058 21.9773 60.7058 22.5682C60.7058 23.1742 60.8005 23.7102 60.9899 24.1761C61.183 24.6383 61.4671 25.0019 61.8421 25.267C62.2209 25.5284 62.6906 25.6591 63.2512 25.6591ZM73.0694 27.1818C72.2815 27.1818 71.5902 26.9943 70.9955 26.6193C70.4046 26.2443 69.9425 25.7197 69.6092 25.0455C69.2796 24.3712 69.1149 23.5833 69.1149 22.6818C69.1149 21.7727 69.2796 20.9792 69.6092 20.3011C69.9425 19.6231 70.4046 19.0966 70.9955 18.7216C71.5902 18.3466 72.2815 18.1591 73.0694 18.1591C73.8573 18.1591 74.5467 18.3466 75.1376 18.7216C75.7323 19.0966 76.1944 19.6231 76.5239 20.3011C76.8573 20.9792 77.0239 21.7727 77.0239 22.6818C77.0239 23.5833 76.8573 24.3712 76.5239 25.0455C76.1944 25.7197 75.7323 26.2443 75.1376 26.6193C74.5467 26.9943 73.8573 27.1818 73.0694 27.1818ZM73.0694 25.9773C73.6679 25.9773 74.1603 25.8239 74.5467 25.517C74.933 25.2102 75.219 24.8068 75.4046 24.3068C75.5902 23.8068 75.683 23.2652 75.683 22.6818C75.683 22.0985 75.5902 21.5549 75.4046 21.0511C75.219 20.5473 74.933 20.1402 74.5467 19.8295C74.1603 19.5189 73.6679 19.3636 73.0694 19.3636C72.4709 19.3636 71.9785 19.5189 71.5921 19.8295C71.2058 20.1402 70.9198 20.5473 70.7342 21.0511C70.5486 21.5549 70.4558 22.0985 70.4558 22.6818C70.4558 23.2652 70.5486 23.8068 70.7342 24.3068C70.9198 24.8068 71.2058 25.2102 71.5921 25.517C71.9785 25.8239 72.4709 25.9773 73.0694 25.9773Z" fill="black"/>
</svg>
