<svg width="159" height="159" viewBox="0 0 159 159" fill="none" xmlns="http://www.w3.org/2000/svg">
<path id="XMLID 46" d="M61.1926 16.0419C61.1926 16.0419 14.4719 77.195 7.51448 104.138C0.557056 131.081 0.978 138.991 0.978 138.991C0.978 138.991 61.588 164.495 100.726 157.084C139.993 149.707 155.898 129.453 155.898 129.453C155.898 129.453 165.75 89.7092 143.575 81.246C134.474 77.801 120.829 76.0565 112.901 87.1475C101.985 102.393 104.98 109.873 104.98 109.873C100.983 103.093 94.2133 93.2702 76.7644 88.7644C59.3156 84.2587 45.1746 100.862 45.1746 100.862L60.7038 46.0239L92.4482 51.3472L104.815 27.3063L91.9054 0.981109L61.1926 16.0419Z" fill="#6169BC"/>
</svg>
