<svg width="150" height="152" viewBox="0 0 150 152" fill="none" xmlns="http://www.w3.org/2000/svg">
<path id="Vector" d="M130.347 84.0577C133.386 78.0966 136.37 72.0812 139.409 66.1201C140.603 63.7357 141.851 61.0261 141.146 58.4249C140.549 56.203 138.595 54.5772 136.75 53.2224C127.742 46.611 117.486 41.5711 106.741 38.4822C111.408 32.792 116.238 26.8309 117.866 19.6776C119.494 12.5242 116.889 3.79931 110.105 0.927139C103.865 -1.72827 96.2677 1.63163 92.252 7.05084C88.2364 12.47 87.0968 19.5692 86.7712 26.3432C74.1815 21.4659 61.5918 16.6428 49.0021 11.7655C47.8625 11.332 46.5602 10.8985 45.4206 11.332C44.281 11.7655 43.6298 13.012 43.0871 14.0958C38.0947 24.3923 33.1565 34.743 28.164 45.0394C38.5831 46.34 50.6843 49.1038 54.7543 58.75C58.6614 68.0168 51.3898 79.7223 41.4049 81.4023C30.9858 83.1364 20.2412 74.6825 18.4504 64.2776C10.3648 74.845 4.06994 86.7673 0 99.394C14.0006 102.591 27.35 108.444 39.2343 116.464C31.5828 119.174 25.8306 127.032 26.1562 135.161C26.4818 143.29 33.265 150.822 41.4049 151.473C49.5448 152.123 57.6304 145.24 57.7932 137.112C57.8475 133.264 57.3048 127.899 61.0491 127.032C62.5686 126.653 64.1423 127.411 65.5532 128.116C73.7474 132.343 81.8873 136.57 90.0814 140.743C92.7404 142.097 95.6165 143.561 98.6011 143.29C110.051 142.368 108.098 122.534 118.137 116.952C119.656 121.992 125.463 124.864 130.672 124.377C135.882 123.889 140.549 120.637 144.13 116.79C148.092 112.563 151.185 106.71 149.557 101.128C147.061 92.62 135.99 90.7775 127.091 90.5607C128.176 88.393 129.261 86.2254 130.347 84.1119V84.0577Z" fill="#5C60D5"/>
</svg>
